<?xml version="1.0" encoding="utf-8"?>
<!-- Generator: Adobe Illustrator 25.4.1, SVG Export Plug-In . SVG Version: 6.00 Build 0)  -->
<svg version="1.1" id="Layer_1" xmlns="http://www.w3.org/2000/svg" xmlns:xlink="http://www.w3.org/1999/xlink" x="0px" y="0px"
	 width="136.2px" height="81.6px" viewBox="0 0 136.2 81.6" style="enable-background:new 0 0 136.2 81.6;" xml:space="preserve">
<style type="text/css">
	.st0{fill:#FFFFFF;}
</style>
<polygon class="st0" points="56.7,27.9 51.2,41.9 45.8,27.9 42.9,40.8 41,40.8 45.3,21.5 51.2,37 57.2,21.5 61.4,40.8 59.5,40.8 "/>
<path class="st0" d="M82.3,35.3c-0.5,1.1-1.2,2.1-2,3c-0.8,0.8-1.8,1.5-3,2C76.2,40.8,75,41,73.7,41c-1.3,0-2.5-0.2-3.6-0.7
	s-2.1-1.2-3-2c-0.8-0.8-1.5-1.8-2-3c-0.5-1.1-0.7-2.3-0.7-3.6c0-1.3,0.2-2.5,0.7-3.6c0.5-1.1,1.2-2.1,2-3c0.8-0.8,1.8-1.5,3-2
	s2.3-0.7,3.6-0.7c1.3,0,2.5,0.2,3.6,0.7c1.1,0.5,2.1,1.2,3,2c0.8,0.8,1.5,1.8,2,3c0.5,1.1,0.7,2.3,0.7,3.6
	C83,33,82.8,34.2,82.3,35.3 M79,26.4c-1.5-1.5-3.2-2.2-5.3-2.2c-2,0-3.8,0.7-5.3,2.2c-1.5,1.5-2.2,3.2-2.2,5.3
	c0,2.1,0.7,3.8,2.2,5.3c1.5,1.5,3.2,2.2,5.3,2.2c2.1,0,3.8-0.7,5.3-2.2c1.5-1.5,2.2-3.2,2.2-5.3C81.2,29.7,80.4,27.9,79,26.4"/>
<path class="st0" d="M98.7,37.9c-0.3,0.7-0.8,1.2-1.4,1.7c-1.1,0.8-2.6,1.3-4.4,1.3h-5.6V22.7h4.9c2.7,0,4.4,0.8,5.2,2.5
	c0.3,0.6,0.4,1.2,0.4,1.8c0,0.6,0,1.1-0.1,1.4s-0.2,0.7-0.4,1c-0.4,0.7-0.9,1.2-1.6,1.5c1.1,0.3,1.9,0.9,2.5,1.7
	c0.6,0.9,0.9,1.9,0.9,3.2C99.2,36.5,99.1,37.2,98.7,37.9 M92.3,24.5h-3v5.7h3.6c1,0,1.7-0.2,2.3-0.7c0.6-0.5,0.9-1.2,0.9-2.2
	C96,25.4,94.8,24.5,92.3,24.5 M97,34c-0.2-0.4-0.5-0.8-0.8-1.1c-0.7-0.6-1.5-0.9-2.5-0.9h-4.5v7h4.2c1.1,0,2.1-0.3,2.8-1
	c0.7-0.7,1.1-1.6,1.1-2.6C97.4,34.9,97.3,34.4,97,34"/>
<rect x="103.2" y="22.7" class="st0" width="1.9" height="18.1"/>
<polygon class="st0" points="118.6,39 118.6,40.8 112.1,40.8 111.1,40.8 110.2,40.8 110.2,22.7 112.1,22.7 112.1,39 "/>
<polygon class="st0" points="122.2,40.8 122.2,22.7 133,22.7 133,24.4 124.1,24.4 124.1,30.9 132.7,30.9 132.7,32.6 124.1,32.6 
	124.1,39.1 133,39.1 133,40.8 "/>
<polygon class="st0" points="1.5,48.1 3.6,48.1 9.8,62.7 16,48.1 18,48.1 9.8,67.3 "/>
<path class="st0" d="M30.8,66.3l-1.9-4.9h-8l-2,4.9h-2l8-19.4l8,19.4H30.8z M28.2,59.6l-3.3-8.4l-3.3,8.4H28.2z"/>
<path class="st0" d="M35.7,52.9c0-1.7,0.6-3,1.8-3.8c1.2-0.8,2.6-1.3,4.2-1.3c3.5,0,5.6,1.3,6.3,3.9h-2c-0.4-1.6-1.8-2.3-4.3-2.3
	c-1.8,0-3,0.5-3.7,1.6c-0.3,0.4-0.4,0.9-0.4,1.5c0,1.1,0.6,2,1.8,2.6c0.6,0.3,1.8,0.7,3.6,1.2c1.8,0.5,3.2,1,4,1.6
	c1.2,0.8,1.7,2,1.7,3.5c0,1.8-0.7,3.2-2.2,4.1c-1.2,0.8-2.7,1.2-4.5,1.2c-4,0-6.4-1.5-7-4.6h2.2c0.3,1.9,1.9,2.9,4.8,2.9
	c2,0,3.4-0.6,4.3-1.7c0.3-0.4,0.5-1,0.5-1.8c0-0.8-0.3-1.4-0.9-1.8c-0.8-0.7-2.4-1.3-4.8-1.9C37.6,56.8,35.7,55.2,35.7,52.9"/>
<path class="st0" d="M66,64.9c-1.5,1.1-3.2,1.6-5.1,1.6c-2.5,0-4.7-0.9-6.4-2.8c-1.7-1.8-2.6-4-2.6-6.5c0-1.3,0.2-2.5,0.7-3.6
	c0.5-1.1,1.1-2.1,1.9-3c1.8-1.8,3.9-2.8,6.4-2.8c1.9,0,3.5,0.5,5.1,1.6c1.5,1.1,2.6,2.5,3.3,4.2h-2.1c-1-1.8-2.4-3-4.4-3.6
	c-0.6-0.2-1.4-0.3-2.2-0.3S59,50,58.1,50.4c-0.9,0.4-1.6,0.9-2.3,1.6c-1.4,1.4-2.1,3.2-2.1,5.2c0,2,0.7,3.7,2.1,5.2
	c1.4,1.5,3.1,2.2,5.1,2.2c1.4,0,2.6-0.4,3.7-1.1c1.1-0.7,2-1.7,2.6-2.8h2.1C68.7,62.4,67.6,63.8,66,64.9"/>
<path class="st0" d="M84.5,64.9c-1.2,1.1-2.8,1.6-4.8,1.6c-2,0-3.6-0.5-4.9-1.6c-1.3-1.1-1.9-2.7-1.9-4.6V48.1h1.9v12.4
	c0,1.4,0.5,2.4,1.5,3.1c0.9,0.6,2,1,3.4,1c2.2,0,3.7-0.7,4.5-2.2c0.3-0.5,0.4-1.1,0.4-1.9V48.1h1.9v12.1
	C86.4,62.2,85.8,63.8,84.5,64.9"/>
<polygon class="st0" points="99.5,64.4 99.5,66.3 93,66.3 92.1,66.3 91.1,66.3 91.1,48.1 93,48.1 93,64.4 "/>
<path class="st0" d="M117.1,66.3l-1.9-4.9h-8l-2,4.9h-2l8-19.4l8,19.4H117.1z M114.4,59.6l-3.3-8.4l-3.3,8.4H114.4z"/>
<path class="st0" d="M132.4,57.5c-1,0.9-2.2,1.4-3.6,1.5l5.6,7.2h-2.5l-5.3-7.2h-2.2v7.2h-1.9V48.1h5.8c1.6,0,3,0.5,4.1,1.5
	c1.1,1.1,1.7,2.4,1.7,3.9C134.1,55.2,133.5,56.5,132.4,57.5 M128.6,57.3c1.1,0,1.9-0.4,2.6-1.1c0.7-0.7,1-1.6,1-2.7
	c0-1.1-0.3-1.9-1-2.6c-0.7-0.7-1.5-1-2.6-1h-4.2v7.4H128.6z"/>
<path class="st0" d="M47.6,76.5c-0.5,0.4-1.1,0.7-1.7,0.7h-1.7v3.1h-0.8v-7.8h2.5c0.7,0,1.3,0.2,1.7,0.7c0.5,0.4,0.7,1,0.7,1.7
	C48.3,75.5,48.1,76,47.6,76.5 M45.9,76.4c0.4,0,0.8-0.2,1.1-0.5c0.3-0.3,0.4-0.7,0.4-1.1s-0.1-0.8-0.4-1.1c-0.3-0.3-0.7-0.4-1.1-0.4
	h-1.8v3.2H45.9z"/>
<polygon class="st0" points="53,80.2 53,72.5 53.8,72.5 53.8,76 57.3,76 57.3,72.5 58.1,72.5 58.1,80.2 57.3,80.2 57.3,76.8 
	53.8,76.8 53.8,80.2 "/>
<polygon class="st0" points="66.4,80.2 65.6,80.2 65.6,76.6 62.7,72.5 63.7,72.5 66,75.8 68.3,72.5 69.4,72.5 66.4,76.6 "/>
<path class="st0" d="M73.7,74.5c0-0.7,0.3-1.3,0.8-1.6c0.5-0.4,1.1-0.5,1.8-0.5c1.5,0,2.4,0.6,2.7,1.7h-0.9c-0.2-0.7-0.8-1-1.8-1
	c-0.8,0-1.3,0.2-1.6,0.7c-0.1,0.2-0.2,0.4-0.2,0.6c0,0.5,0.3,0.8,0.8,1.1c0.2,0.1,0.8,0.3,1.6,0.5c0.8,0.2,1.4,0.4,1.7,0.7
	c0.5,0.4,0.7,0.8,0.7,1.5c0,0.8-0.3,1.4-0.9,1.8c-0.5,0.3-1.2,0.5-1.9,0.5c-1.7,0-2.7-0.7-3-2h0.9c0.1,0.8,0.8,1.2,2,1.2
	c0.9,0,1.5-0.2,1.8-0.7c0.1-0.2,0.2-0.4,0.2-0.8c0-0.3-0.1-0.6-0.4-0.8c-0.4-0.3-1-0.6-2-0.8C74.5,76.2,73.7,75.5,73.7,74.5"/>
<rect x="84.1" y="72.5" class="st0" width="0.8" height="7.8"/>
<path class="st0" d="M95.9,79.7c-0.7,0.5-1.4,0.7-2.2,0.7c-1.1,0-2-0.4-2.8-1.2c-0.7-0.8-1.1-1.7-1.1-2.8c0-0.5,0.1-1.1,0.3-1.5
	c0.2-0.5,0.5-0.9,0.8-1.3c0.8-0.8,1.7-1.2,2.8-1.2c0.8,0,1.5,0.2,2.2,0.7c0.7,0.5,1.1,1.1,1.4,1.8h-0.9c-0.4-0.8-1-1.3-1.9-1.5
	c-0.3-0.1-0.6-0.1-0.9-0.1c-0.4,0-0.7,0.1-1.1,0.3c-0.4,0.2-0.7,0.4-1,0.7c-0.6,0.6-0.9,1.4-0.9,2.2c0,0.9,0.3,1.6,0.9,2.2
	c0.6,0.6,1.3,0.9,2.2,0.9c0.6,0,1.1-0.2,1.6-0.5c0.5-0.3,0.9-0.7,1.1-1.2h0.9C97,78.6,96.5,79.2,95.9,79.7"/>
<rect x="102.1" y="72.5" class="st0" width="0.8" height="7.8"/>
<path class="st0" d="M113.4,80.2l-0.8-2.1h-3.4l-0.8,2.1h-0.9l3.4-8.3l3.4,8.3H113.4z M112.3,77.4l-1.4-3.6l-1.4,3.6H112.3z"/>
<polygon class="st0" points="119.6,80.2 118.8,80.2 118.8,72 123.2,78.2 123.2,72.5 124,72.5 124,80.7 119.6,74.5 "/>
<path class="st0" d="M129.1,74.5c0-0.7,0.3-1.3,0.8-1.6c0.5-0.4,1.1-0.5,1.8-0.5c1.5,0,2.4,0.6,2.7,1.7h-0.9c-0.2-0.7-0.8-1-1.8-1
	c-0.8,0-1.3,0.2-1.6,0.7c-0.1,0.2-0.2,0.4-0.2,0.6c0,0.5,0.3,0.8,0.8,1.1c0.2,0.1,0.8,0.3,1.6,0.5c0.8,0.2,1.4,0.4,1.7,0.7
	c0.5,0.4,0.7,0.8,0.7,1.5c0,0.8-0.3,1.4-0.9,1.8c-0.5,0.3-1.2,0.5-1.9,0.5c-1.7,0-2.7-0.7-3-2h0.9c0.1,0.8,0.8,1.2,2,1.2
	c0.9,0,1.5-0.2,1.8-0.7c0.1-0.2,0.2-0.4,0.2-0.8c0-0.3-0.1-0.6-0.4-0.8c-0.4-0.3-1-0.6-2.1-0.8C129.9,76.2,129.1,75.5,129.1,74.5"/>
<path class="st0" d="M24.9,40.7c-5.5,0-11.4-1.7-11.4-5.3c0-2.2,2.1-3.9,6.1-4.8l0.4,1.6c-1.5,0.3-4.8,1.3-4.8,3.3
	c0,2.1,4.3,3.7,9.8,3.7c5.5,0,9.8-1.6,9.8-3.7c0-1.8-2.6-2.8-4.9-3.3l0.4-1.6c4.1,0.9,6.1,2.6,6.1,4.8C36.3,39,30.4,40.7,24.9,40.7"
	/>
<path class="st0" d="M24.9,0.9c-5.7,0-10.3,4.6-10.3,10.3c0,8.1,8.9,22.2,9.3,22.8l1,1.5l1-1.5c0.4-0.6,9.3-14.8,9.3-22.8
	C35.2,5.5,30.6,0.9,24.9,0.9 M24.9,18.8c-3.6,0-6.5-2.9-6.5-6.5s2.9-6.5,6.5-6.5c3.6,0,6.5,2.9,6.5,6.5S28.5,18.8,24.9,18.8"/>
</svg>
