<?xml version="1.0" encoding="utf-8"?>
<!-- Generator: Adobe Illustrator 25.4.1, SVG Export Plug-In . SVG Version: 6.00 Build 0)  -->
<svg version="1.1" id="Layer_1" xmlns="http://www.w3.org/2000/svg" xmlns:xlink="http://www.w3.org/1999/xlink" x="0px" y="0px"
	 width="290.9px" height="66.9px" viewBox="0 0 290.9 66.9" style="enable-background:new 0 0 290.9 66.9;" xml:space="preserve">
<style type="text/css">
	.st0{fill:#049FDA;}
</style>
<polygon points="49.5,31.7 43.6,46.8 37.7,31.7 34.7,45.6 32.6,45.6 37.2,24.8 43.6,41.5 50,24.8 54.6,45.6 52.5,45.6 "/>
<path d="M73.5,30.2c-1.6-1.6-3.5-2.4-5.7-2.4c-2.2,0-4.1,0.8-5.7,2.4c-1.6,1.6-2.4,3.5-2.4,5.7c0,2.2,0.8,4.1,2.4,5.7
	c1.6,1.6,3.5,2.4,5.7,2.4c2.2,0,4.1-0.8,5.7-2.4c1.6-1.6,2.4-3.5,2.4-5.7C75.9,33.6,75.1,31.7,73.5,30.2 M77.1,39.7
	c-0.5,1.2-1.2,2.3-2.2,3.2c-0.9,0.9-2,1.6-3.2,2.2c-1.2,0.5-2.5,0.8-3.9,0.8c-1.4,0-2.7-0.3-3.9-0.8c-1.2-0.5-2.3-1.2-3.2-2.2
	c-0.9-0.9-1.6-2-2.2-3.2c-0.5-1.2-0.8-2.5-0.8-3.9s0.3-2.7,0.8-3.9c0.5-1.2,1.2-2.3,2.2-3.2c0.9-0.9,2-1.6,3.2-2.1
	c1.2-0.5,2.5-0.8,3.9-0.8c1.4,0,2.7,0.3,3.9,0.8c1.2,0.5,2.3,1.2,3.2,2.1s1.6,2,2.2,3.2c0.5,1.2,0.8,2.5,0.8,3.9
	S77.6,38.5,77.1,39.7"/>
<path d="M92.9,38.3c-0.2-0.4-0.5-0.8-0.9-1.1c-0.8-0.7-1.7-1-2.7-1h-4.9v7.6h4.5c1.2,0,2.2-0.4,3-1.1c0.8-0.7,1.2-1.7,1.2-2.8
	C93.3,39.2,93.2,38.7,92.9,38.3 M87.8,28h-3.3v6.1h3.8c1,0,1.9-0.3,2.5-0.8c0.6-0.5,0.9-1.3,0.9-2.4C91.8,29,90.5,28,87.8,28
	 M94.7,42.5c-0.4,0.7-0.9,1.3-1.5,1.8c-1.2,0.9-2.8,1.4-4.8,1.4h-6V26.1h5.3c2.9,0,4.7,0.9,5.6,2.6c0.3,0.6,0.5,1.3,0.5,1.9
	c0,0.7-0.1,1.2-0.2,1.5c-0.1,0.4-0.3,0.7-0.5,1.1c-0.4,0.7-1,1.3-1.7,1.6c1.1,0.3,2.1,0.9,2.7,1.9c0.7,0.9,1,2.1,1,3.5
	C95.3,41,95.1,41.7,94.7,42.5"/>
<rect x="99.6" y="26.1" width="2" height="19.5"/>
<polygon points="116.1,43.6 116.1,45.6 109.1,45.6 108.1,45.6 107.1,45.6 107.1,26.1 109.1,26.1 109.1,43.6 "/>
<polygon points="120,45.6 120,26.1 131.6,26.1 131.6,28 122,28 122,34.9 131.3,34.9 131.3,36.8 122,36.8 122,43.8 131.6,43.8 
	131.6,45.6 "/>
<polygon points="144.2,26.1 146.4,26.1 153.1,41.8 159.8,26.1 161.9,26.1 153.1,46.8 "/>
<path d="M172.9,38.5l-3.5-9l-3.6,9H172.9z M175.7,45.6l-2.1-5.3h-8.6l-2.1,5.3h-2.2l8.6-20.9l8.6,20.9H175.7z"/>
<path d="M181,31.3c0-1.8,0.6-3.2,1.9-4.1c1.3-0.9,2.8-1.4,4.5-1.4c3.8,0,6.1,1.4,6.8,4.3h-2.2c-0.4-1.7-1.9-2.5-4.6-2.5
	c-1.9,0-3.2,0.6-4,1.7c-0.3,0.4-0.4,0.9-0.4,1.6c0,1.2,0.6,2.1,2,2.8c0.6,0.3,1.9,0.7,3.9,1.3c2,0.5,3.4,1.1,4.3,1.7
	c1.2,0.9,1.9,2.1,1.9,3.7c0,2-0.8,3.4-2.3,4.5c-1.3,0.9-2.9,1.3-4.8,1.3c-4.3,0-6.8-1.6-7.5-4.9h2.4c0.4,2.1,2.1,3.1,5.1,3.1
	c2.2,0,3.7-0.6,4.6-1.8c0.3-0.5,0.5-1.1,0.5-1.9c0-0.8-0.3-1.5-0.9-2c-0.9-0.7-2.6-1.4-5.1-2C183,35.5,181,33.8,181,31.3"/>
<path d="M213.6,44.2c-1.7,1.2-3.5,1.7-5.5,1.7c-2.7,0-5-1-6.9-3c-1.9-2-2.8-4.3-2.8-7c0-1.4,0.2-2.6,0.7-3.9
	c0.5-1.2,1.2-2.3,2.1-3.2c1.9-2,4.2-3,6.9-3c2,0,3.8,0.6,5.5,1.7c1.6,1.1,2.8,2.6,3.6,4.5H215c-1.1-1.9-2.6-3.2-4.7-3.8
	c-0.7-0.2-1.5-0.3-2.4-0.3c-0.9,0-1.8,0.2-2.8,0.6c-0.9,0.4-1.8,1-2.5,1.7c-1.5,1.5-2.2,3.4-2.2,5.6c0,2.2,0.7,4,2.2,5.6
	c1.5,1.6,3.4,2.4,5.5,2.4c1.5,0,2.8-0.4,4-1.1c1.2-0.8,2.2-1.8,2.8-3h2.2C216.5,41.5,215.3,43,213.6,44.2"/>
<path d="M233.5,44.2c-1.3,1.1-3,1.7-5.2,1.7c-2.2,0-3.9-0.6-5.2-1.7c-1.4-1.2-2.1-2.9-2.1-5V26.1h2v13.4c0,1.5,0.5,2.6,1.6,3.4
	c0.9,0.7,2.2,1,3.7,1c2.4,0,4-0.8,4.8-2.4c0.3-0.6,0.4-1.2,0.4-2V26.1h2v13.1C235.6,41.3,234.9,43,233.5,44.2"/>
<polygon points="249.6,43.6 249.6,45.6 242.7,45.6 241.6,45.6 240.6,45.6 240.6,26.1 242.7,26.1 242.7,43.6 "/>
<path d="M265.7,38.5l-3.5-9l-3.6,9H265.7z M268.5,45.6l-2.1-5.3h-8.6l-2.1,5.3h-2.2l8.6-20.9l8.6,20.9H268.5z"/>
<path d="M280.9,36c1.1,0,2.1-0.4,2.8-1.1c0.7-0.8,1.1-1.8,1.1-2.9c0-1.1-0.4-2.1-1.1-2.8c-0.7-0.7-1.7-1.1-2.8-1.1h-4.5v8H280.9z
	 M285,36.3c-1.1,1-2.4,1.5-3.9,1.6l6,7.7h-2.7l-5.7-7.7h-2.3v7.7h-2V26.1h6.3c1.7,0,3.2,0.5,4.4,1.6c1.2,1.1,1.8,2.5,1.8,4.2
	C286.8,33.7,286.2,35.1,285,36.3"/>
<path class="st0" d="M192,56.5c0.5,0,0.9-0.2,1.2-0.5c0.3-0.3,0.5-0.7,0.5-1.2c0-0.5-0.2-0.9-0.5-1.2c-0.3-0.3-0.7-0.5-1.2-0.5h-1.9
	v3.4H192z M193.8,56.7c-0.5,0.5-1.1,0.7-1.9,0.7h-1.8v3.3h-0.9v-8.4h2.7c0.7,0,1.4,0.2,1.9,0.7c0.5,0.5,0.8,1.1,0.8,1.8
	C194.5,55.6,194.3,56.2,193.8,56.7"/>
<polygon class="st0" points="199.6,60.7 199.6,52.3 200.4,52.3 200.4,56.1 204.2,56.1 204.2,52.3 205.1,52.3 205.1,60.7 204.2,60.7 
	204.2,56.9 200.4,56.9 200.4,60.7 "/>
<polygon class="st0" points="214,60.7 213.2,60.7 213.2,56.7 210,52.3 211.1,52.3 213.6,55.9 216.1,52.3 217.2,52.3 214,56.7 "/>
<path class="st0" d="M221.9,54.5c0-0.8,0.3-1.4,0.8-1.8c0.6-0.4,1.2-0.6,1.9-0.6c1.6,0,2.6,0.6,2.9,1.8h-0.9c-0.2-0.7-0.8-1.1-2-1.1
	c-0.8,0-1.4,0.2-1.7,0.7c-0.1,0.2-0.2,0.4-0.2,0.7c0,0.5,0.3,0.9,0.8,1.2c0.3,0.1,0.8,0.3,1.7,0.5c0.9,0.2,1.5,0.5,1.9,0.7
	c0.5,0.4,0.8,0.9,0.8,1.6c0,0.8-0.3,1.5-1,1.9c-0.6,0.4-1.2,0.5-2.1,0.5c-1.9,0-2.9-0.7-3.2-2.1h1c0.2,0.9,0.9,1.3,2.2,1.3
	c0.9,0,1.6-0.3,2-0.8c0.1-0.2,0.2-0.5,0.2-0.8c0-0.3-0.1-0.6-0.4-0.9c-0.4-0.3-1.1-0.6-2.2-0.9C222.7,56.3,221.9,55.6,221.9,54.5"/>
<rect x="233" y="52.3" class="st0" width="0.9" height="8.4"/>
<path class="st0" d="M245.7,60.1c-0.7,0.5-1.5,0.7-2.4,0.7c-1.2,0-2.1-0.4-3-1.3c-0.8-0.8-1.2-1.8-1.2-3c0-0.6,0.1-1.1,0.3-1.7
	c0.2-0.5,0.5-1,0.9-1.4c0.8-0.9,1.8-1.3,3-1.3c0.9,0,1.6,0.2,2.3,0.7c0.7,0.5,1.2,1.1,1.5,1.9h-0.9c-0.5-0.8-1.1-1.4-2-1.6
	c-0.3-0.1-0.6-0.1-1-0.1c-0.4,0-0.8,0.1-1.2,0.3c-0.4,0.2-0.8,0.4-1.1,0.7c-0.6,0.7-1,1.5-1,2.4c0,0.9,0.3,1.7,1,2.4
	c0.7,0.7,1.4,1,2.4,1c0.6,0,1.2-0.2,1.7-0.5c0.5-0.3,0.9-0.8,1.2-1.3h0.9C247,58.9,246.5,59.6,245.7,60.1"/>
<rect x="252.4" y="52.3" class="st0" width="0.9" height="8.4"/>
<path class="st0" d="M263.4,57.6l-1.5-3.9l-1.5,3.9H263.4z M264.6,60.7l-0.9-2.3H260l-0.9,2.3h-0.9l3.7-8.9l3.7,8.9H264.6z"/>
<polygon class="st0" points="271.3,60.7 270.4,60.7 270.4,51.8 275.1,58.5 275.1,52.3 276,52.3 276,61.2 271.3,54.5 "/>
<path class="st0" d="M281.5,54.5c0-0.8,0.3-1.4,0.8-1.8c0.5-0.4,1.2-0.6,1.9-0.6c1.6,0,2.6,0.6,2.9,1.8h-0.9c-0.2-0.7-0.8-1.1-2-1.1
	c-0.8,0-1.4,0.2-1.7,0.7c-0.1,0.2-0.2,0.4-0.2,0.7c0,0.5,0.3,0.9,0.8,1.2c0.3,0.1,0.8,0.3,1.7,0.5c0.9,0.2,1.5,0.5,1.9,0.7
	c0.5,0.4,0.8,0.9,0.8,1.6c0,0.8-0.3,1.5-1,1.9c-0.6,0.4-1.2,0.5-2.1,0.5c-1.9,0-2.9-0.7-3.2-2.1h1c0.2,0.9,0.9,1.3,2.2,1.3
	c0.9,0,1.6-0.3,2-0.8c0.1-0.2,0.2-0.5,0.2-0.8c0-0.3-0.1-0.6-0.4-0.9c-0.4-0.3-1.1-0.6-2.2-0.9C282.3,56.3,281.5,55.6,281.5,54.5"/>
<path class="st0" d="M15.2,45.5c-5.9,0-12.3-1.8-12.3-5.7c0-2.4,2.3-4.2,6.5-5.2l0.4,1.7c-1.6,0.4-5.2,1.4-5.2,3.5
	c0,2.2,4.6,4,10.5,4c5.9,0,10.5-1.7,10.5-4c0-1.9-2.8-3-5.2-3.5l0.4-1.7c4.4,1,6.6,2.8,6.6,5.2C27.5,43.7,21.1,45.5,15.2,45.5"/>
<path class="st0" d="M15.2,21.9c-3.8,0-7-3.1-7-7c0-3.8,3.1-7,7-7c3.8,0,7,3.1,7,7C22.2,18.8,19,21.9,15.2,21.9 M15.2,2.7
	c-6.1,0-11.1,5-11.1,11.1c0,8.7,9.6,23.9,10,24.6l1,1.6l1-1.6c0.4-0.6,10-16,10-24.6C26.3,7.7,21.3,2.7,15.2,2.7"/>
</svg>
