<?xml version="1.0" encoding="utf-8"?>
<!-- Generator: Adobe Illustrator 23.0.5, SVG Export Plug-In . SVG Version: 6.00 Build 0)  -->
<svg version="1.1" id="Layer_1" xmlns="http://www.w3.org/2000/svg" xmlns:xlink="http://www.w3.org/1999/xlink" x="0px" y="0px"
	 width="131.2px" height="94.9px" viewBox="0 0 131.2 94.9" style="enable-background:new 0 0 131.2 94.9;" xml:space="preserve">
<style type="text/css">
	.st0{fill:#62BAD1;}
</style>
<g>
	<path class="st0" d="M70.6,94.9c-2.2,0-3.7-1.8-2.9-4l10.9-40.1V4c0-2.2,1.8-4,4-4h44.5c2.2,0,4,1.8,4,4v42.3
		c0,2.5-1.1,5.1-2.6,7.3l-28.1,38c-1.5,2.2-4,3.3-6.6,3.3L70.6,94.9L70.6,94.9z M3.1,94.9c-2.2,0-3.7-1.8-2.9-4l10.9-40.1V4
		c0-2.2,1.8-4,4-4h44.5c2.2,0,4,1.8,4,4v42.3c0,2.5-1.1,5.1-2.5,7.3L33,91.6c-1.5,2.2-4,3.3-6.6,3.3L3.1,94.9L3.1,94.9z"/>
</g>
</svg>
