<?xml version="1.0" encoding="utf-8"?>
<!-- Generator: Adobe Illustrator 23.0.5, SVG Export Plug-In . SVG Version: 6.00 Build 0)  -->
<svg version="1.1" id="Layer_1" xmlns="http://www.w3.org/2000/svg" xmlns:xlink="http://www.w3.org/1999/xlink" x="0px" y="0px"
	 width="75.2px" height="75.2px" viewBox="0 0 75.2 75.2" style="enable-background:new 0 0 75.2 75.2;" xml:space="preserve">
<style type="text/css">
	.st0{fill:#FFFFFF;}
	.st1{fill:#422963;}
</style>
<circle class="st0" cx="37.6" cy="37.6" r="37.6"/>
<g>
	<path class="st1" d="M36.3,25.4c0.6,0,0.9,0.5,0.8,1l-2.8,10.4v12.1c0,0.6-0.5,1-1,1H21.7c-0.6,0-1-0.5-1-1V37.9
		c0-0.7,0.3-1.3,0.7-1.9l7.3-9.8c0.4-0.6,1-0.9,1.7-0.9H36.3z M53.8,25.4c0.6,0,0.9,0.5,0.8,1l-2.8,10.4v12.1c0,0.6-0.5,1-1,1H39.2
		c-0.6,0-1-0.5-1-1V37.9c0-0.7,0.3-1.3,0.7-1.9l7.3-9.8c0.4-0.6,1-0.9,1.7-0.9H53.8z"/>
</g>
</svg>
