<?xml version="1.0" encoding="utf-8"?>
<!-- Generator: Adobe Illustrator 24.0.1, SVG Export Plug-In . SVG Version: 6.00 Build 0)  -->
<svg version="1.1" id="Layer_1" xmlns="http://www.w3.org/2000/svg" xmlns:xlink="http://www.w3.org/1999/xlink" x="0px" y="0px"
	 viewBox="0 0 576.19 293.96" style="enable-background:new 0 0 576.19 293.96;" xml:space="preserve">
<style type="text/css">
	.st0{fill:#00609D;}
	.st1{fill:#38B2CB;}
	.st2{fill:#ED1670;}
	.st3{fill:#4A225F;}
	.st4{fill:#4C2360;}
	.st5{fill:none;stroke:#0085CA;stroke-width:2.521;stroke-linecap:round;stroke-linejoin:round;stroke-miterlimit:10;}
</style>
<path class="st0" d="M63.56,73.93c-5.49,15.31-10.23,36.41-13.54,47.44c-0.6,2.01,0.1,4.65,1.41,5.68c1.3,1.02,3.34,1.15,5.36-2.81
	c4.78-9.36,12.89-22.82,20.2-34.83c24.39-40.06,49.57-65.7,60.05-76.34c1.63-1.65,1.29-4.1-0.28-5.8
	c-7.48-8.1-38.12-11.91-45.01,2.03C84.73,23.51,74.17,44.38,63.56,73.93"/>
<path class="st1" d="M138.42,23.04c-9.09,8.95-23.36,24.36-46.02,58.4c-0.78,1.16,0.36,2.65,1.7,2.2c4.12-1.35,36.4-8.19,42.18-8.77
	c2.37-0.24,4.55-1.34,6.1-3.12c2.37-2.71,3.38-4.01,5.05-7.27c0.85-1.67,3.9-7.89,4.63-16.2c0.91-10.49-3.52-19.6-7.21-24.24
	C143.16,21.93,140.35,21.14,138.42,23.04"/>
<path class="st2" d="M92.85,93.06c-8.05,2.22-8.93,2.44-15.56,12.45c-4.88,7.85-9.13,14.98-12.8,21.35
	c-0.67,1.16-0.49,2.6,0.43,3.59c4.46,4.81,12.45,5.14,17.17,0.57l41.18-38.87c2.1-2.04,0.76-5.82-2.18-5.59
	C114.54,87.05,97.2,91.58,92.85,93.06"/>
<path class="st0" d="M60.36,24.07c1.21,5.74,3.03,12.95,4.12,17.01c0.39,1.44,2.41,1.57,3,0.18c2.62-6.2,5.16-10.98,7.58-16.13
	c1.17-2.48,1.22-5.61-0.56-7.72c-2.22-2.65-6.04-5.9-12.53-8.1c-2.49-0.85-4.37,0.97-4.02,3.55C58.47,16.79,59.24,18.74,60.36,24.07
	"/>
<path class="st3" d="M275.99,10.57c3.77,3.87,5.66,9.72,5.66,17.54v24.34c0,1.24-1.01,2.25-2.25,2.25H269
	c-1.24,0-2.25-1.01-2.25-2.25V28.59c0-6.51-3.2-10.85-9.33-10.85c-5.66,0-9.44,4.24-10.94,9.52v25.19c0,1.24-1.01,2.25-2.25,2.25
	h-10.4c-1.24,0-2.25-1.01-2.25-2.25V28.59c0-6.32-3.78-10.85-9.53-10.85c-5.94,0-9.71,3.87-10.75,9.52v25.19
	c0,1.24-1.01,2.25-2.25,2.25h-10.4c-1.24,0-2.25-1.01-2.25-2.25V7.92c0-1.24,1.01-2.25,2.25-2.25h10.4c1.24,0,2.25,1.01,2.25,2.25
	v6.99c0.09-1.89,1.51-4.05,4.25-6.5c2.74-2.45,6.13-3.68,10.38-3.68c7.07,0,14.05,4.05,17.91,10.94c0.85-2.36,2.92-4.71,6.04-7.17
	c3.11-2.54,7.17-3.77,12.07-3.77C267.6,4.73,272.31,6.71,275.99,10.57"/>
<path class="st3" d="M338.19,8.81l-19.36,44.54c-0.36,0.82-1.17,1.35-2.07,1.35h-10.91c-0.9,0-1.71-0.53-2.06-1.35L284.53,8.81
	c-0.64-1.48,0.44-3.14,2.06-3.14h10.25c0.91,0,1.73,0.55,2.08,1.39l12.43,30.1l12.35-30.1c0.35-0.84,1.17-1.39,2.08-1.39h10.34
	C337.74,5.67,338.83,7.33,338.19,8.81"/>
<path class="st3" d="M390.39,11.42c5,4.43,7.45,10.75,7.45,18.77c0,8.02-2.45,14.34-7.45,18.77c-4.9,4.43-10.37,6.69-16.51,6.69
	c-2.55,0-4.81-0.47-6.97-1.32c-4.15-1.79-5.47-3.49-6.51-5.09h-0.66v18.1c0,1.24-1.01,2.25-2.25,2.25h-10.4
	c-1.24,0-2.25-1.01-2.25-2.25V7.92c0-1.24,1.01-2.25,2.25-2.25h11.44c0.72,0.03,1.1,0.42,1.2,1.09v4.38h0.66
	c0.47-0.85,1.23-1.6,2.07-2.45c1.79-1.8,6.41-3.96,11.41-3.96C380.02,4.72,385.49,6.99,390.39,11.42 M383.51,30.19
	c0-7.64-5.28-12.35-11.97-12.35c-6.51,0-12.07,4.72-12.07,12.35c0,7.64,5.56,12.35,12.07,12.35
	C378.22,42.54,383.51,37.83,383.51,30.19"/>
<path class="st3" d="M238.35,87.17l-18.65,42.54c-0.19,0.43-0.61,0.7-1.08,0.7h-4.42c-0.47,0-0.89-0.28-1.08-0.7l-19.37-44.19h6.48
	c0.47,0,0.9,0.28,1.08,0.71l13.98,32.59c0.41,0.95,1.76,0.95,2.17,0l13.97-32.59c0.19-0.43,0.62-0.71,1.09-0.71h4.76
	C238.12,85.52,238.69,86.39,238.35,87.17"/>
<path class="st3" d="M246.41,125.06c-4.57-4.14-6.91-9.84-6.91-17.09c0-7.25,2.33-12.95,6.91-17.09c4.66-4.14,9.85-6.21,15.54-6.21
	c7.51,0,13.9,4.23,16.31,9.41h0.52v-7.37c0-0.65,0.53-1.18,1.18-1.18h4.63c0.65,0,1.18,0.53,1.18,1.18v42.54
	c0,0.65-0.53,1.18-1.18,1.18h-4.63c-0.65,0-1.18-0.53-1.18-1.18v-7.37h-0.52c-2.42,5.18-8.81,9.41-16.31,9.41
	C256.26,131.28,251.08,129.2,246.41,125.06 M262.73,124.97c4.23,0,8.03-1.47,11.31-4.49c3.28-3.02,4.92-7.17,4.92-12.52
	c0-5.35-1.64-9.5-4.92-12.52c-3.28-3.02-7.07-4.49-11.31-4.49c-4.24,0-8.03,1.47-11.4,4.49c-3.28,3.02-4.92,7.17-4.92,12.52
	c0,5.35,1.64,9.5,4.92,12.52C254.7,123.51,258.5,124.97,262.73,124.97"/>
<path class="st3" d="M318.47,96.04c-0.53,0.16-1.08-0.11-1.35-0.6c-1.83-3.31-4.62-5.01-8.28-5.01c-4.4,0-7.34,2.51-7.34,6.22
	c0,3.02,2.07,5.35,6.22,6.82l4.49,1.55c8.63,3.11,12.95,6.21,12.95,13.12c0,4.14-1.56,7.34-4.75,9.67
	c-3.11,2.33-6.82,3.45-11.23,3.45c-7.94,0-13.94-4.04-15.94-10.86c-0.18-0.62,0.21-1.28,0.83-1.46l3.52-1.01
	c0.6-0.17,1.18,0.17,1.41,0.75c1.65,4.22,5.55,6.81,10.26,6.81c4.92,0,9.07-2.67,9.07-7.17c0-3.28-2.5-5.78-7.43-7.51L305.9,109
	c-7.51-2.68-11.22-6.82-11.22-12.44c0-3.53,1.29-6.39,3.97-8.54c2.68-2.24,6.04-3.37,10.02-3.37c6.99,0,12.26,3.8,14.76,9.93
	L318.47,96.04z"/>
<path class="st3" d="M371.09,95.62l-4.83,2.05c-0.5,0.22-1.08,0.03-1.4-0.42c-3-4.22-7.23-6.29-12.85-6.29
	c-4.14,0-7.86,1.56-11.22,4.58c-3.37,3.02-5.01,7.17-5.01,12.52c0,5.27,1.64,9.41,5.01,12.43c3.36,3.02,7.08,4.49,11.22,4.49
	c5.61,0,9.92-2.07,12.85-6.2c0.32-0.45,0.89-0.64,1.4-0.43l3.57,1.51c0.67,0.28,0.95,1.12,0.57,1.73c-4,6.46-10.16,9.69-18.47,9.69
	c-3.54,0-7.08-0.78-10.53-2.41c-3.37-1.64-6.31-4.32-8.81-7.94c-2.51-3.71-3.71-7.94-3.71-12.87c0-15.63,12.86-23.39,23.05-23.39
	C360.21,84.66,367.21,88.45,371.09,95.62"/>
<path class="st3" d="M382.58,126.35c-3.28-3.37-4.92-8.29-4.92-14.76V86.7c0-0.65,0.53-1.18,1.18-1.18h4.72
	c0.65,0,1.18,0.53,1.18,1.18v24.72c0,8.98,5.18,13.64,12.09,13.64c3.97,0,7.17-1.29,9.67-3.97c2.47-2.63,3.93-5.35,4.39-8.16
	c0.01-0.09,0.02-0.17,0.02-0.26V86.7c0-0.65,0.53-1.18,1.18-1.18h4.72c0.65,0,1.18,0.53,1.18,1.18v42.54c0,0.65-0.53,1.18-1.18,1.18
	h-4.72c-0.65,0-1.18-0.53-1.18-1.18v-8.84c-0.6,1.72-1.99,3.88-4.49,6.39c-2.42,2.5-6.82,4.49-11.74,4.49
	C389.92,131.28,385.94,129.63,382.58,126.35"/>
<path class="st3" d="M434.9,70.55v58.68c0,0.65-0.53,1.18-1.18,1.18H429c-0.65,0-1.18-0.53-1.18-1.18V70.55
	c0-0.65,0.53-1.18,1.18-1.18h4.72C434.37,69.37,434.9,69.9,434.9,70.55"/>
<path class="st3" d="M449.49,125.06c-4.57-4.14-6.9-9.84-6.9-17.09c0-7.25,2.33-12.95,6.9-17.09c4.66-4.14,9.85-6.21,15.54-6.21
	c7.51,0,13.9,4.23,16.32,9.41h0.52v-7.37c0-0.65,0.53-1.18,1.18-1.18h4.63c0.65,0,1.18,0.53,1.18,1.18v42.54
	c0,0.65-0.53,1.18-1.18,1.18h-4.63c-0.65,0-1.18-0.53-1.18-1.18v-7.37h-0.52c-2.42,5.18-8.81,9.41-16.32,9.41
	C459.34,131.28,454.15,129.2,449.49,125.06 M465.81,124.97c4.23,0,8.03-1.47,11.31-4.49c3.28-3.02,4.92-7.17,4.92-12.52
	c0-5.35-1.64-9.5-4.92-12.52c-3.28-3.02-7.07-4.49-11.31-4.49c-4.24,0-8.03,1.47-11.4,4.49c-3.28,3.02-4.92,7.17-4.92,12.52
	c0,5.35,1.64,9.5,4.92,12.52C457.78,123.51,461.57,124.97,465.81,124.97"/>
<path class="st3" d="M522.63,90.54c0,0.52-0.42,0.94-0.95,0.96c-3.99,0.2-7.4,1.66-10.28,4.39c-3.11,2.93-4.92,6.91-5.53,11.83
	v21.53c0,0.65-0.53,1.18-1.18,1.18h-4.73c-0.65,0-1.18-0.53-1.18-1.18V86.69c0-0.65,0.52-1.18,1.18-1.18h4.73
	c0.65,0,1.18,0.53,1.18,1.18v10.65c0.86-3.54,2.76-6.48,5.78-8.89c2.78-2.22,6.07-3.42,9.86-3.6c0.55-0.03,1.03,0.45,1.05,1
	C522.62,87.57,522.64,88.94,522.63,90.54"/>
<path class="st3" d="M236.57,163.4l-4.83,2.05c-0.5,0.22-1.08,0.03-1.4-0.42c-3-4.22-7.23-6.29-12.85-6.29
	c-4.14,0-7.86,1.56-11.22,4.58c-3.36,3.02-5.01,7.17-5.01,12.52c0,5.27,1.65,9.41,5.01,12.43c3.37,3.02,7.08,4.49,11.22,4.49
	c5.61,0,9.92-2.07,12.85-6.2c0.32-0.45,0.89-0.64,1.4-0.43l3.57,1.51c0.67,0.28,0.95,1.12,0.57,1.73
	c-4.01,6.46-10.17,9.69-18.47,9.69c-3.54,0-7.08-0.78-10.54-2.41c-3.37-1.64-6.3-4.32-8.8-7.94c-2.5-3.71-3.71-7.94-3.71-12.87
	c0-15.63,12.87-23.39,23.05-23.39C225.69,152.44,232.68,156.24,236.57,163.4"/>
<path class="st3" d="M247.54,192.84c-4.57-4.14-6.9-9.84-6.9-17.09c0-7.25,2.33-12.95,6.9-17.09c4.66-4.14,9.84-6.21,15.54-6.21
	c7.51,0,13.9,4.23,16.32,9.41h0.52v-7.36c0-0.65,0.53-1.18,1.18-1.18h4.63c0.65,0,1.18,0.53,1.18,1.18v42.53
	c0,0.65-0.53,1.18-1.18,1.18h-4.63c-0.65,0-1.18-0.53-1.18-1.18v-7.37h-0.52c-2.42,5.18-8.81,9.41-16.32,9.41
	C257.38,199.06,252.2,196.98,247.54,192.84 M263.85,192.75c4.23,0,8.03-1.47,11.31-4.49c3.28-3.02,4.92-7.17,4.92-12.52
	c0-5.35-1.64-9.5-4.92-12.52c-3.28-3.02-7.08-4.49-11.31-4.49c-4.23,0-8.03,1.47-11.4,4.49c-3.28,3.02-4.92,7.17-4.92,12.52
	c0,5.35,1.64,9.5,4.92,12.52C255.83,191.29,259.63,192.75,263.85,192.75"/>
<path class="st3" d="M320.67,158.22c0,0.58-0.45,1.03-1.03,1.06c-3.96,0.21-7.33,1.67-10.2,4.38c-3.11,2.93-4.92,6.91-5.53,11.83
	v21.52c0,0.65-0.53,1.18-1.18,1.18h-4.72c-0.65,0-1.18-0.53-1.18-1.18v-42.53c0-0.65,0.53-1.18,1.18-1.18h4.72
	c0.65,0,1.18,0.53,1.18,1.18v10.65c0.87-3.53,2.77-6.47,5.78-8.89c2.75-2.2,6-3.4,9.75-3.59c0.61-0.03,1.13,0.5,1.14,1.1
	C320.61,155.81,320.65,156.8,320.67,158.22"/>
<path class="st3" d="M358.65,158.56c4.37,3.71,7.09,10.59,6.64,18.73c-0.03,0.63-0.58,1.13-1.2,1.13h-35.12
	c-0.73,0-1.32,0.68-1.19,1.4c1.56,8.45,8.35,13.19,16.55,13.19c5.53,0,10.01-1.64,13.47-5.01l4.14,3.8
	c-4.06,4.84-9.93,7.25-17.79,7.25c-3.97,0-7.68-0.77-11.22-2.42c-6.91-3.37-12.35-10.88-12.35-20.81c0-15.63,12.52-23.4,22.62-23.4
	C348.63,152.44,354.07,154.51,358.65,158.56 M333.09,162.45c-2.7,2.24-4.5,5.31-5.29,9.2c-0.15,0.72,0.44,1.42,1.18,1.42h28.57
	c0.71,0,1.3-0.65,1.2-1.35c-0.58-3.85-2.33-6.94-5.19-9.27c-3.2-2.59-6.65-3.88-10.37-3.88
	C339.56,158.56,336.2,159.86,333.09,162.45"/>
<path class="st4" d="M376.37,190.07h1.12c0.24,0,0.48-0.01,0.72-0.02c0.24-0.02,0.46-0.07,0.65-0.15c0.19-0.08,0.34-0.2,0.46-0.36
	c0.12-0.16,0.18-0.38,0.18-0.68c0-0.23-0.05-0.42-0.14-0.57c-0.09-0.15-0.21-0.26-0.36-0.35c-0.15-0.09-0.31-0.15-0.5-0.19
	c-0.19-0.04-0.38-0.06-0.56-0.06h-1.57V190.07z M376.37,193.93h-0.88v-7.01h2.69c0.8,0,1.36,0.16,1.7,0.5
	c0.34,0.33,0.51,0.81,0.51,1.45c0,0.33-0.05,0.6-0.14,0.83c-0.09,0.23-0.22,0.42-0.38,0.58c-0.16,0.16-0.35,0.28-0.56,0.37
	c-0.21,0.09-0.44,0.16-0.68,0.21l2.09,3.07h-1l-2.09-3.07h-1.25V193.93z M372.49,190.45c0,0.72,0.13,1.4,0.41,2.03
	c0.27,0.63,0.64,1.18,1.11,1.65c0.46,0.47,1.02,0.84,1.65,1.11c0.63,0.27,1.3,0.41,2.02,0.41c0.72,0,1.4-0.14,2.03-0.41
	c0.63-0.27,1.18-0.64,1.65-1.11c0.47-0.47,0.83-1.02,1.11-1.65c0.27-0.63,0.41-1.3,0.41-2.03c0-0.72-0.14-1.4-0.41-2.02
	c-0.28-0.63-0.64-1.18-1.11-1.65c-0.47-0.47-1.02-0.84-1.65-1.11c-0.63-0.27-1.31-0.41-2.03-0.41c-0.72,0-1.39,0.14-2.02,0.41
	c-0.63,0.27-1.18,0.64-1.65,1.11c-0.47,0.47-0.84,1.02-1.11,1.65C372.63,189.05,372.49,189.73,372.49,190.45 M371.61,190.45
	c0-0.84,0.16-1.63,0.48-2.36c0.32-0.73,0.76-1.38,1.31-1.93c0.55-0.55,1.19-0.98,1.93-1.3c0.73-0.32,1.52-0.48,2.36-0.48
	c0.84,0,1.63,0.16,2.36,0.48c0.74,0.32,1.38,0.75,1.93,1.3c0.55,0.55,0.99,1.19,1.31,1.93c0.32,0.73,0.48,1.52,0.48,2.36
	c0,0.84-0.16,1.63-0.48,2.36c-0.32,0.73-0.76,1.38-1.31,1.93c-0.55,0.55-1.19,0.99-1.93,1.31c-0.73,0.32-1.52,0.48-2.36,0.48
	c-0.84,0-1.63-0.16-2.36-0.48c-0.73-0.32-1.38-0.75-1.93-1.31c-0.55-0.55-0.99-1.19-1.31-1.93
	C371.77,192.08,371.61,191.29,371.61,190.45"/>
<path d="M213.59,244.09c0-3.96-2.88-5.96-5.78-5.96c-2.84,0-5.72,1.98-5.72,5.96c0,3.99,2.87,5.96,5.72,5.96
	C210.71,250.05,213.59,248.05,213.59,244.09 M199.5,244.09c0-5.5,3.98-8.34,7.88-8.34c3,0,5.25,1.64,6.03,3.34h0.09v-3.03h2.59
	v16.07h-2.59v-3.03h-0.09c-0.77,1.7-3.03,3.34-6.03,3.34C203.48,252.44,199.5,249.6,199.5,244.09"/>
<path d="M239.69,244.09c0-3.96-2.87-5.97-5.78-5.97c-2.85,0-5.72,1.98-5.72,5.97c0,3.99,2.87,5.96,5.72,5.96
	C236.81,250.06,239.69,248.05,239.69,244.09 M242.19,230.18v21.94h-2.59v-3.03h-0.09c-0.77,1.7-3.03,3.33-6.03,3.33
	c-3.89,0-7.88-2.84-7.88-8.34c0-5.5,3.99-8.34,7.88-8.34c3,0,5.25,1.64,6.03,3.34h0.09v-8.9H242.19z"/>
<path d="M245.85,252.13h2.6v-16.07h-2.6V252.13z M245.85,232.59h2.6v-2.41h-2.6V232.59z"/>
<polygon points="257.84,252.13 251.01,236.05 253.7,236.05 259.05,248.91 264.39,236.05 267.08,236.05 260.25,252.13 "/>
<path d="M269.66,252.13h2.6v-16.07h-2.6V252.13z M269.66,232.59h2.6v-2.41h-2.6V232.59z"/>
<path d="M274.98,248.08l2.16-0.59c0.43,1.7,1.7,2.78,3.49,2.78c1.52,0,3.03-0.74,3.03-2.5c0-1.33-0.93-2.01-2.78-2.78l-1.45-0.56
	c-2.65-1.08-3.77-2.65-3.77-4.48c0-2.53,2.19-4.2,4.98-4.2c2.57,0,4.48,1.42,5.04,3.58l-2.07,0.62c-0.5-1.33-1.45-2.07-2.88-2.07
	c-1.39,0-2.5,0.74-2.5,2.1c0,1.02,0.65,1.82,2.32,2.51l1.3,0.53c2.53,0.99,4.39,2.1,4.39,4.76c0,3.18-2.69,4.67-5.59,4.67
	C277.63,252.44,275.47,250.83,274.98,248.08"/>
<path d="M289.11,252.13h2.6v-16.07h-2.6V252.13z M289.11,232.59h2.6v-2.41h-2.6V232.59z"/>
<path d="M308.68,244.09c0-3.8-2.79-5.96-5.75-5.96c-2.97,0-5.75,2.16-5.75,5.96c0,3.8,2.78,5.96,5.75,5.96
	C305.89,250.05,308.68,247.89,308.68,244.09 M294.58,244.09c0-5.37,4.17-8.34,8.34-8.34c4.17,0,8.35,2.96,8.35,8.34
	c0,5.38-4.18,8.35-8.35,8.35C298.76,252.44,294.58,249.47,294.58,244.09"/>
<path d="M328.41,242.67v9.46h-2.6v-9.09c0-3.25-1.92-4.92-4.48-4.92c-2.57,0-4.57,1.67-4.57,4.92v9.09h-2.6v-16.07h2.6v2.63
	c0.83-1.55,2.6-2.93,5.37-2.93C325.5,235.75,328.41,237.85,328.41,242.67"/>
<path d="M352,244.09c0-3.8-2.78-5.96-5.75-5.96c-2.97,0-5.75,2.16-5.75,5.96c0,3.8,2.79,5.96,5.75,5.96
	C349.22,250.05,352,247.89,352,244.09 M337.9,244.09c0-5.37,4.18-8.34,8.35-8.34c4.17,0,8.34,2.96,8.34,8.34
	c0,5.38-4.17,8.35-8.34,8.35C342.08,252.44,337.9,249.47,337.9,244.09"/>
<path d="M360.88,234.6v1.45h4.42v2.13h-4.42v13.94h-2.63v-13.94h-1.85v-2.13h1.85v-1.76c0-3.9,2.63-4.73,4.54-4.73
	c0.96,0,1.85,0.21,2.51,0.62v2.07c-0.65-0.3-1.39-0.43-1.95-0.43C361.87,231.82,360.88,232.56,360.88,234.6"/>
<polygon points="379.45,236.74 379.39,236.74 376.68,252.13 373.68,252.13 378.43,227.84 386.44,246.19 394.44,227.84 399.2,252.13 
	396.21,252.13 393.49,236.74 393.42,236.74 386.44,252.62 "/>
<path d="M424.68,240.47c0-5.13-3.83-9.43-9.3-9.43c-5.47,0-9.3,4.3-9.3,9.43c0,5.32,4.27,9.43,9.3,9.43
	C420.42,249.9,424.68,245.79,424.68,240.47 M427.59,240.47c0,6.92-5.47,12.15-12.21,12.15c-6.74,0-12.21-5.22-12.21-12.15
	c0-6.67,5.53-12.14,12.21-12.14S427.59,233.8,427.59,240.47"/>
<path d="M436.07,249.53h2.22c2.69,0,5.5-0.8,5.5-4.11c0-3.28-3.34-3.96-5.94-3.96h-1.79V249.53z M436.07,239.14h0.74
	c2.75,0,5-0.55,5-3.89c0-3.28-2.22-3.84-4.94-3.84h-0.8V239.14z M433.17,228.82h2.84c4.39,0,8.53,1.15,8.53,6.39
	c0,1.7-0.93,3.68-2.5,4.42v0.06c2.75,0.5,4.66,3.18,4.66,5.9c0,4.67-3.98,6.53-8.09,6.53h-5.44V228.82z"/>
<rect x="452.87" y="228.83" width="2.91" height="23.3"/>
<polygon points="466.03,249.47 473.11,249.47 473.11,252.13 463.13,252.13 463.13,228.83 466.03,228.83 "/>
<polygon points="478.03,228.82 490.55,228.82 490.55,231.49 480.94,231.49 480.94,238 490.27,238 490.27,240.66 480.94,240.66 
	480.94,249.47 490.55,249.47 490.55,252.13 478.03,252.13 "/>
<polygon points="209.63,286.67 216.56,269.42 219.73,269.42 209.63,293.96 199.5,269.42 202.68,269.42 "/>
<path d="M230.3,274.8l-4.14,9.42h8.28L230.3,274.8z M224.95,286.88l-2.66,5.84h-3.12l11.12-24.29l11.12,24.29h-3.12l-2.66-5.84
	H224.95z"/>
<path d="M256.73,273.84c-0.86-1.45-1.98-2.19-3.74-2.19c-1.86,0-3.9,1.27-3.9,3.31c0,1.82,1.79,2.78,3.25,3.33l1.67,0.65
	c3.31,1.3,5.78,3.12,5.78,7.02c0,4.24-3.28,7.26-7.45,7.26c-3.77,0-6.71-2.78-7.2-6.52l2.94-0.62c-0.03,2.56,2.01,4.42,4.51,4.42
	c2.5,0,4.3-2.1,4.3-4.54c0-2.5-2.01-3.59-4.02-4.42l-1.61-0.68c-2.65-1.15-5.07-2.66-5.07-5.9c0-3.77,3.34-6.02,6.86-6.02
	c2.6,0,4.73,1.26,6,3.52L256.73,273.84z"/>
<path d="M282.95,273.87c-1.67-1.48-3.96-2.29-6.15-2.29c-5.22,0-9.21,4.35-9.21,9.52c0,5.1,3.95,9.46,9.15,9.46
	c2.29,0,4.48-0.87,6.21-2.41v3.43c-1.79,1.05-4.08,1.64-6.12,1.64c-6.64,0-12.14-5.28-12.14-12.02c0-6.89,5.53-12.27,12.39-12.27
	c2.04,0,4.11,0.5,5.87,1.58V273.87z"/>
<path d="M291.93,269.42v13.75c0,3.8,1.14,7.32,5.62,7.32c4.48,0,5.63-3.52,5.63-7.32v-13.75h2.91v14.74c0,5.13-3.18,9.05-8.53,9.05
	c-5.35,0-8.53-3.93-8.53-9.05v-14.74H291.93z"/>
<polygon points="316.01,290.07 323.09,290.07 323.09,292.72 313.11,292.72 313.11,269.42 316.01,269.42 "/>
<path d="M336.67,274.8l-4.14,9.42h8.28L336.67,274.8z M331.32,286.88l-2.66,5.84h-3.12l11.12-24.29l11.12,24.29h-3.12l-2.66-5.84
	H331.32z"/>
<path d="M355.65,280.45h0.93c2.96,0,6.18-0.56,6.18-4.26c0-3.65-3.46-4.18-6.33-4.18h-0.77V280.45z M367.24,292.72h-3.52l-6.86-9.86
	h-1.2v9.86h-2.91v-23.3h3.53c2.07,0,4.29,0.03,6.15,1.08c1.95,1.14,3.06,3.34,3.06,5.56c0,3.34-2.22,6.12-5.59,6.52L367.24,292.72z"
	/>
<path class="st1" d="M387.38,280.36h0.93c2.97,0,6.18-0.56,6.18-4.26c0-3.65-3.46-4.08-6.33-4.08h-0.77V280.36z M387.38,292.72
	h-2.91v-23.3h3.34c7.17,0,9.4,2.47,9.4,6.74c0,4.91-3.74,6.8-8.16,6.8h-1.67V292.72z"/>
<polygon class="st1" points="416.53,278.82 416.53,269.42 419.44,269.42 419.44,292.73 416.53,292.73 416.53,281.54 405.44,281.54 
	405.44,292.73 402.53,292.73 402.53,269.42 405.44,269.42 405.44,278.82 "/>
<polygon class="st1" points="424.24,269.42 427.58,269.42 433.29,279.37 439.01,269.42 442.35,269.42 434.75,282.58 434.75,292.73 
	431.84,292.73 431.84,282.58 "/>
<path class="st1" d="M457.72,273.84c-0.87-1.45-1.98-2.19-3.74-2.19c-1.85,0-3.89,1.27-3.89,3.31c0,1.82,1.79,2.78,3.25,3.33
	l1.67,0.65c3.31,1.3,5.78,3.12,5.78,7.02c0,4.24-3.28,7.26-7.45,7.26c-3.77,0-6.71-2.78-7.2-6.52l2.94-0.62
	c-0.03,2.56,2.01,4.42,4.51,4.42c2.5,0,4.3-2.1,4.3-4.54c0-2.5-2.01-3.59-4.02-4.42l-1.61-0.68c-2.65-1.15-5.07-2.66-5.07-5.9
	c0-3.77,3.34-6.02,6.86-6.02c2.6,0,4.73,1.26,6,3.52L457.72,273.84z"/>
<rect x="466.88" y="269.42" class="st1" width="2.91" height="23.3"/>
<path class="st1" d="M494.11,273.87c-1.67-1.48-3.96-2.29-6.15-2.29c-5.22,0-9.21,4.35-9.21,9.52c0,5.1,3.95,9.46,9.15,9.46
	c2.29,0,4.48-0.87,6.21-2.41v3.43c-1.79,1.05-4.08,1.64-6.12,1.64c-6.64,0-12.14-5.28-12.14-12.02c0-6.89,5.53-12.27,12.39-12.27
	c2.04,0,4.11,0.5,5.87,1.58V273.87z"/>
<rect x="500.5" y="269.42" class="st1" width="2.91" height="23.3"/>
<path class="st1" d="M519.42,274.8l-4.14,9.42h8.28L519.42,274.8z M514.07,286.88l-2.66,5.84h-3.12l11.13-24.29l11.12,24.29h-3.12
	l-2.66-5.84H514.07z"/>
<polygon class="st1" points="535.22,268.31 552.72,286.63 552.72,269.42 555.62,269.42 555.62,293.68 538.13,275.36 538.13,292.72 
	535.22,292.72 "/>
<path class="st1" d="M573.13,273.84c-0.87-1.45-1.98-2.19-3.74-2.19c-1.85,0-3.89,1.27-3.89,3.31c0,1.82,1.79,2.78,3.25,3.33
	l1.67,0.65c3.31,1.3,5.78,3.12,5.78,7.02c0,4.24-3.28,7.26-7.45,7.26c-3.77,0-6.71-2.78-7.2-6.52l2.94-0.62
	c-0.03,2.56,2.01,4.42,4.51,4.42c2.5,0,4.29-2.1,4.29-4.54c0-2.5-2.01-3.59-4.02-4.42l-1.61-0.68c-2.66-1.15-5.07-2.66-5.07-5.9
	c0-3.77,3.34-6.02,6.86-6.02c2.6,0,4.73,1.26,6,3.52L573.13,273.84z"/>
<path class="st5" d="M101.52,129.3c13.75,2.61,22.92,7.29,22.92,12.63c0,8.18-21.55,14.82-48.13,14.82s-48.12-6.64-48.12-14.82
	c0-4.04,5.25-7.7,13.75-10.37"/>
<path class="st3" d="M57.5,46.36c-0.68-5.33-4.33-16.14-5.36-21.01c-1.75-8.29-2.68-15.04-3.17-20.36c-0.13-1.47-1.3-2.64-2.78-2.83
	c-1.68-0.21-3.38-0.32-5.07-0.32c-10.9,0-20.45,4.23-28.71,12.68c-16.54,16.91-16.54,44.58,0,61.49l28.05,34.55
	c1.42,1.45,3.89,0.88,4.49-1.04c2.66-8.5,10.56-42.13,10.58-42.2C58.16,56.46,58.77,56.35,57.5,46.36 M26.74,56.97
	c-7.95,0-14.39-6.45-14.39-14.39s6.45-14.39,14.39-14.39c7.95,0,14.39,6.45,14.39,14.39S34.69,56.97,26.74,56.97"/>
</svg>
