<?xml version="1.0" encoding="utf-8"?>
<!-- Generator: Adobe Illustrator 23.0.5, SVG Export Plug-In . SVG Version: 6.00 Build 0)  -->
<svg version="1.1" id="Layer_1" xmlns="http://www.w3.org/2000/svg" xmlns:xlink="http://www.w3.org/1999/xlink" x="0px" y="0px"
	 viewBox="0 0 251.3 95.7" style="enable-background:new 0 0 251.3 95.7;" xml:space="preserve">
<style type="text/css">
	.st0{fill:#00609D;}
	.st1{fill:#38B2CB;}
	.st2{fill:#ED1670;}
	.st3{fill:#4A225F;}
	.st4{fill:#4C2360;}
	.st5{fill:none;stroke:#0085CA;stroke-width:1.2123;stroke-linecap:round;stroke-linejoin:round;stroke-miterlimit:10;}
</style>
<path class="st0" d="M30.6,35.5c-2.6,7.4-4.9,17.5-6.5,22.8c-0.3,1,0,2.2,0.7,2.7c0.6,0.5,1.6,0.6,2.6-1.4c2.3-4.5,6.2-11,9.7-16.7
	C48.7,23.7,60.9,11.4,65.9,6.3c0.8-0.8,0.6-2-0.1-2.8c-3.6-3.9-18.3-5.7-21.6,1C40.7,11.3,35.7,21.3,30.6,35.5"/>
<path class="st1" d="M66.6,11.1c-4.4,4.3-11.2,11.7-22.1,28.1c-0.4,0.6,0.2,1.3,0.8,1.1c2-0.6,17.5-3.9,20.3-4.2
	c1.1-0.1,2.2-0.6,2.9-1.5c1.1-1.3,1.6-1.9,2.4-3.5c0.4-0.8,1.9-3.8,2.2-7.8c0.4-5-1.7-9.4-3.5-11.7C68.8,10.5,67.5,10.2,66.6,11.1"
	/>
<path class="st2" d="M44.6,44.7c-3.9,1.1-4.3,1.2-7.5,6c-2.3,3.8-4.4,7.2-6.2,10.3c-0.3,0.6-0.2,1.3,0.2,1.7c2.1,2.3,6,2.5,8.3,0.3
	l19.8-18.7c1-1,0.4-2.8-1-2.7C55.1,41.9,46.7,44,44.6,44.7"/>
<path class="st0" d="M29,11.6c0.6,2.8,1.5,6.2,2,8.2c0.2,0.7,1.2,0.8,1.4,0.1c1.3-3,2.5-5.3,3.6-7.8c0.6-1.2,0.6-2.7-0.3-3.7
	c-1.1-1.3-2.9-2.8-6-3.9c-1.2-0.4-2.1,0.5-1.9,1.7C28.1,8.1,28.5,9,29,11.6"/>
<path class="st3" d="M132.7,5.1c1.8,1.9,2.7,4.7,2.7,8.4v11.7c0,0.6-0.5,1.1-1.1,1.1h-5c-0.6,0-1.1-0.5-1.1-1.1V13.7
	c0-3.1-1.5-5.2-4.5-5.2c-2.7,0-4.5,2-5.3,4.6v12.1c0,0.6-0.5,1.1-1.1,1.1h-5c-0.6,0-1.1-0.5-1.1-1.1V13.7c0-3-1.8-5.2-4.6-5.2
	c-2.9,0-4.7,1.9-5.2,4.6v12.1c0,0.6-0.5,1.1-1.1,1.1h-5c-0.6,0-1.1-0.5-1.1-1.1V3.8c0-0.6,0.5-1.1,1.1-1.1h5c0.6,0,1.1,0.5,1.1,1.1
	v3.4c0-0.9,0.7-1.9,2-3.1s2.9-1.8,5-1.8c3.4,0,6.8,1.9,8.6,5.3c0.4-1.1,1.4-2.3,2.9-3.4c1.5-1.2,3.4-1.8,5.8-1.8
	C128.7,2.3,130.9,3.2,132.7,5.1"/>
<path class="st3" d="M162.6,4.2l-9.3,21.4c-0.2,0.4-0.6,0.6-1,0.6h-5.2c-0.4,0-0.8-0.3-1-0.6l-9.3-21.4c-0.3-0.7,0.2-1.5,1-1.5h4.9
	c0.4,0,0.8,0.3,1,0.7l6,14.5l5.9-14.5c0.2-0.4,0.6-0.7,1-0.7h5C162.4,2.7,162.9,3.5,162.6,4.2"/>
<path class="st3" d="M187.7,5.5c2.4,2.1,3.6,5.2,3.6,9s-1.2,6.9-3.6,9c-2.4,2.1-5,3.2-7.9,3.2c-1.2,0-2.3-0.2-3.4-0.6
	c-2-0.9-2.6-1.7-3.1-2.4H173v8.7c0,0.6-0.5,1.1-1.1,1.1h-5c-0.6,0-1.1-0.5-1.1-1.1V3.8c0-0.6,0.5-1.1,1.1-1.1h5.5
	c0.3,0,0.5,0.2,0.6,0.5v2.1h0.3c0.2-0.4,0.6-0.8,1-1.2c0.9-0.9,3.1-1.9,5.5-1.9C182.7,2.3,185.4,3.4,187.7,5.5 M184.4,14.5
	c0-3.7-2.5-5.9-5.8-5.9c-3.1,0-5.8,2.3-5.8,5.9c0,3.7,2.7,5.9,5.8,5.9C181.9,20.5,184.4,18.2,184.4,14.5"/>
<path class="st3" d="M114.6,41.9l-9,20.5c-0.1,0.2-0.3,0.3-0.5,0.3H103c-0.2,0-0.4-0.1-0.5-0.3l-9.3-21.3h3.1c0.2,0,0.4,0.1,0.5,0.3
	l6.7,15.7c0.2,0.5,0.8,0.5,1,0l6.7-15.7c0.1-0.2,0.3-0.3,0.5-0.3h2.3C114.5,41.1,114.8,41.5,114.6,41.9"/>
<path class="st3" d="M118.5,60.1c-2.2-2-3.3-4.7-3.3-8.2s1.1-6.2,3.3-8.2c2.2-2,4.7-3,7.5-3c3.6,0,6.7,2,7.8,4.5h0.3v-3.5
	c0-0.3,0.3-0.6,0.6-0.6h2.2c0.3,0,0.6,0.3,0.6,0.6v20.5c0,0.3-0.3,0.6-0.6,0.6h-2.2c-0.3,0-0.6-0.3-0.6-0.6v-3.5h-0.3
	c-1.2,2.5-4.2,4.5-7.8,4.5C123.2,63.1,120.7,62.1,118.5,60.1 M126.3,60.1c2,0,3.9-0.7,5.4-2.2c1.6-1.5,2.4-3.4,2.4-6s-0.8-4.6-2.4-6
	c-1.6-1.5-3.4-2.2-5.4-2.2s-3.9,0.7-5.5,2.2c-1.6,1.5-2.4,3.4-2.4,6c0,2.6,0.8,4.6,2.4,6C122.5,59.4,124.3,60.1,126.3,60.1"/>
<path class="st3" d="M153.1,46.2c-0.3,0.1-0.5-0.1-0.6-0.3c-0.9-1.6-2.2-2.4-4-2.4c-2.1,0-3.5,1.2-3.5,3c0,1.5,1,2.6,3,3.3l2.2,0.7
	c4.2,1.5,6.2,3,6.2,6.3c0,2-0.8,3.5-2.3,4.7c-1.5,1.1-3.3,1.7-5.4,1.7c-3.8,0-6.7-1.9-7.7-5.2c-0.1-0.3,0.1-0.6,0.4-0.7l1.7-0.5
	c0.3-0.1,0.6,0.1,0.7,0.4c0.8,2,2.7,3.3,4.9,3.3c2.4,0,4.4-1.3,4.4-3.4c0-1.6-1.2-2.8-3.6-3.6l-2.4-0.9c-3.6-1.3-5.4-3.3-5.4-6
	c0-1.7,0.6-3.1,1.9-4.1c1.3-1.1,2.9-1.6,4.8-1.6c3.4,0,5.9,1.8,7.1,4.8L153.1,46.2z"/>
<path class="st3" d="M178.5,46l-2.3,1c-0.2,0.1-0.5,0-0.7-0.2c-1.4-2-3.5-3-6.2-3c-2,0-3.8,0.8-5.4,2.2c-1.6,1.5-2.4,3.4-2.4,6
	c0,2.5,0.8,4.5,2.4,6c1.6,1.5,3.4,2.2,5.4,2.2c2.7,0,4.8-1,6.2-3c0.2-0.2,0.4-0.3,0.7-0.2l1.7,0.7c0.3,0.1,0.5,0.5,0.3,0.8
	c-1.9,3.1-4.9,4.7-8.9,4.7c-1.7,0-3.4-0.4-5.1-1.2c-1.6-0.8-3-2.1-4.2-3.8c-1.2-1.8-1.8-3.8-1.8-6.2c0-7.5,6.2-11.2,11.1-11.2
	C173.2,40.7,176.6,42.5,178.5,46"/>
<path class="st3" d="M184,60.8c-1.6-1.6-2.4-4-2.4-7.1v-12c0-0.3,0.3-0.6,0.6-0.6h2.3c0.3,0,0.6,0.3,0.6,0.6v11.9
	c0,4.3,2.5,6.6,5.8,6.6c1.9,0,3.4-0.6,4.7-1.9c1.2-1.3,1.9-2.6,2.1-3.9c0,0,0-0.1,0-0.1V41.7c0-0.3,0.3-0.6,0.6-0.6h2.3
	c0.3,0,0.6,0.3,0.6,0.6v20.5c0,0.3-0.3,0.6-0.6,0.6h-2.3c-0.3,0-0.6-0.3-0.6-0.6v-4.3c-0.3,0.8-1,1.9-2.2,3.1
	c-1.2,1.2-3.3,2.2-5.6,2.2C187.5,63.1,185.6,62.3,184,60.8"/>
<path class="st3" d="M209.1,33.9v28.2c0,0.3-0.3,0.6-0.6,0.6h-2.3c-0.3,0-0.6-0.3-0.6-0.6V33.9c0-0.3,0.3-0.6,0.6-0.6h2.3
	C208.9,33.4,209.1,33.6,209.1,33.9"/>
<path class="st3" d="M216.2,60.1c-2.2-2-3.3-4.7-3.3-8.2s1.1-6.2,3.3-8.2c2.2-2,4.7-3,7.5-3c3.6,0,6.7,2,7.8,4.5h0.3v-3.5
	c0-0.3,0.3-0.6,0.6-0.6h2.2c0.3,0,0.6,0.3,0.6,0.6v20.5c0,0.3-0.3,0.6-0.6,0.6h-2.2c-0.3,0-0.6-0.3-0.6-0.6v-3.5h-0.3
	c-1.2,2.5-4.2,4.5-7.8,4.5C220.9,63.1,218.4,62.1,216.2,60.1 M224,60.1c2,0,3.9-0.7,5.4-2.2c1.6-1.5,2.4-3.4,2.4-6s-0.8-4.6-2.4-6
	c-1.6-1.5-3.4-2.2-5.4-2.2s-3.9,0.7-5.5,2.2c-1.6,1.5-2.4,3.4-2.4,6c0,2.6,0.8,4.6,2.4,6C220.1,59.4,222,60.1,224,60.1"/>
<path class="st3" d="M251.3,43.5c0,0.3-0.2,0.5-0.5,0.5c-1.9,0.1-3.6,0.8-4.9,2.1c-1.5,1.4-2.4,3.3-2.7,5.7v10.4
	c0,0.3-0.3,0.6-0.6,0.6h-2.3c-0.3,0-0.6-0.3-0.6-0.6V41.7c0-0.3,0.3-0.6,0.6-0.6h2.3c0.3,0,0.6,0.3,0.6,0.6v5.1
	c0.4-1.7,1.3-3.1,2.8-4.3c1.3-1.1,2.9-1.6,4.7-1.7c0.3,0,0.5,0.2,0.5,0.5C251.3,42.1,251.3,42.8,251.3,43.5"/>
<path class="st3" d="M113.8,78.6l-2.3,1c-0.2,0.1-0.5,0-0.7-0.2c-1.4-2-3.5-3-6.2-3c-2,0-3.8,0.8-5.4,2.2c-1.6,1.5-2.4,3.4-2.4,6
	c0,2.5,0.8,4.5,2.4,6c1.6,1.5,3.4,2.2,5.4,2.2c2.7,0,4.8-1,6.2-3c0.2-0.2,0.4-0.3,0.7-0.2l1.7,0.7c0.3,0.1,0.5,0.5,0.3,0.8
	c-1.9,3.1-4.9,4.7-8.9,4.7c-1.7,0-3.4-0.4-5.1-1.2c-1.6-0.8-3-2.1-4.2-3.8c-1.2-1.8-1.8-3.8-1.8-6.2c0-7.5,6.2-11.2,11.1-11.2
	C108.5,73.3,111.9,75.1,113.8,78.6"/>
<path class="st3" d="M119,92.7c-2.2-2-3.3-4.7-3.3-8.2s1.1-6.2,3.3-8.2c2.2-2,4.7-3,7.5-3c3.6,0,6.7,2,7.8,4.5h0.3v-3.5
	c0-0.3,0.3-0.6,0.6-0.6h2.2c0.3,0,0.6,0.3,0.6,0.6v20.5c0,0.3-0.3,0.6-0.6,0.6h-2.2c-0.3,0-0.6-0.3-0.6-0.6v-3.5h-0.3
	c-1.2,2.5-4.2,4.5-7.8,4.5C123.8,95.7,121.3,94.7,119,92.7 M126.9,92.7c2,0,3.9-0.7,5.4-2.2c1.6-1.5,2.4-3.4,2.4-6
	c0-2.6-0.8-4.6-2.4-6c-1.6-1.5-3.4-2.2-5.4-2.2c-2,0-3.9,0.7-5.5,2.2c-1.6,1.5-2.4,3.4-2.4,6c0,2.6,0.8,4.6,2.4,6
	C123,92,124.9,92.7,126.9,92.7"/>
<path class="st3" d="M154.2,76.1c0,0.3-0.2,0.5-0.5,0.5c-1.9,0.1-3.5,0.8-4.9,2.1c-1.5,1.4-2.4,3.3-2.7,5.7v10.3
	c0,0.3-0.3,0.6-0.6,0.6h-2.3c-0.3,0-0.6-0.3-0.6-0.6V74.3c0-0.3,0.3-0.6,0.6-0.6h2.3c0.3,0,0.6,0.3,0.6,0.6v5.1
	c0.4-1.7,1.3-3.1,2.8-4.3c1.3-1.1,2.9-1.6,4.7-1.7c0.3,0,0.5,0.2,0.5,0.5C154.2,74.9,154.2,75.4,154.2,76.1"/>
<path class="st3" d="M172.5,76.2c2.1,1.8,3.4,5.1,3.2,9c0,0.3-0.3,0.5-0.6,0.5h-16.9c-0.4,0-0.6,0.3-0.6,0.7c0.8,4.1,4,6.3,8,6.3
	c2.7,0,4.8-0.8,6.5-2.4l2,1.8c-2,2.3-4.8,3.5-8.6,3.5c-1.9,0-3.7-0.4-5.4-1.2c-3.3-1.6-5.9-5.2-5.9-10c0-7.5,6-11.3,10.9-11.3
	C167.6,73.3,170.3,74.3,172.5,76.2 M160.2,78.1c-1.3,1.1-2.2,2.6-2.5,4.4c-0.1,0.3,0.2,0.7,0.6,0.7h13.7c0.3,0,0.6-0.3,0.6-0.6
	c-0.3-1.9-1.1-3.3-2.5-4.5c-1.5-1.2-3.2-1.9-5-1.9C163.3,76.2,161.7,76.9,160.2,78.1"/>
<path class="st4" d="M181,91.4h0.5c0.1,0,0.2,0,0.3,0c0.1,0,0.2,0,0.3-0.1c0.1,0,0.2-0.1,0.2-0.2c0.1-0.1,0.1-0.2,0.1-0.3
	c0-0.1,0-0.2-0.1-0.3c0-0.1-0.1-0.1-0.2-0.2c-0.1,0-0.1-0.1-0.2-0.1c-0.1,0-0.2,0-0.3,0H181L181,91.4L181,91.4z M181,93.3h-0.4v-3.4
	h1.3c0.4,0,0.7,0.1,0.8,0.2c0.2,0.2,0.2,0.4,0.2,0.7c0,0.2,0,0.3-0.1,0.4s-0.1,0.2-0.2,0.3c-0.1,0.1-0.2,0.1-0.3,0.2
	c-0.1,0-0.2,0.1-0.3,0.1l1,1.5h-0.5l-1-1.5H181L181,93.3L181,93.3z M179.1,91.6c0,0.3,0.1,0.7,0.2,1c0.1,0.3,0.3,0.6,0.5,0.8
	c0.2,0.2,0.5,0.4,0.8,0.5c0.3,0.1,0.6,0.2,1,0.2s0.7-0.1,1-0.2c0.3-0.1,0.6-0.3,0.8-0.5c0.2-0.2,0.4-0.5,0.5-0.8
	c0.1-0.3,0.2-0.6,0.2-1c0-0.3-0.1-0.7-0.2-1c-0.1-0.3-0.3-0.6-0.5-0.8s-0.5-0.4-0.8-0.5c-0.3-0.1-0.6-0.2-1-0.2s-0.7,0.1-1,0.2
	c-0.3,0.1-0.6,0.3-0.8,0.5c-0.2,0.2-0.4,0.5-0.5,0.8C179.2,90.9,179.1,91.2,179.1,91.6 M178.7,91.6c0-0.4,0.1-0.8,0.2-1.1
	c0.2-0.4,0.4-0.7,0.6-0.9c0.3-0.3,0.6-0.5,0.9-0.6c0.4-0.2,0.7-0.2,1.1-0.2s0.8,0.1,1.1,0.2c0.4,0.2,0.7,0.4,0.9,0.6
	s0.5,0.6,0.6,0.9c0.2,0.4,0.2,0.7,0.2,1.1c0,0.4-0.1,0.8-0.2,1.1s-0.4,0.7-0.6,0.9c-0.3,0.3-0.6,0.5-0.9,0.6
	c-0.4,0.2-0.7,0.2-1.1,0.2s-0.8-0.1-1.1-0.2c-0.4-0.2-0.7-0.4-0.9-0.6c-0.3-0.3-0.5-0.6-0.6-0.9C178.8,92.4,178.7,92,178.7,91.6"/>
<path class="st5" d="M48.8,62.2c6.6,1.3,11,3.5,11,6.1c0,3.9-10.4,7.1-23.1,7.1s-23.1-3.2-23.1-7.1c0-1.9,2.5-3.7,6.6-5"/>
<path class="st3" d="M27.6,22.3c-0.3-2.6-2.1-7.8-2.6-10.1c-0.8-4-1.3-7.2-1.5-9.8c-0.1-0.7-0.6-1.3-1.3-1.4
	c-0.8-0.1-1.6-0.2-2.4-0.2C14.5,0.9,9.9,2.9,6,7c-8,8.1-8,21.4,0,29.6l13.5,16.6c0.7,0.7,1.9,0.4,2.2-0.5c1.3-4.1,5.1-20.3,5.1-20.3
	C28,27.1,28.3,27.1,27.6,22.3 M12.9,27.4c-3.8,0-6.9-3.1-6.9-6.9s3.1-6.9,6.9-6.9c3.8,0,6.9,3.1,6.9,6.9S16.7,27.4,12.9,27.4"/>
</svg>
