<?xml version="1.0" encoding="utf-8"?>
<!-- Generator: Adobe Illustrator 23.0.5, SVG Export Plug-In . SVG Version: 6.00 Build 0)  -->
<svg version="1.1" id="Layer_1" xmlns="http://www.w3.org/2000/svg" xmlns:xlink="http://www.w3.org/1999/xlink" x="0px" y="0px"
	 viewBox="0 0 136.6 69.7" style="enable-background:new 0 0 136.6 69.7;" xml:space="preserve">
<style type="text/css">
	.st0{fill:none;}
	.st1{fill:#FFFFFF;}
	.st2{fill:#FCFCFC;}
</style>
<g>
	<polygon class="st0" points="80.8,67.4 79.8,65.1 78.8,67.4 	"/>
	<path class="st0" d="M71.8,56.5c-0.7,0-1.4,0.5-1.4,1.4c0,0.9,0.7,1.4,1.4,1.4c0.7,0,1.4-0.5,1.4-1.4C73.2,57,72.5,56.5,71.8,56.5z
		"/>
	<path class="st0" d="M62.5,37.6c-1,0-1.9,0.3-2.7,1.1c-0.8,0.7-1.2,1.7-1.2,3c0,1.3,0.4,2.3,1.2,3c0.8,0.7,1.7,1.1,2.7,1.1
		c1,0,1.9-0.3,2.7-1.1c0.8-0.7,1.2-1.7,1.2-3c0-1.3-0.4-2.3-1.2-3C64.5,38,63.6,37.6,62.5,37.6z"/>
	<path class="st0" d="M55.5,56.4c-0.7,0-1.4,0.5-1.4,1.4c0,0.9,0.7,1.4,1.4,1.4c0.7,0,1.4-0.5,1.4-1.4
		C56.8,56.9,56.1,56.4,55.5,56.4z"/>
	<path class="st0" d="M82.1,56.5c-0.7,0-1.4,0.5-1.4,1.4c0,0.9,0.7,1.4,1.4,1.4c0.7,0,1.4-0.5,1.4-1.4C83.4,57,82.8,56.5,82.1,56.5z
		"/>
	<path class="st0" d="M89.5,46.4c0.2,0,0.3,0,0.5-0.1c0.1-0.1,0.3-0.2,0.4-0.3c0.1-0.1,0.2-0.2,0.3-0.4c0.1-0.1,0.1-0.3,0.1-0.5
		c0-0.2,0-0.3-0.1-0.5c-0.1-0.1-0.2-0.3-0.3-0.4c-0.1-0.1-0.2-0.2-0.4-0.3c-0.1-0.1-0.3-0.1-0.5-0.1c-0.2,0-0.3,0-0.5,0.1
		c-0.1,0.1-0.3,0.2-0.4,0.3c-0.1,0.1-0.2,0.2-0.3,0.4c-0.1,0.1-0.1,0.3-0.1,0.5s0,0.3,0.1,0.5c0.1,0.1,0.2,0.3,0.3,0.4
		c0.1,0.1,0.2,0.2,0.4,0.3C89.2,46.3,89.4,46.4,89.5,46.4z M89,44.3h0.6c0.2,0,0.3,0,0.4,0.1c0.1,0.1,0.1,0.2,0.1,0.3
		c0,0.1,0,0.1,0,0.2c0,0.1-0.1,0.1-0.1,0.1c0,0-0.1,0.1-0.1,0.1c0,0-0.1,0-0.2,0l0.5,0.7H90l-0.5-0.7h-0.3V46h0v0H89V44.3z"/>
	<path class="st0" d="M86,65.5c0-0.9-0.8-1-1.5-1h-0.2v2h0.2C85.2,66.5,86,66.4,86,65.5z"/>
	<path class="st0" d="M89.7,45.1c0.1,0,0.1,0,0.2,0c0,0,0.1,0,0.1-0.1c0,0,0-0.1,0-0.2c0-0.1,0-0.1,0-0.1c0,0,0-0.1-0.1-0.1
		c0,0-0.1,0-0.1,0s-0.1,0-0.1,0h-0.4v0.6h0.3C89.5,45.1,89.6,45.1,89.7,45.1z"/>
	<path class="st0" d="M49.3,56.5c-0.7,0-1.4,0.5-1.4,1.4c0,0.9,0.7,1.4,1.4,1.4c0.7,0,1.4-0.5,1.4-1.4C50.6,56.9,50,56.5,49.3,56.5z
		"/>
	<path class="st0" d="M83.8,38.5c-0.8-0.6-1.6-0.9-2.5-0.9c-0.9,0-1.7,0.3-2.4,0.9c-0.6,0.5-1.1,1.3-1.3,2.2c0,0.2,0.1,0.3,0.3,0.3
		h6.8c0.2,0,0.3-0.2,0.3-0.3C84.9,39.8,84.5,39.1,83.8,38.5z"/>
	<path class="st0" d="M88.1,10.1c1.6,0,2.8-1.1,2.8-2.9c0-1.8-1.3-2.9-2.8-2.9c-1.5,0-2.9,1.1-2.9,2.9C85.2,9,86.5,10.1,88.1,10.1z"
		/>
	<polygon class="st0" points="55.6,67.4 54.6,65.1 53.6,67.4 	"/>
	<path class="st0" d="M92,64.5h-0.2v2h0.2c0.7,0,1.5-0.1,1.5-1C93.5,64.6,92.7,64.5,92,64.5z"/>
	<path class="st0" d="M6.3,6.7c-1.9,0-3.4,1.5-3.4,3.4s1.5,3.4,3.4,3.4s3.4-1.5,3.4-3.4S8.2,6.7,6.3,6.7z"/>
	<path class="st0" d="M65,22.6c-0.8-0.7-1.7-1.1-2.7-1.1c-1,0-1.9,0.3-2.7,1.1c-0.8,0.7-1.2,1.7-1.2,3c0,1.3,0.4,2.3,1.2,3
		c0.8,0.7,1.7,1.1,2.7,1.1c1,0,1.9-0.3,2.7-1.1c0.8-0.7,1.2-1.7,1.2-3C66.1,24.3,65.7,23.3,65,22.6z"/>
	<path class="st0" d="M110.4,29.6c1,0,1.9-0.3,2.7-1.1c0.8-0.7,1.2-1.7,1.2-3c0-1.3-0.4-2.3-1.2-3c-0.8-0.7-1.7-1.1-2.7-1.1
		s-1.9,0.3-2.7,1.1c-0.8,0.7-1.2,1.7-1.2,3c0,1.3,0.4,2.3,1.2,3C108.5,29.3,109.4,29.6,110.4,29.6z"/>
	<path class="st0" d="M98.5,54.8c-1.3,0-2.2,1-2.2,2.2c0,1.3,1,2.2,2.2,2.2c1.2,0,2.2-1,2.2-2.2C100.7,55.8,99.8,54.8,98.5,54.8z"/>
	<path class="st0" d="M103.8,57.2h-0.4v1.9h0h0.5c0.6,0,1.3-0.2,1.3-1C105.2,57.4,104.4,57.2,103.8,57.2z"/>
	<path class="st0" d="M104.7,55.8c0-0.8-0.5-0.9-1.2-0.9h-0.2v1.8h0.2C104.2,56.7,104.7,56.6,104.7,55.8z"/>
	<polygon class="st0" points="122.2,67.4 124.1,67.4 123.1,65.1 	"/>
	<path class="st1" d="M11.9,28.8c-0.1,0.5,0,1.1,0.3,1.3c0.3,0.2,0.8,0.3,1.3-0.7c1.1-2.2,3.1-5.4,4.8-8.3C24,11.7,30,5.6,32.5,3.1
		c0.4-0.4,0.3-1-0.1-1.4c-1.8-1.9-9-2.8-10.7,0.5c-1.7,3.4-4.2,8.3-6.7,15.3C13.8,21.2,12.6,26.2,11.9,28.8z"/>
	<path class="st1" d="M32.8,5.5c-2.2,2.1-5.5,5.8-10.9,13.8c-0.2,0.3,0.1,0.6,0.4,0.5c1-0.3,8.6-1.9,10-2.1c0.6-0.1,1.1-0.3,1.4-0.7
		c0.6-0.6,0.8-1,1.2-1.7c0.2-0.4,0.9-1.9,1.1-3.8c0.2-2.5-0.8-4.6-1.7-5.7C33.9,5.2,33.3,5,32.8,5.5z"/>
	<path class="st1" d="M15.4,30.9c1.1,1.1,3,1.2,4.1,0.1l9.8-9.2c0.5-0.5,0.2-1.4-0.5-1.3c-1.6,0.1-5.7,1.2-6.7,1.5
		c-1.9,0.5-2.1,0.6-3.7,3c-1.2,1.9-2.2,3.6-3,5.1C15.1,30.3,15.2,30.7,15.4,30.9z"/>
	<path class="st2" d="M14.3,5.7c0.3,1.4,0.7,3.1,1,4c0.1,0.3,0.6,0.4,0.7,0c0.6-1.5,1.2-2.6,1.8-3.8c0.3-0.6,0.3-1.3-0.1-1.8
		c-0.5-0.6-1.4-1.4-3-1.9c-0.6-0.2-1,0.2-1,0.8C13.9,4,14,4.4,14.3,5.7z"/>
	<path class="st1" d="M47.1,13h2.5c0.3,0,0.5-0.2,0.5-0.5v-6c0.2-1.3,1.1-2.3,2.5-2.3c1.4,0,2.3,1.1,2.3,2.6v5.7
		c0,0.3,0.2,0.5,0.5,0.5h2.5c0.3,0,0.5-0.2,0.5-0.5v-6c0.4-1.3,1.3-2.3,2.6-2.3c1.5,0,2.2,1,2.2,2.6v5.7c0,0.3,0.2,0.5,0.5,0.5h2.5
		c0.3,0,0.5-0.2,0.5-0.5V6.7c0-1.9-0.4-3.2-1.3-4.2c-0.9-0.9-2-1.4-3.3-1.4c-1.2,0-2.1,0.3-2.9,0.9c-0.7,0.6-1.2,1.1-1.4,1.7
		c-0.9-1.6-2.6-2.6-4.2-2.6c-1,0-1.8,0.3-2.5,0.9s-1,1.1-1,1.5V1.9c0-0.3-0.2-0.5-0.5-0.5h-2.5c-0.3,0-0.5,0.2-0.5,0.5v10.6
		C46.6,12.7,46.8,13,47.1,13z"/>
	<path class="st1" d="M72,12.6c0.1,0.2,0.3,0.3,0.5,0.3h2.6c0.2,0,0.4-0.1,0.5-0.3l4.6-10.6c0.2-0.4-0.1-0.7-0.5-0.7h-2.5
		c-0.2,0-0.4,0.1-0.5,0.3l-2.9,7.1l-2.9-7.1c-0.1-0.2-0.3-0.3-0.5-0.3h-2.4c-0.4,0-0.6,0.4-0.5,0.7L72,12.6z"/>
	<path class="st1" d="M82.3,16.5h2.5c0.3,0,0.5-0.2,0.5-0.5v-4.3h0.2c0.2,0.4,0.6,0.8,1.5,1.2c0.5,0.2,1,0.3,1.7,0.3
		c1.5,0,2.8-0.5,3.9-1.6c1.2-1.1,1.8-2.5,1.8-4.4s-0.6-3.4-1.8-4.4c-1.2-1.1-2.5-1.6-3.9-1.6c-1.2,0-2.3,0.5-2.7,0.9
		c-0.2,0.2-0.4,0.4-0.5,0.6h-0.2v-1c0-0.2-0.1-0.3-0.3-0.3h-2.7c-0.3,0-0.5,0.2-0.5,0.5V16C81.7,16.3,82,16.5,82.3,16.5z M88.1,4.2
		c1.6,0,2.8,1.1,2.8,2.9c0,1.8-1.3,2.9-2.8,2.9c-1.5,0-2.9-1.1-2.9-2.9C85.2,5.3,86.5,4.2,88.1,4.2z"/>
	<path class="st1" d="M50.8,30.9h1c0.1,0,0.2-0.1,0.3-0.2l4.4-10.1c0.1-0.2-0.1-0.4-0.3-0.4h-1.1c-0.1,0-0.2,0.1-0.3,0.2l-3.3,7.7
		c-0.1,0.2-0.4,0.2-0.5,0l-3.3-7.7c0-0.1-0.1-0.2-0.3-0.2h-1.5l4.6,10.5C50.6,30.8,50.7,30.9,50.8,30.9z"/>
	<path class="st1" d="M66.4,30.9h1.1c0.2,0,0.3-0.1,0.3-0.3V20.6c0-0.2-0.1-0.3-0.3-0.3h-1.1c-0.2,0-0.3,0.1-0.3,0.3v1.7H66
		c-0.6-1.2-2.1-2.2-3.9-2.2c-1.3,0-2.6,0.5-3.7,1.5c-1.1,1-1.6,2.3-1.6,4.1c0,1.7,0.6,3.1,1.6,4.1c1.1,1,2.3,1.5,3.7,1.5
		c1.8,0,3.3-1,3.9-2.2h0.1v1.7C66.1,30.8,66.2,30.9,66.4,30.9z M65,28.6c-0.8,0.7-1.7,1.1-2.7,1.1c-1,0-1.9-0.3-2.7-1.1
		c-0.8-0.7-1.2-1.7-1.2-3c0-1.3,0.4-2.3,1.2-3c0.8-0.7,1.7-1.1,2.7-1.1c1,0,1.9,0.3,2.7,1.1c0.8,0.7,1.2,1.7,1.2,3
		C66.1,26.9,65.7,27.8,65,28.6z"/>
	<path class="st1" d="M73.3,29.7c-1.1,0-2-0.6-2.4-1.6c-0.1-0.1-0.2-0.2-0.3-0.2l-0.8,0.2c-0.1,0-0.2,0.2-0.2,0.3
		c0.5,1.6,1.9,2.6,3.8,2.6c1,0,1.9-0.3,2.7-0.8c0.8-0.6,1.1-1.3,1.1-2.3c0-1.6-1-2.4-3.1-3.1l-1.1-0.4c-1-0.3-1.5-0.9-1.5-1.6
		c0-0.9,0.7-1.5,1.7-1.5c0.9,0,1.5,0.4,2,1.2c0.1,0.1,0.2,0.2,0.3,0.1l1.2-0.3c-0.6-1.5-1.8-2.4-3.5-2.4c-0.9,0-1.7,0.3-2.4,0.8
		c-0.6,0.5-0.9,1.2-0.9,2c0,1.3,0.9,2.3,2.7,2.9l1.2,0.4c1.2,0.4,1.8,1,1.8,1.8C75.5,29.1,74.5,29.7,73.3,29.7z"/>
	<path class="st1" d="M83.4,21.6c1.3,0,2.3,0.5,3,1.5c0.1,0.1,0.2,0.2,0.3,0.1l1.1-0.5c-0.9-1.7-2.6-2.6-4.5-2.6
		c-2.4,0-5.5,1.8-5.5,5.5c0,1.2,0.3,2.2,0.9,3.1c0.6,0.9,1.3,1.5,2.1,1.9c0.8,0.4,1.7,0.6,2.5,0.6c2,0,3.4-0.8,4.4-2.3
		c0.1-0.1,0-0.3-0.1-0.4l-0.8-0.4c-0.1,0-0.3,0-0.3,0.1c-0.7,1-1.7,1.5-3,1.5c-1,0-1.9-0.3-2.7-1.1c-0.8-0.7-1.2-1.7-1.2-2.9
		c0-1.3,0.4-2.3,1.2-3C81.6,21.9,82.5,21.6,83.4,21.6z"/>
	<path class="st1" d="M91.2,26.4v-5.9c0-0.2-0.1-0.3-0.3-0.3h-1.1c-0.2,0-0.3,0.1-0.3,0.3v5.9c0,1.5,0.4,2.7,1.2,3.5
		c0.8,0.8,1.7,1.2,2.9,1.2c1.2,0,2.2-0.5,2.8-1.1c0.6-0.6,0.9-1.1,1.1-1.5v2.1c0,0.2,0.1,0.3,0.3,0.3h1.1c0.2,0,0.3-0.1,0.3-0.3
		V20.6c0-0.2-0.1-0.3-0.3-0.3h-1.1c-0.2,0-0.3,0.1-0.3,0.3v6.2c0,0,0,0,0,0.1c-0.1,0.7-0.5,1.3-1,1.9c-0.6,0.6-1.4,0.9-2.3,0.9
		C92.4,29.6,91.2,28.5,91.2,26.4z"/>
	<path class="st1" d="M101.7,30.9h1.1c0.2,0,0.3-0.1,0.3-0.3V16.7c0-0.2-0.1-0.3-0.3-0.3h-1.1c-0.2,0-0.3,0.1-0.3,0.3v13.9
		C101.4,30.8,101.5,30.9,101.7,30.9z"/>
	<path class="st1" d="M110.2,31.1c1.8,0,3.3-1,3.9-2.2h0.1v1.7c0,0.2,0.1,0.3,0.3,0.3h1.1c0.2,0,0.3-0.1,0.3-0.3V20.6
		c0-0.2-0.1-0.3-0.3-0.3h-1.1c-0.2,0-0.3,0.1-0.3,0.3v1.7h-0.1c-0.6-1.2-2.1-2.2-3.9-2.2c-1.3,0-2.6,0.5-3.7,1.5
		c-1.1,1-1.6,2.3-1.6,4.1c0,1.7,0.6,3.1,1.6,4.1C107.7,30.6,108.9,31.1,110.2,31.1z M107.7,22.6c0.8-0.7,1.7-1.1,2.7-1.1
		s1.9,0.3,2.7,1.1c0.8,0.7,1.2,1.7,1.2,3c0,1.3-0.4,2.3-1.2,3c-0.8,0.7-1.7,1.1-2.7,1.1c-1,0-1.9-0.3-2.7-1.1
		c-0.8-0.7-1.2-1.7-1.2-3C106.6,24.3,106.9,23.3,107.7,22.6z"/>
	<path class="st1" d="M123.7,21.7c0.1,0,0.2-0.1,0.2-0.2c0-0.4,0-0.7,0-1.1c0-0.1-0.1-0.2-0.2-0.2c-0.9,0-1.7,0.3-2.3,0.9
		c-0.7,0.6-1.2,1.3-1.4,2.1v-2.5c0-0.2-0.1-0.3-0.3-0.3h-1.1c-0.2,0-0.3,0.1-0.3,0.3v10.1c0,0.2,0.1,0.3,0.3,0.3h1.1
		c0.2,0,0.3-0.1,0.3-0.3v-5.1c0.1-1.2,0.6-2.1,1.3-2.8C121.9,22.1,122.7,21.7,123.7,21.7z"/>
	<path class="st1" d="M49,46.6c0.8,0.4,1.7,0.6,2.5,0.6c2,0,3.4-0.8,4.4-2.3c0.1-0.1,0-0.3-0.1-0.4l-0.8-0.4c-0.1,0-0.3,0-0.3,0.1
		c-0.7,1-1.7,1.5-3,1.5c-1,0-1.9-0.3-2.7-1.1c-0.8-0.7-1.2-1.7-1.2-2.9c0-1.3,0.4-2.3,1.2-3s1.7-1.1,2.7-1.1c1.3,0,2.3,0.5,3,1.5
		c0.1,0.1,0.2,0.2,0.3,0.1l1.1-0.5c-0.9-1.7-2.6-2.6-4.5-2.6c-2.4,0-5.5,1.8-5.5,5.5c0,1.2,0.3,2.2,0.9,3.1
		C47.5,45.6,48.2,46.2,49,46.6z"/>
	<path class="st1" d="M67.7,36.3h-1.1c-0.2,0-0.3,0.1-0.3,0.3v1.7h-0.1c-0.6-1.2-2.1-2.2-3.9-2.2c-1.4,0-2.6,0.5-3.7,1.5
		c-1.1,1-1.6,2.3-1.6,4.1c0,1.7,0.6,3.1,1.6,4.1c1.1,1,2.3,1.5,3.7,1.5c1.8,0,3.3-1,3.9-2.2h0.1v1.7c0,0.2,0.1,0.3,0.3,0.3h1.1
		c0.2,0,0.3-0.1,0.3-0.3V36.6C68,36.5,67.9,36.3,67.7,36.3z M65.2,44.6c-0.8,0.7-1.7,1.1-2.7,1.1c-1,0-1.9-0.3-2.7-1.1
		c-0.8-0.7-1.2-1.7-1.2-3c0-1.3,0.4-2.3,1.2-3c0.8-0.7,1.7-1.1,2.7-1.1c1,0,1.9,0.3,2.7,1.1c0.8,0.7,1.2,1.7,1.2,3
		C66.4,42.9,66,43.9,65.2,44.6z"/>
	<path class="st1" d="M70.6,47h1.1c0.2,0,0.3-0.1,0.3-0.3v-5.1c0.1-1.2,0.6-2.1,1.3-2.8c0.7-0.6,1.5-1,2.4-1c0.1,0,0.2-0.1,0.2-0.3
		c0-0.3,0-0.6,0-1.1c0-0.1-0.1-0.3-0.3-0.3c-0.9,0-1.7,0.3-2.3,0.9c-0.7,0.6-1.2,1.3-1.4,2.1v-2.5c0-0.2-0.1-0.3-0.3-0.3h-1.1
		c-0.2,0-0.3,0.1-0.3,0.3v10.1C70.4,46.9,70.5,47,70.6,47z"/>
	<path class="st1" d="M85,37.6c-1.1-1-2.4-1.5-3.7-1.5C79,36.1,76,38,76,41.7c0,2.4,1.3,4.1,2.9,4.9c0.8,0.4,1.7,0.6,2.7,0.6
		c1.9,0,3.3-0.6,4.2-1.7l-1-0.9c-0.8,0.8-1.9,1.2-3.2,1.2c-1.9,0-3.6-1.1-3.9-3.1c0-0.2,0.1-0.3,0.3-0.3h8.3c0.1,0,0.3-0.1,0.3-0.3
		C86.7,40.1,86.1,38.5,85,37.6z M84.8,41H78c-0.2,0-0.3-0.2-0.3-0.3c0.2-0.9,0.6-1.6,1.3-2.2c0.7-0.6,1.5-0.9,2.4-0.9
		c0.9,0,1.7,0.3,2.5,0.9c0.7,0.6,1.1,1.3,1.2,2.2C85.1,40.9,84.9,41,84.8,41z"/>
	<path class="st1" d="M89.5,46.6c0.2,0,0.4,0,0.6-0.1c0.2-0.1,0.3-0.2,0.5-0.3c0.1-0.1,0.2-0.3,0.3-0.5c0.1-0.2,0.1-0.4,0.1-0.6
		s0-0.4-0.1-0.6c-0.1-0.2-0.2-0.3-0.3-0.5c-0.1-0.1-0.3-0.2-0.5-0.3c-0.2-0.1-0.4-0.1-0.6-0.1c-0.2,0-0.4,0-0.6,0.1
		c-0.2,0.1-0.3,0.2-0.5,0.3c-0.1,0.1-0.2,0.3-0.3,0.5c-0.1,0.2-0.1,0.4-0.1,0.6s0,0.4,0.1,0.6c0.1,0.2,0.2,0.3,0.3,0.5
		c0.1,0.1,0.3,0.2,0.5,0.3S89.3,46.6,89.5,46.6z M88.4,45.6c-0.1-0.1-0.1-0.3-0.1-0.5s0-0.3,0.1-0.5c0.1-0.1,0.2-0.3,0.3-0.4
		c0.1-0.1,0.2-0.2,0.4-0.3c0.1-0.1,0.3-0.1,0.5-0.1c0.2,0,0.3,0,0.5,0.1c0.1,0.1,0.3,0.2,0.4,0.3c0.1,0.1,0.2,0.2,0.3,0.4
		c0.1,0.1,0.1,0.3,0.1,0.5c0,0.2,0,0.3-0.1,0.5c-0.1,0.1-0.2,0.3-0.3,0.4c-0.1,0.1-0.2,0.2-0.4,0.3c-0.1,0.1-0.3,0.1-0.5,0.1
		c-0.2,0-0.3,0-0.5-0.1c-0.1-0.1-0.3-0.2-0.4-0.3C88.6,45.9,88.5,45.8,88.4,45.6z"/>
	<path class="st1" d="M89.2,46L89.2,46l0-0.7h0.3L90,46h0.2l-0.5-0.7c0.1,0,0.1,0,0.2,0c0,0,0.1,0,0.1-0.1c0,0,0.1-0.1,0.1-0.1
		c0-0.1,0-0.1,0-0.2c0-0.2,0-0.3-0.1-0.3c-0.1-0.1-0.2-0.1-0.4-0.1H89V46L89.2,46L89.2,46z M89.2,44.5h0.4c0,0,0.1,0,0.1,0
		s0.1,0,0.1,0c0,0,0.1,0,0.1,0.1c0,0,0,0.1,0,0.1c0,0.1,0,0.1,0,0.2c0,0-0.1,0.1-0.1,0.1c0,0-0.1,0-0.2,0c-0.1,0-0.1,0-0.2,0h-0.3
		V44.5z"/>
	<path class="st1" d="M51.2,59.8V56h-0.6v0.7h0c-0.2-0.4-0.7-0.8-1.4-0.8c-0.9,0-1.9,0.7-1.9,2c0,1.3,0.9,2,1.9,2
		c0.7,0,1.2-0.4,1.4-0.8h0v0.7H51.2z M49.3,59.3c-0.7,0-1.4-0.5-1.4-1.4c0-0.9,0.7-1.4,1.4-1.4c0.7,0,1.4,0.5,1.4,1.4
		C50.6,58.8,50,59.3,49.3,59.3z"/>
	<path class="st1" d="M56.8,56.7L56.8,56.7c-0.2-0.4-0.7-0.8-1.5-0.8c-0.9,0-1.9,0.7-1.9,2c0,1.3,0.9,2,1.9,2c0.7,0,1.2-0.4,1.4-0.8
		h0v0.7h0.6v-5.2h-0.6V56.7z M55.5,59.3c-0.7,0-1.4-0.5-1.4-1.4c0-0.9,0.7-1.4,1.4-1.4c0.7,0,1.4,0.5,1.4,1.4
		C56.8,58.8,56.1,59.3,55.5,59.3z"/>
	<rect x="58.3" y="54.6" class="st1" width="0.6" height="0.6"/>
	<rect x="58.3" y="56" class="st1" width="0.6" height="3.8"/>
	<polygon class="st1" points="62.7,56 61.4,59 60.1,56 59.5,56 61.1,59.8 61.7,59.8 63.3,56 	"/>
	<rect x="63.9" y="54.6" class="st1" width="0.6" height="0.6"/>
	<rect x="63.9" y="56" class="st1" width="0.6" height="3.8"/>
	<path class="st1" d="M66.8,57.6l-0.3-0.1c-0.4-0.2-0.5-0.4-0.5-0.6c0-0.3,0.3-0.5,0.6-0.5c0.3,0,0.6,0.2,0.7,0.5l0.5-0.1
		c-0.1-0.5-0.6-0.8-1.2-0.8c-0.7,0-1.2,0.4-1.2,1c0,0.4,0.3,0.8,0.9,1.1l0.3,0.1c0.4,0.2,0.7,0.3,0.7,0.7c0,0.4-0.4,0.6-0.7,0.6
		c-0.4,0-0.7-0.3-0.8-0.7l-0.5,0.1c0.1,0.7,0.6,1,1.3,1c0.7,0,1.3-0.4,1.3-1.1C67.9,58.1,67.4,57.8,66.8,57.6z"/>
	<rect x="68.5" y="56" class="st1" width="0.6" height="3.8"/>
	<rect x="68.5" y="54.6" class="st1" width="0.6" height="0.6"/>
	<path class="st1" d="M71.8,55.9c-1,0-2,0.7-2,2c0,1.3,1,2,2,2c1,0,2-0.7,2-2C73.8,56.6,72.8,55.9,71.8,55.9z M71.8,59.3
		c-0.7,0-1.4-0.5-1.4-1.4c0-0.9,0.7-1.4,1.4-1.4c0.7,0,1.4,0.5,1.4,1.4C73.2,58.8,72.5,59.3,71.8,59.3z"/>
	<path class="st1" d="M77.2,59.8h0.6v-2.2c0-1.1-0.7-1.6-1.5-1.6c-0.7,0-1.1,0.3-1.3,0.7V56h-0.6v3.8h0.6v-2.2
		c0-0.8,0.5-1.2,1.1-1.2c0.6,0,1.1,0.4,1.1,1.2V59.8z"/>
	<path class="st1" d="M82.1,55.9c-1,0-2,0.7-2,2c0,1.3,1,2,2,2c1,0,2-0.7,2-2C84.1,56.6,83.1,55.9,82.1,55.9z M82.1,59.3
		c-0.7,0-1.4-0.5-1.4-1.4c0-0.9,0.7-1.4,1.4-1.4c0.7,0,1.4,0.5,1.4,1.4C83.4,58.8,82.8,59.3,82.1,59.3z"/>
	<path class="st1" d="M86.1,55c0.1,0,0.3,0,0.5,0.1v-0.5c-0.2-0.1-0.4-0.1-0.6-0.1c-0.5,0-1.1,0.2-1.1,1.1V56h-0.4v0.5h0.4v3.3h0.6
		v-3.3h1V56h-1v-0.3C85.6,55.1,85.8,55,86.1,55z"/>
	<polygon class="st1" points="91.6,58.4 89.7,54 88.6,59.8 89.3,59.8 89.9,56.1 90,56.1 91.6,59.9 93.3,56.1 93.3,56.1 93.9,59.8 
		94.6,59.8 93.5,54 	"/>
	<path class="st1" d="M98.5,54.1c-1.6,0-2.9,1.3-2.9,2.9c0,1.6,1.3,2.9,2.9,2.9c1.6,0,2.9-1.2,2.9-2.9
		C101.4,55.4,100.1,54.1,98.5,54.1z M98.5,59.2c-1.2,0-2.2-1-2.2-2.2c0-1.2,0.9-2.2,2.2-2.2c1.3,0,2.2,1,2.2,2.2
		C100.7,58.3,99.7,59.2,98.5,59.2z"/>
	<path class="st1" d="M104.8,56.8L104.8,56.8c0.4-0.2,0.6-0.7,0.6-1.1c0-1.2-1-1.5-2-1.5h-0.7v5.5h1.3c1,0,1.9-0.4,1.9-1.5
		C105.9,57.6,105.4,56.9,104.8,56.8z M103.4,54.9h0.2c0.6,0,1.2,0.1,1.2,0.9c0,0.8-0.5,0.9-1.2,0.9h-0.2V54.9z M103.9,59.2h-0.5h0
		v-1.9h0.4c0.6,0,1.4,0.2,1.4,0.9C105.2,59,104.5,59.2,103.9,59.2z"/>
	<rect x="107.4" y="54.2" class="st1" width="0.7" height="5.5"/>
	<polygon class="st1" points="110.5,54.2 109.8,54.2 109.8,59.8 112.2,59.8 112.2,59.1 110.5,59.1 	"/>
	<polygon class="st1" points="116.3,54.9 116.3,54.2 113.3,54.2 113.3,59.8 116.3,59.8 116.3,59.1 114,59.1 114,57.1 116.2,57.1 
		116.2,56.4 114,56.4 114,54.9 	"/>
	<polygon class="st1" points="51.3,63.9 49.7,68 48,63.9 47.3,63.9 49.7,69.7 52.1,63.9 	"/>
	<path class="st1" d="M52,69.4h0.7l0.6-1.4h2.5l0.6,1.4h0.7l-2.6-5.8L52,69.4z M55.6,67.4h-2l1-2.2L55.6,67.4z"/>
	<path class="st1" d="M60.2,66.1L59.8,66c-0.3-0.1-0.8-0.4-0.8-0.8c0-0.5,0.5-0.8,0.9-0.8c0.4,0,0.7,0.2,0.9,0.5l0.5-0.3
		c-0.3-0.5-0.8-0.8-1.4-0.8c-0.8,0-1.6,0.5-1.6,1.4c0,0.8,0.6,1.1,1.2,1.4l0.4,0.2c0.5,0.2,1,0.5,1,1c0,0.6-0.4,1.1-1,1.1
		c-0.6,0-1.1-0.4-1.1-1L58.1,68c0.1,0.9,0.8,1.5,1.7,1.5c1,0,1.8-0.7,1.8-1.7C61.6,66.9,61,66.4,60.2,66.1z"/>
	<path class="st1" d="M62.7,66.7c0,1.6,1.3,2.8,2.9,2.8c0.5,0,1-0.1,1.5-0.4v-0.8c-0.4,0.4-0.9,0.6-1.5,0.6c-1.2,0-2.2-1-2.2-2.2
		c0-1.2,0.9-2.3,2.2-2.3c0.5,0,1.1,0.2,1.5,0.5v-0.8c-0.4-0.3-0.9-0.4-1.4-0.4C64.1,63.8,62.7,65,62.7,66.7z"/>
	<path class="st1" d="M71.9,67.1c0,0.9-0.3,1.7-1.3,1.7c-1.1,0-1.3-0.8-1.3-1.7v-3.3h-0.7v3.5c0,1.2,0.8,2.1,2,2.1
		c1.3,0,2-0.9,2-2.1v-3.5h-0.7V67.1z"/>
	<polygon class="st1" points="74.9,63.9 74.2,63.9 74.2,69.4 76.6,69.4 76.6,68.8 74.9,68.8 	"/>
	<path class="st1" d="M77.2,69.4h0.7l0.6-1.4h2.5l0.6,1.4h0.7l-2.6-5.8L77.2,69.4z M80.8,67.4h-2l1-2.2L80.8,67.4z"/>
	<path class="st1" d="M86.6,65.4c0-0.5-0.3-1-0.7-1.3c-0.4-0.2-1-0.3-1.5-0.3h-0.8v5.5h0.7v-2.3h0.3l1.6,2.3h0.8L85.3,67
		C86.1,66.9,86.6,66.2,86.6,65.4z M84.5,66.5h-0.2v-2h0.2c0.7,0,1.5,0.1,1.5,1C86,66.4,85.2,66.5,84.5,66.5z"/>
	<path class="st1" d="M91.9,63.9h-0.8v5.5h0.7v-2.3h0.4c1,0,1.9-0.4,1.9-1.6C94.2,64.5,93.6,63.9,91.9,63.9z M92.1,66.5h-0.2v-2H92
		c0.7,0,1.5,0.1,1.5,1C93.5,66.3,92.8,66.5,92.1,66.5z"/>
	<polygon class="st1" points="98.7,66.1 96.1,66.1 96.1,63.9 95.4,63.9 95.4,69.4 96.1,69.4 96.1,66.7 98.7,66.7 98.7,69.4 
		99.4,69.4 99.4,63.9 98.7,63.9 	"/>
	<polygon class="st1" points="102.7,66.2 101.4,63.9 100.6,63.9 102.4,67 102.4,69.4 103.1,69.4 103.1,67 104.9,63.9 104.1,63.9 	
		"/>
	<path class="st1" d="M107.9,66.1l-0.4-0.2c-0.3-0.1-0.8-0.4-0.8-0.8c0-0.5,0.5-0.8,0.9-0.8c0.4,0,0.7,0.2,0.9,0.5l0.6-0.3
		c-0.3-0.5-0.8-0.8-1.4-0.8c-0.8,0-1.6,0.5-1.6,1.4c0,0.8,0.6,1.1,1.2,1.4l0.4,0.2c0.5,0.2,1,0.5,1,1c0,0.6-0.4,1.1-1,1.1
		s-1.1-0.4-1.1-1l-0.7,0.1c0.1,0.9,0.8,1.5,1.7,1.5c1,0,1.8-0.7,1.8-1.7C109.2,66.9,108.6,66.4,107.9,66.1z"/>
	<rect x="110.7" y="63.9" class="st1" width="0.7" height="5.5"/>
	<path class="st1" d="M112.8,66.7c0,1.6,1.3,2.8,2.9,2.8c0.5,0,1-0.1,1.5-0.4v-0.8c-0.4,0.4-0.9,0.6-1.5,0.6c-1.2,0-2.2-1-2.2-2.2
		c0-1.2,0.9-2.3,2.2-2.3c0.5,0,1.1,0.2,1.5,0.5v-0.8c-0.4-0.3-0.9-0.4-1.4-0.4C114.1,63.8,112.8,65,112.8,66.7z"/>
	<rect x="118.6" y="63.9" class="st1" width="0.7" height="5.5"/>
	<path class="st1" d="M120.5,69.4h0.7l0.6-1.4h2.5l0.6,1.4h0.7l-2.6-5.8L120.5,69.4z M122.2,67.4l1-2.2l1,2.2H122.2z"/>
	<polygon class="st1" points="131,67.9 126.9,63.6 126.9,69.4 127.6,69.4 127.6,65.3 131.7,69.6 131.7,63.9 131,63.9 	"/>
	<path class="st1" d="M135.2,66.1l-0.4-0.2c-0.3-0.1-0.8-0.4-0.8-0.8c0-0.5,0.5-0.8,0.9-0.8c0.4,0,0.7,0.2,0.9,0.5l0.5-0.3
		c-0.3-0.5-0.8-0.8-1.4-0.8c-0.8,0-1.6,0.5-1.6,1.4c0,0.8,0.6,1.1,1.2,1.4l0.4,0.2c0.5,0.2,1,0.5,1,1c0,0.6-0.4,1.1-1,1.1
		s-1.1-0.4-1.1-1l-0.7,0.1c0.1,0.9,0.8,1.5,1.7,1.5c1,0,1.8-0.7,1.8-1.7C136.6,66.9,136,66.4,135.2,66.1z"/>
	<path class="st1" d="M24.1,30.4c-0.2,0-0.3,0.1-0.3,0.2c0,0.2,0.1,0.3,0.2,0.3c3.2,0.6,5.2,1.7,5.2,2.7c0,1.5-4.6,3.2-11.1,3.2
		C11.5,36.9,7,35.2,7,33.6c0-0.8,1.1-1.6,3.1-2.2c0.2,0,0.2-0.2,0.2-0.4c0-0.2-0.2-0.2-0.4-0.2c-2.3,0.7-3.5,1.7-3.5,2.7
		c0,2.4,6,3.8,11.7,3.8c5.8,0,11.7-1.4,11.7-3.8C29.8,32.2,27.7,31,24.1,30.4z"/>
	<path class="st2" d="M10.7,26c0.6-2,2.5-10,2.5-10c0.6-2.6,0.8-2.6,0.5-5c-0.2-1.3-1-3.8-1.3-5c-0.4-2-0.6-3.6-0.8-4.8
		c0-0.3-0.3-0.6-0.7-0.7c-0.4,0-0.8-0.1-1.2-0.1c-2.6,0-4.8,1-6.8,3C-1,7.4-1,14,2.9,18l6.6,8.2C9.9,26.6,10.5,26.4,10.7,26z
		 M6.3,13.5c-1.9,0-3.4-1.5-3.4-3.4s1.5-3.4,3.4-3.4c1.9,0,3.4,1.5,3.4,3.4S8.2,13.5,6.3,13.5z"/>
</g>
</svg>
