<?xml version="1.0" encoding="utf-8"?>
<!-- Generator: Adobe Illustrator 24.3.2, SVG Export Plug-In . SVG Version: 6.00 Build 0)  -->
<svg version="1.1" id="Layer_1" xmlns="http://www.w3.org/2000/svg" xmlns:xlink="http://www.w3.org/1999/xlink" x="0px" y="0px"
	 width="131.21px" height="94.89px" viewBox="0 0 131.21 94.89" style="enable-background:new 0 0 131.21 94.89;"
	 xml:space="preserve">
<style type="text/css">
	.st0{fill:#C3E8F5;}
</style>
<g>
	<path class="st0" d="M70.63,94.89c-2.19,0-3.65-1.82-2.92-4.01l10.95-40.14V4.01c0-2.19,1.82-4.01,4.01-4.01h44.52
		c2.19,0,4.01,1.82,4.01,4.01v42.33c0,2.55-1.09,5.11-2.55,7.3l-28.1,37.96c-1.46,2.19-4.01,3.28-6.57,3.28H70.63z M3.11,94.89
		c-2.19,0-3.65-1.82-2.92-4.01l10.95-40.14V4.01c0-2.19,1.82-4.01,4.01-4.01h44.52c2.19,0,4.01,1.82,4.01,4.01v42.33
		c0,2.55-1.09,5.11-2.55,7.3L33.04,91.6c-1.46,2.19-4.01,3.28-6.57,3.28H3.11z"/>
</g>
</svg>
