<?xml version="1.0" encoding="utf-8"?>
<!-- Generator: Adobe Illustrator 24.3.2, SVG Export Plug-In . SVG Version: 6.00 Build 0)  -->
<svg version="1.1" id="Layer_1" xmlns="http://www.w3.org/2000/svg" xmlns:xlink="http://www.w3.org/1999/xlink" x="0px" y="0px"
	 width="75.24px" height="75.24px" viewBox="0 0 75.24 75.24" style="enable-background:new 0 0 75.24 75.24;" xml:space="preserve"
	>
<style type="text/css">
	.st0{fill:#FFFFFF;}
	.st1{fill:#00465F;}
</style>
<circle class="st0" cx="37.62" cy="37.62" r="37.62"/>
<g>
	<path class="st1" d="M36.33,25.37c0.57,0,0.94,0.47,0.75,1.04l-2.83,10.36v12.06c0,0.57-0.47,1.04-1.04,1.04H21.72
		c-0.57,0-1.04-0.47-1.04-1.04V37.9c0-0.66,0.28-1.32,0.66-1.88l7.25-9.8c0.38-0.57,1.04-0.85,1.7-0.85H36.33z M53.76,25.37
		c0.57,0,0.94,0.47,0.75,1.04l-2.83,10.36v12.06c0,0.57-0.47,1.04-1.04,1.04H39.15c-0.57,0-1.04-0.47-1.04-1.04V37.9
		c0-0.66,0.28-1.32,0.66-1.88l7.25-9.8c0.38-0.57,1.04-0.85,1.7-0.85H53.76z"/>
</g>
</svg>
