<?xml version="1.0" encoding="utf-8"?>
<!-- Generator: Adobe Illustrator 25.4.1, SVG Export Plug-In . SVG Version: 6.00 Build 0)  -->
<svg version="1.1" id="Layer_1" xmlns="http://www.w3.org/2000/svg" xmlns:xlink="http://www.w3.org/1999/xlink" x="0px" y="0px"
	 width="77px" height="55.7px" viewBox="0 0 77 55.7" style="enable-background:new 0 0 77 55.7;" xml:space="preserve">
<style type="text/css">
	.st0{opacity:0.25;}
	.st1{clip-path:url(#SVGID_00000022560602158174818380000001565323900039042180_);fill:#049FDA;}
</style>
<g class="st0">
	<g>
		<g>
			<g>
				<defs>
					<rect id="SVGID_1_" width="77" height="55.7"/>
				</defs>
				<clipPath id="SVGID_00000045615951426294138030000011382173869098622908_">
					<use xlink:href="#SVGID_1_"  style="overflow:visible;"/>
				</clipPath>
				<path style="clip-path:url(#SVGID_00000045615951426294138030000011382173869098622908_);fill:#049FDA;" d="M35.5,0
					c1.3,0,2.1,1,1.8,2.4l-6.4,23.5v27.4c0,1.3-1,2.4-2.4,2.4H2.4c-1.3,0-2.4-1-2.4-2.4V28.4c0-1.5,0.7-3,1.5-4.3L17.9,1.9
					C18.8,0.7,20.3,0,21.8,0H35.5z M75.1,0c1.3,0,2.1,1,1.8,2.4l-6.4,23.5v27.4c0,1.3-1,2.4-2.4,2.4H42.1c-1.3,0-2.4-1-2.4-2.4V28.4
					c0-1.5,0.7-3,1.5-4.3L57.6,1.9C58.5,0.7,60,0,61.5,0H75.1z"/>
			</g>
		</g>
	</g>
</g>
</svg>
