<?xml version="1.0" encoding="utf-8"?>
<!-- Generator: Adobe Illustrator 25.4.1, SVG Export Plug-In . SVG Version: 6.00 Build 0)  -->
<svg version="1.1" id="Layer_1" xmlns="http://www.w3.org/2000/svg" xmlns:xlink="http://www.w3.org/1999/xlink" x="0px" y="0px"
	 width="39px" height="39px" viewBox="0 0 39 39" style="enable-background:new 0 0 39 39;" xml:space="preserve">
<style type="text/css">
	.st0{fill:#00465F;}
</style>
<g>
	<path class="st0" d="M22.8,23.1c-0.1,0-0.1,0-0.2,0c-0.6-0.1-1.2-0.3-1.7-0.8l-1.4-1.4c-0.2-0.2-0.2-0.6,0-0.9
		c0.2-0.2,0.6-0.2,0.9,0l1.4,1.4c0.3,0.3,0.6,0.4,0.9,0.4c0.3,0,0.5-0.1,0.7-0.2c0.2-0.2,0.2-0.4,0.2-0.7c0-0.3-0.2-0.6-0.4-0.9
		l-7.6-7.6c-0.2-0.2-0.2-0.6,0-0.9c0.2-0.2,0.6-0.2,0.9,0l7.6,7.6c0.5,0.5,0.7,1,0.8,1.7c0.1,0.7-0.1,1.2-0.6,1.7
		C23.9,22.8,23.3,23.1,22.8,23.1"/>
	<path class="st0" d="M19.3,24.1c-0.1,0-0.1,0-0.2,0c-0.6-0.1-1.2-0.3-1.7-0.8l-2.8-2.8c-0.2-0.2-0.2-0.6,0-0.9
		c0.2-0.2,0.6-0.2,0.9,0l2.8,2.8c0.3,0.3,0.6,0.4,0.9,0.4c0.3,0,0.5-0.1,0.7-0.2s0.2-0.4,0.2-0.7c0-0.3-0.2-0.6-0.4-0.9l-6.4-6.4
		c-0.2-0.2-0.2-0.6,0-0.9c0.2-0.2,0.6-0.2,0.9,0l6.4,6.4c0.5,0.5,0.7,1.1,0.8,1.7c0.1,0.7-0.2,1.3-0.6,1.7
		C20.4,23.9,19.9,24.1,19.3,24.1"/>
	<path class="st0" d="M14.7,23.6c-0.1,0-0.1,0-0.2,0c-0.6,0-1.1-0.3-1.5-0.7c0,0-5.1-5.1-5.1-5.1c-3-3-3.9-5-4.7-6.8
		C2.4,9.5,1.8,8.2,0.2,6.6c-0.2-0.2-0.2-0.6,0-0.9c0.2-0.2,0.6-0.2,0.9,0c1.8,1.8,2.5,3.2,3.2,4.8C5,12.2,5.8,14,8.7,16.8
		c0.1,0.1,5.1,5.1,5.1,5.1c0.2,0.2,0.5,0.4,0.8,0.4c0.1,0,0.4,0,0.6-0.2c0.2-0.2,0.2-0.4,0.2-0.6c0-0.3-0.2-0.5-0.4-0.8L11,16.9
		c-0.2-0.2-0.2-0.6,0-0.9c0.2-0.2,0.6-0.2,0.9,0l3.9,3.9c0.4,0.4,0.7,1,0.7,1.5c0.1,0.6-0.1,1.2-0.5,1.6
		C15.7,23.4,15.2,23.6,14.7,23.6"/>
	<path class="st0" d="M23.2,19c-0.7,0-1.3-0.3-1.9-0.8c-0.2-0.2-0.2-0.6,0-0.9c0.2-0.2,0.6-0.2,0.9,0c0.5,0.5,1.2,0.6,1.6,0.2
		c0.4-0.4,0.3-1.1-0.2-1.6L16,8.3c-0.2-0.2-0.2-0.6-0.1-0.8c0.2-0.2,0.5-0.3,0.8-0.2c0.8,0.4,1.4,0.6,2.8,1.2c2,0.9,3.5,1,4.1,0.7
		c0.1,0,0.2-0.1,0.2-0.2c0.2-0.6-1.5-1.5-2.9-2.2c-0.2-0.1-0.5-0.2-0.7-0.4C19.5,6.2,19,6,18.6,5.7c-1.3-0.7-2.3-1.3-5.8-2.1
		c-0.6-0.1-1.2-0.2-1.8-0.3C9.3,3.1,7.5,2.9,5.7,1.1c-0.2-0.2-0.2-0.6,0-0.9c0.2-0.2,0.6-0.2,0.9,0c1.5,1.5,3,1.7,4.6,1.9
		c0.6,0.1,1.3,0.1,1.9,0.3c3.7,0.9,4.8,1.5,6.1,2.3c0.4,0.2,0.9,0.5,1.5,0.8c0.2,0.1,0.5,0.2,0.7,0.4c2.1,1,4.2,2,3.6,3.7
		c-0.1,0.3-0.3,0.7-0.9,0.9c-1.1,0.5-2.8,0.2-4.8-0.6l5.2,5.2c1,1,1.1,2.5,0.2,3.3C24.3,18.8,23.8,19,23.2,19"/>
	<path class="st0" d="M27.1,23.7c-0.2,0-0.3-0.1-0.4-0.2l-0.9-0.9c-0.2-0.2-0.2-0.6,0-0.9c0.2-0.2,0.6-0.2,0.9,0l0.9,0.9
		c0.2,0.2,0.2,0.6,0,0.9C27.4,23.6,27.2,23.7,27.1,23.7"/>
	<path class="st0" d="M24.8,25.9c-0.2,0-0.3-0.1-0.4-0.2l-1.1-1.1c-0.2-0.2-0.2-0.6,0-0.9c0.2-0.2,0.6-0.2,0.9,0l1.1,1.1
		c0.2,0.2,0.2,0.6,0,0.9C25.2,25.9,25,25.9,24.8,25.9"/>
	<path class="st0" d="M22.6,28.2c-0.2,0-0.3-0.1-0.4-0.2L20,25.8c-0.2-0.2-0.2-0.6,0-0.9c0.2-0.2,0.6-0.2,0.9,0l2.2,2.2
		c0.2,0.2,0.2,0.6,0,0.9C22.9,28.1,22.7,28.2,22.6,28.2"/>
	<path class="st0" d="M32.9,39c-0.2,0-0.3-0.1-0.4-0.2c-1.7-1.7-2.9-2.2-4.4-2.9c-1.8-0.8-3.8-1.7-6.8-4.7c0,0-5.8-5.8-5.8-5.8
		l0.9-0.9c0,0,5.8,5.8,5.8,5.8c2.8,2.8,4.6,3.7,6.4,4.5c1.5,0.7,2.9,1.3,4.8,3.2c0.2,0.2,0.2,0.6,0,0.9C33.2,39,33.1,39,32.9,39"/>
	<path class="st0" d="M38.4,33.5c-0.2,0-0.3-0.1-0.4-0.2c-1.9-1.9-2-3.6-2.2-5.3c-0.1-0.6-0.1-1.2-0.3-1.8c-0.8-3.5-1.4-4.5-2.1-5.8
		c-0.3-0.4-0.5-0.9-0.8-1.5c-0.1-0.2-0.2-0.5-0.4-0.7c-0.7-1.4-1.5-3.2-2.2-2.9c-0.1,0-0.2,0.1-0.2,0.2c-0.3,0.6-0.2,2.1,0.7,4
		c0.8,1.8,1,2.4,1.6,3.5c0.3,0.6,0.3,1.3,0,1.9c-0.4,0.8-0.9,2.4,0.1,3.7c0.2,0.3,0.1,0.7-0.1,0.9c-0.3,0.2-0.7,0.1-0.9-0.1
		c-1.4-1.9-0.7-4-0.2-5c0.1-0.3,0.1-0.6,0-0.8c-0.5-1.2-0.8-1.8-1.6-3.5c-0.9-2.1-1.2-4-0.7-5.1c0.2-0.6,0.6-0.8,0.9-0.9
		c1.7-0.6,2.7,1.5,3.7,3.6l0.4,0.7c0.3,0.6,0.5,1,0.8,1.5c0.8,1.3,1.4,2.5,2.3,6.1c0.2,0.7,0.2,1.3,0.3,1.9c0.2,1.6,0.3,3,1.9,4.6
		c0.2,0.2,0.2,0.6,0,0.9C38.7,33.5,38.6,33.5,38.4,33.5"/>
	<path class="st0" d="M31.1,23.2c-0.2,0-0.3-0.1-0.4-0.2l-4.4-4.4c-0.2-0.2-0.2-0.6,0-0.9c0.2-0.2,0.6-0.2,0.9,0l4.4,4.4
		c0.2,0.2,0.2,0.6,0,0.9C31.4,23.2,31.3,23.2,31.1,23.2"/>
</g>
</svg>
