<?xml version="1.0" encoding="utf-8"?>
<!-- Generator: Adobe Illustrator 23.0.5, SVG Export Plug-In . SVG Version: 6.00 Build 0)  -->
<svg version="1.1" id="Layer_1" xmlns="http://www.w3.org/2000/svg" xmlns:xlink="http://www.w3.org/1999/xlink" x="0px" y="0px"
	 viewBox="0 0 46 45" style="enable-background:new 0 0 46 45;" xml:space="preserve">
<style type="text/css">
	.st0{fill:#159DD9;}
</style>
<path class="st0" d="M23.1,22.1c-3.3,0-9.1,1.6-9.1,4.8v7.7c0,1.8,1.6,3.6,3.4,3.9v4.7h1V28.6h-1v8.9c-1.4-0.3-2.5-1.7-2.5-2.9v-7.7
	c0-2.4,5.2-3.8,8.1-3.8c2.8,0,8.1,1.4,8.1,3.8v7.7c0,1.2-1.1,2.6-2.5,2.9v-8.9h-1v14.6h1v-4.7c1.8-0.3,3.4-2,3.4-3.9v-7.7
	C32.2,23.7,26.4,22.1,23.1,22.1"/>
<path class="st0" d="M34.3,24.7c-0.3,0-0.6,0-0.9,0l0.1,1c0.3,0,0.6,0,0.8,0c2.5,0,7.2,1.3,7.2,3.8v7.7c0,1.2-1.2,1.9-2.5,2.1v-8.1
	h-1v12h1v-3c1.7-0.2,3.4-1.2,3.4-3v-7.7C42.5,26.3,37.2,24.7,34.3,24.7"/>
<path class="st0" d="M19.2,16.9c0,2.1,1.6,3.6,3.9,3.6s3.9-1.5,3.9-3.6v-1.5c0-2.1-1.6-3.6-3.9-3.6s-3.9,1.5-3.9,3.6V16.9z
	 M20.2,15.4c0-1.5,1.2-2.6,2.9-2.6s2.9,1.1,2.9,2.6v1.5c0,1.5-1.2,2.6-2.9,2.6s-2.9-1.1-2.9-2.6V15.4z"/>
<path class="st0" d="M39.1,19.5v-1.5c0-2.1-1.6-3.6-3.9-3.6s-3.9,1.5-3.9,3.6v1.5c0,2.1,1.6,3.6,3.9,3.6S39.1,21.6,39.1,19.5
	 M32.2,19.5v-1.5c0-1.5,1.2-2.6,2.9-2.6s2.9,1.1,2.9,2.6v1.5c0,1.5-1.2,2.6-2.9,2.6S32.2,21,32.2,19.5"/>
<path class="st0" d="M3.8,29.4v7.7c0,1.8,1.7,2.9,3.4,3v3h1v-12h-1v8.1c-1.3-0.1-2.5-0.9-2.5-2.1v-7.7c0-2.5,4.8-3.8,7.2-3.8
	c0.3,0,0.5,0,0.8,0l0.1-1c-0.3,0-0.6,0-0.9,0C9.1,24.7,3.8,26.3,3.8,29.4"/>
<path class="st0" d="M15.1,17.9c0-2.1-1.6-3.6-3.9-3.6s-3.9,1.5-3.9,3.6v1.5c0,2.1,1.6,3.6,3.9,3.6s3.9-1.5,3.9-3.6V17.9z
	 M14.1,19.5c0,1.5-1.2,2.6-2.9,2.6S8.2,21,8.2,19.5v-1.5c0-1.5,1.2-2.6,2.9-2.6s2.9,1.1,2.9,2.6V19.5z"/>
<path class="st0" d="M15.4,12.8c2.3,0,3.9-1.5,3.9-3.6V7.7c0-2.1-1.6-3.6-3.9-3.6s-3.9,1.5-3.9,3.6v1.5
	C11.5,11.3,13.2,12.8,15.4,12.8 M12.5,7.7c0-1.5,1.2-2.6,2.9-2.6s2.9,1.1,2.9,2.6v1.5c0,1.5-1.2,2.6-2.9,2.6s-2.9-1.1-2.9-2.6V7.7z"
	/>
<path class="st0" d="M30.9,12.8c2.3,0,3.9-1.5,3.9-3.6V7.7c0-2.1-1.6-3.6-3.9-3.6s-3.9,1.5-3.9,3.6v1.5
	C26.9,11.3,28.6,12.8,30.9,12.8 M27.9,7.7c0-1.5,1.2-2.6,2.9-2.6s2.9,1.1,2.9,2.6v1.5c0,1.5-1.2,2.6-2.9,2.6s-2.9-1.1-2.9-2.6V7.7z"
	/>
</svg>
