<?xml version="1.0" encoding="utf-8"?>
<!-- Generator: Adobe Illustrator 23.0.5, SVG Export Plug-In . SVG Version: 6.00 Build 0)  -->
<svg version="1.1" id="Layer_1" xmlns="http://www.w3.org/2000/svg" xmlns:xlink="http://www.w3.org/1999/xlink" x="0px" y="0px"
	 viewBox="0 0 46 45" style="enable-background:new 0 0 46 45;" xml:space="preserve">
<style type="text/css">
	.st0{fill:#159DD9;}
</style>
<path class="st0" d="M41.4,42.4V3.5H20.7v9.1H4.9v29.8H2.7v1h2.2h22.2h1.8h2.5h6.5h3.5h2.2v-1H41.4z M27.1,42.4H5.8V13.6h22.1v28.8
	H27.1z M32.4,35.3h4.5v7.2h-4.5V35.3z M37.9,42.4v-8.1h-6.5v8.1h-2.5V12.6h-7.2V4.5h18.8v37.9H37.9z"/>
<path class="st0" d="M9.8,19.5h3.5v-3H9.8V19.5z M10.8,17.4h1.6v1.1h-1.6V17.4z"/>
<path class="st0" d="M15.5,19.5H19v-3h-3.5V19.5z M16.5,17.4H18v1.1h-1.6V17.4z"/>
<path class="st0" d="M21.2,19.5h3.5v-3h-3.5V19.5z M22.1,17.4h1.6v1.1h-1.6V17.4z"/>
<path class="st0" d="M32.9,30.3h3.5v-3h-3.5V30.3z M33.9,28.2h1.6v1.1h-1.6V28.2z"/>
<path class="st0" d="M32.9,25.4h3.5v-3h-3.5V25.4z M33.9,23.4h1.6v1.1h-1.6V23.4z"/>
<path class="st0" d="M32.9,20.5h3.5v-3h-3.5V20.5z M33.9,18.5h1.6v1.1h-1.6V18.5z"/>
<path class="st0" d="M32.9,15.6h3.5v-3h-3.5V15.6z M33.9,13.6h1.6v1.1h-1.6V13.6z"/>
<path class="st0" d="M32.9,10.8h3.5v-3h-3.5V10.8z M33.9,8.7h1.6v1.1h-1.6V8.7z"/>
<path class="st0" d="M25.4,10.8h3.5v-3h-3.5V10.8z M26.3,8.7h1.6v1.1h-1.6V8.7z"/>
<path class="st0" d="M9.8,24.3h3.5v-3H9.8V24.3z M10.8,22.2h1.6v1.1h-1.6V22.2z"/>
<path class="st0" d="M15.5,24.3H19v-3h-3.5V24.3z M16.5,22.2H18v1.1h-1.6V22.2z"/>
<path class="st0" d="M21.2,24.3h3.5v-3h-3.5V24.3z M22.1,22.2h1.6v1.1h-1.6V22.2z"/>
<path class="st0" d="M9.8,29.1h3.5v-3H9.8V29.1z M10.8,27h1.6v1.1h-1.6V27z"/>
<path class="st0" d="M15.5,29.1H19v-3h-3.5V29.1z M16.5,27H18v1.1h-1.6V27z"/>
<path class="st0" d="M21.2,29.1h3.5v-3h-3.5V29.1z M22.1,27h1.6v1.1h-1.6V27z"/>
<path class="st0" d="M9.8,33.9h3.5v-3H9.8V33.9z M10.8,31.8h1.6v1.1h-1.6V31.8z"/>
<path class="st0" d="M15.5,33.9H19v-3h-3.5V33.9z M16.5,31.8H18v1.1h-1.6V31.8z"/>
<path class="st0" d="M21.2,33.9h3.5v-3h-3.5V33.9z M22.1,31.8h1.6v1.1h-1.6V31.8z"/>
<path class="st0" d="M9.8,38.7h3.5v-3H9.8V38.7z M10.8,36.6h1.6v1.1h-1.6V36.6z"/>
<path class="st0" d="M15.5,38.7H19v-3h-3.5V38.7z M16.5,36.6H18v1.1h-1.6V36.6z"/>
<path class="st0" d="M21.2,38.7h3.5v-3h-3.5V38.7z M22.1,36.6h1.6v1.1h-1.6V36.6z"/>
</svg>
