<?xml version="1.0" encoding="utf-8"?>
<!-- Generator: Adobe Illustrator 25.4.1, SVG Export Plug-In . SVG Version: 6.00 Build 0)  -->
<svg version="1.1" id="Layer_1" xmlns="http://www.w3.org/2000/svg" xmlns:xlink="http://www.w3.org/1999/xlink" x="0px" y="0px"
	 width="29.1px" height="30.4px" viewBox="0 0 29.1 30.4" style="enable-background:new 0 0 29.1 30.4;" xml:space="preserve">
<style type="text/css">
	.st0{fill:none;stroke:#C3E8F5;stroke-width:0.722;stroke-miterlimit:10;}
</style>
<path class="st0" d="M25.3,21.4c0.7,0.8,1.2,5,1.2,5.8c0,0,0,0.1,0.1,0.1c0,0,0.1,0,0.1-0.1c0-0.9-0.6-5.1-1.3-5.9
	c-0.3-0.3-1.1-0.8-2.7-1.5l0,0c-0.3-0.2-0.7-0.3-1-0.5l-0.1,0l0-0.1c-0.4-0.7-1-1-1.6-1.1h0l-2.1-0.6l0,0c-0.2-0.1-0.8-0.6-0.8-1.2
	v-0.9l0.1-0.1c0.8-0.7,1.4-1.7,1.7-3l0-0.1l0.1,0c0.2-0.1,1-0.4,1-1.8c0-0.5-0.1-0.8-0.2-0.9l0-0.1l0-0.1C20,8.5,20,7.7,20,7
	c0-0.7-0.2-1.8-0.6-2.6l-0.1-0.1l0.1-0.1c0.4-0.6,0.3-1.4,0.3-1.4c0,0,0-0.1-0.1-0.1c-0.1,0-1.3,0.1-2.5-0.2l0,0
	C16.2,2.2,15.3,2,14.4,2c-1.9,0-2.9,0.4-3.7,1.5l0,0.1l-0.1,0c-0.9,0.4-1.8,1.5-1.8,3c0,1.7,0,2,0.2,2.6l0,0.1l0,0.1
	C9,9.6,8.9,9.9,8.9,10.3c0,1.4,0.8,1.8,1,1.8l0.1,0l0,0.1c0.3,1.3,0.9,2.3,1.7,3l0.1,0.1v0.9c0,0.6-0.5,1-0.7,1.1l-0.1,0l-0.1,0
	c-1,0-1.8,0.4-2.4,1l0,0l0,0c-0.8,0.5-1.7,0.9-2.4,1.2c-1.5,0.7-2.4,1.2-2.7,1.5c-0.7,0.9-1.3,5-1.3,5.9c0,0,0,0.1,0.1,0.1
	c0,0,0.1,0,0.1-0.1c0-0.9,0.6-5,1.2-5.8c0.3-0.3,1.2-0.8,2.6-1.5l0,0c0.5-0.2,0.9-0.5,1.4-0.7l0.6-0.3L8,19.5
	c-0.2,0.5-0.3,1-0.3,1.6l0,0.2l-0.2,0c-1.3,0.1-2.3,1.3-2.3,2.6v3.4c0,0,0,0.1,0.1,0.1h0.9c0,0,0.1,0,0.1-0.1s0-0.1-0.1-0.1H5.3
	v-3.3c0-1.3,1.1-2.4,2.4-2.4s2.4,1.1,2.4,2.4v3.3H9.3c0,0-0.1,0-0.1,0.1s0,0.1,0.1,0.1h0.9c0,0,0.1,0,0.1-0.1v-3.4
	c0-1.3-1-2.4-2.3-2.6l-0.2,0l0-0.2c0-0.7,0.2-1.6,0.8-2.3l0,0l0.3-0.1l2.1-0.8l0,0.3c0,1.3,0.3,4.7,1.2,9.2c0,0,0.1,0.1,0.1,0.1
	c0,0,0,0,0,0c0,0,0,0,0-0.1c-1.1-5-1.2-8.8-1.3-9.5l0-0.1l0.1-0.1c0.2-0.2,0.7-0.6,0.7-1.2v-0.8l0.4,0.2c0.1,0,0.1,0.1,0.2,0.1
	c0.4,0.3,0.8,0.6,1.9,0.6c1.1,0,1.5-0.3,1.9-0.5c0.1,0,0.1-0.1,0.2-0.1l0.4-0.2v0.8c0,0.6,0.5,1.1,0.7,1.2l0.1,0.1l0,0.1
	c0,0.7-0.1,4.5-1.3,9.5c0,0,0,0.1,0,0.1c0,0,0,0,0.1,0c0,0,0.1,0,0.1-0.1c1-4.5,1.2-8,1.3-9.3l0-0.3l2,0.6l0.8,3.1l-1.1,1.4
	l-0.9-0.7c0,0,0,0-0.1,0c0,0,0,0-0.1,0c0,0,0,0,0,0.1c0,0,0,0,0,0.1l1.6,1.2l0,0.2c-0.2,0.6-0.8,2.7-1.2,3.6c0,0,0,0.1,0,0.1
	c0,0,0.1,0,0.1,0c0.4-1,1.3-3.8,1.3-3.8c0,0,0-0.1,0-0.1l-0.7-0.5l1.1-1.5c0,0,0,0,0-0.1l-0.7-2.7l0.5,0.2c0.3,0.2,0.6,0.3,0.9,0.5
	l0.1,0l0,0.1c0.7,1.3,0.8,3.5,0.8,5v0.2l-0.2,0C21.5,24.8,21,25.4,21,26c0,0.7,0.6,1.3,1.3,1.3s1.3-0.6,1.3-1.3
	c0-0.6-0.4-1.2-1.1-1.3l-0.2,0l0-0.2c0-1.2,0-3.1-0.5-4.4l-0.2-0.5l0.8,0.4C24.1,20.7,25,21.1,25.3,21.4z M9,6.6
	C9,5.1,9.9,4,10.8,3.6c0,0,0,0,0,0c0.5-0.8,1.3-1.5,3.6-1.5c0.9,0,1.8,0.2,2.5,0.5c0,0,0,0,0,0l0,0c1,0.3,1.8,0.3,2.3,0.3l0.2,0
	l0,0.2c0,0.3-0.1,0.7-0.4,1.1c0,0,0,0.1,0,0.1C19.6,5,19.8,6.2,19.8,7c0,0.6,0,1.3-0.1,1.9l-0.1,0.2l-0.2-0.1
	c-0.3-0.1-0.5-0.5-0.8-1c-0.4-0.8-0.9-1.7-2.2-1.7c-0.2,0-0.4,0-0.7,0.1c-1,0.2-2.6,0.4-3.8-0.7c0,0,0,0-0.1,0c0,0-0.1,0-0.1,0
	C11.1,7.5,10.4,8.5,9.5,9L9.2,9.2L9.2,8.9C9,8.4,9,8,9,6.6z M16.9,15.3C16.9,15.3,16.9,15.3,16.9,15.3L16.9,15.3
	c-0.1,0.1-0.2,0.2-0.3,0.2h0c-0.1,0.1-0.2,0.2-0.3,0.2c-0.4,0.3-0.7,0.5-1.8,0.5c-1.1,0-1.4-0.3-1.8-0.5c-0.1-0.1-0.2-0.1-0.3-0.2
	c-0.1-0.1-0.2-0.1-0.3-0.2l0,0c0,0,0,0,0,0l0,0c-1.1-0.8-1.5-2.2-1.7-3.2c0,0,0-0.1-0.1-0.1c0,0-1.1-0.1-1.1-1.7
	c0-0.5,0.1-0.8,0.2-1l0,0c0,0,0,0,0,0l0,0l0,0c1-0.5,1.7-1.4,2.4-3L11.9,6l0.2,0.2c1.2,0.9,2.6,0.6,3.6,0.5c0.3,0,0.5-0.1,0.7-0.1
	c1.2,0,1.6,0.9,2,1.6c0.3,0.5,0.5,1,1,1.1l0.1,0l0.1,0.1c0.1,0.1,0.2,0.4,0.2,1c0,1.5-1,1.7-1.1,1.7c0,0-0.1,0-0.1,0.1
	C18.4,13.1,18,14.4,16.9,15.3L16.9,15.3z M23.6,26c0,0.7-0.5,1.2-1.2,1.2c-0.6,0-1.2-0.5-1.2-1.2c0-0.6,0.5-1.2,1.2-1.2
	C23,24.8,23.6,25.3,23.6,26z"/>
</svg>
