<?xml version="1.0" encoding="utf-8"?>
<!-- Generator: Adobe Illustrator 25.4.1, SVG Export Plug-In . SVG Version: 6.00 Build 0)  -->
<svg version="1.1" id="Layer_1" xmlns="http://www.w3.org/2000/svg" xmlns:xlink="http://www.w3.org/1999/xlink" x="0px" y="0px"
	 width="29.1px" height="30.4px" viewBox="0 0 29.1 30.4" style="enable-background:new 0 0 29.1 30.4;" xml:space="preserve">
<style type="text/css">
	.st0{fill:none;stroke:#C3E8F5;stroke-width:0.722;stroke-miterlimit:10;}
</style>
<rect x="2" y="7.4" class="st0" width="16.2" height="21.8"/>
<polyline class="st0" points="14,7.4 14,1.8 27.3,1.8 27.3,29.2 18.2,29.2 "/>
<rect x="20.6" y="23.4" class="st0" width="4.7" height="5.7"/>
<line class="st0" x1="0.1" y1="29.2" x2="29" y2="29.2"/>
<rect x="5.4" y="10.9" class="st0" width="1.8" height="1.4"/>
<rect x="9.4" y="10.9" class="st0" width="1.8" height="1.4"/>
<rect x="13.4" y="10.9" class="st0" width="1.8" height="1.4"/>
<rect x="22.6" y="18.5" class="st0" width="1.8" height="1.4"/>
<rect x="22.6" y="15" class="st0" width="1.8" height="1.4"/>
<rect x="22.6" y="11.6" class="st0" width="1.8" height="1.4"/>
<rect x="22.6" y="8.2" class="st0" width="1.8" height="1.4"/>
<rect x="22.6" y="4.7" class="st0" width="1.8" height="1.4"/>
<rect x="17.3" y="4.7" class="st0" width="1.8" height="1.4"/>
<rect x="5.4" y="14.3" class="st0" width="1.8" height="1.4"/>
<rect x="9.4" y="14.3" class="st0" width="1.8" height="1.4"/>
<rect x="13.4" y="14.3" class="st0" width="1.8" height="1.4"/>
<rect x="5.4" y="17.6" class="st0" width="1.8" height="1.4"/>
<rect x="9.4" y="17.6" class="st0" width="1.8" height="1.4"/>
<rect x="13.4" y="17.6" class="st0" width="1.8" height="1.4"/>
<rect x="5.4" y="21" class="st0" width="1.8" height="1.4"/>
<rect x="9.4" y="21" class="st0" width="1.8" height="1.4"/>
<rect x="13.4" y="21" class="st0" width="1.8" height="1.4"/>
<rect x="5.4" y="24.4" class="st0" width="1.8" height="1.4"/>
<rect x="9.4" y="24.4" class="st0" width="1.8" height="1.4"/>
<rect x="13.4" y="24.4" class="st0" width="1.8" height="1.4"/>
</svg>
