<?xml version="1.0" encoding="utf-8"?>
<!-- Generator: Adobe Illustrator 25.4.1, SVG Export Plug-In . SVG Version: 6.00 Build 0)  -->
<svg version="1.1" id="Layer_1" xmlns="http://www.w3.org/2000/svg" xmlns:xlink="http://www.w3.org/1999/xlink" x="0px" y="0px"
	 width="29.1px" height="30.4px" viewBox="0 0 29.1 30.4" style="enable-background:new 0 0 29.1 30.4;" xml:space="preserve">
<style type="text/css">
	.st0{fill:none;stroke:#C3E8F5;stroke-width:0.722;stroke-linecap:round;stroke-miterlimit:10;}
	.st1{fill:none;stroke:#C3E8F5;stroke-width:0.722;stroke-miterlimit:10;}
</style>
<path class="st0" d="M14,5.1c-0.2,0-0.4,0-0.6,0C6.8,5.1,1.4,10.4,1.4,17c0,6.6,5.3,11.9,11.9,11.9c6.6,0,11.9-5.3,11.9-11.9
	c0-0.5,0-0.9-0.1-1.3"/>
<path class="st0" d="M19.9,16.7c0,0.1,0,0.2,0,0.3c0,6.6-2.9,11.9-6.6,11.9c-3.6,0-6.6-5.3-6.6-11.9c0-6.6,2.9-11.9,6.6-11.9
	c0.2,0,0.4,0,0.6,0.1"/>
<line class="st0" x1="13.3" y1="5.1" x2="13.3" y2="28.9"/>
<line class="st0" x1="2" y1="13.4" x2="15.9" y2="13.4"/>
<line class="st0" x1="2" y1="20.5" x2="24.7" y2="20.5"/>
<path class="st1" d="M27.6,7.4c0-3.3-2.7-6-6-6c-3.3,0-6,2.7-6,6c0,4.2,6,8.3,6,8.3S27.6,11.6,27.6,7.4z"/>
<path class="st1" d="M24.7,7.4c0-1.6-1.3-3-3-3s-3,1.3-3,3c0,1.6,1.3,3,3,3S24.7,9.1,24.7,7.4z"/>
</svg>
