<?xml version="1.0" encoding="utf-8"?>
<!-- Generator: Adobe Illustrator 23.0.5, SVG Export Plug-In . SVG Version: 6.00 Build 0)  -->
<svg version="1.1" id="Layer_1" xmlns="http://www.w3.org/2000/svg" xmlns:xlink="http://www.w3.org/1999/xlink" x="0px" y="0px"
	 viewBox="0 0 46 45" style="enable-background:new 0 0 46 45;" xml:space="preserve">
<style type="text/css">
	.st0{fill:#159DD9;}
</style>
<path class="st0" d="M40.2,34.2c-0.5-0.6-1.8-1.2-4.2-2.4c-0.5-0.2-1-0.5-1.5-0.8l0,0c-0.7-1.2-1.6-1.7-2.8-1.8l-3.2-0.9
	c-0.2-0.2-1-0.7-1-1.5v-1.3l0,0c1.3-1,2.2-2.7,2.6-4.8l0,0c0.4-0.1,1.8-0.8,1.8-3.1c0-0.8-0.2-1.3-0.3-1.6l0,0l0,0
	c0.4-1.1,0.4-2.3,0.4-3.4c0-1.1-0.3-2.9-1-4.1l0,0l0,0c0.7-1.1,0.5-2.2,0.4-2.4c0-0.2-0.3-0.4-0.5-0.4c-0.2,0-1.9,0.2-3.7-0.4
	c-1.2-0.5-2.5-0.8-4-0.8c-3,0-4.7,0.7-5.9,2.4l0,0c-1.4,0.7-2.9,2.5-2.9,4.9c0,2.6,0,3.1,0.3,4.1l0,0l0,0c-0.2,0.3-0.3,0.8-0.3,1.6
	c0,2.4,1.4,3,1.8,3.1l0,0c0.5,2.1,1.4,3.7,2.6,4.8l0,1.3c0,0.7-0.7,1.3-1,1.5l0,0c-1.7,0-3,0.6-3.9,1.7c-1.3,0.7-2.5,1.3-3.6,1.8
	c-2.4,1.2-3.7,1.8-4.2,2.4c-1.2,1.4-2,8.1-2,9.3c0,0.2,0.2,0.5,0.4,0.5c0.2,0,0.4-0.2,0.4-0.5c0-1.5,0.9-7.6,1.8-8.7
	c0.4-0.5,2-1.3,3.9-2.2c0.7-0.3,1.4-0.7,2.2-1.1l0.1,0l0,0.1c-0.3,0.8-0.5,1.6-0.5,2.5l0,0c-2.2,0.2-3.8,2.1-3.8,4.3v5.1
	c0,0.2,0.2,0.5,0.4,0.5h1.3c0.2,0,0.5-0.2,0.5-0.5S10.6,43,10.4,43H9.5v-4.7c0-1.9,1.5-3.4,3.4-3.4c1.9,0,3.4,1.5,3.4,3.4V43h-0.9
	c-0.2,0-0.4,0.2-0.4,0.5s0.2,0.5,0.4,0.5h1.3c0.2,0,0.4-0.2,0.4-0.5v-5.1c0-2.2-1.6-4-3.8-4.3l0,0l0,0c0.1-0.9,0.3-2.3,1.1-3.4
	l0.3-0.2l2.8-1.1l0,0c0.1,2,0.4,7.3,1.9,14.1c0.1,0.2,0.3,0.4,0.5,0.3c0.1,0,0.2-0.1,0.3-0.2c0.1-0.1,0.1-0.2,0.1-0.3
	c-1.7-7.6-1.9-13.3-1.9-14.4l0,0c0.4-0.3,1.3-1.1,1.3-2.1v-0.7l0.3,0.2c0.6,0.4,1.3,0.9,3.1,0.9c1.9,0,2.5-0.5,3.1-0.9l0.3-0.2v0.7
	c0,1.1,0.9,1.9,1.3,2.1l0,0c0,1.1-0.2,6.8-1.9,14.4c0,0.1,0,0.2,0.1,0.3c0.1,0.1,0.2,0.2,0.3,0.2c0.2,0,0.5-0.1,0.5-0.3
	c1.5-6.9,1.9-12.2,1.9-14.2l0,0l2.5,0.7l1.1,4.3l-1.4,1.8l-1.1-0.8c-0.1-0.1-0.2-0.1-0.3-0.1c-0.1,0-0.2,0.1-0.3,0.2
	c-0.1,0.1-0.1,0.2-0.1,0.3c0,0.1,0.1,0.2,0.2,0.3l2.3,1.7l0,0c-0.3,0.9-1.3,4.1-1.8,5.4c0,0.1,0,0.2,0,0.3c0,0.1,0.1,0.2,0.2,0.2
	c0.1,0,0.1,0,0.2,0c0,0,0.1,0,0.1,0c0.1,0,0.2-0.1,0.3-0.3c0.7-1.6,1.9-5.8,1.9-5.8c0.1-0.2,0-0.4-0.2-0.5l-0.8-0.6l1.5-2
	c0.1-0.1,0.1-0.2,0.1-0.4l-0.9-3.4l0.1,0c0.5,0.2,0.9,0.5,1.4,0.7l0,0c1,1.9,1.1,5.2,1.1,7.5l0,0c-1.1,0.2-1.9,1.2-1.9,2.3
	c0,1.3,1.1,2.4,2.4,2.4s2.4-1.1,2.4-2.4c0-1.1-0.8-2.1-1.9-2.3l0,0c0-1.9-0.1-4.7-0.8-6.8l0-0.1l0.6,0.3c1.9,0.9,3.5,1.7,3.9,2.2
	c0.9,1.1,1.8,7.2,1.8,8.7c0,0.2,0.2,0.5,0.5,0.5c0.2,0,0.4-0.2,0.4-0.5C42.2,42.3,41.4,35.6,40.2,34.2 M17.8,7.7l0.1-0.1l0-0.1
	c0.7-1.1,1.8-2.1,5.2-2.1c1.3,0,2.6,0.3,3.7,0.7l0.1,0c1.5,0.4,2.9,0.4,3.6,0.4h0v0c0,0.4-0.1,1-0.5,1.5c-0.1,0.2-0.1,0.4,0,0.5
	c0.7,1,1,2.6,1,3.9c0,0.9,0,1.9-0.2,2.8l0,0l0,0c-0.4-0.1-0.7-0.7-1-1.3c-0.6-1.2-1.4-2.8-3.6-2.8c-0.3,0-0.6,0.1-1.1,0.1
	c-1.5,0.2-3.8,0.6-5.5-1c-0.1-0.1-0.3-0.2-0.4-0.1c-0.2,0-0.3,0.1-0.3,0.3c-1,2.5-2,4-3.4,4.8l0,0l0,0c-0.2-0.7-0.2-1.3-0.2-3.4
	C15.3,9.8,16.5,8.2,17.8,7.7 M26.8,24.8L26.8,24.8c-0.1,0-0.1,0.1-0.1,0.1c-0.1,0.1-0.3,0.2-0.4,0.3c-0.2,0.1-0.4,0.2-0.5,0.4
	c-0.5,0.4-1,0.7-2.6,0.7c-1.6,0-2-0.3-2.6-0.7c-0.2-0.1-0.3-0.2-0.5-0.4c-0.1-0.1-0.3-0.2-0.4-0.3c0,0-0.1,0-0.1-0.1
	c-1.6-1.2-2.2-3.2-2.5-4.6c0-0.2-0.2-0.3-0.4-0.4c0,0-1.4-0.2-1.4-2.3c0-0.8,0.2-1.1,0.3-1.3l-0.2-0.1l0,0l0.3,0.1
	c1.5-0.8,2.7-2.2,3.8-4.8l0,0l0,0c1.9,1.4,4.2,1,5.7,0.8c0.4,0,0.7-0.1,0.9-0.1c1.6,0,2.2,1.2,2.8,2.3c0.4,0.8,0.9,1.7,1.7,1.8l0,0
	c0.1,0.1,0.3,0.5,0.3,1.3c0,2.1-1.2,2.3-1.3,2.3c-0.2,0-0.4,0.2-0.4,0.4C29,21.7,28.3,23.6,26.8,24.8 M35.3,40
	c0.8,0,1.5,0.7,1.5,1.5S36.1,43,35.3,43c-0.8,0-1.5-0.7-1.5-1.5S34.5,40,35.3,40"/>
</svg>
