<?xml version="1.0" encoding="utf-8"?>
<!-- Generator: Adobe Illustrator 25.4.1, SVG Export Plug-In . SVG Version: 6.00 Build 0)  -->
<svg version="1.1" id="Layer_1" xmlns="http://www.w3.org/2000/svg" xmlns:xlink="http://www.w3.org/1999/xlink" x="0px" y="0px"
	 width="37.5px" height="39.2px" viewBox="0 0 37.5 39.2" style="enable-background:new 0 0 37.5 39.2;" xml:space="preserve">
<style type="text/css">
	.st0{fill:none;stroke:#049FDA;stroke-width:0.5;stroke-miterlimit:10;}
</style>
<path class="st0" d="M18,5.3c-0.3,0-0.6,0-0.9,0c-9.3,0-16.8,7.5-16.8,16.8c0,9.3,7.5,16.8,16.8,16.8c9.3,0,16.8-7.5,16.8-16.8
	c0-0.6,0-1.3-0.1-1.9"/>
<path class="st0" d="M26.3,21.7c0,0.1,0,0.3,0,0.4c0,9.3-4.1,16.8-9.3,16.8c-5.1,0-9.3-7.5-9.3-16.8c0-9.3,4.1-16.8,9.3-16.8
	c0.3,0,0.6,0,0.9,0.1"/>
<line class="st0" x1="17.1" y1="5.3" x2="17.1" y2="38.9"/>
<line class="st0" x1="1.1" y1="17.1" x2="20.7" y2="17.1"/>
<line class="st0" x1="1.1" y1="27.2" x2="33.1" y2="27.2"/>
<path class="st0" d="M37.3,8.7c0-4.6-3.8-8.4-8.4-8.4c-4.6,0-8.4,3.8-8.4,8.4c0,5.9,8.4,11.8,8.4,11.8S37.3,14.5,37.3,8.7z"/>
<path class="st0" d="M33.1,8.7c0-2.3-1.9-4.2-4.2-4.2c-2.3,0-4.2,1.9-4.2,4.2c0,2.3,1.9,4.2,4.2,4.2C31.2,12.9,33.1,11,33.1,8.7z"/>
</svg>
