<?xml version="1.0" encoding="utf-8"?>
<!-- Generator: Adobe Illustrator 25.4.1, SVG Export Plug-In . SVG Version: 6.00 Build 0)  -->
<svg version="1.1" id="Layer_1" xmlns="http://www.w3.org/2000/svg" xmlns:xlink="http://www.w3.org/1999/xlink" x="0px" y="0px"
	 width="45.9px" height="39.2px" viewBox="0 0 45.9 39.2" style="enable-background:new 0 0 45.9 39.2;" xml:space="preserve">
<style type="text/css">
	.st0{fill:#09445E;}
</style>
<g>
	<g>
		<path class="st0" d="M25.6,39.2c-0.3,0-0.6-0.2-0.7-0.5c-2.5-7.3-7.3-11.4-11.5-15c-1.6-1.3-3.1-2.6-4.4-4c-0.3-0.3-0.3-0.7,0-1
			c0.3-0.3,0.7-0.3,1,0c1.2,1.3,2.7,2.5,4.3,3.9c4,3.4,8.5,7.2,11.2,13.8c2.7-6.6,7.2-10.4,11.2-13.8c4.3-3.6,7.7-6.5,7.7-11.6
			c0-5.5-3.9-9.7-9.1-9.7c-6,0-9.2,5.3-9.2,5.3c-0.3,0.4-1,0.4-1.2,0c0-0.1-3.2-5.3-9.2-5.3c-4.9,0-8.6,3.6-9.1,8.8
			c0,0.4-0.4,0.7-0.8,0.6c-0.4,0-0.7-0.4-0.6-0.8C5.8,4.2,10.2,0,15.9,0c5.3,0,8.5,3.4,9.8,5.1C26.9,3.4,30.2,0,35.4,0
			c6,0,10.5,4.8,10.5,11.1c0,5.7-3.8,8.9-8.2,12.6c-4.2,3.6-9,7.6-11.5,15C26.2,39,26,39.2,25.6,39.2z"/>
	</g>
	<g>
		<path class="st0" d="M21.6,24c-0.3,0-0.6-0.2-0.7-0.5L16.6,8.9l-2.3,6.6c-0.1,0.3-0.4,0.5-0.7,0.5H0.7C0.3,16,0,15.6,0,15.3
			c0-0.4,0.3-0.7,0.7-0.7h12.4L16,6.4c0.1-0.3,0.4-0.5,0.7-0.5c0.3,0,0.6,0.2,0.7,0.5l4.3,14.4l1.7-5.7c0.1-0.3,0.4-0.5,0.7-0.5
			h12.7c0.4,0,0.7,0.3,0.7,0.7c0,0.4-0.3,0.7-0.7,0.7H24.5l-2.2,7.5C22.2,23.8,21.9,24,21.6,24L21.6,24z"/>
	</g>
</g>
</svg>
