<?xml version="1.0" encoding="utf-8"?>
<!-- Generator: Adobe Illustrator 25.4.1, SVG Export Plug-In . SVG Version: 6.00 Build 0)  -->
<svg version="1.1" id="Layer_1" xmlns="http://www.w3.org/2000/svg" xmlns:xlink="http://www.w3.org/1999/xlink" x="0px" y="0px"
	 width="64.4px" height="54.2px" viewBox="0 0 64.4 54.2" style="enable-background:new 0 0 64.4 54.2;" xml:space="preserve">
<style type="text/css">
	.st0{fill:#666666;}
</style>
<path class="st0" d="M42.6,28.5l-1.1-1.1c-1-1-1.1-1.6-0.5-2.8l1.5-3.2c0.9-1.9,1.7-3.7,2.5-5.6c0.7-1.5,0.1-3-1.3-4
	c-1.3-0.9-3-0.7-4,0.5c-0.4,0.5-0.8,1.1-1.1,1.8c-0.6,1.5-1.2,3-1.9,4.5c-1,2.3-1.9,4.7-2.9,7c-0.7,1.6-0.4,3,0.8,4.2
	c0.5,0.5,1.1,1.1,1.6,1.7c0.9,0.9,1.7,1.8,2.6,2.7c0.9,0.9,1.1,1.7,0.7,3c-1.2,3.4-2.4,7.2-3.9,11.9c-0.4,1.1-0.2,2.2,0.4,3
	c0.6,0.8,1.6,1.3,2.8,1.3c1.5,0,2.6-0.8,3-2.3c0.1-0.2,0.1-0.4,0.2-0.7c0-0.2,0.1-0.4,0.2-0.6l0.9-2.8c1.2-3.6,2.4-7.4,3.6-11
	c0.5-1.6,0.2-2.9-0.9-4.1C44.7,30.7,43.6,29.6,42.6,28.5z M45.4,35.4c-1.3,3.7-2.5,7.4-3.6,11l-0.9,2.8c-0.1,0.3-0.1,0.5-0.2,0.8
	c0,0.2-0.1,0.4-0.1,0.6c-0.2,0.8-0.7,1.2-1.6,1.2c-0.7,0-1.3-0.2-1.6-0.7c-0.3-0.4-0.4-1-0.2-1.7c1.5-4.7,2.8-8.5,3.9-11.9
	c0.6-1.8,0.2-3.2-1.1-4.5c-0.9-0.8-1.8-1.8-2.6-2.6c-0.5-0.6-1.1-1.1-1.6-1.7c-0.8-0.8-0.9-1.5-0.5-2.6c1-2.3,2-4.7,2.9-7
	c0.6-1.5,1.2-3,1.9-4.5c0.2-0.6,0.5-1,0.8-1.4c0.3-0.3,0.7-0.5,1.1-0.5c0.3,0,0.6,0.1,0.9,0.3c0.8,0.5,1.1,1.3,0.8,2.1
	c-0.8,1.9-1.7,3.7-2.5,5.6l-1.5,3.2c-0.8,1.8-0.6,3.1,0.8,4.5l1.1,1.1c1.1,1.1,2.2,2.2,3.3,3.3C45.5,33.6,45.7,34.3,45.4,35.4z"/>
<path class="st0" d="M49.8,2.4c-1-1-2.3-1.5-3.6-1.5c-2.8,0-5,2.3-5,5.1c0,2.8,2.3,5,5,5c0,0,0,0,0,0c2.8,0,5-2.3,5.1-5.1
	C51.3,4.6,50.8,3.3,49.8,2.4z M46.3,9.5C46.3,9.5,46.3,9.5,46.3,9.5c-2,0-3.5-1.6-3.5-3.5c0-2,1.5-3.5,3.5-3.6c1,0,1.9,0.4,2.6,1
	c0.7,0.7,1,1.6,1,2.5C49.8,7.9,48.2,9.5,46.3,9.5z"/>
<path class="st0" d="M21.8,36c-0.7-1.8-1.2-3.7-1.3-5.6c0-0.9,0-1.9,0.3-2.8c0.4-1.8,2-3,3.7-3c1.7,0,3.2,1.3,3.7,3
	c0.4,1.5,0.3,3.1,0,4.6c-0.3,1.3-0.7,2.5-1.1,3.7c0,0.1-0.1,0.2-0.1,0.2h1.3c0.2-0.5,0.3-1,0.5-1.5c0.4,0.1,0.8,0.2,1.2,0.3
	c0.5,0.1,0.8,0,0.9-0.4c0.1-0.5-0.2-0.6-0.6-0.7c-0.4-0.1-0.7-0.2-1.1-0.3c0.1-0.7,0.3-1.3,0.4-2c0.5,0,0.9,0.1,1.4,0.1
	c0.4,0,0.6-0.1,0.7-0.5c0-0.4-0.2-0.6-0.7-0.7c-0.4,0-0.8-0.1-1.3-0.1c0-0.5,0-0.9,0-1.4c0-0.1,0.1-0.3,0.3-0.3
	c0.4-0.2,0.8-0.3,1.1-0.4c0.4-0.2,0.6-0.5,0.4-0.8c-0.2-0.4-0.5-0.4-0.9-0.3c-0.4,0.1-0.8,0.3-1.2,0.4c-0.2-0.6-0.4-1-0.6-1.6
	c0.4-0.3,0.8-0.5,1.2-0.8c0.4-0.3,0.4-0.6,0.2-0.9c-0.3-0.3-0.6-0.3-0.9,0c-0.4,0.3-0.8,0.6-1.2,0.8c-0.5-0.4-0.9-0.7-1.4-1
	c0.2-0.4,0.3-0.8,0.5-1.2c0.2-0.4,0.1-0.8-0.3-0.9c-0.4-0.1-0.6,0.1-0.8,0.5c-0.2,0.4-0.4,0.9-0.5,1.3c-0.6,0-1.2,0-1.7,0
	c-0.3,0-0.4,0-0.5-0.3c-0.1-0.4-0.3-0.7-0.4-1.1c-0.2-0.3-0.4-0.5-0.8-0.3c-0.3,0.2-0.4,0.5-0.3,0.8c0.2,0.4,0.4,0.9,0.5,1.3
	c-0.5,0.4-0.9,0.7-1.4,1c-0.4-0.3-0.8-0.5-1.2-0.8c-0.3-0.2-0.6-0.4-0.9,0c-0.2,0.3-0.1,0.7,0.3,0.9c0.4,0.3,0.8,0.6,1.2,0.8
	c-0.2,0.5-0.4,1-0.6,1.6c-0.4-0.2-0.9-0.3-1.3-0.5c-0.4-0.1-0.7-0.1-0.8,0.3c-0.1,0.4,0.1,0.7,0.4,0.8c0.4,0.2,0.8,0.3,1.2,0.5
	c0.1,0,0.2,0.2,0.3,0.3c0,0.5,0,0.9,0,1.4c-0.5,0-0.9,0.1-1.2,0.1c-0.6,0-0.8,0.3-0.8,0.7c0,0.4,0.3,0.5,0.9,0.5
	c0.4,0,0.8,0,1.2-0.1c0.1,0.7,0.3,1.3,0.4,1.9c-0.4,0.1-0.8,0.2-1.2,0.3c-0.5,0.1-0.7,0.3-0.6,0.7c0.1,0.4,0.4,0.5,0.9,0.4
	c0.4-0.1,0.8-0.2,1.3-0.3c0.2,0.5,0.3,1,0.5,1.6h1.3C21.9,36.1,21.9,36.1,21.8,36z"/>
<path class="st0" d="M27.1,27.1c-0.3-0.2-0.6-0.2-0.8,0.1c-0.4,0.5-0.7,1-1,1.6c-0.2,0.4,0.1,0.8,0.6,0.8c0.1-0.1,0.3-0.2,0.4-0.3
	c0.3-0.5,0.7-1,1-1.5C27.5,27.5,27.4,27.3,27.1,27.1z"/>
<path class="st0" d="M22.4,27.2c-0.2-0.3-0.5-0.4-0.9-0.2c-0.3,0.2-0.3,0.5-0.1,0.8c0.3,0.5,0.6,1,0.9,1.4c0.1,0.2,0.3,0.3,0.4,0.3
	c0.6,0,0.9-0.5,0.6-0.9C23.1,28.2,22.8,27.7,22.4,27.2z"/>
<path class="st0" d="M24.3,30.8c-0.3-0.1-0.5,0.2-0.6,0.5c0,0.3,0,0.6,0,0.9c0,0.3,0,0.6,0,0.9c0,0.3,0.2,0.5,0.5,0.5
	c0.3,0,0.6-0.1,0.6-0.5c0-0.6,0.1-1.3,0-1.9C24.9,31.1,24.5,30.9,24.3,30.8z"/>
<path class="st0" d="M17.4,23.3c0.2,0,0.4-0.1,0.5-0.2c0.2-0.3,0.2-0.7-0.1-0.9l-2.6-2.1l3.3-0.7c0.2,0,0.4-0.2,0.4-0.4
	c0.1-0.2,0.1-0.4,0-0.6l-2-4.1l4.3,2.8c0.2,0.1,0.4,0.1,0.6,0.1c0.2-0.1,0.3-0.3,0.4-0.5l0.6-2.5l1.9,3.4c0.2,0.3,0.6,0.4,0.9,0.2
	c0.3-0.2,0.4-0.6,0.2-0.9L23,12.2c-0.1-0.2-0.4-0.4-0.7-0.3c-0.3,0-0.5,0.2-0.5,0.5l-0.7,3.2l-5.4-3.6c-0.2-0.2-0.6-0.1-0.8,0.1
	c-0.2,0.2-0.3,0.5-0.2,0.8l2.7,5.5l-3.8,0.8c-0.2,0.1-0.4,0.2-0.5,0.5c-0.1,0.2,0,0.5,0.2,0.7l3.7,2.9
	C17.1,23.3,17.2,23.3,17.4,23.3z"/>
<path class="st0" d="M31,36.2h-2.8h-1.3h-4.9h-1.3h-2.9c-1.4,0-2.6,1.2-2.6,2.6s1.2,2.6,2.6,2.6h0.5v11.1h1.5v-4.9h9.6v4.9h1.5V41.3
	H31c1.4,0,2.6-1.2,2.6-2.6S32.4,36.2,31,36.2z M19.7,46v-4.7h9.6V46H19.7z M31,39.8H17.7c-0.6,0-1.1-0.5-1.1-1.1s0.5-1.1,1.1-1.1H31
	c0.6,0,1.1,0.5,1.1,1.1S31.6,39.8,31,39.8z"/>
</svg>
