<?xml version="1.0" encoding="utf-8"?>
<!-- Generator: Adobe Illustrator 23.0.5, SVG Export Plug-In . SVG Version: 6.00 Build 0)  -->
<svg version="1.1" id="Layer_1" xmlns="http://www.w3.org/2000/svg" xmlns:xlink="http://www.w3.org/1999/xlink" x="0px" y="0px"
	 viewBox="0 0 15 24" style="enable-background:new 0 0 15 24;" xml:space="preserve">
<style type="text/css">
	.st0{fill:#FFFFFF;}
	.st1{fill:#049FDA;}
</style>
<circle class="st0" cx="7.5" cy="7.5" r="4.5"/>
<g>
	<path class="st1" d="M7.5,23.2c-3.1,0-6.4-0.9-6.4-3c0-1.2,1.2-2.2,3.4-2.7l0.2,0.9C3.9,18.6,2,19.2,2,20.2c0,1.1,2.4,2.1,5.4,2.1
		s5.4-0.9,5.4-2.1c0-1-1.5-1.6-2.7-1.8l0.2-0.9c2.3,0.5,3.4,1.5,3.4,2.7C13.9,22.3,10.6,23.2,7.5,23.2"/>
	<path class="st1" d="M7.5,11c-2,0-3.6-1.6-3.6-3.6c0-2,1.6-3.6,3.6-3.6c2,0,3.6,1.6,3.6,3.6S9.5,11,7.5,11 M7.5,1
		C4.4,1,1.8,3.6,1.8,6.8c0,4.5,5,12.4,5.2,12.8l0.5,0.8L8,19.5c0.2-0.3,5.2-8.3,5.2-12.8C13.3,3.6,10.7,1,7.5,1"/>
</g>
</svg>
