<?xml version="1.0" encoding="utf-8"?>
<!-- Generator: Adobe Illustrator 24.3.2, SVG Export Plug-In . SVG Version: 6.00 Build 0)  -->
<svg version="1.1" id="Layer_1" xmlns="http://www.w3.org/2000/svg" xmlns:xlink="http://www.w3.org/1999/xlink" x="0px" y="0px"
	 width="146.4px" height="146.4px" viewBox="0 0 146.4 146.4" style="enable-background:new 0 0 146.4 146.4;" xml:space="preserve"
	>
<style type="text/css">
	.st0{opacity:0.75;}
	.st1{fill:#049FDA;}
</style>
<g class="st0">
	<g>
		<path class="st1" d="M30.66,109.6c1.79,2.08,1.86,4.16,0.08,5.84c-0.06,0.05-0.15,0.04-0.2-0.01l-0.79-0.91
			c-0.05-0.06-0.04-0.15,0-0.21c1.13-1.16,1.37-2.39-0.01-3.99c-1.04-1.21-2.23-1.69-3.3-0.77c-2.25,1.93,3.99,5.85,0.88,8.53
			c-1.49,1.28-3.36,0.81-4.92-1c-1.61-1.87-1.83-3.7-0.3-5.32c0.05-0.06,0.14-0.05,0.19,0l0.8,0.92c0.05,0.06,0.04,0.15,0,0.21
			c-0.97,1-0.9,2.14,0.24,3.46c0.98,1.13,2.06,1.55,2.98,0.75c2.1-1.81-4.11-5.75-0.91-8.5C27.08,107.16,29.06,107.74,30.66,109.6z"
			/>
		<path class="st1" d="M21.18,101.11c-0.04-0.07-0.01-0.14,0.05-0.18c1.5-0.64,3.14-0.23,4.21,1.5c1.3,2.1,0.54,4.13-1.52,5.39
			c-2.11,1.3-4.29,0.97-5.5-0.98s-0.58-3.94,1.63-5.35c0.06-0.04,0.15-0.02,0.19,0.05l3.08,4.99c1.6-1.04,2.05-2.24,1.23-3.56
			c-0.62-1-1.51-1.28-2.62-0.88c-0.07,0.03-0.17-0.01-0.21-0.07L21.18,101.11z M19.29,106.3c0.69,1.12,1.81,1.32,3.18,0.71
			l-2.33-3.78C19.09,103.92,18.55,105.11,19.29,106.3z"/>
		<path class="st1" d="M22.84,98.17c0.03,0.07,0,0.15-0.07,0.18l-3.57,1.57l-3.38,1.58c-0.07,0.03-0.15,0-0.18-0.07l-0.47-1.04
			c-0.03-0.07,0-0.15,0.07-0.18l1.24-0.5c-1.16-0.1-2.07-0.81-2.53-1.82c-0.07-0.15-0.12-0.3-0.15-0.44
			c-0.02-0.08,0.03-0.17,0.1-0.2l0.78-0.35c0.06-0.03,0.14,0.01,0.16,0.08c0.04,0.12,0.09,0.27,0.16,0.42
			c0.56,1.22,1.78,1.94,3.43,1.38l3.77-1.73c0.07-0.03,0.15,0,0.18,0.07L22.84,98.17z"/>
		<path class="st1" d="M19.16,88.98c0.07,0.01,0.15,0.07,0.17,0.14l0.42,1.35c0.02,0.07-0.01,0.16-0.06,0.21l-6.5,4.98
			c-0.05,0.03-0.13,0.01-0.15-0.05l-0.37-1.19c-0.02-0.07,0.01-0.16,0.08-0.22l5.65-4.09l-6.98-0.24c-0.08-0.01-0.16-0.06-0.19-0.14
			l-0.32-1.03c-0.02-0.07,0.03-0.12,0.09-0.13L19.16,88.98z"/>
		<path class="st1" d="M9.64,86.87c0.01,0.07-0.03,0.15-0.11,0.16L8.3,87.29c-0.07,0.01-0.15-0.03-0.16-0.11L7.9,86.05
			c-0.02-0.08,0.03-0.15,0.11-0.16l1.24-0.26c0.08-0.01,0.15,0.03,0.16,0.11L9.64,86.87z M18.29,85.09
			c0.02,0.07-0.03,0.15-0.11,0.16l-3.86,0.76l-3.63,0.78c-0.07,0.01-0.15-0.03-0.16-0.11l-0.23-1.13c-0.02-0.07,0.03-0.15,0.11-0.16
			l3.62-0.71l3.87-0.83c0.08-0.01,0.15,0.03,0.16,0.11L18.29,85.09z"/>
		<path class="st1" d="M17.49,78.77c0.24,2.36-1.24,3.86-3.72,4.12c-2.48,0.25-4.28-0.91-4.53-3.3c-0.2-1.96,0.79-3.27,2.43-3.61
			c0.07-0.02,0.14,0.03,0.15,0.11l0.1,1.01c0.01,0.08-0.05,0.15-0.12,0.17c-1.12,0.33-1.63,1.16-1.52,2.22
			c0.16,1.55,1.37,2.17,3.33,1.97c2-0.2,3-1.05,2.85-2.6c-0.12-1.18-0.92-1.91-2.21-1.91c-0.08-0.01-0.15-0.06-0.15-0.14l-0.11-1.03
			c-0.01-0.08,0.05-0.15,0.13-0.14C15.88,75.61,17.28,76.73,17.49,78.77z"/>
		<path class="st1" d="M8.21,74.03c0,0.08-0.06,0.14-0.14,0.14l-1.26,0.02c-0.08,0-0.14-0.06-0.14-0.14L6.65,72.9
			c0-0.08,0.06-0.14,0.14-0.14l1.26-0.02c0.08,0,0.14,0.06,0.14,0.14L8.21,74.03z M17.04,73.88c0,0.08-0.06,0.14-0.14,0.14
			l-3.94,0.04l-3.71,0.1c-0.08,0-0.14-0.06-0.14-0.14L9.1,72.86c0-0.08,0.06-0.14,0.14-0.14l3.69-0.03l3.95-0.1
			c0.08,0,0.14,0.06,0.14,0.14L17.04,73.88z"/>
		<path class="st1" d="M17,70.69c-0.01,0.08-0.07,0.13-0.15,0.12l-3.45-0.39l-4.15-0.38c-0.08-0.01-0.13-0.07-0.12-0.15l0.11-1.09
			c0.01-0.08,0.07-0.13,0.15-0.12l1.19,0.16c-0.75-0.57-1.38-1.53-1.25-2.79c0.16-1.63,1.33-2.53,3.38-2.33l1.57,0.16l3.23,0.29
			c0.08,0.01,0.13,0.07,0.12,0.15l-0.11,1.13c-0.01,0.08-0.07,0.13-0.15,0.12l-3.22-0.35l-1.51-0.15c-1.42-0.14-2.13,0.48-2.23,1.47
			c-0.1,1.04,0.64,1.95,2.17,2.42l1.19,0.12l3.23,0.31c0.08,0.01,0.13,0.07,0.12,0.15L17,70.69z"/>
		<path class="st1" d="M21.61,60.32c-0.41,1.77-1.51,2.99-3.19,2.71c-0.08,0-0.12-0.08-0.11-0.15l0.27-1.08
			c0.02-0.07,0.09-0.12,0.17-0.12c0.99,0.09,1.61-0.56,1.88-1.64c0.32-1.28-0.21-2.31-1.94-2.74l-0.85-0.21
			c0.73,0.71,1.01,1.65,0.74,2.73c-0.54,2.15-2.44,2.88-4.63,2.33c-2.17-0.54-3.64-2.15-3.12-4.23c0.27-1.08,0.94-1.78,1.91-2.08
			l-1.07-0.22c-0.07-0.02-0.12-0.09-0.1-0.17l0.27-1.09c0.02-0.07,0.09-0.12,0.17-0.1l2.92,0.77l4.08,1.01
			C21.23,56.58,22.16,58.12,21.61,60.32z M17.69,59.28c0.31-1.26-0.37-2.3-2.26-2.79c-1.81-0.47-3.09-0.05-3.51,1.18
			c-0.01,0.05-0.06,0.24-0.08,0.31c-0.28,1.37,0.68,2.34,2.41,2.78C16.1,61.23,17.34,60.74,17.69,59.28z"/>
		<path class="st1" d="M22.69,47.99c0.07,0.03,0.11,0.12,0.11,0.2c-0.04,0.32-0.12,0.72-0.28,1.06c-0.48,1.05-1.42,1.69-2.99,0.98
			l-4.22-1.91l-0.36,0.8c-0.03,0.07-0.11,0.1-0.18,0.07l-0.74-0.34c-0.07-0.03-0.1-0.11-0.07-0.18l0.36-0.8l-1.69-0.75
			c-0.07-0.03-0.1-0.11-0.07-0.18l0.47-1.04c0.03-0.07,0.11-0.1,0.18-0.07l1.67,0.77l0.75-1.66c0.03-0.07,0.11-0.1,0.18-0.07
			l0.74,0.33c0.07,0.03,0.1,0.12,0.07,0.18l-0.75,1.66l4.2,1.9c0.87,0.39,1.27,0.22,1.55-0.4c0.13-0.28,0.21-0.57,0.25-0.78
			c0-0.08,0.08-0.11,0.14-0.09L22.69,47.99z"/>
		<path class="st1" d="M19.24,40.33c-0.53,0.88-0.27,2.06,0.76,3.09l3.98,2.35c0.07,0.04,0.09,0.13,0.05,0.19l-0.58,0.96
			c-0.04,0.07-0.12,0.09-0.19,0.05l-4.54-2.8l-4.45-2.63c-0.06-0.04-0.09-0.12-0.05-0.19l0.58-0.96c0.04-0.07,0.13-0.09,0.19-0.05
			l3.4,2.09c-0.44-0.84-0.56-1.9,0.08-2.96c0.87-1.44,2.28-1.78,4.23-0.59l1.36,0.84l2.65,1.55c0.07,0.04,0.09,0.12,0.05,0.19
			l-0.61,1c-0.04,0.07-0.12,0.09-0.19,0.05l-2.59-1.62L21.89,40C20.62,39.24,19.73,39.51,19.24,40.33z"/>
		<path class="st1" d="M29.88,33.12c0.05-0.06,0.13-0.06,0.19-0.01c1.09,1.21,1.24,2.9-0.05,4.47c-1.57,1.91-3.73,1.85-5.6,0.32
			c-1.91-1.57-2.32-3.74-0.86-5.52c1.46-1.78,3.54-1.83,5.6-0.2c0.06,0.05,0.07,0.14,0.02,0.2l-3.73,4.53
			c1.5,1.17,2.79,1.21,3.78,0.01c0.75-0.91,0.72-1.85-0.02-2.76c-0.05-0.06-0.05-0.16,0-0.22L29.88,33.12z M24.35,33.01
			c-0.83,1.01-0.66,2.13,0.36,3.24l2.82-3.43C26.54,32.05,25.25,31.92,24.35,33.01z"/>
		<path class="st1" d="M35.57,31.49c-0.06,0.05-0.15,0.05-0.2-0.01l-3.46-4.01l-3.47-3.84c-0.05-0.06-0.04-0.14,0.01-0.2l0.86-0.75
			c0.06-0.05,0.15-0.05,0.2,0.01l3.37,3.91l3.56,3.94c0.05,0.06,0.04,0.14-0.01,0.2L35.57,31.49z"/>
		<path class="st1" d="M40.67,27.65c-1.96,1.4-4.01,0.86-5.46-1.17c-1.46-2.04-1.32-4.17,0.64-5.57c1.97-1.41,4.02-0.85,5.47,1.18
			C42.76,24.11,42.64,26.24,40.67,27.65z M40.07,26.81c1.27-0.9,1.24-2.24,0.08-3.86c-1.15-1.61-2.45-2.1-3.71-1.21
			c-1.27,0.92-1.22,2.29-0.07,3.9C37.53,27.26,38.8,27.71,40.07,26.81z"/>
		<path class="st1" d="M44.82,24.62c-0.07,0.03-0.15,0.01-0.19-0.06l-1.54-3.11l-1.93-3.69c-0.03-0.07-0.01-0.15,0.06-0.19l0.97-0.5
			c0.07-0.03,0.15-0.01,0.19,0.06l0.51,1.09c0.07-0.94,0.54-1.98,1.67-2.56c1.45-0.74,2.85-0.25,3.79,1.58l0.72,1.41l1.51,2.87
			c0.04,0.07,0.01,0.15-0.06,0.19l-1.02,0.52c-0.07,0.04-0.15,0.01-0.19-0.06l-1.45-2.9l-0.7-1.35c-0.65-1.27-1.56-1.53-2.44-1.08
			c-0.93,0.48-1.29,1.59-0.85,3.13l0.55,1.07l1.49,2.88c0.03,0.07,0.01,0.15-0.06,0.19L44.82,24.62z"/>
		<path class="st1" d="M56.15,22.84c-1.72,0.61-3.34,0.34-4.01-1.24c-0.04-0.07,0-0.14,0.07-0.17l1.05-0.35
			c0.07-0.02,0.15,0.01,0.19,0.08c0.46,0.88,1.35,1.06,2.4,0.7c1.26-0.42,1.83-1.43,1.26-3.11l-0.28-0.83
			c-0.2,0.99-0.84,1.74-1.9,2.1c-2.11,0.71-3.75-0.51-4.47-2.65c-0.72-2.13-0.15-4.23,1.88-4.91c1.05-0.35,2.01-0.17,2.79,0.5
			l-0.39-1.02c-0.02-0.07,0.01-0.15,0.09-0.18l1.07-0.36c0.07-0.03,0.15,0.01,0.18,0.09l0.94,2.88l1.36,3.99
			C59.11,20.51,58.3,22.12,56.15,22.84z M54.91,18.98c1.23-0.41,1.74-1.56,1.13-3.41c-0.58-1.78-1.63-2.63-2.9-2.32
			c-0.04,0.01-0.23,0.08-0.31,0.1c-1.31,0.5-1.61,1.84-1.04,3.53C52.41,18.68,53.49,19.47,54.91,18.98z"/>
		<path class="st1" d="M67.05,17.09c0.01,0.08-0.04,0.16-0.11,0.2c-0.29,0.14-0.67,0.29-1.04,0.34c-1.14,0.17-2.19-0.29-2.44-1.99
			l-0.68-4.59l-0.87,0.13c-0.08,0.01-0.15-0.04-0.16-0.12l-0.12-0.81c-0.01-0.07,0.04-0.14,0.12-0.16l0.87-0.13l-0.29-1.82
			C62.32,8.08,62.37,8.01,62.44,8l1.13-0.17c0.08-0.01,0.15,0.04,0.16,0.12l0.25,1.83l1.8-0.26c0.08-0.01,0.15,0.04,0.16,0.12
			l0.12,0.81c0.01,0.07-0.04,0.15-0.12,0.16l-1.8,0.26l0.68,4.56c0.14,0.94,0.5,1.19,1.17,1.09c0.31-0.04,0.59-0.13,0.79-0.21
			c0.07-0.04,0.14,0.01,0.15,0.07L67.05,17.09z"/>
		<path class="st1" d="M74.67,14.21c0.08,0,0.13,0.06,0.13,0.13c-0.2,1.62-1.36,2.84-3.4,2.9c-2.47,0.08-3.85-1.58-3.93-3.99
			c-0.08-2.47,1.29-4.2,3.58-4.28c2.3-0.07,3.71,1.45,3.84,4.07c0,0.08-0.06,0.14-0.13,0.14l-5.86,0.19
			c0.11,1.9,0.93,2.89,2.48,2.84c1.17-0.04,1.86-0.67,2.06-1.83c0.01-0.07,0.09-0.14,0.17-0.14L74.67,14.21z M71.11,9.99
			c-1.31,0.04-2.04,0.91-2.19,2.41l4.44-0.14C73.27,11,72.51,9.95,71.11,9.99z"/>
		<path class="st1" d="M76.38,17.09c-0.08-0.01-0.13-0.07-0.13-0.15l0.4-3.88l0.29-3.72c0.01-0.08,0.07-0.13,0.15-0.13l1.13,0.1
			c0.08,0.01,0.14,0.07,0.13,0.15l-0.18,1.33c0.66-0.96,1.72-1.4,2.82-1.3c0.17,0.01,0.32,0.04,0.45,0.09
			c0.08,0.02,0.13,0.1,0.12,0.18l-0.08,0.86c-0.01,0.06-0.07,0.12-0.15,0.09c-0.12-0.03-0.27-0.05-0.44-0.07
			c-1.34-0.12-2.56,0.58-2.88,2.3l-0.36,4.13c-0.01,0.07-0.07,0.13-0.15,0.12L76.38,17.09z"/>
		<path class="st1" d="M84.04,14.78l-0.69,2.87c-0.02,0.07-0.1,0.12-0.17,0.1l-1.15-0.29c-0.07-0.02-0.12-0.1-0.1-0.17l0.78-2.85
			l1.14-4.55c0.02-0.07,0.09-0.12,0.17-0.1l1.08,0.27c0.07,0.02,0.12,0.1,0.1,0.17l-0.34,1.15c0.69-0.68,1.6-1.16,2.76-0.87
			c1.1,0.29,1.75,0.99,1.81,2.18c0.81-0.91,1.74-1.27,2.83-0.99c1.51,0.39,2.16,1.57,1.62,3.65l-0.47,1.82l-0.71,2.87
			c-0.02,0.07-0.09,0.12-0.17,0.1l-1.13-0.29c-0.07-0.02-0.12-0.09-0.1-0.17l0.78-2.85l0.45-1.76c0.37-1.43-0.07-2.16-0.96-2.39
			c-0.82-0.21-1.7,0.34-2.35,1.53l-0.45,1.77l-0.71,2.87c-0.02,0.07-0.1,0.12-0.17,0.1l-1.12-0.29c-0.07-0.02-0.12-0.1-0.1-0.17
			l0.76-2.85l0.45-1.76c0.37-1.43-0.05-2.16-0.96-2.39c-0.9-0.23-1.83,0.43-2.51,1.83L84.04,14.78z"/>
		<path class="st1" d="M99.64,23.84c-2.09-1.11-2.51-3.18-1.33-5.37c1.17-2.19,3.14-3.04,5.26-1.91c1.74,0.93,2.27,2.48,1.64,4.02
			c-0.02,0.07-0.11,0.1-0.18,0.06l-0.9-0.48c-0.07-0.03-0.09-0.12-0.07-0.19c0.35-1.12-0.05-2-0.99-2.49
			c-1.37-0.73-2.56-0.08-3.49,1.66c-0.95,1.77-0.8,3.07,0.56,3.81c1.05,0.56,2.09,0.3,2.82-0.76c0.05-0.06,0.13-0.09,0.2-0.05
			l0.91,0.48c0.07,0.04,0.09,0.12,0.04,0.18C103.16,24.27,101.45,24.8,99.64,23.84z"/>
		<path class="st1" d="M108.36,29.35c-0.06-0.05-0.07-0.13-0.03-0.19l0.7-0.9c-0.96,0.4-1.96,0.33-2.89-0.36
			c-1.72-1.28-1.57-3.4-0.2-5.25c1.36-1.84,3.43-2.6,5.12-1.35c0.9,0.67,1.3,1.56,1.2,2.57l0.6-0.87c0.05-0.06,0.13-0.07,0.19-0.03
			l0.92,0.68c0.06,0.05,0.07,0.13,0.03,0.19l-2.27,2.99l-2.27,3.16c-0.05,0.06-0.13,0.07-0.19,0.03L108.36,29.35z M107.04,27.27
			c1.1,0.82,2.37,0.5,3.57-1.1c1.14-1.52,1.24-2.87,0.26-3.73c-0.03-0.03-0.2-0.15-0.26-0.19c-1.19-0.8-2.44-0.22-3.46,1.16
			C106.03,24.94,105.84,26.38,107.04,27.27z"/>
		<path class="st1" d="M110.61,31.25c-0.05-0.05-0.06-0.14-0.01-0.2l2.73-2.79l2.54-2.73c0.05-0.06,0.14-0.06,0.2-0.01l0.83,0.79
			c0.05,0.05,0.06,0.14,0,0.2l-0.97,0.92c1.11-0.34,2.22-0.02,3.03,0.74c0.12,0.12,0.22,0.24,0.3,0.35
			c0.05,0.07,0.04,0.16-0.02,0.22l-0.59,0.62c-0.04,0.04-0.13,0.05-0.18-0.02c-0.08-0.1-0.18-0.22-0.3-0.33
			c-0.97-0.93-2.37-1.14-3.69,0l-2.86,3.01c-0.05,0.06-0.14,0.06-0.2,0.01L110.61,31.25z"/>
		<path class="st1" d="M120.7,38.16c0.05,0.06,0.03,0.13-0.03,0.18c-1.4,0.85-3.08,0.68-4.38-0.88c-1.58-1.89-1.11-4,0.75-5.55
			c1.91-1.59,4.11-1.58,5.58,0.18c1.47,1.76,1.13,3.81-0.87,5.53c-0.06,0.05-0.15,0.04-0.2-0.02l-3.74-4.5
			c-1.44,1.26-1.72,2.51-0.72,3.71c0.75,0.9,1.67,1.05,2.71,0.49c0.07-0.04,0.16-0.02,0.22,0.04L120.7,38.16z M121.85,32.75
			c-0.84-1-1.97-1.04-3.25-0.24l2.84,3.41C122.38,35.08,122.75,33.83,121.85,32.75z"/>
		<path class="st1" d="M122.58,46.8c-1.13-2.09-0.33-4.04,1.86-5.23c2.19-1.18,4.31-0.79,5.45,1.33c0.94,1.74,0.52,3.33-0.86,4.27
			c-0.06,0.05-0.14,0.02-0.18-0.04l-0.48-0.9c-0.04-0.07-0.01-0.15,0.05-0.2c0.91-0.74,1.06-1.69,0.56-2.63
			c-0.74-1.37-2.1-1.49-3.83-0.55c-1.77,0.95-2.37,2.12-1.64,3.5c0.56,1.05,1.58,1.41,2.77,0.93c0.08-0.02,0.16,0,0.2,0.07
			l0.49,0.91c0.04,0.07,0.01,0.15-0.06,0.17C125.28,49.12,123.56,48.61,122.58,46.8z"/>
		<path class="st1" d="M125.85,54.12c-0.82-2.26,0.25-4.09,2.59-4.93c2.35-0.85,4.38-0.14,5.2,2.12c0.83,2.27-0.26,4.09-2.6,4.94
			C128.69,57.09,126.67,56.39,125.85,54.12z M126.81,53.77c0.53,1.46,1.83,1.8,3.69,1.12c1.86-0.67,2.68-1.79,2.16-3.24
			c-0.55-1.47-1.88-1.8-3.74-1.12C127.06,51.2,126.28,52.3,126.81,53.77z"/>
		<path class="st1" d="M131.03,59.58l-2.9,0.52c-0.08,0.01-0.15-0.04-0.16-0.12l-0.19-1.17c-0.01-0.08,0.04-0.15,0.12-0.16
			l2.92-0.43l4.62-0.79c0.07-0.01,0.15,0.04,0.16,0.12l0.18,1.09c0.01,0.08-0.04,0.15-0.12,0.16l-1.19,0.15
			c0.9,0.35,1.7,1,1.89,2.17c0.18,1.12-0.2,2-1.27,2.53c1.15,0.37,1.86,1.09,2.04,2.2c0.25,1.53-0.57,2.61-2.69,2.95l-1.85,0.3
			l-2.9,0.51c-0.08,0.01-0.15-0.04-0.16-0.12l-0.19-1.15c-0.01-0.08,0.04-0.15,0.12-0.16l2.92-0.43l1.79-0.29
			c1.45-0.24,1.95-0.93,1.8-1.84c-0.14-0.83-0.99-1.41-2.33-1.54l-1.8,0.29l-2.91,0.51c-0.07,0.01-0.15-0.04-0.16-0.12l-0.18-1.14
			c-0.01-0.08,0.04-0.15,0.11-0.16l2.92-0.44l1.79-0.29c1.46-0.24,1.95-0.91,1.8-1.84c-0.15-0.91-1.13-1.5-2.68-1.56L131.03,59.58z"
			/>
		<path class="st1" d="M132.59,72.52l-2.95-0.12c-0.08-0.01-0.14-0.07-0.13-0.15l0.07-1.19c0.01-0.07,0.07-0.13,0.15-0.13l2.94,0.21
			l4.68,0.23c0.07,0,0.13,0.07,0.13,0.15l-0.07,1.11c0,0.08-0.07,0.14-0.15,0.13l-1.19-0.11c0.8,0.54,1.45,1.34,1.38,2.53
			c-0.07,1.14-0.64,1.91-1.79,2.2c1.04,0.61,1.57,1.46,1.51,2.59c-0.09,1.55-1.13,2.42-3.27,2.3l-1.87-0.1l-2.95-0.13
			c-0.07-0.01-0.13-0.07-0.13-0.15l0.07-1.17c0.01-0.08,0.07-0.14,0.15-0.13l2.94,0.21l1.81,0.1c1.47,0.08,2.1-0.49,2.16-1.41
			c0.05-0.85-0.66-1.6-1.95-2.01l-1.83-0.1l-2.95-0.13c-0.08,0-0.14-0.07-0.13-0.15l0.07-1.15c0-0.07,0.07-0.13,0.15-0.13l2.94,0.2
			l1.81,0.1c1.47,0.08,2.1-0.47,2.16-1.41c0.05-0.92-0.78-1.71-2.28-2.1L132.59,72.52z"/>
		<path class="st1" d="M127.75,85.86c0.39-1.59,1.68-2.33,3.69-1.84l1.52,0.37l3.16,0.74c0.07,0.02,0.12,0.09,0.1,0.17l-0.27,1.12
			c-0.02,0.07-0.09,0.12-0.17,0.1l-3.14-0.8l-1.48-0.36c-1.39-0.34-2.18,0.17-2.41,1.14c-0.24,1,0.36,2.02,1.81,2.69l1.16,0.29
			l3.16,0.74c0.07,0.02,0.12,0.09,0.1,0.17l-0.28,1.14c-0.02,0.07-0.09,0.12-0.17,0.1l-3.36-0.87l-4.06-0.96
			c-0.07-0.02-0.12-0.09-0.1-0.17l0.26-1.06c0.02-0.07,0.09-0.12,0.17-0.1l1.17,0.32C127.94,88.13,127.45,87.09,127.75,85.86z"/>
		<path class="st1" d="M126.47,91.34c0.03-0.07,0.11-0.1,0.18-0.07l3.2,1.34l3.88,1.53c0.07,0.03,0.1,0.11,0.07,0.18l-0.41,1.02
			c-0.03,0.07-0.11,0.11-0.18,0.08l-1.09-0.49c0.56,0.76,0.89,1.86,0.41,3.03c-0.62,1.51-2,2.06-3.91,1.28l-1.47-0.59l-3.02-1.19
			c-0.07-0.03-0.1-0.11-0.07-0.18l0.43-1.06c0.03-0.07,0.11-0.11,0.18-0.08l3,1.24l1.41,0.57c1.33,0.54,2.19,0.13,2.56-0.78
			c0.39-0.97-0.06-2.06-1.4-2.93l-1.11-0.45l-3.01-1.2c-0.07-0.03-0.11-0.11-0.08-0.18L126.47,91.34z"/>
		<path class="st1" d="M123.14,98.94c0.03-0.07,0.12-0.1,0.18-0.06l3.46,1.87l3.29,1.71c0.07,0.04,0.09,0.12,0.06,0.19l-0.54,1.02
			c-0.03,0.07-0.12,0.1-0.19,0.06l-3.24-1.76l-3.51-1.82c-0.07-0.03-0.09-0.12-0.06-0.19L123.14,98.94z M130.94,103.07
			c0.04-0.07,0.12-0.1,0.19-0.06l1.11,0.59c0.07,0.03,0.09,0.12,0.06,0.19l-0.54,1.02c-0.03,0.07-0.12,0.1-0.19,0.06l-1.11-0.59
			c-0.07-0.03-0.1-0.12-0.06-0.19L130.94,103.07z"/>
		<path class="st1" d="M119.77,105.1c-0.07-0.04-0.1-0.14-0.08-0.22c0.09-0.31,0.22-0.7,0.42-1.01c0.62-0.98,1.64-1.48,3.1-0.56
			l3.92,2.47l0.47-0.74c0.04-0.07,0.13-0.09,0.19-0.04l0.69,0.43c0.07,0.04,0.08,0.13,0.04,0.19l-0.47,0.74l1.57,0.97
			c0.06,0.04,0.08,0.13,0.04,0.19l-0.61,0.96c-0.04,0.07-0.13,0.09-0.19,0.05l-1.55-1l-0.97,1.54c-0.04,0.06-0.12,0.08-0.19,0.04
			l-0.69-0.43c-0.07-0.04-0.09-0.13-0.04-0.19l0.97-1.54l-3.9-2.46c-0.81-0.51-1.22-0.39-1.59,0.18c-0.16,0.26-0.28,0.53-0.36,0.74
			c-0.01,0.08-0.1,0.1-0.15,0.07L119.77,105.1z"/>
		<path class="st1" d="M115.03,106.87c-0.04-0.07-0.04-0.17,0.01-0.23l0.67-0.83c0.04-0.05,0.13-0.06,0.17,0.01l1.38,2.2l8.03,2.46
			c0.06,0.03,0.08,0.1,0.04,0.15l-0.82,1.02c-0.05,0.06-0.14,0.08-0.21,0.07l-6.07-1.99l3.45,5.21c0.04,0.07,0.04,0.17-0.01,0.23
			l-0.73,0.91c-0.05,0.06-0.12,0.06-0.16-0.01L115.03,106.87z"/>
		<path class="st1" d="M114,111.8c0.05-0.05,0.14-0.06,0.2,0l0.95,0.92c0.05,0.05,0.05,0.14,0,0.19l-0.88,0.91
			c-0.05,0.05-0.14,0.05-0.19,0l-0.95-0.92c-0.05-0.05-0.06-0.14,0-0.19L114,111.8z"/>
	</g>
	<g>
		<g>
			<path class="st1" d="M73.2,146.4C32.84,146.4,0,113.56,0,73.2S32.84,0,73.2,0s73.2,32.84,73.2,73.2S113.56,146.4,73.2,146.4z
				 M73.2,0.54C33.14,0.54,0.54,33.14,0.54,73.2s32.59,72.66,72.66,72.66s72.66-32.59,72.66-72.66S113.27,0.54,73.2,0.54z"/>
		</g>
	</g>
	<g>
		<g>
			<path class="st1" d="M59.44,63.87L51.45,84.4l-8.03-20.52l-4.11,18.96h-2.82l6.23-28.4l8.73,22.8l8.74-22.8l6.19,28.4h-2.78
				L59.44,63.87z"/>
		</g>
		<g>
			<path class="st1" d="M65.42,56.2h2.98l9.13,21.47l9.09-21.47h2.98L77.53,84.44L65.42,56.2z"/>
		</g>
		<g>
			<path class="st1" d="M107.43,70.03c-1.61,1.5-3.6,2.25-5.97,2.25h-5.8v10.54h-2.74V56.19h8.54c2.35,0,4.35,0.74,5.97,2.23
				c1.66,1.52,2.49,3.45,2.49,5.8C109.92,66.55,109.09,68.49,107.43,70.03z M101.85,69.62c1.53,0,2.8-0.52,3.8-1.55
				c1.02-1.05,1.53-2.36,1.53-3.93c0-1.57-0.48-2.85-1.45-3.84c-0.97-0.99-2.26-1.49-3.88-1.49h-6.19v10.81H101.85z"/>
		</g>
	</g>
	<g>
		<g>
			<g>
				<path class="st1" d="M74.34,138.9c-6.14,0-12.74-1.85-12.74-5.92c0-2.49,2.35-4.36,6.79-5.4l0.41,1.76
					c-1.62,0.38-5.4,1.5-5.4,3.65c0,2.31,4.81,4.11,10.94,4.11c6.14,0,10.94-1.81,10.94-4.11c0-1.98-2.96-3.08-5.44-3.65l0.4-1.76
					c4.54,1.04,6.84,2.86,6.84,5.4C87.08,137.05,80.48,138.9,74.34,138.9z"/>
			</g>
		</g>
	</g>
	<g>
		<path class="st1" d="M74.34,94.45c-6.35,0-11.51,5.16-11.51,11.51c0,9.09,10,24.88,10.43,25.55l1.08,1.7l1.08-1.7
			c0.43-0.67,10.43-16.58,10.43-25.55C85.85,99.61,80.68,94.45,74.34,94.45z M74.34,114.39c-3.99,0-7.23-3.24-7.23-7.23
			s3.24-7.23,7.23-7.23c3.99,0,7.23,3.24,7.23,7.23C81.57,111.16,78.33,114.39,74.34,114.39z"/>
	</g>
	<g>
		<path class="st1" d="M73.2,25.48c-26.31,0-47.72,21.41-47.72,47.72c0,22.94,16.27,42.15,37.88,46.69
			c-0.09-0.21-0.18-0.41-0.27-0.62c-21.17-4.64-37.07-23.53-37.07-46.07c0-26.01,21.16-47.18,47.18-47.18
			c26.01,0,47.18,21.16,47.18,47.18c0,21.64-14.65,39.9-34.54,45.44c-0.09,0.21-0.18,0.43-0.27,0.64
			c20.34-5.46,35.35-24.05,35.35-46.08C120.92,46.89,99.51,25.48,73.2,25.48z"/>
	</g>
</g>
</svg>
