<?xml version="1.0" encoding="utf-8"?>
<!-- Generator: Adobe Illustrator 25.4.1, SVG Export Plug-In . SVG Version: 6.00 Build 0)  -->
<svg version="1.1" id="Layer_1" xmlns="http://www.w3.org/2000/svg" xmlns:xlink="http://www.w3.org/1999/xlink" x="0px" y="0px"
	 width="181.8px" height="181.8px" viewBox="0 0 181.8 181.8" style="enable-background:new 0 0 181.8 181.8;" xml:space="preserve"
	>
<style type="text/css">
	.st0{fill:#049FDA;}
	.st1{opacity:0.75;}
	.st2{clip-path:url(#SVGID_00000075878586506100378710000011748077965483102611_);fill:#C3E8F5;}
</style>
<path class="st0" d="M181.8,90.9c0,50.2-40.7,90.9-90.9,90.9C40.7,181.8,0,141.1,0,90.9C0,40.7,40.7,0,90.9,0
	C141.1,0,181.8,40.7,181.8,90.9"/>
<g class="st1">
	<g>
		<defs>
			<rect id="SVGID_1_" x="17.7" y="17.7" width="146.4" height="146.4"/>
		</defs>
		<clipPath id="SVGID_00000050652646433278505370000017152562855571047353_">
			<use xlink:href="#SVGID_1_"  style="overflow:visible;"/>
		</clipPath>
		<path style="clip-path:url(#SVGID_00000050652646433278505370000017152562855571047353_);fill:#C3E8F5;" d="M48.4,127.3
			c1.8,2.1,1.9,4.2,0.1,5.8c-0.1,0-0.1,0-0.2,0l-0.8-0.9c0-0.1,0-0.1,0-0.2c1.1-1.2,1.4-2.4,0-4c-1-1.2-2.2-1.7-3.3-0.8
			c-2.2,1.9,4,5.9,0.9,8.5c-1.5,1.3-3.4,0.8-4.9-1c-1.6-1.9-1.8-3.7-0.3-5.3c0-0.1,0.1-0.1,0.2,0l0.8,0.9c0,0.1,0,0.1,0,0.2
			c-1,1-0.9,2.1,0.2,3.5c1,1.1,2.1,1.5,3,0.8c2.1-1.8-4.1-5.8-0.9-8.5C44.8,124.9,46.8,125.5,48.4,127.3"/>
		<path style="clip-path:url(#SVGID_00000050652646433278505370000017152562855571047353_);fill:#C3E8F5;" d="M38.9,118.8
			c0-0.1,0-0.1,0.1-0.2c1.5-0.6,3.1-0.2,4.2,1.5c1.3,2.1,0.5,4.1-1.5,5.4c-2.1,1.3-4.3,1-5.5-1c-1.2-2-0.6-3.9,1.6-5.4
			c0.1,0,0.1,0,0.2,0l3.1,5c1.6-1,2-2.2,1.2-3.6c-0.6-1-1.5-1.3-2.6-0.9c-0.1,0-0.2,0-0.2-0.1L38.9,118.8z M37,124
			c0.7,1.1,1.8,1.3,3.2,0.7l-2.3-3.8C36.8,121.6,36.3,122.8,37,124"/>
		<path style="clip-path:url(#SVGID_00000050652646433278505370000017152562855571047353_);fill:#C3E8F5;" d="M40.6,115.9
			c0,0.1,0,0.2-0.1,0.2l-3.6,1.6l-3.4,1.6c-0.1,0-0.2,0-0.2-0.1l-0.5-1c0-0.1,0-0.2,0.1-0.2l1.2-0.5c-1.2-0.1-2.1-0.8-2.5-1.8
			c-0.1-0.2-0.1-0.3-0.2-0.4c0-0.1,0-0.2,0.1-0.2l0.8-0.4c0.1,0,0.1,0,0.2,0.1c0,0.1,0.1,0.3,0.2,0.4c0.6,1.2,1.8,1.9,3.4,1.4
			l3.8-1.7c0.1,0,0.2,0,0.2,0.1L40.6,115.9z"/>
		<path style="clip-path:url(#SVGID_00000050652646433278505370000017152562855571047353_);fill:#C3E8F5;" d="M36.9,106.7
			c0.1,0,0.1,0.1,0.2,0.1l0.4,1.4c0,0.1,0,0.2-0.1,0.2l-6.5,5c-0.1,0-0.1,0-0.1-0.1l-0.4-1.2c0-0.1,0-0.2,0.1-0.2l5.6-4.1l-7-0.2
			c-0.1,0-0.2-0.1-0.2-0.1l-0.3-1c0-0.1,0-0.1,0.1-0.1L36.9,106.7z"/>
		<path style="clip-path:url(#SVGID_00000050652646433278505370000017152562855571047353_);fill:#C3E8F5;" d="M27.4,104.6
			c0,0.1,0,0.1-0.1,0.2L26,105c-0.1,0-0.1,0-0.2-0.1l-0.2-1.1c0-0.1,0-0.2,0.1-0.2l1.2-0.3c0.1,0,0.1,0,0.2,0.1L27.4,104.6z
			 M36,102.8c0,0.1,0,0.1-0.1,0.2l-3.9,0.8l-3.6,0.8c-0.1,0-0.1,0-0.2-0.1l-0.2-1.1c0-0.1,0-0.1,0.1-0.2l3.6-0.7l3.9-0.8
			c0.1,0,0.1,0,0.2,0.1L36,102.8z"/>
		<path style="clip-path:url(#SVGID_00000050652646433278505370000017152562855571047353_);fill:#C3E8F5;" d="M35.2,96.5
			c0.2,2.4-1.2,3.9-3.7,4.1c-2.5,0.3-4.3-0.9-4.5-3.3c-0.2-2,0.8-3.3,2.4-3.6c0.1,0,0.1,0,0.1,0.1l0.1,1c0,0.1,0,0.1-0.1,0.2
			c-1.1,0.3-1.6,1.2-1.5,2.2c0.2,1.5,1.4,2.2,3.3,2c2-0.2,3-1.1,2.9-2.6c-0.1-1.2-0.9-1.9-2.2-1.9c-0.1,0-0.1-0.1-0.2-0.1l-0.1-1
			c0-0.1,0-0.1,0.1-0.1C33.6,93.3,35,94.5,35.2,96.5"/>
		<path style="clip-path:url(#SVGID_00000050652646433278505370000017152562855571047353_);fill:#C3E8F5;" d="M25.9,91.8
			c0,0.1-0.1,0.1-0.1,0.1l-1.3,0c-0.1,0-0.1-0.1-0.1-0.1l0-1.2c0-0.1,0.1-0.1,0.1-0.1l1.3,0c0.1,0,0.1,0.1,0.1,0.1L25.9,91.8z
			 M34.8,91.6c0,0.1-0.1,0.1-0.1,0.1l-3.9,0L27,91.9c-0.1,0-0.1-0.1-0.1-0.1l0-1.2c0-0.1,0.1-0.1,0.1-0.1l3.7,0l4-0.1
			c0.1,0,0.1,0.1,0.1,0.1L34.8,91.6z"/>
		<path style="clip-path:url(#SVGID_00000050652646433278505370000017152562855571047353_);fill:#C3E8F5;" d="M34.7,88.4
			c0,0.1-0.1,0.1-0.2,0.1l-3.5-0.4L27,87.8c-0.1,0-0.1-0.1-0.1-0.2l0.1-1.1c0-0.1,0.1-0.1,0.2-0.1l1.2,0.2C27.5,86,26.9,85,27,83.8
			c0.2-1.6,1.3-2.5,3.4-2.3l1.6,0.2l3.2,0.3c0.1,0,0.1,0.1,0.1,0.2l-0.1,1.1c0,0.1-0.1,0.1-0.2,0.1L31.9,83l-1.5-0.1
			c-1.4-0.1-2.1,0.5-2.2,1.5c-0.1,1,0.6,2,2.2,2.4l1.2,0.1l3.2,0.3c0.1,0,0.1,0.1,0.1,0.1L34.7,88.4z"/>
		<path style="clip-path:url(#SVGID_00000050652646433278505370000017152562855571047353_);fill:#C3E8F5;" d="M39.3,78
			c-0.4,1.8-1.5,3-3.2,2.7c-0.1,0-0.1-0.1-0.1-0.2l0.3-1.1c0-0.1,0.1-0.1,0.2-0.1c1,0.1,1.6-0.6,1.9-1.6c0.3-1.3-0.2-2.3-1.9-2.7
			l-0.8-0.2c0.7,0.7,1,1.6,0.7,2.7c-0.5,2.2-2.4,2.9-4.6,2.3c-2.2-0.5-3.6-2.1-3.1-4.2c0.3-1.1,0.9-1.8,1.9-2.1l-1.1-0.2
			c-0.1,0-0.1-0.1-0.1-0.2l0.3-1.1c0-0.1,0.1-0.1,0.2-0.1l2.9,0.8l4.1,1C39,74.3,39.9,75.8,39.3,78 M35.4,77
			c0.3-1.3-0.4-2.3-2.3-2.8c-1.8-0.5-3.1,0-3.5,1.2c0,0-0.1,0.2-0.1,0.3c-0.3,1.4,0.7,2.3,2.4,2.8C33.8,78.9,35.1,78.5,35.4,77"/>
		<path style="clip-path:url(#SVGID_00000050652646433278505370000017152562855571047353_);fill:#C3E8F5;" d="M40.4,65.7
			c0.1,0,0.1,0.1,0.1,0.2c0,0.3-0.1,0.7-0.3,1.1c-0.5,1.1-1.4,1.7-3,1L33,66l-0.4,0.8c0,0.1-0.1,0.1-0.2,0.1l-0.7-0.3
			c-0.1,0-0.1-0.1-0.1-0.2l0.4-0.8l-1.7-0.7c-0.1,0-0.1-0.1-0.1-0.2l0.5-1c0-0.1,0.1-0.1,0.2-0.1l1.7,0.8l0.7-1.7
			c0-0.1,0.1-0.1,0.2-0.1l0.7,0.3c0.1,0,0.1,0.1,0.1,0.2l-0.7,1.7l4.2,1.9c0.9,0.4,1.3,0.2,1.5-0.4c0.1-0.3,0.2-0.6,0.3-0.8
			c0-0.1,0.1-0.1,0.1-0.1L40.4,65.7z"/>
		<path style="clip-path:url(#SVGID_00000050652646433278505370000017152562855571047353_);fill:#C3E8F5;" d="M37,58.1
			c-0.5,0.9-0.3,2.1,0.8,3.1l4,2.3c0.1,0,0.1,0.1,0,0.2l-0.6,1c0,0.1-0.1,0.1-0.2,0l-4.5-2.8L32,59.3c-0.1,0-0.1-0.1,0-0.2l0.6-1
			c0-0.1,0.1-0.1,0.2,0l3.4,2.1c-0.4-0.8-0.6-1.9,0.1-3c0.9-1.4,2.3-1.8,4.2-0.6l1.4,0.8l2.6,1.5c0.1,0,0.1,0.1,0,0.2l-0.6,1
			c0,0.1-0.1,0.1-0.2,0l-2.6-1.6l-1.5-0.9C38.3,57,37.5,57.2,37,58.1"/>
		<path style="clip-path:url(#SVGID_00000050652646433278505370000017152562855571047353_);fill:#C3E8F5;" d="M47.6,50.8
			c0-0.1,0.1-0.1,0.2,0c1.1,1.2,1.2,2.9-0.1,4.5c-1.6,1.9-3.7,1.8-5.6,0.3c-1.9-1.6-2.3-3.7-0.9-5.5c1.5-1.8,3.5-1.8,5.6-0.2
			c0.1,0,0.1,0.1,0,0.2l-3.7,4.5c1.5,1.2,2.8,1.2,3.8,0c0.7-0.9,0.7-1.8,0-2.8c0-0.1,0-0.2,0-0.2L47.6,50.8z M42.1,50.7
			c-0.8,1-0.7,2.1,0.4,3.2l2.8-3.4C44.3,49.8,43,49.6,42.1,50.7"/>
		<path style="clip-path:url(#SVGID_00000050652646433278505370000017152562855571047353_);fill:#C3E8F5;" d="M53.3,49.2
			c-0.1,0.1-0.1,0-0.2,0l-3.5-4l-3.5-3.8c-0.1-0.1,0-0.1,0-0.2l0.9-0.8c0.1-0.1,0.1,0,0.2,0l3.4,3.9l3.6,3.9c0,0.1,0,0.1,0,0.2
			L53.3,49.2z"/>
		<path style="clip-path:url(#SVGID_00000050652646433278505370000017152562855571047353_);fill:#C3E8F5;" d="M58.4,45.4
			c-2,1.4-4,0.9-5.5-1.2c-1.5-2-1.3-4.2,0.6-5.6c2-1.4,4-0.8,5.5,1.2C60.5,41.8,60.4,44,58.4,45.4 M57.8,44.5
			c1.3-0.9,1.2-2.2,0.1-3.9c-1.2-1.6-2.5-2.1-3.7-1.2c-1.3,0.9-1.2,2.3-0.1,3.9C55.2,45,56.5,45.4,57.8,44.5"/>
		<path style="clip-path:url(#SVGID_00000050652646433278505370000017152562855571047353_);fill:#C3E8F5;" d="M62.5,42.3
			c-0.1,0-0.2,0-0.2-0.1l-1.5-3.1l-1.9-3.7c0-0.1,0-0.2,0.1-0.2l1-0.5c0.1,0,0.2,0,0.2,0.1l0.5,1.1c0.1-0.9,0.5-2,1.7-2.6
			c1.5-0.7,2.8-0.2,3.8,1.6l0.7,1.4l1.5,2.9c0,0.1,0,0.2-0.1,0.2l-1,0.5c-0.1,0-0.2,0-0.2-0.1L65.6,37l-0.7-1.4
			c-0.7-1.3-1.6-1.5-2.4-1.1c-0.9,0.5-1.3,1.6-0.9,3.1l0.5,1.1l1.5,2.9c0,0.1,0,0.2-0.1,0.2L62.5,42.3z"/>
		<path style="clip-path:url(#SVGID_00000050652646433278505370000017152562855571047353_);fill:#C3E8F5;" d="M73.9,40.6
			c-1.7,0.6-3.3,0.3-4-1.2c0-0.1,0-0.1,0.1-0.2l1.1-0.4c0.1,0,0.2,0,0.2,0.1c0.5,0.9,1.3,1.1,2.4,0.7c1.3-0.4,1.8-1.4,1.3-3.1
			l-0.3-0.8c-0.2,1-0.8,1.7-1.9,2.1c-2.1,0.7-3.8-0.5-4.5-2.7c-0.7-2.1-0.2-4.2,1.9-4.9c1.1-0.4,2-0.2,2.8,0.5l-0.4-1
			c0-0.1,0-0.1,0.1-0.2l1.1-0.4c0.1,0,0.2,0,0.2,0.1l0.9,2.9l1.4,4C76.8,38.2,76,39.8,73.9,40.6 M72.6,36.7c1.2-0.4,1.7-1.6,1.1-3.4
			c-0.6-1.8-1.6-2.6-2.9-2.3c0,0-0.2,0.1-0.3,0.1c-1.3,0.5-1.6,1.8-1,3.5C70.1,36.4,71.2,37.2,72.6,36.7"/>
		<path style="clip-path:url(#SVGID_00000050652646433278505370000017152562855571047353_);fill:#C3E8F5;" d="M84.8,34.8
			c0,0.1,0,0.2-0.1,0.2c-0.3,0.1-0.7,0.3-1,0.3c-1.1,0.2-2.2-0.3-2.4-2l-0.7-4.6l-0.9,0.1c-0.1,0-0.1,0-0.2-0.1L79.3,28
			c0-0.1,0-0.1,0.1-0.2l0.9-0.1L80,25.9c0-0.1,0-0.1,0.1-0.2l1.1-0.2c0.1,0,0.1,0,0.2,0.1l0.3,1.8l1.8-0.3c0.1,0,0.1,0,0.2,0.1
			l0.1,0.8c0,0.1,0,0.1-0.1,0.2l-1.8,0.3l0.7,4.6c0.1,0.9,0.5,1.2,1.2,1.1c0.3,0,0.6-0.1,0.8-0.2c0.1,0,0.1,0,0.2,0.1L84.8,34.8z"/>
		<path style="clip-path:url(#SVGID_00000050652646433278505370000017152562855571047353_);fill:#C3E8F5;" d="M92.4,31.9
			c0.1,0,0.1,0.1,0.1,0.1c-0.2,1.6-1.4,2.8-3.4,2.9c-2.5,0.1-3.9-1.6-3.9-4c-0.1-2.5,1.3-4.2,3.6-4.3c2.3-0.1,3.7,1.4,3.8,4.1
			c0,0.1-0.1,0.1-0.1,0.1l-5.9,0.2c0.1,1.9,0.9,2.9,2.5,2.8c1.2,0,1.9-0.7,2.1-1.8c0-0.1,0.1-0.1,0.2-0.1L92.4,31.9z M88.8,27.7
			c-1.3,0-2,0.9-2.2,2.4l4.4-0.1C91,28.7,90.2,27.7,88.8,27.7"/>
		<path style="clip-path:url(#SVGID_00000050652646433278505370000017152562855571047353_);fill:#C3E8F5;" d="M94.1,34.8
			c-0.1,0-0.1-0.1-0.1-0.1l0.4-3.9l0.3-3.7c0-0.1,0.1-0.1,0.2-0.1L96,27c0.1,0,0.1,0.1,0.1,0.2l-0.2,1.3c0.7-1,1.7-1.4,2.8-1.3
			c0.2,0,0.3,0,0.5,0.1c0.1,0,0.1,0.1,0.1,0.2l-0.1,0.9c0,0.1-0.1,0.1-0.1,0.1c-0.1,0-0.3-0.1-0.4-0.1c-1.3-0.1-2.6,0.6-2.9,2.3
			l-0.4,4.1c0,0.1-0.1,0.1-0.2,0.1L94.1,34.8z"/>
		<path style="clip-path:url(#SVGID_00000050652646433278505370000017152562855571047353_);fill:#C3E8F5;" d="M101.8,32.5l-0.7,2.9
			c0,0.1-0.1,0.1-0.2,0.1l-1.1-0.3c-0.1,0-0.1-0.1-0.1-0.2l0.8-2.8l1.1-4.5c0-0.1,0.1-0.1,0.2-0.1l1.1,0.3c0.1,0,0.1,0.1,0.1,0.2
			l-0.3,1.1c0.7-0.7,1.6-1.2,2.8-0.9c1.1,0.3,1.8,1,1.8,2.2c0.8-0.9,1.7-1.3,2.8-1c1.5,0.4,2.2,1.6,1.6,3.7l-0.5,1.8l-0.7,2.9
			c0,0.1-0.1,0.1-0.2,0.1l-1.1-0.3c-0.1,0-0.1-0.1-0.1-0.2l0.8-2.8l0.5-1.8c0.4-1.4-0.1-2.2-1-2.4c-0.8-0.2-1.7,0.3-2.3,1.5
			l-0.5,1.8l-0.7,2.9c0,0.1-0.1,0.1-0.2,0.1l-1.1-0.3c-0.1,0-0.1-0.1-0.1-0.2l0.8-2.9l0.5-1.8c0.4-1.4-0.1-2.2-1-2.4
			c-0.9-0.2-1.8,0.4-2.5,1.8L101.8,32.5z"/>
		<path style="clip-path:url(#SVGID_00000050652646433278505370000017152562855571047353_);fill:#C3E8F5;" d="M117.4,41.6
			c-2.1-1.1-2.5-3.2-1.3-5.4c1.2-2.2,3.1-3,5.3-1.9c1.7,0.9,2.3,2.5,1.6,4c0,0.1-0.1,0.1-0.2,0.1l-0.9-0.5c-0.1,0-0.1-0.1-0.1-0.2
			c0.4-1.1,0-2-1-2.5c-1.4-0.7-2.6-0.1-3.5,1.7c-1,1.8-0.8,3.1,0.6,3.8c1,0.6,2.1,0.3,2.8-0.8c0-0.1,0.1-0.1,0.2,0l0.9,0.5
			c0.1,0,0.1,0.1,0,0.2C120.9,42,119.2,42.5,117.4,41.6"/>
		<path style="clip-path:url(#SVGID_00000050652646433278505370000017152562855571047353_);fill:#C3E8F5;" d="M126.1,47.1
			c-0.1,0-0.1-0.1,0-0.2l0.7-0.9c-1,0.4-2,0.3-2.9-0.4c-1.7-1.3-1.6-3.4-0.2-5.2c1.4-1.8,3.4-2.6,5.1-1.4c0.9,0.7,1.3,1.6,1.2,2.6
			l0.6-0.9c0-0.1,0.1-0.1,0.2,0l0.9,0.7c0.1,0,0.1,0.1,0,0.2l-2.3,3l-2.3,3.2c0,0.1-0.1,0.1-0.2,0L126.1,47.1z M124.8,45
			c1.1,0.8,2.4,0.5,3.6-1.1c1.1-1.5,1.2-2.9,0.3-3.7c0,0-0.2-0.1-0.3-0.2c-1.2-0.8-2.4-0.2-3.5,1.2C123.8,42.7,123.6,44.1,124.8,45"
			/>
		<path style="clip-path:url(#SVGID_00000050652646433278505370000017152562855571047353_);fill:#C3E8F5;" d="M128.3,49
			c-0.1-0.1-0.1-0.1,0-0.2l2.7-2.8l2.5-2.7c0.1-0.1,0.1-0.1,0.2,0l0.8,0.8c0.1,0.1,0.1,0.1,0,0.2l-1,0.9c1.1-0.3,2.2,0,3,0.7
			c0.1,0.1,0.2,0.2,0.3,0.4c0,0.1,0,0.2,0,0.2l-0.6,0.6c0,0-0.1,0-0.2,0c-0.1-0.1-0.2-0.2-0.3-0.3c-1-0.9-2.4-1.1-3.7,0l-2.9,3
			c-0.1,0.1-0.1,0.1-0.2,0L128.3,49z"/>
		<path style="clip-path:url(#SVGID_00000050652646433278505370000017152562855571047353_);fill:#C3E8F5;" d="M138.4,55.9
			c0,0.1,0,0.1,0,0.2c-1.4,0.8-3.1,0.7-4.4-0.9c-1.6-1.9-1.1-4,0.7-5.6c1.9-1.6,4.1-1.6,5.6,0.2c1.5,1.8,1.1,3.8-0.9,5.5
			c-0.1,0-0.1,0-0.2,0l-3.7-4.5c-1.4,1.3-1.7,2.5-0.7,3.7c0.7,0.9,1.7,1.1,2.7,0.5c0.1,0,0.2,0,0.2,0L138.4,55.9z M139.6,50.5
			c-0.8-1-2-1-3.2-0.2l2.8,3.4C140.1,52.8,140.5,51.6,139.6,50.5"/>
		<path style="clip-path:url(#SVGID_00000050652646433278505370000017152562855571047353_);fill:#C3E8F5;" d="M140.3,64.5
			c-1.1-2.1-0.3-4,1.9-5.2c2.2-1.2,4.3-0.8,5.4,1.3c0.9,1.7,0.5,3.3-0.9,4.3c-0.1,0-0.1,0-0.2,0l-0.5-0.9c0-0.1,0-0.1,0-0.2
			c0.9-0.7,1.1-1.7,0.6-2.6c-0.7-1.4-2.1-1.5-3.8-0.6c-1.8,1-2.4,2.1-1.6,3.5c0.6,1,1.6,1.4,2.8,0.9c0.1,0,0.2,0,0.2,0.1l0.5,0.9
			c0,0.1,0,0.2-0.1,0.2C143,66.8,141.3,66.3,140.3,64.5"/>
		<path style="clip-path:url(#SVGID_00000050652646433278505370000017152562855571047353_);fill:#C3E8F5;" d="M143.6,71.8
			c-0.8-2.3,0.2-4.1,2.6-4.9c2.4-0.9,4.4-0.1,5.2,2.1c0.8,2.3-0.3,4.1-2.6,4.9C146.4,74.8,144.4,74.1,143.6,71.8 M144.5,71.5
			c0.5,1.5,1.8,1.8,3.7,1.1c1.9-0.7,2.7-1.8,2.2-3.2c-0.5-1.5-1.9-1.8-3.7-1.1C144.8,68.9,144,70,144.5,71.5"/>
		<path style="clip-path:url(#SVGID_00000050652646433278505370000017152562855571047353_);fill:#C3E8F5;" d="M148.7,77.3l-2.9,0.5
			c-0.1,0-0.1,0-0.2-0.1l-0.2-1.2c0-0.1,0-0.1,0.1-0.2l2.9-0.4l4.6-0.8c0.1,0,0.1,0,0.2,0.1l0.2,1.1c0,0.1,0,0.1-0.1,0.2l-1.2,0.1
			c0.9,0.4,1.7,1,1.9,2.2c0.2,1.1-0.2,2-1.3,2.5c1.2,0.4,1.9,1.1,2,2.2c0.2,1.5-0.6,2.6-2.7,3l-1.8,0.3l-2.9,0.5
			c-0.1,0-0.1,0-0.2-0.1l-0.2-1.2c0-0.1,0-0.1,0.1-0.2l2.9-0.4l1.8-0.3c1.5-0.2,1.9-0.9,1.8-1.8c-0.1-0.8-1-1.4-2.3-1.5l-1.8,0.3
			l-2.9,0.5c-0.1,0-0.1,0-0.2-0.1l-0.2-1.1c0-0.1,0-0.1,0.1-0.2l2.9-0.4l1.8-0.3c1.5-0.2,2-0.9,1.8-1.8c-0.1-0.9-1.1-1.5-2.7-1.6
			L148.7,77.3z"/>
		<path style="clip-path:url(#SVGID_00000050652646433278505370000017152562855571047353_);fill:#C3E8F5;" d="M150.3,90.2l-2.9-0.1
			c-0.1,0-0.1-0.1-0.1-0.1l0.1-1.2c0-0.1,0.1-0.1,0.1-0.1l2.9,0.2l4.7,0.2c0.1,0,0.1,0.1,0.1,0.1l-0.1,1.1c0,0.1-0.1,0.1-0.1,0.1
			l-1.2-0.1c0.8,0.5,1.4,1.3,1.4,2.5c-0.1,1.1-0.6,1.9-1.8,2.2c1,0.6,1.6,1.5,1.5,2.6c-0.1,1.6-1.1,2.4-3.3,2.3l-1.9-0.1l-2.9-0.1
			c-0.1,0-0.1-0.1-0.1-0.1l0.1-1.2c0-0.1,0.1-0.1,0.1-0.1l2.9,0.2l1.8,0.1c1.5,0.1,2.1-0.5,2.2-1.4c0-0.8-0.7-1.6-1.9-2l-1.8-0.1
			l-2.9-0.1c-0.1,0-0.1-0.1-0.1-0.1l0.1-1.2c0-0.1,0.1-0.1,0.1-0.1l2.9,0.2l1.8,0.1c1.5,0.1,2.1-0.5,2.2-1.4
			c0.1-0.9-0.8-1.7-2.3-2.1L150.3,90.2z"/>
		<path style="clip-path:url(#SVGID_00000050652646433278505370000017152562855571047353_);fill:#C3E8F5;" d="M145.5,103.6
			c0.4-1.6,1.7-2.3,3.7-1.8l1.5,0.4l3.2,0.7c0.1,0,0.1,0.1,0.1,0.2l-0.3,1.1c0,0.1-0.1,0.1-0.2,0.1l-3.1-0.8l-1.5-0.4
			c-1.4-0.3-2.2,0.2-2.4,1.1c-0.2,1,0.4,2,1.8,2.7l1.2,0.3l3.2,0.7c0.1,0,0.1,0.1,0.1,0.2l-0.3,1.1c0,0.1-0.1,0.1-0.2,0.1l-3.4-0.9
			l-4.1-1c-0.1,0-0.1-0.1-0.1-0.2l0.3-1.1c0-0.1,0.1-0.1,0.2-0.1l1.2,0.3C145.7,105.8,145.2,104.8,145.5,103.6"/>
		<path style="clip-path:url(#SVGID_00000050652646433278505370000017152562855571047353_);fill:#C3E8F5;" d="M144.2,109.1
			c0-0.1,0.1-0.1,0.2-0.1l3.2,1.3l3.9,1.5c0.1,0,0.1,0.1,0.1,0.2l-0.4,1c0,0.1-0.1,0.1-0.2,0.1l-1.1-0.5c0.6,0.8,0.9,1.9,0.4,3
			c-0.6,1.5-2,2.1-3.9,1.3l-1.5-0.6l-3-1.2c-0.1,0-0.1-0.1-0.1-0.2l0.4-1.1c0-0.1,0.1-0.1,0.2-0.1l3,1.2l1.4,0.6
			c1.3,0.5,2.2,0.1,2.6-0.8c0.4-1-0.1-2.1-1.4-2.9l-1.1-0.4l-3-1.2c-0.1,0-0.1-0.1-0.1-0.2L144.2,109.1z"/>
		<path style="clip-path:url(#SVGID_00000050652646433278505370000017152562855571047353_);fill:#C3E8F5;" d="M140.9,116.7
			c0-0.1,0.1-0.1,0.2-0.1l3.5,1.9l3.3,1.7c0.1,0,0.1,0.1,0.1,0.2l-0.5,1c0,0.1-0.1,0.1-0.2,0.1l-3.2-1.8l-3.5-1.8
			c-0.1,0-0.1-0.1-0.1-0.2L140.9,116.7z M148.7,120.8c0-0.1,0.1-0.1,0.2-0.1l1.1,0.6c0.1,0,0.1,0.1,0.1,0.2l-0.5,1
			c0,0.1-0.1,0.1-0.2,0.1l-1.1-0.6c-0.1,0-0.1-0.1-0.1-0.2L148.7,120.8z"/>
		<path style="clip-path:url(#SVGID_00000050652646433278505370000017152562855571047353_);fill:#C3E8F5;" d="M137.5,122.8
			c-0.1,0-0.1-0.1-0.1-0.2c0.1-0.3,0.2-0.7,0.4-1c0.6-1,1.6-1.5,3.1-0.6l3.9,2.5l0.5-0.7c0-0.1,0.1-0.1,0.2,0l0.7,0.4
			c0.1,0,0.1,0.1,0,0.2l-0.5,0.7l1.6,1c0.1,0,0.1,0.1,0,0.2l-0.6,1c0,0.1-0.1,0.1-0.2,0l-1.6-1l-1,1.5c0,0.1-0.1,0.1-0.2,0l-0.7-0.4
			c-0.1,0-0.1-0.1,0-0.2l1-1.5l-3.9-2.5c-0.8-0.5-1.2-0.4-1.6,0.2c-0.2,0.3-0.3,0.5-0.4,0.7c0,0.1-0.1,0.1-0.1,0.1L137.5,122.8z"/>
		<path style="clip-path:url(#SVGID_00000050652646433278505370000017152562855571047353_);fill:#C3E8F5;" d="M132.8,124.6
			c0-0.1,0-0.2,0-0.2l0.7-0.8c0,0,0.1-0.1,0.2,0l1.4,2.2l8,2.5c0.1,0,0.1,0.1,0,0.1l-0.8,1c0,0.1-0.1,0.1-0.2,0.1l-6.1-2l3.5,5.2
			c0,0.1,0,0.2,0,0.2l-0.7,0.9c0,0.1-0.1,0.1-0.2,0L132.8,124.6z"/>
		<path style="clip-path:url(#SVGID_00000050652646433278505370000017152562855571047353_);fill:#C3E8F5;" d="M131.7,129.5
			c0.1-0.1,0.1-0.1,0.2,0l0.9,0.9c0.1,0.1,0.1,0.1,0,0.2l-0.9,0.9c-0.1,0.1-0.1,0.1-0.2,0l-0.9-0.9c-0.1-0.1-0.1-0.1,0-0.2
			L131.7,129.5z"/>
		<path style="clip-path:url(#SVGID_00000050652646433278505370000017152562855571047353_);fill:#C3E8F5;" d="M90.9,164.1
			c-40.4,0-73.2-32.8-73.2-73.2c0-40.4,32.8-73.2,73.2-73.2c40.4,0,73.2,32.8,73.2,73.2C164.1,131.3,131.3,164.1,90.9,164.1
			 M90.9,18.3c-40.1,0-72.7,32.6-72.7,72.7c0,40.1,32.6,72.7,72.7,72.7c40.1,0,72.7-32.6,72.7-72.7C163.6,50.9,131,18.3,90.9,18.3"
			/>
		<polygon style="clip-path:url(#SVGID_00000050652646433278505370000017152562855571047353_);fill:#C3E8F5;" points="77.2,81.6 
			69.2,102.1 61.1,81.6 57,100.6 54.2,100.6 60.4,72.2 69.2,95 77.9,72.2 84.1,100.6 81.3,100.6 		"/>
		<polygon style="clip-path:url(#SVGID_00000050652646433278505370000017152562855571047353_);fill:#C3E8F5;" points="83.1,73.9 
			86.1,73.9 95.2,95.4 104.3,73.9 107.3,73.9 95.2,102.2 		"/>
		<path style="clip-path:url(#SVGID_00000050652646433278505370000017152562855571047353_);fill:#C3E8F5;" d="M125.2,87.8
			c-1.6,1.5-3.6,2.3-6,2.3h-5.8v10.5h-2.7V73.9h8.5c2.4,0,4.3,0.7,6,2.2c1.7,1.5,2.5,3.4,2.5,5.8C127.6,84.3,126.8,86.2,125.2,87.8
			 M119.6,87.3c1.5,0,2.8-0.5,3.8-1.5c1-1,1.5-2.4,1.5-3.9c0-1.6-0.5-2.9-1.4-3.8c-1-1-2.3-1.5-3.9-1.5h-6.2v10.8H119.6z"/>
		<path style="clip-path:url(#SVGID_00000050652646433278505370000017152562855571047353_);fill:#C3E8F5;" d="M92.1,156.6
			c-6.1,0-12.7-1.9-12.7-5.9c0-2.5,2.3-4.4,6.8-5.4l0.4,1.8c-1.6,0.4-5.4,1.5-5.4,3.6c0,2.3,4.8,4.1,10.9,4.1
			c6.1,0,10.9-1.8,10.9-4.1c0-2-3-3.1-5.4-3.6l0.4-1.8c4.5,1,6.8,2.9,6.8,5.4C104.8,154.8,98.2,156.6,92.1,156.6"/>
		<path style="clip-path:url(#SVGID_00000050652646433278505370000017152562855571047353_);fill:#C3E8F5;" d="M92.1,112.2
			c-6.3,0-11.5,5.2-11.5,11.5c0,9.1,10,24.9,10.4,25.6l1.1,1.7l1.1-1.7c0.4-0.7,10.4-16.6,10.4-25.5
			C103.6,117.3,98.4,112.2,92.1,112.2 M92.1,132.1c-4,0-7.2-3.2-7.2-7.2c0-4,3.2-7.2,7.2-7.2c4,0,7.2,3.2,7.2,7.2
			C99.3,128.9,96.1,132.1,92.1,132.1"/>
		<path style="clip-path:url(#SVGID_00000050652646433278505370000017152562855571047353_);fill:#C3E8F5;" d="M90.9,43.2
			c-26.3,0-47.7,21.4-47.7,47.7c0,22.9,16.3,42.1,37.9,46.7c-0.1-0.2-0.2-0.4-0.3-0.6c-21.2-4.6-37.1-23.5-37.1-46.1
			c0-26,21.2-47.2,47.2-47.2c26,0,47.2,21.2,47.2,47.2c0,21.6-14.6,39.9-34.5,45.4c-0.1,0.2-0.2,0.4-0.3,0.6
			c20.3-5.5,35.4-24,35.4-46.1C138.6,64.6,117.2,43.2,90.9,43.2"/>
	</g>
</g>
</svg>
