<?xml version="1.0" encoding="utf-8"?>
<!-- Generator: Adobe Illustrator 23.0.5, SVG Export Plug-In . SVG Version: 6.00 Build 0)  -->
<svg version="1.1" id="Layer_1" xmlns="http://www.w3.org/2000/svg" xmlns:xlink="http://www.w3.org/1999/xlink" x="0px" y="0px"
	 viewBox="0 0 64.4 54.2" style="enable-background:new 0 0 64.4 54.2;" xml:space="preserve">
<style type="text/css">
	.st0{fill:#C3E8F5;}
</style>
<g>
	<path class="st0" d="M32.2,14.2c3,0,5.5-2.4,5.5-5.5c0-1.5-0.6-2.8-1.6-3.9c-1-1-2.4-1.6-3.9-1.6l0,0c-3,0-5.5,2.4-5.5,5.5
		S29.1,14.2,32.2,14.2z M32.2,4.8L32.2,4.8c2.2,0,4,1.8,4,4s-1.8,4-4,4l0,0c-2.2,0-4-1.8-4-4S30,4.8,32.2,4.8z"/>
	<path class="st0" d="M42.1,36.1l-1.7-5.4L39,26.1c-0.2-0.6-0.7-0.9-1.2-1c0.4-0.8,0.8-1.6,1.2-2.5l0.2-0.5l0.2-0.5
		c0.3-0.6,0.6-1.2,0.9-1.8c0.6-1.4,0.3-2.8-0.7-3.7c-0.6-0.6-1.4-0.8-2.4-0.8h-4.1c-2,0-3.9,0-5.9,0c-0.3,0-0.6,0-0.9,0.1
		c-1.6,0.3-2.6,1.5-2.6,3.1c0,0.9,0.2,1.6,0.4,2.1c0.8,1.9,1.5,3.8,2.3,5.7c-0.6,0-1.1,0.4-1.4,0.9l0,0c0,0.1-0.1,0.1-0.1,0.2
		l-2.8,8.5c-0.2,0.6-0.1,1.1,0.2,1.5c0.3,0.4,0.8,0.6,1.4,0.6H26h1.2h0.4c-0.1,0.2-0.1,0.3-0.1,0.5v0.2v1.2v8.4c0,0.2,0,0.3,0,0.4
		c0.1,0.8,0.5,1.4,1.1,1.8c0.4,0.3,0.9,0.4,1.3,0.4s0.8-0.1,1.2-0.3c0.8-0.4,1.3-1.3,1.3-2.2V47c0-0.6,0-1.3,0-1.9
		c0.3,0.4,0.5,0.9,0.8,1.3l0.2,0.4c0.3,0.5,0.7,1.1,1,1.6c0.2,0.4,0.6,0.7,1,1.1c0.4,0.3,0.9,0.5,1.4,0.5c0.8,0,1.5-0.4,1.9-1
		c0.4-0.7,0.5-1.6,0.1-2.4c-0.2-0.3-0.4-0.7-0.6-1c-0.9-1.5-1.9-2.9-2.8-4.4v-0.1v-0.2l0.3-1.7l0.1-0.5c0-0.3,0-0.5-0.1-0.7h4.5h0.2
		c0.5,0,0.9-0.2,1.2-0.6C42.2,37,42.3,36.5,42.1,36.1z M25.6,19.9c-0.2-0.5-0.3-1-0.3-1.5c0-0.9,0.5-1.5,1.4-1.7
		c0.2,0,0.4-0.1,0.6-0.1c2,0,3.9,0,5.9,0c1.4,0,2.7,0,4.1,0c0.5,0,1,0.1,1.4,0.5c0.6,0.5,0.7,1.2,0.4,2s-0.7,1.5-1.1,2.3
		c-1.6,3.3-3.2,6.6-4.9,9.9c-0.2,0.3-0.4,0.6-0.6,0.9c-0.1,0.2-0.3,0.3-0.5,0.3h-0.1c-0.2,0-0.4-0.2-0.4-0.4s0-0.4,0.1-0.5
		c0.4-1,0.9-1.9,1.3-2.9c1-2.2,2.1-4.4,3.1-6.6c0.3-0.7-0.1-1.5-0.9-1.5c0,0,0,0-0.1,0c-0.4,0-0.7,0.2-0.9,0.6
		c-0.4,0.9-0.9,1.9-1.3,2.8c-0.3,0.7-0.7,1.4-1,2.1c0,0,0,0.1-0.1,0.1c-0.3-0.9-0.7-1.7-1-2.5s-0.6-1.7-1-2.5
		c-0.2-0.4-0.6-0.7-0.9-0.7c-0.2,0-0.5,0.1-0.6,0.2c-0.3,0.3-0.4,0.7-0.3,1.1c0.3,0.9,0.7,1.7,1,2.6c0.5,1.4,1.1,2.7,1.6,4.1
		c0,0.1,0,0.2,0,0.2c-0.2,0.5-0.5,1-0.7,1.5c-0.1-0.3-0.2-0.5-0.3-0.7C28.2,26.4,26.9,23.2,25.6,19.9z M31.2,48.4
		c0,0.4-0.2,0.7-0.5,0.9c-0.2,0.1-0.3,0.1-0.5,0.1s-0.4-0.1-0.5-0.2c-0.3-0.2-0.4-0.4-0.4-0.7c0-0.1,0-0.2,0-0.3c0-3.2,0-6.4,0-9.6
		c0-0.1,0-0.1,0-0.2c0.5,0,1.1,0,1.6,0c-0.1,0.4-0.2,0.8-0.2,1.2c-0.1,0.4-0.2,0.7-0.2,1.1c-0.1,0.8,0.1,1.6,0.6,2.3
		c0.2,0.3,0.3,0.6,0.3,0.9C31.2,45.5,31.2,46.9,31.2,48.4z M37.2,46.3c0.2,0.3,0.3,0.6,0.5,0.9c0.2,0.3,0.2,0.6,0,0.9
		c-0.1,0.2-0.4,0.3-0.6,0.3c-0.2,0-0.3-0.1-0.4-0.1c-0.3-0.2-0.5-0.5-0.7-0.8c-0.4-0.6-0.8-1.3-1.2-1.9c-0.7-1.2-1.4-2.3-2.2-3.5
		c-0.2-0.4-0.3-0.8-0.2-1.2c0.1-0.8,0.3-1.5,0.4-2.3c0-0.1,0-0.1,0.1-0.1l0,0c0.5,0,1.1,0,1.6,0c0,0,0,0,0.1,0
		c-0.1,0.7-0.2,1.4-0.3,2.1c0,0.2-0.1,0.3-0.1,0.5c0,0.3,0,0.5,0.2,0.7C35.3,43.4,36.3,44.8,37.2,46.3z M40.5,36.5c-4,0-8,0-12,0
		c-0.8,0-1.6,0-2.3,0c-0.8,0-1.6,0-2.3,0c-0.2,0-0.2,0-0.1-0.2c0.9-2.8,1.8-5.7,2.8-8.5c0,0,0-0.1,0.1-0.2c0.2,0.4,0.3,0.8,0.5,1.1
		c0.5,1.2,1.1,2.5,1.6,3.7c0.2,0.5,0.5,1,1,1.4c0.4,0.4,0.9,0.6,1.5,0.7c0.1,0,0.2,0,0.4,0c0.4,0,0.8,0,1.2-0.1
		c0.8-0.2,1.3-0.7,1.7-1.4s0.8-1.5,1.2-2.3c0.7-1.3,1.3-2.7,1.9-4c0-0.1,0.1-0.1,0.1-0.2c1,3.3,2.1,6.7,3.1,10
		C40.6,36.5,40.6,36.5,40.5,36.5z"/>
</g>
</svg>
