<?xml version="1.0" encoding="utf-8"?>
<!-- Generator: Adobe Illustrator 25.4.1, SVG Export Plug-In . SVG Version: 6.00 Build 0)  -->
<svg version="1.1" id="Layer_1" xmlns="http://www.w3.org/2000/svg" xmlns:xlink="http://www.w3.org/1999/xlink" x="0px" y="0px"
	 width="35.9px" height="41.6px" viewBox="0 0 35.9 41.6" style="enable-background:new 0 0 35.9 41.6;" xml:space="preserve">
<style type="text/css">
	.st0{fill:#00465F;}
</style>
<g>
	<path class="st0" d="M31.1,41.6H4.8c-1.5,0-2.9-0.7-3.8-1.8c-0.9-1.2-1.3-2.7-0.9-4.1l0.9-4.1c0.6-2.4,2.5-4.1,4.9-4.4V17
		c0-2.4,0.7-4.7,2-6.7C8.2,9.9,8.7,9.9,9,10.1c0.3,0.2,0.4,0.6,0.2,0.9C8,12.8,7.3,14.8,7.3,17v10.8c0,0.4-0.3,0.7-0.7,0.7
		c-2.1,0-3.8,1.4-4.3,3.4l-0.9,4.1c-0.2,1,0,2.1,0.7,3c0.7,0.8,1.7,1.3,2.7,1.3h26.2c1.1,0,2.1-0.5,2.7-1.3c0.7-0.8,0.9-1.9,0.7-3
		l-0.9-4.1c-0.5-2-2.2-3.4-4.3-3.4c-0.4,0-0.7-0.3-0.7-0.7V17c0-2.1-0.6-4-1.7-5.8c-0.2-0.3-0.1-0.7,0.2-0.9
		c0.3-0.2,0.7-0.1,0.9,0.2c1.2,1.9,1.9,4.2,1.9,6.5v10.1c2.4,0.3,4.4,2,4.9,4.4l0.9,4.1c0.3,1.4,0,2.9-0.9,4.1
		C34,40.9,32.6,41.6,31.1,41.6"/>
	<path class="st0" d="M26.5,16.4c0,0-0.1,0-0.1,0c-0.4-0.1-0.6-0.4-0.6-0.8l0,0c-2.1-0.3-3.8-1.7-4.4-3.7c-1,0.8-2,1.6-3.1,2.2
		c-0.3,0.2-0.7,0.1-0.9-0.3c-0.2-0.3-0.1-0.7,0.3-0.9c1.3-0.7,2.5-1.7,3.6-2.7c0.2-0.2,0.5-0.3,0.7-0.2c0.2,0.1,0.5,0.2,0.5,0.5
		l0.1,0.5c0.3,1.9,2.1,3.4,4,3.3c0.2,0,0.4,0.1,0.5,0.2c0.1,0.1,0.2,0.3,0.2,0.5l-0.1,0.8C27.1,16.2,26.8,16.4,26.5,16.4"/>
	<path class="st0" d="M18,29.5c-5.1,0-9.2-4.1-9.2-9.2v-4.5c0-0.4,0.3-0.7,0.7-0.7c2.9,0,5.7-0.7,8.2-2.1c0.3-0.2,0.7-0.1,0.9,0.3
		c0.2,0.3,0.1,0.7-0.3,0.9c-2.5,1.4-5.3,2.2-8.2,2.3v3.8c0,4.3,3.5,7.8,7.8,7.8c4.3,0,7.8-3.5,7.8-7.8v-4.5c0-0.4,0.3-0.7,0.7-0.7
		c0.4,0,0.7,0.3,0.7,0.7v4.5C27.2,25.3,23,29.5,18,29.5"/>
	<path class="st0" d="M18,35.2c-7.4,0-9.1-6.1-9.2-6.2c-0.1-0.4,0.1-0.7,0.5-0.8c0.4-0.1,0.7,0.1,0.8,0.5c0.1,0.2,1.5,5.2,7.9,5.2
		c6.4,0,7.8-5.2,7.9-5.2c0.1-0.4,0.5-0.6,0.8-0.5c0.4,0.1,0.6,0.5,0.5,0.8C27.1,29,25.3,35.2,18,35.2"/>
	<path class="st0" d="M8.9,29.2c-0.7,0-1.3-0.2-1.9-0.5l-0.6-0.4c-0.3-0.2-0.4-0.6-0.2-0.9C6.3,27.1,6.7,27,7,27.2l0.6,0.4
		c1.1,0.7,2.5,0.4,3.3-0.7l0.6-0.8c0.2-0.3,0.6-0.4,0.9-0.2c0.3,0.2,0.4,0.6,0.2,0.9L12,27.6C11.3,28.7,10.1,29.2,8.9,29.2"/>
	<path class="st0" d="M27.1,29.2c-1.2,0-2.4-0.6-3.1-1.6l-0.6-0.8c-0.2-0.3-0.1-0.7,0.2-0.9c0.3-0.2,0.7-0.1,0.9,0.2l0.6,0.8
		c0.7,1,2.2,1.3,3.3,0.7l0.6-0.4c0.3-0.2,0.7-0.1,0.9,0.2c0.2,0.3,0.1,0.7-0.2,0.9L29,28.7C28.4,29,27.7,29.2,27.1,29.2"/>
	<path class="st0" d="M25.8,10.4c-0.1,0-0.2,0-0.3-0.1c0,0-3.7-1.5-7.3-1.6c-3.5,0.1-7.2,1.6-7.2,1.6c-0.3,0.1-0.7,0-0.8-0.3
		L7.4,5.3C7.3,5,7.3,4.7,7.5,4.5C7.6,4.3,11.1,0.2,18.3,0h0c7.1,0.2,10.6,4.3,10.8,4.5c0.2,0.2,0.2,0.5,0.1,0.8L26.4,10
		C26.3,10.3,26,10.4,25.8,10.4 M18.3,7.4c3.1,0.1,6,1.1,7.2,1.5L27.7,5c-1-0.9-4.1-3.6-9.4-3.7C12.9,1.5,9.8,4.1,8.8,5l2.2,3.8
		C12.3,8.4,15.2,7.5,18.3,7.4"/>
	<path class="st0" d="M18.3,6.6c-0.4,0-0.7-0.3-0.7-0.7v-3c0-0.4,0.3-0.7,0.7-0.7c0.4,0,0.7,0.3,0.7,0.7v3C19,6.3,18.7,6.6,18.3,6.6
		"/>
	<path class="st0" d="M19.8,5.1h-3c-0.4,0-0.7-0.3-0.7-0.7c0-0.4,0.3-0.7,0.7-0.7h3c0.4,0,0.7,0.3,0.7,0.7
		C20.5,4.8,20.2,5.1,19.8,5.1"/>
</g>
</svg>
