<?xml version="1.0" encoding="utf-8"?>
<!-- Generator: Adobe Illustrator 25.4.1, SVG Export Plug-In . SVG Version: 6.00 Build 0)  -->
<svg version="1.1" id="Layer_1" xmlns="http://www.w3.org/2000/svg" xmlns:xlink="http://www.w3.org/1999/xlink" x="0px" y="0px"
	 width="21.8px" height="21.4px" viewBox="0 0 21.8 21.4" style="enable-background:new 0 0 21.8 21.4;" xml:space="preserve">
<style type="text/css">
	.st0{fill:none;stroke:#049FDA;stroke-width:0.5;stroke-linecap:round;stroke-miterlimit:10;}
	.st1{fill:none;stroke:#049FDA;stroke-width:0.5;stroke-miterlimit:10;}
</style>
<g>
	<path class="st0" d="M10.3,3C10.1,3,10,3,9.8,3c-5,0-9,4-9,9c0,5,4,9,9,9c5,0,9-4,9-9c0-0.3,0-0.7-0.1-1"/>
	<path class="st0" d="M14.7,11.8c0,0.1,0,0.1,0,0.2c0,5-2.2,9-5,9c-2.7,0-5-4-5-9c0-5,2.2-9,5-9c0.2,0,0.3,0,0.5,0"/>
	<line class="st0" x1="9.8" y1="3" x2="9.8" y2="21"/>
	<line class="st0" x1="1.2" y1="9.3" x2="11.7" y2="9.3"/>
	<line class="st0" x1="1.2" y1="14.7" x2="18.3" y2="14.7"/>
	<path class="st1" d="M20.6,4.8c0-2.5-2-4.5-4.5-4.5s-4.5,2-4.5,4.5c0,3.2,4.5,6.3,4.5,6.3S20.6,7.9,20.6,4.8z"/>
	<path class="st1" d="M18.3,4.8c0-1.2-1-2.2-2.2-2.2c-1.2,0-2.3,1-2.3,2.2c0,1.2,1,2.2,2.3,2.2C17.3,7,18.3,6,18.3,4.8z"/>
</g>
</svg>
