<?xml version="1.0" encoding="utf-8"?>
<!-- Generator: Adobe Illustrator 25.4.1, SVG Export Plug-In . SVG Version: 6.00 Build 0)  -->
<svg version="1.1" id="Layer_1" xmlns="http://www.w3.org/2000/svg" xmlns:xlink="http://www.w3.org/1999/xlink" x="0px" y="0px"
	 width="21.8px" height="21.4px" viewBox="0 0 21.8 21.4" style="enable-background:new 0 0 21.8 21.4;" xml:space="preserve">
<style type="text/css">
	.st0{fill:none;stroke:#049FDA;stroke-width:0.5;stroke-linejoin:round;stroke-miterlimit:10;}
</style>
<g>
	<path class="st0" d="M13.6,18.4c1,0,1.8-0.9,1.8-1.8v-4.1c0-1.5-3-2.3-4.6-2.3S6.3,11,6.3,12.5v4.1c0,0.9,0.8,1.8,1.8,1.8"/>
	<path class="st0" d="M19,19.3c0.9,0,1.8-0.5,1.8-1.4v-4.1c0-1.5-2.7-2.3-4.1-2.3c-0.1,0-0.3,0-0.5,0"/>
	<path class="st0" d="M10.8,8.8c1.1,0,1.8-0.7,1.8-1.6V6.4c0-1-0.8-1.6-1.8-1.6C9.8,4.7,9,5.4,9,6.4v0.8C9,8.2,9.8,8.8,10.8,8.8z"/>
	<line class="st0" x1="19" y1="21.2" x2="19" y2="14.8"/>
	<line class="st0" x1="13.6" y1="21.2" x2="13.6" y2="13.4"/>
	<line class="st0" x1="8.1" y1="13.4" x2="8.1" y2="21.2"/>
	<path class="st0" d="M17.2,10.2c1.1,0,1.8-0.7,1.8-1.6V7.7c0-1-0.8-1.6-1.8-1.6c-1.1,0-1.8,0.7-1.8,1.6v0.8
		C15.4,9.5,16.1,10.2,17.2,10.2z"/>
	<path class="st0" d="M2.6,19.3c-0.9,0-1.8-0.5-1.8-1.4v-4.1c0-1.5,2.7-2.3,4.1-2.3c0.1,0,0.3,0,0.5,0"/>
	<line class="st0" x1="2.6" y1="21.2" x2="2.6" y2="14.8"/>
	<path class="st0" d="M4.4,10.2c-1.1,0-1.8-0.7-1.8-1.6V7.7c0-1,0.8-1.6,1.8-1.6c1.1,0,1.8,0.7,1.8,1.6v0.8
		C6.3,9.5,5.5,10.2,4.4,10.2z"/>
	<path class="st0" d="M6.7,4.7C5.6,4.7,4.9,4,4.9,3.1V2.3c0-1,0.8-1.6,1.8-1.6c1.1,0,1.8,0.7,1.8,1.6v0.8C8.5,4,7.8,4.7,6.7,4.7z"/>
	<path class="st0" d="M14.9,4.7c-1.1,0-1.8-0.7-1.8-1.6V2.3c0-1,0.8-1.6,1.8-1.6c1.1,0,1.8,0.7,1.8,1.6v0.8C16.8,4,16,4.7,14.9,4.7z
		"/>
</g>
</svg>
