<?xml version="1.0" encoding="utf-8"?>
<!-- Generator: Adobe Illustrator 25.4.1, SVG Export Plug-In . SVG Version: 6.00 Build 0)  -->
<svg version="1.1" id="Layer_1" xmlns="http://www.w3.org/2000/svg" xmlns:xlink="http://www.w3.org/1999/xlink" x="0px" y="0px"
	 width="21.8px" height="21.4px" viewBox="0 0 21.8 21.4" style="enable-background:new 0 0 21.8 21.4;" xml:space="preserve">
<style type="text/css">
	.st0{fill:none;stroke:#049FDA;stroke-width:0.5;stroke-miterlimit:10;}
</style>
<rect x="1.4" y="4.6" class="st0" width="12.3" height="16.5"/>
<polyline class="st0" points="10.5,4.6 10.5,0.4 20.5,0.4 20.5,21.1 13.7,21.1 "/>
<rect x="15.5" y="16.8" class="st0" width="3.5" height="4.3"/>
<line class="st0" x1="0" y1="21.1" x2="21.8" y2="21.1"/>
<rect x="4" y="7.3" class="st0" width="1.4" height="1.1"/>
<rect x="7.1" y="7.3" class="st0" width="1.4" height="1.1"/>
<rect x="10.1" y="7.3" class="st0" width="1.4" height="1.1"/>
<rect x="17" y="13" class="st0" width="1.4" height="1.1"/>
<rect x="17" y="10.4" class="st0" width="1.4" height="1.1"/>
<rect x="17" y="7.8" class="st0" width="1.4" height="1.1"/>
<rect x="17" y="5.2" class="st0" width="1.4" height="1.1"/>
<rect x="17" y="2.6" class="st0" width="1.4" height="1.1"/>
<rect x="13" y="2.6" class="st0" width="1.4" height="1.1"/>
<rect x="4" y="9.8" class="st0" width="1.4" height="1.1"/>
<rect x="7.1" y="9.8" class="st0" width="1.4" height="1.1"/>
<rect x="10.1" y="9.8" class="st0" width="1.4" height="1.1"/>
<rect x="4" y="12.4" class="st0" width="1.4" height="1.1"/>
<rect x="7.1" y="12.4" class="st0" width="1.4" height="1.1"/>
<rect x="10.1" y="12.4" class="st0" width="1.4" height="1.1"/>
<rect x="4" y="14.9" class="st0" width="1.4" height="1.1"/>
<rect x="7.1" y="14.9" class="st0" width="1.4" height="1.1"/>
<rect x="10.1" y="14.9" class="st0" width="1.4" height="1.1"/>
<rect x="4" y="17.5" class="st0" width="1.4" height="1.1"/>
<rect x="7.1" y="17.5" class="st0" width="1.4" height="1.1"/>
<rect x="10.1" y="17.5" class="st0" width="1.4" height="1.1"/>
</svg>
