<?xml version="1.0" encoding="utf-8"?>
<!-- Generator: Adobe Illustrator 25.4.1, SVG Export Plug-In . SVG Version: 6.00 Build 0)  -->
<svg version="1.1" id="Layer_1" xmlns="http://www.w3.org/2000/svg" xmlns:xlink="http://www.w3.org/1999/xlink" x="0px" y="0px"
	 width="101.9px" height="73.7px" viewBox="0 0 101.9 73.7" style="enable-background:new 0 0 101.9 73.7;" xml:space="preserve">
<style type="text/css">
	.st0{opacity:0.25;}
	.st1{clip-path:url(#SVGID_00000130621854888705429620000007428500353561104820_);fill:#049FDA;}
</style>
<g class="st0">
	<g>
		<defs>
			<rect id="SVGID_1_" y="0" width="101.9" height="73.7"/>
		</defs>
		<clipPath id="SVGID_00000076577954080035813670000015262754386972531355_">
			<use xlink:href="#SVGID_1_"  style="overflow:visible;"/>
		</clipPath>
		<path style="clip-path:url(#SVGID_00000076577954080035813670000015262754386972531355_);fill:#049FDA;" d="M47,0
			c1.7,0,2.8,1.4,2.3,3.1l-8.5,31.2v36.3c0,1.7-1.4,3.1-3.1,3.1H3.1c-1.7,0-3.1-1.4-3.1-3.1V37.7c0-2,0.9-4,2-5.7L23.8,2.6
			C24.9,0.9,26.9,0,28.9,0H47z M99.5,0c1.7,0,2.8,1.4,2.3,3.1l-8.5,31.2v36.3c0,1.7-1.4,3.1-3.1,3.1H55.6c-1.7,0-3.1-1.4-3.1-3.1
			V37.7c0-2,0.9-4,2-5.7L76.2,2.6C77.4,0.9,79.4,0,81.3,0H99.5z"/>
	</g>
</g>
</svg>
