<?xml version="1.0" encoding="utf-8"?>
<!-- Generator: Adobe Illustrator 25.4.1, SVG Export Plug-In . SVG Version: 6.00 Build 0)  -->
<svg version="1.1" id="Layer_1" xmlns="http://www.w3.org/2000/svg" xmlns:xlink="http://www.w3.org/1999/xlink" x="0px" y="0px"
	 width="63.9px" height="54.2px" viewBox="0 0 63.9 54.2" style="enable-background:new 0 0 63.9 54.2;" xml:space="preserve">
<style type="text/css">
	.st0{fill:#C3E8F5;}
</style>
<g>
	<path class="st0" d="M33.4,46.7c-0.3,0-0.6-0.2-0.7-0.5c-2.5-7.3-7.3-11.4-11.5-15c-1.6-1.3-3.1-2.6-4.4-4c-0.3-0.3-0.3-0.7,0-1
		c0.3-0.3,0.7-0.3,1,0c1.2,1.3,2.7,2.5,4.3,3.9c4,3.4,8.5,7.2,11.2,13.8c2.7-6.6,7.2-10.4,11.2-13.8c4.3-3.6,7.7-6.5,7.7-11.6
		c0-5.5-3.9-9.7-9.1-9.7c-6,0-9.2,5.3-9.2,5.3c-0.3,0.4-1,0.4-1.2,0c0-0.1-3.2-5.3-9.2-5.3c-4.9,0-8.6,3.6-9.1,8.8
		c0,0.4-0.4,0.7-0.8,0.6c-0.4,0-0.7-0.4-0.6-0.8C13.6,11.8,18,7.5,23.6,7.5c5.3,0,8.5,3.4,9.8,5.1c1.3-1.7,4.5-5.1,9.8-5.1
		c6,0,10.5,4.8,10.5,11.1c0,5.7-3.8,8.9-8.2,12.6c-4.2,3.6-9,7.6-11.5,15C34,46.5,33.7,46.7,33.4,46.7"/>
	<path class="st0" d="M29.4,31.5c-0.3,0-0.6-0.2-0.7-0.5l-4.3-14.6L22,23c-0.1,0.3-0.4,0.5-0.7,0.5H8.4c-0.4,0-0.7-0.3-0.7-0.7
		c0-0.4,0.3-0.7,0.7-0.7h12.4l2.9-8.2c0.1-0.3,0.4-0.5,0.7-0.5c0.3,0,0.6,0.2,0.7,0.5l4.3,14.4l1.7-5.7c0.1-0.3,0.4-0.5,0.7-0.5
		h12.7c0.4,0,0.7,0.3,0.7,0.7c0,0.4-0.3,0.7-0.7,0.7H32.2L30,31C30,31.3,29.7,31.5,29.4,31.5L29.4,31.5z"/>
</g>
</svg>
