<?xml version="1.0" encoding="utf-8"?>
<!-- Generator: Adobe Illustrator 25.4.1, SVG Export Plug-In . SVG Version: 6.00 Build 0)  -->
<svg version="1.1" id="Layer_1" xmlns="http://www.w3.org/2000/svg" xmlns:xlink="http://www.w3.org/1999/xlink" x="0px" y="0px"
	 width="64.4px" height="54.2px" viewBox="0 0 64.4 54.2" style="enable-background:new 0 0 64.4 54.2;" xml:space="preserve">
<style type="text/css">
	.st0{fill:#666666;}
</style>
<g>
	<path class="st0" d="M1,48c-0.4,0-0.8,0.3-0.8,0.8c0,0.4,0.3,0.8,0.8,0.8c0.4,0,0.8-0.3,0.8-0.8C1.7,48.3,1.4,48,1,48"/>
	<path class="st0" d="M4.4,48H3.3c-0.4,0-0.8,0.3-0.8,0.8c0,0.4,0.3,0.8,0.8,0.8h1.1c0.4,0,0.8-0.3,0.8-0.8C5.2,48.3,4.8,48,4.4,48"
		/>
	<path class="st0" d="M61.1,48H60c-0.4,0-0.8,0.3-0.8,0.8c0,0.4,0.3,0.8,0.8,0.8h1.1c0.4,0,0.8-0.3,0.8-0.8
		C61.8,48.3,61.5,48,61.1,48"/>
	<path class="st0" d="M63.4,48c-0.4,0-0.8,0.3-0.8,0.8c0,0.4,0.3,0.8,0.8,0.8c0.4,0,0.8-0.3,0.8-0.8C64.1,48.3,63.8,48,63.4,48"/>
	<path class="st0" d="M28.4,18.3c2.6,0,5,0.8,7,2.1c0.3-0.2,0.7-0.5,1-0.7c0.1-0.1,0.2-0.1,0.3-0.2c-2.4-1.7-5.2-2.6-8.3-2.6
		c-5.8,0-10.8,3.4-13.1,8.3l1.9-0.3C19.4,20.9,23.6,18.3,28.4,18.3"/>
	<path class="st0" d="M41,34.8L41,34.8c-1.6,5.4-6.6,9.4-12.6,9.4c-1.8,0-3.4-0.4-5-1l-1.6,0.9c2,1,4.2,1.6,6.6,1.6
		c6.6,0,12.1-4.4,13.9-10.4C41.8,35.2,41.4,35,41,34.8L41,34.8"/>
	<path class="st0" d="M19.2,29.1c-0.4,0-0.8,0.3-0.8,0.8c0,4.1-3,6-4.8,6.7c-1.6,0.6-3.2,1.3-4.9,1.9c-0.4,0.2-0.6,0.6-0.4,1
		C8.4,39.8,8.7,40,9,40c0.1,0,0.2,0,0.3-0.1c5.5-2.1,10.8-4.2,15.3-6c-0.4,0.7-0.7,1.4-0.8,2.4c-0.1,0.4,0.2,0.8,0.7,0.9h0.1
		c0.4,0,0.7-0.3,0.8-0.7c0.2-1.6,1-2.5,1.8-3.4c0.1-0.1,0.2-0.2,0.3-0.4l0,0c0.6-0.2,1.2-0.5,1.7-0.7c3.2-1.3,5.5-2.2,6.5-2.6
		c1.3-0.5,2.6-0.9,4-0.8c0.5,0,1,0.1,1.5,0.3c1.2,0.3,2.6,0.6,4-0.3c1.7-1.2,1.8-3.2,1.8-4.9c0-0.2,0-0.3,0-0.5l0,0
		c0.5-1.3,1.5-1.6,2.5-1.9h0.2c0.4-0.1,0.7-0.5,0.5-0.9c-0.1-0.4-0.5-0.7-0.9-0.5h-0.2c-0.5,0.1-1,0.3-1.6,0.5
		c0.2-0.5,0.4-0.9,0.7-1.4c0.2-0.4,0.1-0.8-0.3-1s-0.8-0.1-1,0.3c-1,1.7-1.4,3.2-1.5,4.9c0,0.2,0,0.3,0,0.5c0,1.4-0.1,2.9-1.1,3.6
		c-0.8,0.5-1.5,0.4-2.7,0.1c-0.6-0.1-1.1-0.3-1.8-0.3c-0.2,0-0.4,0-0.7,0c0.7-0.7,1.3-1.5,1.7-2.6c0.2-0.4,0-0.8-0.4-1s-0.8,0-1,0.4
		c-0.9,2.2-2.8,3.4-4.3,4.1c-1.1,0.4-3.4,1.3-6.5,2.6c-2.8,1.1-6.2,2.5-10,4c0.9-1.2,1.5-2.8,1.5-4.8C19.9,29.5,19.6,29.1,19.2,29.1
		"/>
	<path class="st0" d="M57.6,48h-46l25.3-13.9c0,0,0,0,0.1,0c2.5-1.7,4.6-0.6,4.7-0.6l0,0c1.7,0.8,4.3,1.1,6,0c2.8-1.7,3-7,3-7.8
		c0.7-2.8,3.7-9,4.1-9.8c1-1.3,1.4-3.5,1.6-5v-0.1c0.1-0.6,0.4-5.9-1.2-7.8c-0.5-0.6-1-0.7-1.4-0.7c-2.3,0-3.1,1.9-3.8,3.4
		c-0.1,0.3-0.2,0.6-0.4,0.9c-0.8,1.7-1.9,3.8-3.2,5.6c-1.2,1.6-7.5,7.3-9.2,8.6c-1.2,0.9-2.4,1.8-3.7,2.5L8.4,27.9
		C8,28,7.8,28.4,7.8,28.8c0.1,0.4,0.5,0.7,0.9,0.6L34,24.8c0.1,0,0.2,0,0.3-0.1c1.3-0.8,2.7-1.7,3.9-2.7c1.8-1.4,8.3-7.1,9.5-8.9
		C49,11.2,50.2,9,51,7.3c0.1-0.3,0.3-0.6,0.4-0.9c0.7-1.6,1.1-2.5,2.4-2.5c0,0,0.1,0,0.2,0.1c0.9,1.1,1,5.4,0.8,6.6v0.1
		C54.6,12,54.3,14,53.4,15l-0.1,0.1c-0.1,0.3-3.6,7.1-4.3,10.3c0,0.1,0,0.1,0,0.2c0,1.4-0.4,5.5-2.3,6.6c-1.2,0.8-3.2,0.5-4.6-0.1
		c-0.3-0.2-3-1.4-6.2,0.7L8.4,48H6.8c-0.5,0-0.9,0.3-0.9,0.8c0,0.4,0.4,0.8,0.9,0.8h50.8c0.5,0,0.9-0.3,0.9-0.8
		C58.4,48.3,58,48,57.6,48"/>
</g>
</svg>
