<?xml version="1.0" encoding="utf-8"?>
<!-- Generator: Adobe Illustrator 23.0.5, SVG Export Plug-In . SVG Version: 6.00 Build 0)  -->
<svg version="1.1" id="Layer_1" xmlns="http://www.w3.org/2000/svg" xmlns:xlink="http://www.w3.org/1999/xlink" x="0px" y="0px"
	 viewBox="0 0 64.4 54.2" style="enable-background:new 0 0 64.4 54.2;" xml:space="preserve">
<style type="text/css">
	.st0{fill:#666666;}
</style>
<g>
	<path class="st0" d="M55.5,18.3c0.2-4.6-2.8-7.9-3.2-8.1c-3.9-3.4-8.5-1.4-10.9,0.4c-0.1-0.1-0.2-0.3-0.4-0.4
		c-0.6-0.5-1.3-0.6-2.1-0.7c-1.4-2.5-4-4.1-6.9-4.1c-2.9,0-5.5,1.6-6.9,4.1c-0.5,0-1.1,0.1-1.6,0.3c-0.3,0.2-0.6,0.4-0.9,0.6
		c-1.9-1.6-3.9-2.3-6.2-2c-1.6,0.1-4.4,0.8-6.1,3.1c-1.2,1.8-1.8,4.2-1.5,6.7c-1.7,0.5-3,2.5-3,5c0,2.8,1.7,5.1,3.8,5.1
		s3.8-2.3,3.8-5.1c0-2.5-1.3-4.5-3.1-5c-0.3-2.1,0.2-4.3,1.3-5.8c1.3-1.9,3.7-2.4,5.1-2.5c1.9-0.2,3.6,0.4,5.2,1.8
		c-0.3,0.6-0.5,1.2-0.6,2c-0.6,3.5-0.3,6.9,0.9,10c0.4,1,0.9,2,1.4,2.9c0.8,1.6,1.6,3.2,1.9,4.9c0.2,1,0.2,2.1,0.2,3.2v0.8
		c0,1.4,0.1,3,0.7,4.4c1,2.5,3.8,3.6,6.1,3.7c1,4.3,4.9,7.4,9.3,7.4c5.3,0,9.6-4.3,9.6-9.6S47.1,32,41.8,32c-1.1,0-2.2,0.2-3.2,0.6
		c0.1-1.1,0.2-2.1,0.5-3c0.4-1.1,1-2.2,1.6-3.3c0.4-0.7,0.8-1.4,1.2-2.2c1.7-3.6,1.9-7.9,0.5-11.8c0-0.1-0.1-0.2-0.1-0.4
		c1.3-1,5.4-3.8,9.2-0.5c0.4,0.3,2.8,3.2,2.6,6.9c-1.8,0.4-3.1,2.5-3.1,5c0,2.8,1.7,5.1,3.8,5.1s3.8-2.3,3.8-5.1
		C58.5,20.9,57.2,18.8,55.5,18.3z M12,23.3c0,1.9-1.1,3.6-2.3,3.6s-2.3-1.7-2.3-3.6s1.1-3.6,2.3-3.6S12,21.4,12,23.3z M32.1,7
		c2.1,0,4.1,1.1,5.2,2.8c-0.1,0-0.1,0-0.2,0c-3.4,0.5-6.8,0.5-10.2,0l-0.1,0c0,0,0,0,0,0C28.1,8,30,7,32.1,7z M41.8,33.5
		c4.5,0,8.1,3.6,8.1,8.1s-3.6,8.1-8.1,8.1c-3.7,0-7-2.6-7.9-6.2c0.1-0.1,0.3-0.1,0.4-0.2c0.6-0.3,1.1-0.7,1.6-1.1c0,0.1,0,0.1,0,0.2
		v0.1c0,0.4,0.4,0.8,0.8,0.8h0.7c0.4,0,0.8-0.4,0.8-0.8v-0.1c0-0.4-0.4-0.8-0.8-0.8h-0.7c-0.1,0-0.2,0-0.3,0.1
		c0.7-0.8,1.2-1.8,1.5-3h0.8c0.5,0,0.8-0.4,0.8-0.8c0-0.5-0.4-0.8-0.8-0.8h-0.4c0-0.3,0.1-0.6,0.1-0.9c0-0.6,0.1-1.3,0.1-1.9
		C39.5,33.8,40.6,33.5,41.8,33.5z M40.6,23.4c-0.3,0.7-0.7,1.4-1.2,2.1c-0.7,1.1-1.4,2.3-1.8,3.6c-0.5,1.6-0.6,3.4-0.6,5
		c0,0.6,0,1.3-0.1,1.9c-0.2,3.1-1.3,5.1-3.2,5.9c-0.3,0.2-0.7,0.3-1,0.3c-1.8,0-4.1-0.9-4.9-2.8c-0.5-1.2-0.6-2.5-0.6-3.8v-0.8
		c0-1.1,0-2.3-0.2-3.5c-0.3-1.9-1.2-3.6-2.1-5.3c-0.5-0.9-0.9-1.9-1.3-2.8c-1.1-2.8-1.4-6-0.8-9.2c0.3-1.5,0.8-2.4,1.5-2.8
		c0.3-0.1,0.7-0.2,1.1-0.2c0.4,0,0.9,0.1,1.4,0.1l0.1,0c3.5,0.5,7.1,0.5,10.6,0c1-0.1,2.1-0.3,2.8,0.2c0.4,0.3,0.6,0.9,0.8,1.4
		C42.3,16.3,42.1,20.2,40.6,23.4z M54.7,26.9c-1.2,0-2.3-1.7-2.3-3.6s1.1-3.6,2.3-3.6s2.3,1.7,2.3,3.6S55.9,26.9,54.7,26.9z"/>
	<path class="st0" d="M28,20.6c-1.2-3,0.1-6.8,0.1-6.8c0.1-0.4-0.1-0.8-0.5-1c-0.4-0.1-0.8,0.1-1,0.5c-0.1,0.2-1.5,4.3-0.1,7.9
		c0.3,0.7,0.5,1.3,0.7,1.8c0.9,2.3,1.6,3.8,1.7,5.3c0,0.4,0.4,0.7,0.7,0.7c0,0,0,0,0,0c0.4,0,0.7-0.4,0.7-0.8
		c-0.1-1.7-0.8-3.4-1.8-5.8C28.5,21.8,28.2,21.2,28,20.6z"/>
	<path class="st0" d="M36.5,12.8c-0.4,0.1-0.6,0.6-0.5,1c0,0,1.3,3.8,0.1,6.8c-0.3,0.7-0.5,1.3-0.7,1.8c-1,2.4-1.7,4-1.8,5.8
		c0,0.4,0.3,0.8,0.7,0.8c0,0,0,0,0,0c0.4,0,0.7-0.3,0.7-0.7c0.1-1.5,0.7-3,1.7-5.3c0.2-0.6,0.5-1.2,0.7-1.8c1.4-3.6,0-7.7-0.1-7.9
		C37.3,12.8,36.9,12.6,36.5,12.8z"/>
	<path class="st0" d="M42.3,37.8h0.9c0.5,0,0.8-0.4,0.8-0.8c0-0.5-0.4-0.8-0.8-0.8h-0.9c-0.5,0-0.8,0.4-0.8,0.8
		C41.5,37.4,41.8,37.8,42.3,37.8z"/>
	<path class="st0" d="M45.5,40.1h0.7c0.4,0,0.8-0.4,0.8-0.8v-0.1c0-0.4-0.4-0.8-0.8-0.8h-0.7c-0.4,0-0.8,0.4-0.8,0.8v0.1
		C44.7,39.8,45,40.1,45.5,40.1z"/>
	<path class="st0" d="M41.1,41.6h0.7c0.4,0,0.8-0.4,0.8-0.8v-0.1c0-0.4-0.4-0.8-0.8-0.8h-0.7c-0.4,0-0.8,0.4-0.8,0.8v0.1
		C40.3,41.2,40.7,41.6,41.1,41.6z"/>
	<path class="st0" d="M39.3,44.9L39.3,44.9c0,0.5,0.4,0.9,0.8,0.9h0.7c0.4,0,0.8-0.4,0.8-0.8v-0.1c0-0.4-0.4-0.8-0.8-0.8h-0.7
		C39.7,44.1,39.3,44.5,39.3,44.9z"/>
	<path class="st0" d="M42.8,46.4L42.8,46.4c0,0.5,0.4,0.9,0.8,0.9h0.7c0.4,0,0.8-0.4,0.8-0.8v-0.1c0-0.4-0.4-0.8-0.8-0.8h-0.7
		C43.1,45.6,42.8,45.9,42.8,46.4z"/>
	<path class="st0" d="M46.1,42.1c-0.4,0-0.8,0.4-0.8,0.8V43c0,0.4,0.4,0.8,0.8,0.8h0.7c0.4,0,0.8-0.4,0.8-0.8v-0.1
		c0-0.4-0.4-0.8-0.8-0.8H46.1z"/>
</g>
</svg>
