<?xml version="1.0" encoding="utf-8"?>
<!-- Generator: Adobe Illustrator 23.0.5, SVG Export Plug-In . SVG Version: 6.00 Build 0)  -->
<svg version="1.1" id="Layer_1" xmlns="http://www.w3.org/2000/svg" xmlns:xlink="http://www.w3.org/1999/xlink" x="0px" y="0px"
	 width="64.4px" height="54.2px" viewBox="0 0 64.4 54.2" style="enable-background:new 0 0 64.4 54.2;" xml:space="preserve">
<style type="text/css">
	.st0{fill:#C3E8F5;}
</style>
<g>
	<path class="st0" d="M48.1,27.8c0.9-2.1,0.5-4.4-1-6.3c-1.6-2-3.9-2.8-6.1-3.4c-1.5-0.4-2.5-1-3.2-1.9c-0.7-1-1.2-2.1-1.5-3.5
		c-0.7-3.1-0.3-6.4,0.1-8.5l-1.5-0.3C34.4,6.2,34,9.6,34.8,13c0.3,1.6,1,3,1.8,4.1c0.9,1.2,2.2,2,4,2.5c2,0.6,3.9,1.2,5.3,2.9
		c1,1.2,1.4,2.6,1.1,3.9c-1.9-2.1-4.3-3.4-6.9-3.4c-1,0-2,0.2-2.9,0.5c0,0,0,0,0,0c-2-1.5-3.1-3-3.6-4.9c-0.3-1-0.4-2.1-0.5-3.1
		c-0.1-0.9-0.3-1.8-0.5-2.7l-0.1-0.4c-0.3-1.4-0.6-2.8-1-4.1c-0.4-1.5-0.7-3-1.1-4.5L29,4.2c0.3,1.5,0.7,3.1,1.1,4.5
		c0.3,1.3,0.7,2.7,1,4l0.1,0.4c0.2,0.8,0.4,1.7,0.4,2.5c0.1,1.1,0.2,2.2,0.5,3.3c0.5,2.1,1.7,3.7,3.6,5.2c-0.7,0.4-1.3,0.9-1.9,1.5
		c-1.8-1.7-4-2.8-6.3-2.8c-5.8,0-10.6,6.2-10.6,13.8c0,2.5,0.5,4.8,1.4,6.8c-1.1-0.5-1.9-1.6-2.3-2.7c-1.2-3.3-0.6-7.8,1.6-12.3
		c1.2-2.5,3-4.5,4.9-6.7c0.5-0.6,1-1.2,1.5-1.8c3.9-4.5,3.5-10.6,2.5-16.5L25,3.9c0.9,5.6,1.3,11.3-2.1,15.3c-0.5,0.6-1,1.2-1.5,1.7
		c-1.9,2.1-3.8,4.3-5.2,7c-1.4,2.9-3.5,8.4-1.7,13.5c0.7,2,2.4,3.8,4.6,3.9c1.9,3.2,4.9,5.2,8.2,5.2c2.4,0,4.6-1,6.3-2.8
		c1.8,1.8,4,2.8,6.4,2.8c5.8,0,10.6-6.2,10.6-13.8C50.6,33.4,49.7,30.2,48.1,27.8z M27.4,49c-5,0-9.1-5.5-9.1-12.3
		c0-2.2,0.4-4.2,1.2-6c0.9,0.6,1.3,1.9,1.6,3.3c1.1,4.7,5,6.3,8.8,6.3c0.9,0,1.8-0.1,2.7-0.3l-0.3-1.5c-4,0.8-8.6-0.1-9.7-4.9
		c-0.3-1.4-0.8-3.4-2.4-4.4c0.6-1.1,1.4-2.1,2.2-2.9c0.4,0.4,0.5,1.1,0.7,2c0.1,0.5,0.2,1,0.3,1.5c0.8,2.3,2.6,3.5,5.1,3.5
		c0.9,0,1.9-0.2,3-0.5l-0.5-1.4c-1.9,0.6-5.2,1.1-6.3-2.1c-0.1-0.4-0.2-0.8-0.3-1.3c-0.2-0.9-0.3-1.9-1-2.6c1.2-0.7,2.4-1.1,3.8-1.1
		c5,0,9.1,5.5,9.1,12.3S32.4,49,27.4,49z M40.1,49c-1.9,0-3.8-0.8-5.3-2.4c0.5-0.6,0.9-1.2,1.3-1.9c0.7,0.4,2,0.8,3.5,0.8
		c1.6,0,3.5-0.5,5.4-2.2l-1-1.1c-3.2,2.8-6.1,1.7-7.3,1.2c0.3-0.6,0.5-1.2,0.6-1.9c0.1,0,0.2,0,0.2,0c1.2,0,3.2-0.6,6.4-3.3l-1-1.1
		c-2.9,2.4-4.5,2.9-5.3,2.9c0.2-1,0.3-2.1,0.3-3.2c0-3.9-1.2-7.4-3.2-9.9c1.5-1.5,3.4-2.4,5.3-2.4c5,0,9.1,5.5,9.1,12.3
		S45.1,49,40.1,49z"/>
</g>
</svg>
