<?xml version="1.0" encoding="utf-8"?>
<!-- Generator: Adobe Illustrator 24.0.1, SVG Export Plug-In . SVG Version: 6.00 Build 0)  -->
<svg version="1.1" id="Layer_1" xmlns="http://www.w3.org/2000/svg" xmlns:xlink="http://www.w3.org/1999/xlink" x="0px" y="0px"
	 viewBox="0 0 668.32 876.43" style="enable-background:new 0 0 668.32 876.43;" xml:space="preserve">
<style type="text/css">
	.st0{fill:#00609D;}
	.st1{fill:#38B2CB;}
	.st2{fill:#ED1670;}
</style>
<path class="st0" d="M89.82,482.62c-35.87,99.97-66.77,237.69-88.4,309.65c-3.93,13.1,0.67,30.37,9.19,37.07
	c8.49,6.7,21.78,7.54,34.99-18.33c31.25-61.13,84.15-148.96,131.87-227.36C336.72,322.17,501.06,154.76,569.46,85.32
	c10.63-10.78,8.41-26.79-1.85-37.89C518.76-5.47,318.73-30.34,273.8,60.69C228.01,153.49,159.04,289.74,89.82,482.62"/>
<path class="st1" d="M578.51,150.45c-59.34,58.46-152.48,159.02-300.43,381.25c-5.07,7.6,2.36,17.27,11.1,14.4
	c26.91-8.82,237.63-53.49,275.37-57.26c15.48-1.55,29.66-8.76,39.82-20.37c15.46-17.66,22.02-26.18,32.94-47.46
	c5.58-10.94,25.46-51.51,30.21-105.78c5.97-68.52-22.96-127.98-47.07-158.25C609.45,143.18,591.12,138,578.51,150.45"/>
<path class="st2" d="M281.04,607.51c-52.57,14.5-58.3,15.91-101.56,81.29c-31.82,51.23-59.56,97.79-83.55,139.34
	c-4.36,7.58-3.2,16.97,2.79,23.41c29.11,31.39,81.31,33.55,112.09,3.75l268.81-253.76c13.75-13.3,4.95-37.99-14.26-36.52
	C422.63,568.24,309.44,597.86,281.04,607.51"/>
<path class="st0" d="M68.92,157.15c7.9,37.48,19.76,84.51,26.89,111.05c2.53,9.43,15.75,10.23,19.55,1.2
	c17.13-40.47,33.69-71.68,49.48-105.27c7.62-16.19,7.95-36.64-3.63-50.39c-14.52-17.29-39.45-38.52-81.82-52.86
	c-16.28-5.52-28.56,6.29-26.28,23.14C56.55,109.61,61.58,122.36,68.92,157.15"/>
</svg>
