<?xml version="1.0" encoding="utf-8"?>
<!-- Generator: Adobe Illustrator 23.0.5, SVG Export Plug-In . SVG Version: 6.00 Build 0)  -->
<svg version="1.1" id="Layer_1" xmlns="http://www.w3.org/2000/svg" xmlns:xlink="http://www.w3.org/1999/xlink" x="0px" y="0px"
	 viewBox="0 0 4004.9 909.2" style="enable-background:new 0 0 4004.9 909.2;" xml:space="preserve">
<style type="text/css">
	.st0{fill:#00465F;}
	.st1{fill:#049FDA;}
	.st2{fill:#1C749C;}
</style>
<path class="st0" d="M1851.9,813C1401.3,735.1,555.9,525.5,0,0v909.2l2929.4-0.1C2401.7,904.1,1900.8,821.4,1851.9,813z"/>
<path class="st1" d="M2.1,9.7v899.5h2160l136.9-25.3c0,0-199.2-21.5-304.8-36.5C1604.2,791.7,622.8,598.1,2.1,9.7"/>
<path class="st0" d="M2360,833.9c-96.5,31.2-180,56.9-243.5,75.3h387h1501.4V68.4C3899.7,291.6,2914.4,654.6,2360,833.9z"/>
<path class="st2" d="M4004.9,909.2V77.7c-120,255.2-1385.5,693-1849.9,831.5L4004.9,909.2L4004.9,909.2z"/>
</svg>
