<?xml version="1.0" encoding="utf-8"?>
<!-- Generator: Adobe Illustrator 23.0.5, SVG Export Plug-In . SVG Version: 6.00 Build 0)  -->
<svg version="1.1" id="Layer_1" xmlns="http://www.w3.org/2000/svg" xmlns:xlink="http://www.w3.org/1999/xlink" x="0px" y="0px"
	 width="62.2px" height="48.6px" viewBox="0 0 62.2 48.6" style="enable-background:new 0 0 62.2 48.6;" xml:space="preserve">
<style type="text/css">
	.st0{fill:#422963;}
	.st1{opacity:0.3;fill:#CE116C;}
</style>
<g>
	<path class="st0" d="M46,25.1c-0.1,0-0.1,0-0.2,0c-0.6-0.1-1.2-0.3-1.7-0.8l-1.4-1.4c-0.2-0.2-0.2-0.6,0-0.9c0.2-0.2,0.6-0.2,0.9,0
		l1.4,1.4c0.3,0.3,0.6,0.4,0.9,0.4s0.5-0.1,0.7-0.2c0.2-0.2,0.2-0.4,0.2-0.7c0-0.3-0.2-0.6-0.4-0.9l-7.6-7.6c-0.2-0.2-0.2-0.6,0-0.9
		c0.2-0.2,0.6-0.2,0.9,0l7.6,7.6c0.5,0.5,0.7,1,0.8,1.7c0.1,0.7-0.1,1.2-0.6,1.7C47.1,24.8,46.5,25.1,46,25.1"/>
	<path class="st0" d="M42.5,26.1c-0.1,0-0.1,0-0.2,0c-0.6-0.1-1.2-0.3-1.7-0.8l-2.8-2.8c-0.2-0.2-0.2-0.6,0-0.9
		c0.2-0.2,0.6-0.2,0.9,0l2.8,2.8c0.3,0.3,0.6,0.4,0.9,0.4s0.5-0.1,0.7-0.2s0.2-0.4,0.2-0.7c0-0.3-0.2-0.6-0.4-0.9l-6.4-6.4
		c-0.2-0.2-0.2-0.6,0-0.9c0.2-0.2,0.6-0.2,0.9,0l6.4,6.4c0.5,0.5,0.7,1.1,0.8,1.7c0.1,0.7-0.2,1.3-0.6,1.7
		C43.6,25.9,43.1,26.1,42.5,26.1"/>
	<path class="st0" d="M37.9,25.6c-0.1,0-0.1,0-0.2,0c-0.6,0-1.1-0.3-1.5-0.7l-5.1-5.1c-3-3-3.9-5-4.7-6.8c-0.8-1.5-1.4-2.8-3-4.4
		c-0.2-0.2-0.2-0.6,0-0.9c0.2-0.2,0.6-0.2,0.9,0c1.8,1.8,2.5,3.2,3.2,4.8c0.7,1.7,1.5,3.5,4.4,6.3c0.1,0.1,5.1,5.1,5.1,5.1
		c0.2,0.2,0.5,0.4,0.8,0.4c0.1,0,0.4,0,0.6-0.2s0.2-0.4,0.2-0.6c0-0.3-0.2-0.5-0.4-0.8l-4-3.8c-0.2-0.2-0.2-0.6,0-0.9
		c0.2-0.2,0.6-0.2,0.9,0l3.9,3.9c0.4,0.4,0.7,1,0.7,1.5c0.1,0.6-0.1,1.2-0.5,1.6C38.9,25.4,38.4,25.6,37.9,25.6"/>
	<path class="st0" d="M46.4,21c-0.7,0-1.3-0.3-1.9-0.8c-0.2-0.2-0.2-0.6,0-0.9c0.2-0.2,0.6-0.2,0.9,0c0.5,0.5,1.2,0.6,1.6,0.2
		c0.4-0.4,0.3-1.1-0.2-1.6l-7.6-7.6C39,10.1,39,9.7,39.1,9.5c0.2-0.2,0.5-0.3,0.8-0.2c0.8,0.4,1.4,0.6,2.8,1.2c2,0.9,3.5,1,4.1,0.7
		c0.1,0,0.2-0.1,0.2-0.2c0.2-0.6-1.5-1.5-2.9-2.2c-0.2-0.1-0.5-0.2-0.7-0.4c-0.7-0.2-1.2-0.4-1.6-0.7C40.5,7,39.5,6.4,36,5.6
		c-0.6-0.1-1.2-0.2-1.8-0.3c-1.7-0.2-3.5-0.4-5.3-2.2c-0.2-0.2-0.2-0.6,0-0.9c0.2-0.2,0.6-0.2,0.9,0c1.5,1.5,3,1.7,4.6,1.9
		c0.6,0.1,1.3,0.1,1.9,0.3c3.7,0.9,4.8,1.5,6.1,2.3c0.4,0.2,0.9,0.5,1.5,0.8c0.2,0.1,0.5,0.2,0.7,0.4c2.1,1,4.2,2,3.6,3.7
		c-0.1,0.3-0.3,0.7-0.9,0.9c-1.1,0.5-2.8,0.2-4.8-0.6l5.2,5.2c1,1,1.1,2.5,0.2,3.3C47.5,20.8,47,21,46.4,21"/>
	<path class="st0" d="M50.3,25.7c-0.2,0-0.3-0.1-0.4-0.2L49,24.6c-0.2-0.2-0.2-0.6,0-0.9c0.2-0.2,0.6-0.2,0.9,0l0.9,0.9
		c0.2,0.2,0.2,0.6,0,0.9C50.6,25.6,50.4,25.7,50.3,25.7"/>
	<path class="st0" d="M48,27.9c-0.2,0-0.3-0.1-0.4-0.2l-1.1-1.1c-0.2-0.2-0.2-0.6,0-0.9c0.2-0.2,0.6-0.2,0.9,0l1.1,1.1
		c0.2,0.2,0.2,0.6,0,0.9C48.4,27.9,48.2,27.9,48,27.9"/>
	<path class="st0" d="M45.8,30.2c-0.2,0-0.3-0.1-0.4-0.2l-2.2-2.2c-0.2-0.2-0.2-0.6,0-0.9c0.2-0.2,0.6-0.2,0.9,0l2.2,2.2
		c0.2,0.2,0.2,0.6,0,0.9C46.1,30.1,45.9,30.2,45.8,30.2"/>
	<path class="st0" d="M56.1,41c-0.2,0-0.3-0.1-0.4-0.2c-1.7-1.7-2.9-2.2-4.4-2.9c-1.8-0.8-3.8-1.7-6.8-4.7l-5.8-5.8l0.9-0.9l5.8,5.8
		c2.8,2.8,4.6,3.7,6.4,4.5c1.5,0.7,2.9,1.3,4.8,3.2c0.2,0.2,0.2,0.6,0,0.9C56.4,41,56.3,41,56.1,41"/>
	<path class="st0" d="M61.6,35.5c-0.2,0-0.3-0.1-0.4-0.2c-1.9-1.9-2-3.6-2.2-5.3c-0.1-0.6-0.1-1.2-0.3-1.8c-0.8-3.5-1.4-4.5-2.1-5.8
		c-0.3-0.4-0.5-0.9-0.8-1.5c-0.1-0.2-0.2-0.5-0.4-0.7c-0.7-1.4-1.5-3.2-2.2-2.9c-0.1,0-0.2,0.1-0.2,0.2c-0.3,0.6-0.2,2.1,0.7,4
		c0.8,1.8,1,2.4,1.6,3.5c0.3,0.6,0.3,1.3,0,1.9c-0.4,0.8-0.9,2.4,0.1,3.7c0.2,0.3,0.1,0.7-0.1,0.9c-0.3,0.2-0.7,0.1-0.9-0.1
		c-1.4-1.9-0.7-4-0.2-5c0.1-0.3,0.1-0.6,0-0.8c-0.5-1.2-0.8-1.8-1.6-3.5c-0.9-2.1-1.2-4-0.7-5.1c0.2-0.6,0.6-0.8,0.9-0.9
		c1.7-0.6,2.7,1.5,3.7,3.6l0.4,0.7c0.3,0.6,0.5,1,0.8,1.5c0.8,1.3,1.4,2.5,2.3,6.1c0.2,0.7,0.2,1.3,0.3,1.9c0.2,1.6,0.3,3,1.9,4.6
		c0.2,0.2,0.2,0.6,0,0.9C61.9,35.5,61.8,35.5,61.6,35.5"/>
	<path class="st0" d="M54.3,25.2c-0.2,0-0.3-0.1-0.4-0.2l-4.4-4.4c-0.2-0.2-0.2-0.6,0-0.9c0.2-0.2,0.6-0.2,0.9,0l4.4,4.4
		c0.2,0.2,0.2,0.6,0,0.9C54.6,25.2,54.5,25.2,54.3,25.2"/>
</g>
<circle class="st1" cx="23.2" cy="24.5" r="22.4"/>
</svg>
