<?xml version="1.0" encoding="utf-8"?>
<!-- Generator: Adobe Illustrator 23.0.5, SVG Export Plug-In . SVG Version: 6.00 Build 0)  -->
<svg version="1.1" id="Layer_1" xmlns="http://www.w3.org/2000/svg" xmlns:xlink="http://www.w3.org/1999/xlink" x="0px" y="0px"
	 width="46px" height="45px" viewBox="0 0 46 45" style="enable-background:new 0 0 46 45;" xml:space="preserve">
<style type="text/css">
	.st0{fill:#62BAD1;}
</style>
<path class="st0" d="M38.2,20.2c-0.3,0-0.5,0.3-0.4,0.5c0.1,0.6,0.1,1.2,0.1,1.9c0,1.6-0.2,3.1-0.7,4.6h-6.3c0.2-1.5,0.4-3,0.4-4.6
	v-0.4c0-0.3-0.2-0.5-0.5-0.5l0,0c-0.3,0-0.5,0.2-0.5,0.5v0.4c0,1.6-0.1,3.1-0.4,4.6h-8V18h3.2c0.3,0,0.5-0.2,0.5-0.5
	S25.4,17,25.1,17h-3.2V6.2c0.1,0,0.2,0,0.3,0c0.3,0.1,0.5-0.1,0.6-0.4c0,0,0,0,0-0.1c0,0,0,0,0-0.1c0-0.3-0.2-0.5-0.5-0.5
	s-0.6,0-0.9,0C11.9,5.2,4.1,13,4.1,22.6S11.9,40,21.5,40s17.4-7.8,17.4-17.4c0-0.7,0-1.3-0.1-2C38.7,20.3,38.5,20.2,38.2,20.2
	 M29.7,28.1c-1.2,6-4.2,10.4-7.8,10.8V28.1H29.7z M21,38.9c-3.6-0.4-6.6-4.8-7.8-10.8H21V38.9z M21,27.2h-8c-0.2-1.5-0.4-3-0.4-4.6
	s0.1-3.1,0.4-4.6h8V27.2z M5,22.6C5,21,5.3,19.5,5.7,18H12c-0.2,1.5-0.4,3-0.4,4.6s0.1,3.1,0.4,4.6H5.7C5.3,25.7,5,24.2,5,22.6
	 M13.2,17c1.2-6,4.2-10.4,7.8-10.8V17H13.2z M17.5,6.7c-2.5,2-4.5,5.7-5.3,10.4H6C7.9,11.9,12.2,8,17.5,6.7 M6,28.1h6.2
	c0.9,4.6,2.8,8.4,5.3,10.4C12.2,37.2,7.9,33.2,6,28.1 M25.4,38.5c2.5-2,4.5-5.7,5.3-10.4h6.2C35,33.2,30.7,37.2,25.4,38.5"/>
<path class="st0" d="M33,21.3l0.3,0.2l0.3-0.2c0.4-0.2,8.7-6.1,8.7-12.2c0-4.9-4-8.9-8.9-8.9s-8.9,4-8.9,8.9
	C24.3,15.2,32.7,21,33,21.3 M33.3,1.1c4.4,0,8,3.6,8,8c0,5-6.5,10.1-8,11.2c-1.4-1.1-8-6.2-8-11.2C25.3,4.7,28.9,1.1,33.3,1.1"/>
<path class="st0" d="M38,9.1c0-2.6-2.1-4.7-4.7-4.7s-4.7,2.1-4.7,4.7s2.1,4.7,4.7,4.7S38,11.7,38,9.1 M29.5,9.1
	c0-2.1,1.7-3.7,3.7-3.7c2.1,0,3.7,1.7,3.7,3.7c0,2.1-1.7,3.7-3.7,3.7S29.5,11.1,29.5,9.1"/>
</svg>
