<?xml version="1.0" encoding="utf-8"?>
<!-- Generator: Adobe Illustrator 23.0.5, SVG Export Plug-In . SVG Version: 6.00 Build 0)  -->
<svg version="1.1" id="Layer_1" xmlns="http://www.w3.org/2000/svg" xmlns:xlink="http://www.w3.org/1999/xlink" x="0px" y="0px"
	 width="19.1px" height="27.1px" viewBox="0 0 19.1 27.1" style="enable-background:new 0 0 19.1 27.1;" xml:space="preserve">
<style type="text/css">
	.st0{fill:#422963;}
	.st1{fill:#FFFFFF;}
	.st2{fill:none;stroke:#0098DA;stroke-width:0.75;stroke-linecap:round;stroke-linejoin:round;stroke-miterlimit:10;}
</style>
<path class="st0" d="M16.1,2.9c-1.8-1.8-3.8-2.7-6.2-2.7c-0.1,0-0.2,0-0.2,0c-0.1,0-0.2,0-0.3,0C7,0.2,5,1.1,3.2,2.9
	c-3.6,3.6-3.6,9.6,0,13.2l6,7.4l0,0c0.1,0.1,0.1,0.1,0.2,0.1l0,0c0.1,0,0.2,0,0.2,0s0,0,0.1,0c0,0,0.1,0,0.1-0.1c0,0,0.1,0,0.1-0.1
	l0,0l6-7.4C19.7,12.5,19.7,6.6,16.1,2.9z"/>
<path class="st1" d="M13.6,9.5c0-2.2-1.8-4-4-4s-4,1.8-4,4s1.8,4,4,4S13.6,11.7,13.6,9.5"/>
<path class="st2" d="M12.6,22.7c1.7,0.3,2.8,0.9,2.8,1.5c0,1-2.6,1.8-5.8,1.8s-5.8-0.8-5.8-1.8c0-0.5,0.6-0.9,1.7-1.2"/>
</svg>
