<?xml version="1.0" encoding="utf-8"?>
<!-- Generator: Adobe Illustrator 23.0.5, SVG Export Plug-In . SVG Version: 6.00 Build 0)  -->
<svg version="1.1" id="Layer_1" xmlns="http://www.w3.org/2000/svg" xmlns:xlink="http://www.w3.org/1999/xlink" x="0px" y="0px"
	 width="146px" height="146px" viewBox="0 0 146 146" style="enable-background:new 0 0 146 146;" xml:space="preserve">
<style type="text/css">
	.st0{fill:#2866AB;}
</style>
<g>
	<path class="st0" d="M66.7,79.4c-2.5,7.4-4.6,17.6-6.1,23c-0.3,1,0,2.3,0.6,2.8s1.5,0.6,2.4-1.4c2.1-4.5,5.8-11.1,9.1-16.9
		c11-19.5,22.3-31.9,27-37c0.7-0.8,0.6-2-0.1-2.8c-3.4-3.9-17.1-5.8-20.2,1C76.2,54.9,71.5,65,66.7,79.4"/>
	<path class="st0" d="M100.3,54.7C96.2,59,89.8,66.5,79.7,83c-0.4,0.6,0.2,1.3,0.8,1.1c1.8-0.7,16.3-4,18.9-4.2
		c1.1-0.1,2-0.7,2.7-1.5c1.1-1.3,1.5-1.9,2.3-3.5c0.4-0.8,1.7-3.8,2.1-7.8c0.4-5.1-1.6-9.5-3.2-11.7
		C102.5,54.2,101.2,53.8,100.3,54.7"/>
	<path class="st0" d="M64,66c-0.3-2.6-1.9-7.8-2.4-10.2c-0.8-4-1.2-7.3-1.4-9.9c-0.1-0.7-0.6-1.3-1.2-1.4c-0.8-0.1-1.5-0.2-2.3-0.2
		c-4.9,0-9.2,2-12.9,6.1c-7.4,8.2-7.4,21.6,0,29.8l12.6,16.7c0.6,0.7,1.7,0.4,2-0.5c1.2-4.1,4.7-20.4,4.7-20.4
		C64.3,70.9,64.6,70.8,64,66 M51.3,68.3c-3.1,0-5.7-2.5-5.7-5.7s2.6-5.7,5.7-5.7c3.1,0,5.7,2.5,5.7,5.7S54.4,68.3,51.3,68.3"/>
	<path class="st0" d="M79.9,88.6c-3.6,1.1-4,1.2-7,6c-2.2,3.8-4.1,7.3-5.7,10.3c-0.3,0.6-0.2,1.3,0.2,1.7c2,2.3,5.6,2.5,7.7,0.3
		l18.5-18.8c0.9-1,0.3-2.8-1-2.7C89.6,85.7,81.8,87.9,79.9,88.6"/>
	<path class="st0" d="M65.3,55.2c0.5,2.8,1.4,6.3,1.8,8.2c0.2,0.7,1.1,0.8,1.3,0.1c1.2-3,2.3-5.3,3.4-7.8c0.5-1.2,0.5-2.7-0.2-3.7
		c-1-1.3-2.7-2.9-5.6-3.9c-1.1-0.4-2,0.5-1.8,1.7C64.5,51.7,64.8,52.6,65.3,55.2"/>
	<path class="st0" d="M127.7,82l-1.4,6.4l1.4,0.3l1-4.8l2.9,0.6l-0.9,4.1l1.4,0.3l0.9-4.1l2.8,0.6l-1,4.8l1.4,0.3l1.4-6.4L127.7,82z
		 M133.7,69.6h3.6v1.8c0,1.4-0.7,2.1-1.9,2.1s-1.8-1-1.8-2.3L133.7,69.6z M128.3,74.9c0,0.5,0,0.9,0.1,1h1.4v-0.4
		c0-1.3,2.5-1.3,3.1-2.5c0.3,1.3,1.3,2.2,2.6,2.2c2.1,0,3.1-1.3,3.2-3.7V68l-10.2-0.1v1.6h4v1.1C132.4,72.8,128.4,72.3,128.3,74.9
		 M129.8,55.1l4.7,0.4l-4,2.6L129.8,55.1z M127,60.3l0.4,1.6l9.1-6.1l-0.4-1.6L125.3,53l0.4,1.6l2.8,0.3l0.9,3.9L127,60.3z
		 M121.1,45.3c0.8,1.4,1.8,2.1,3.3,2.2l0.2-1.4c-1.1-0.1-1.8-0.5-2.3-1.4c-0.8-1.6-0.1-3.2,2-4.3s3.8-0.9,4.7,0.6
		c0.6,1,0.3,2-0.6,2.5c-0.2,0.1-0.3,0.1-0.6,0.2l0.7,1.3c0.2,0,0.6-0.2,0.8-0.3c1.7-0.9,1.9-2.6,1-4.4c-1.3-2.4-3.9-3-6.8-1.5
		C120.7,40.4,119.8,42.9,121.1,45.3 M106.8,28.9c1.8,1.5,3.7,1.6,4.9,0.2c1.1-1.4,0.8-2.6-0.5-4.4c-1.1-1.5-1.5-2.2-0.9-2.9
		c0.6-0.7,1.5-0.7,2.5,0.2c0.8,0.7,1.2,1.6,0.6,2.3c-0.1,0.1-0.2,0.2-0.3,0.3l1.2,1c0.2-0.1,0.3-0.2,0.4-0.4c1.3-1.5,0.4-3.1-1-4.3
		c-1.6-1.4-3.5-1.4-4.6-0.1c-1.2,1.4-0.6,2.8,0.6,4.3c1.2,1.5,1.4,2.3,0.8,3s-1.5,0.6-2.6-0.3c-0.9-0.8-1.4-1.8-1.2-2.8l-1.5,0.1
		C104.8,26.4,105.4,27.7,106.8,28.9 M95.4,22.1c2.1,1.1,3.9,0.7,4.8-0.9c0.8-1.6,0.2-2.7-1.5-4.2c-1.4-1.2-1.9-1.7-1.5-2.6
		c0.4-0.8,1.3-1,2.4-0.4c0.9,0.5,1.5,1.2,1.1,2.1c-0.1,0.1-0.1,0.2-0.2,0.3l1.4,0.7c0.1-0.2,0.2-0.3,0.3-0.5c0.9-1.8-0.3-3.1-2-3.9
		c-1.9-1-3.8-0.6-4.5,1c-0.8,1.6,0.1,2.8,1.6,4.1c1.5,1.2,1.9,1.9,1.4,2.7c-0.4,0.8-1.3,1-2.6,0.3c-1.1-0.5-1.7-1.4-1.9-2.4
		l-1.5,0.4C92.9,20.2,93.8,21.3,95.4,22.1 M81.9,13.8l2.5-4l0.5,4.7L81.9,13.8z M85.4,18.7L87,19L85.6,8.2L84,7.8L78.1,17l1.6,0.4
		l1.5-2.4l3.9,0.9L85.4,18.7z M66.6,17.3l6.4-0.1v-1.4l-4.8,0.1l-0.1-8.8h-1.6L66.6,17.3z M57.1,19.7c1.6-0.4,2.5-1.3,2.9-2.8
		l-1.3-0.5c-0.3,1.1-0.9,1.6-1.9,1.9c-1.7,0.5-3.2-0.6-3.8-2.9s-0.1-4,1.6-4.4c1.1-0.3,2,0.1,2.3,1.2c0.1,0.2,0.1,0.3,0.1,0.6
		l1.4-0.4c0-0.2,0-0.6-0.1-0.9c-0.5-1.8-2.1-2.4-4-1.9c-2.7,0.7-3.8,3.1-3,6.3C52.2,19,54.4,20.4,57.1,19.7 M34.6,30.5l-4.5-5.9
		l1.2-0.9c1.8-1.3,3.5-1.1,5,0.9s1.2,3.7-0.4,5L34.6,30.5z M34.2,32.5l2.7-2c2-1.6,3-4.2,0.8-7.1s-4.8-2.7-7.1-1l-2.6,2L34.2,32.5z
		 M26.3,42.3l4-5l-1.1-0.9l-3,3.7l-6.8-5.5l-1,1.3L26.3,42.3z M15.9,51.3l-3.3-1.5l0.7-1.6c0.6-1.2,1.5-1.6,2.6-1.1s1.2,1.6,0.7,2.8
		L15.9,51.3z M23.1,48.7c0.2-0.4,0.3-0.9,0.3-0.9l-1.2-0.6L22,47.5c-0.6,1.2-2.8,0.2-3.9,1c0.3-1.3-0.3-2.5-1.5-3.1
		c-1.9-0.9-3.4-0.1-4.4,2l-1.5,3.1L20,55l0.7-1.5l-3.6-1.7l0.5-1C18.5,48.9,22,51,23.1,48.7 M16.6,65.7c-0.2,1.5-1.4,2.7-4.2,2.2
		s-3.6-2-3.3-3.5c0.2-1.5,1.4-2.7,4.2-2.2C16.1,62.7,16.8,64.2,16.6,65.7 M18,66c0.4-2.4-0.9-4.8-4.4-5.4C10,60,8.1,61.8,7.7,64.3
		c-0.4,2.4,0.9,4.8,4.4,5.4C15.8,70.2,17.6,68.4,18,66 M18.9,86.5l-0.3-1.8l-8.1-1l7.5-3.2l-0.3-1.8L7.3,77.4l0.2,1.8l8.6,0.7
		l-8,3.4l0.2,1.5l8.6,1l-8.1,3l0.3,1.8L18.9,86.5z"/>
	<path class="st0" d="M121.7,117.8l4.5-5.4l-1.7-1.4l-2.8,3.4l-1.6-1.4l2.5-2.9l-1.7-1.4l-2.5,2.9l-1.6-1.3l2.8-3.3l-1.7-1.4
		l-4.5,5.3L121.7,117.8z M109,121.7l-1.9-2.2l0.9-0.8c0.9-0.7,1.7-0.8,2.3,0c0.6,0.7,0.4,1.5-0.6,2.4L109,121.7z M116.5,122.9
		c0.3-0.3,0.7-0.7,0.9-0.9l-1.4-1.6l-0.4,0.3c-0.9,0.7-2.1-0.7-3.1-0.4c0.8-1.2,0.5-2.5-0.2-3.4c-1.5-1.8-3.2-1.8-5.4,0.1l-3,2.5
		l6.9,8.1l2-1.7l-2.4-2.9l0.4-0.3C112.1,121.6,114,125.1,116.5,122.9 M99,134l6.2-3.3l-1-1.9l-3.9,2.1l-1-1.9l3.4-1.8l-1-1.9
		l-3.4,1.8l-1-1.8l3.9-2l-1-1.9l-6.2,3.3L99,134z M84.3,138.4l2.5-0.7l-1.1-4l3.4-0.9l1.1,4l2.5-0.7l-2.8-10.3l-2.5,0.7l1.1,3.9
		l-3.4,0.9l-1.1-3.9l-2.5,0.7L84.3,138.4z M66,138.7l2.6,0.2l0.5-8.3l2.9,0.2l0.2-2.3l-8.6-0.5l-0.1,2.3l3.1,0.2L66,138.7z
		 M48.9,134.9l2.5,0.7l1.1-4l3.4,0.9l-1.1,4l2.5,0.7l2.8-10.3l-2.5-0.7l-1.1,3.9l-3.4-0.9l1.1-3.9l-2.5-0.7L48.9,134.9z M39.6,130.3
		c2,1.1,3.7,1,4.3,0.8l2.1-3.8l-3.6-2l-1,1.8L43,128l-0.5,0.9c-0.4,0-1-0.1-1.8-0.5c-1.4-0.8-1.6-2-0.5-4c1-1.8,2.2-2.4,3.5-1.7
		c1,0.5,1.1,1.3,0.7,1.9c-0.1,0.1-0.1,0.3-0.2,0.3l2.2,1.2c0.2-0.2,0.3-0.5,0.5-0.7c1.1-1.9,0-3.7-1.9-4.8c-2.8-1.6-5.5-0.5-7.1,2.4
		C36.2,126.1,36.7,128.7,39.6,130.3 M28.5,122.1l2,1.6l6.7-8.3l-2-1.6L28.5,122.1z M24.6,109.5l2.2-1.9l0.8,0.9
		c0.7,0.9,0.8,1.7,0,2.3c-0.7,0.6-1.5,0.4-2.4-0.6L24.6,109.5z M23.4,117c0.3,0.3,0.7,0.7,0.9,0.9l1.6-1.4l-0.3-0.4
		c-0.7-0.9,0.7-2.1,0.5-3.1c1.2,0.8,2.5,0.5,3.4-0.2c1.8-1.5,1.8-3.2-0.1-5.4l-2.5-3l-8.1,6.9l1.7,2l2.9-2.4l0.3,0.4
		C24.7,112.6,21.2,114.5,23.4,117"/>
</g>
</svg>
