<?xml version="1.0" encoding="utf-8"?>
<!-- Generator: Adobe Illustrator 23.0.5, SVG Export Plug-In . SVG Version: 6.00 Build 0)  -->
<svg version="1.1" id="Layer_1" xmlns="http://www.w3.org/2000/svg" xmlns:xlink="http://www.w3.org/1999/xlink" x="0px" y="0px"
	 width="181.8px" height="181.8px" viewBox="0 0 181.8 181.8" style="enable-background:new 0 0 181.8 181.8;" xml:space="preserve"
	>
<style type="text/css">
	.st0{fill:#049FDA;}
	.st1{clip-path:url(#SVGID_2_);fill:#C3E8F5;}
	.st2{fill:#C3E8F5;}
	.st3{clip-path:url(#SVGID_4_);fill:#C3E8F5;}
</style>
<path class="st0" d="M181.8,90.9c0,50.2-40.7,90.9-90.9,90.9S0,141.1,0,90.9S40.7,0,90.9,0S181.8,40.7,181.8,90.9"/>
<g>
	<defs>
		<rect id="SVGID_1_" x="17.7" y="17.7" width="146.4" height="146.4"/>
	</defs>
	<clipPath id="SVGID_2_">
		<use xlink:href="#SVGID_1_"  style="overflow:visible;"/>
	</clipPath>
	<path class="st1" d="M90.9,164.1c-40.4,0-73.2-32.8-73.2-73.2s32.8-73.2,73.2-73.2s73.2,32.8,73.2,73.2S131.3,164.1,90.9,164.1
		 M90.9,18.3c-40.1,0-72.7,32.6-72.7,72.7s32.6,72.7,72.7,72.7s72.7-32.6,72.7-72.7S131,18.3,90.9,18.3"/>
</g>
<g>
	<path class="st2" d="M84.6,97.3c-2.5,7.4-4.6,17.6-6.1,23c-0.3,1,0,2.3,0.6,2.8c0.6,0.5,1.5,0.6,2.4-1.4c2.1-4.5,5.8-11.1,9.1-16.9
		c10.9-19.4,22.2-31.8,26.9-37c0.7-0.8,0.6-2-0.1-2.8c-3.4-3.9-17.1-5.8-20.2,1C94.1,72.8,89.4,82.9,84.6,97.3"/>
	<path class="st2" d="M118.2,72.6c-4.1,4.3-10.5,11.8-20.6,28.3c-0.4,0.6,0.2,1.3,0.8,1.1c1.8-0.7,16.3-4,18.9-4.2
		c1.1-0.1,2-0.7,2.7-1.5c1.1-1.3,1.5-1.9,2.3-3.5c0.4-0.8,1.7-3.8,2.1-7.8c0.4-5.1-1.6-9.5-3.2-11.7
		C120.4,72.1,119.1,71.7,118.2,72.6"/>
	<path class="st2" d="M81.9,83.9c-0.3-2.6-1.9-7.8-2.4-10.2c-0.8-4-1.2-7.3-1.4-9.9c-0.1-0.7-0.6-1.3-1.2-1.4
		c-0.8-0.1-1.5-0.2-2.3-0.2c-4.9,0-9.2,2-12.9,6.1c-7.4,8.2-7.4,21.6,0,29.8L74.3,115c0.6,0.7,1.7,0.4,2-0.5
		c1.2-4.1,4.7-20.4,4.7-20.4C82.2,88.8,82.5,88.7,81.9,83.9 M69.2,86.2c-3.1,0-5.7-2.5-5.7-5.7s2.6-5.7,5.7-5.7
		c3.1,0,5.7,2.5,5.7,5.7S72.3,86.2,69.2,86.2"/>
	<path class="st2" d="M97.8,106.5c-3.6,1.1-4,1.2-7,6c-2.2,3.8-4.1,7.3-5.7,10.3c-0.3,0.6-0.2,1.3,0.2,1.7c2,2.3,5.6,2.5,7.7,0.3
		l18.5-18.8c0.9-1,0.3-2.8-1-2.7C107.5,103.6,99.7,105.8,97.8,106.5"/>
	<path class="st2" d="M83.2,73.1c0.5,2.8,1.4,6.3,1.8,8.2c0.2,0.7,1.1,0.8,1.3,0.1c1.2-3,2.3-5.3,3.4-7.8c0.5-1.2,0.5-2.7-0.2-3.7
		c-1-1.3-2.7-2.9-5.6-3.9c-1.1-0.4-2,0.5-1.8,1.7C82.4,69.6,82.7,70.5,83.2,73.1"/>
	<path class="st2" d="M145.6,99.9l-1.4,6.4l1.4,0.3l1-4.8l2.9,0.6l-0.9,4.1l1.4,0.3l0.9-4.1l2.8,0.6l-1,4.8l1.4,0.3l1.4-6.4
		L145.6,99.9z M151.6,87.5l3.6,0l0,1.8c0,1.4-0.7,2.1-1.9,2.1c-1.2,0-1.8-1-1.8-2.3L151.6,87.5z M146.2,92.8c0,0.5,0,0.9,0.1,1
		l1.4,0l0-0.4c0-1.3,2.5-1.3,3.1-2.5c0.3,1.3,1.3,2.2,2.6,2.2c2.1,0,3.1-1.3,3.2-3.7l0-3.5l-10.2-0.1l0,1.6l4,0l0,1.1
		C150.3,90.7,146.3,90.2,146.2,92.8 M147.7,73l4.7,0.4l-4,2.6L147.7,73z M144.9,78.2l0.4,1.6l9.1-6.1l-0.4-1.6l-10.8-1.2l0.4,1.6
		l2.8,0.3l0.9,3.9L144.9,78.2z M139,63.2c0.8,1.4,1.8,2.1,3.3,2.2l0.2-1.4c-1.1-0.1-1.8-0.5-2.3-1.4c-0.8-1.6-0.1-3.2,2-4.3
		c2.1-1.1,3.8-0.9,4.7,0.6c0.6,1,0.3,2-0.6,2.5c-0.2,0.1-0.3,0.1-0.6,0.2l0.7,1.3c0.2,0,0.6-0.2,0.8-0.3c1.7-0.9,1.9-2.6,1-4.4
		c-1.3-2.4-3.9-3-6.8-1.5C138.6,58.3,137.7,60.8,139,63.2 M124.7,46.8c1.8,1.5,3.7,1.6,4.9,0.2c1.1-1.4,0.8-2.6-0.5-4.4
		c-1.1-1.5-1.5-2.2-0.9-2.9c0.6-0.7,1.5-0.7,2.5,0.2c0.8,0.7,1.2,1.6,0.6,2.3c-0.1,0.1-0.2,0.2-0.3,0.3l1.2,1
		c0.2-0.1,0.3-0.2,0.4-0.4c1.3-1.5,0.4-3.1-1-4.3c-1.6-1.4-3.5-1.4-4.6-0.1c-1.2,1.4-0.6,2.8,0.6,4.3c1.2,1.5,1.4,2.3,0.7,3
		c-0.6,0.7-1.5,0.6-2.6-0.3c-0.9-0.8-1.4-1.8-1.2-2.8l-1.5,0.1C122.7,44.3,123.3,45.6,124.7,46.8 M113.3,40c2.1,1.1,3.9,0.7,4.8-0.9
		c0.8-1.6,0.2-2.7-1.5-4.2c-1.4-1.2-1.9-1.7-1.5-2.6c0.4-0.8,1.3-1,2.4-0.4c0.9,0.5,1.5,1.2,1.1,2.1c-0.1,0.1-0.1,0.2-0.2,0.3
		l1.4,0.7c0.1-0.2,0.2-0.3,0.3-0.5c0.9-1.8-0.3-3.1-2-3.9c-1.9-1-3.8-0.6-4.5,1c-0.8,1.6,0.1,2.8,1.6,4.1c1.5,1.2,1.9,1.9,1.4,2.7
		c-0.4,0.8-1.3,1-2.6,0.3c-1.1-0.5-1.7-1.4-1.9-2.4l-1.5,0.4C110.8,38.1,111.7,39.2,113.3,40 M99.8,31.7l2.5-4l0.5,4.7L99.8,31.7z
		 M103.3,36.6l1.6,0.4l-1.5-10.8l-1.6-0.4L96,35l1.6,0.4l1.5-2.4l3.9,0.9L103.3,36.6z M84.5,35.2l6.4-0.1l0-1.4l-4.8,0.1L86,25
		l-1.6,0L84.5,35.2z M75,37.6c1.6-0.4,2.5-1.3,2.9-2.8l-1.3-0.5c-0.3,1.1-0.9,1.6-1.9,1.9c-1.7,0.5-3.2-0.6-3.8-2.9
		c-0.6-2.3-0.1-4,1.6-4.4c1.1-0.3,2,0.1,2.3,1.2c0.1,0.2,0.1,0.3,0.1,0.6l1.4-0.4c0-0.2,0-0.6-0.1-0.9c-0.5-1.8-2.1-2.4-4-1.9
		c-2.7,0.7-3.8,3.1-3,6.3C70.1,36.9,72.3,38.3,75,37.6 M52.5,48.4L48,42.5l1.2-0.9c1.8-1.3,3.5-1.1,5,0.9c1.5,2,1.2,3.7-0.4,5
		L52.5,48.4z M52.1,50.4l2.7-2c2-1.6,3-4.2,0.8-7.1c-2.2-2.9-4.8-2.7-7.1-1l-2.6,2L52.1,50.4z M44.2,60.2l4-5l-1.1-0.9l-3,3.7
		l-6.8-5.5l-1,1.3L44.2,60.2z M33.8,69.2l-3.3-1.5l0.7-1.6c0.6-1.2,1.5-1.6,2.6-1.1c1.1,0.5,1.2,1.6,0.7,2.8L33.8,69.2z M41,66.6
		c0.2-0.4,0.3-0.9,0.3-0.9L40.1,65l-0.2,0.4c-0.6,1.2-2.8,0.2-3.9,1c0.3-1.3-0.3-2.5-1.5-3.1c-1.9-0.9-3.4-0.1-4.4,2l-1.5,3.1
		l9.3,4.3l0.7-1.5L35,69.7l0.5-1C36.4,66.8,39.9,68.9,41,66.6 M34.5,83.6c-0.2,1.5-1.4,2.7-4.2,2.2c-2.8-0.5-3.6-2-3.3-3.5
		c0.2-1.5,1.4-2.7,4.2-2.2C34,80.6,34.7,82.1,34.5,83.6 M35.9,83.9c0.4-2.4-0.9-4.8-4.4-5.4c-3.6-0.6-5.5,1.2-5.9,3.7
		c-0.4,2.4,0.9,4.8,4.4,5.4C33.7,88.1,35.5,86.3,35.9,83.9 M36.8,104.4l-0.3-1.8l-8.1-1l7.5-3.2l-0.3-1.8l-10.5-1.2l0.2,1.8l8.6,0.7
		l-8,3.4l0.2,1.5l8.6,1l-8.1,3l0.3,1.8L36.8,104.4z"/>
	<path class="st2" d="M139.6,135.7l4.5-5.4l-1.7-1.4l-2.8,3.4L138,131l2.5-2.9l-1.7-1.4l-2.5,2.9l-1.6-1.3l2.8-3.3l-1.7-1.4
		l-4.5,5.3L139.6,135.7z M126.9,139.6l-1.9-2.2l0.9-0.8c0.9-0.7,1.7-0.8,2.3,0c0.6,0.7,0.4,1.5-0.6,2.4L126.9,139.6z M134.4,140.8
		c0.3-0.3,0.7-0.7,0.9-0.9l-1.4-1.6l-0.4,0.3c-0.9,0.7-2.1-0.7-3.1-0.4c0.8-1.2,0.5-2.5-0.2-3.4c-1.5-1.8-3.2-1.8-5.4,0.1l-3,2.5
		l6.9,8.1l2-1.7l-2.4-2.9l0.4-0.3C130,139.5,131.9,143,134.4,140.8 M116.9,151.9l6.2-3.3l-1-1.9l-3.9,2.1l-1-1.9l3.4-1.8l-1-1.9
		l-3.4,1.8l-1-1.8l3.9-2l-1-1.9l-6.2,3.3L116.9,151.9z M102.2,156.3l2.5-0.7l-1.1-4l3.4-0.9l1.1,4l2.5-0.7l-2.8-10.3l-2.5,0.7
		l1.1,3.9l-3.4,0.9l-1.1-3.9l-2.5,0.7L102.2,156.3z M83.9,156.6l2.6,0.2l0.5-8.3l2.9,0.2l0.2-2.3l-8.6-0.5l-0.1,2.3l3.1,0.2
		L83.9,156.6z M66.8,152.8l2.5,0.7l1.1-4l3.4,0.9l-1.1,4l2.5,0.7l2.8-10.3l-2.5-0.7l-1.1,3.9l-3.4-0.9l1.1-3.9l-2.5-0.7L66.8,152.8z
		 M57.5,148.2c2,1.1,3.7,1,4.3,0.8l2.1-3.8l-3.6-2l-1,1.8l1.6,0.9l-0.5,0.9c-0.4,0-1-0.1-1.8-0.5c-1.4-0.8-1.6-2-0.5-4
		c1-1.8,2.2-2.4,3.5-1.7c1,0.5,1.1,1.3,0.7,1.9c-0.1,0.1-0.1,0.3-0.2,0.3l2.2,1.2c0.2-0.2,0.3-0.5,0.5-0.7c1.1-1.9,0-3.7-1.9-4.8
		c-2.8-1.6-5.5-0.5-7.1,2.4C54.1,144,54.6,146.6,57.5,148.2 M46.4,140l2,1.6l6.7-8.3l-2-1.6L46.4,140z M42.5,127.4l2.2-1.9l0.8,0.9
		c0.7,0.9,0.8,1.7,0,2.3c-0.7,0.6-1.5,0.4-2.4-0.6L42.5,127.4z M41.3,134.9c0.3,0.3,0.7,0.7,0.9,0.9l1.6-1.4l-0.3-0.4
		c-0.7-0.9,0.7-2.1,0.5-3.1c1.2,0.8,2.5,0.5,3.4-0.2c1.8-1.5,1.8-3.2-0.1-5.4l-2.5-3l-8.1,6.9l1.7,2l2.9-2.4l0.3,0.4
		C42.6,130.5,39.1,132.4,41.3,134.9"/>
</g>
<g>
	<defs>
		<rect id="SVGID_3_" x="44" y="44" width="93.7" height="93.7"/>
	</defs>
	<clipPath id="SVGID_4_">
		<use xlink:href="#SVGID_3_"  style="overflow:visible;"/>
	</clipPath>
	<path class="st3" d="M90.9,137.8c-25.9,0-46.9-21-46.9-46.9S65,44,90.9,44s46.9,21,46.9,46.9S116.8,137.8,90.9,137.8 M90.9,44.4
		c-25.7,0-46.5,20.9-46.5,46.5s20.9,46.5,46.5,46.5s46.5-20.9,46.5-46.5S116.6,44.4,90.9,44.4"/>
</g>
</svg>
