<?xml version="1.0" encoding="utf-8"?>
<!-- Generator: Adobe Illustrator 23.0.5, SVG Export Plug-In . SVG Version: 6.00 Build 0)  -->
<svg version="1.1" id="Layer_1" xmlns="http://www.w3.org/2000/svg" xmlns:xlink="http://www.w3.org/1999/xlink" x="0px" y="0px"
	 viewBox="0 0 762.5 595.3" style="enable-background:new 0 0 762.5 595.3;" xml:space="preserve">
<style type="text/css">
	.st0{fill:#F4F4F4;stroke:#000000;stroke-width:0.53;}
	.st1{fill:#EDEDED;stroke:#000000;stroke-width:0.53;}
	.st2{fill:none;stroke:#000000;stroke-width:0.3528;}
	.st3{fill:none;stroke:#000000;stroke-width:0.1764;}
	.st4{fill:none;stroke:#000000;stroke-width:7.620000e-02;}
</style>
<path class="st0" d="M19.9,342.5l-1.8,33.9l173.4,5.1l107,3l121.6,0.6l2.3,3.2l4.1,2.5l2,3.9l0.4,4.8l1,2.3l7.3-0.3l2.2,1.8l2.9-0.6
	l0.6,3.6l1.5,1.2l2.3-0.1l-0.3,1.9l-1.7,0.3l-1,1.8l0.1,1l3.6,0.6l0.7,4.1l1.3-0.1l-0.4,2.9l-1.6,0.1l0.7,2.3l1.2,0.6l-0.9,1.6
	l0.7,1.9l-0.3,4.8l-1.6,2.2l5,6l-0.1,2.9l1.5,0.3l0.3,2.8l1.9,0.3l-0.3,2.8h6.1l0.3,1.5l1.9,0.7l0.1,2.2l3.8-0.3l1.3,1.6l3.5-0.3
	l0.1,1l3.6,0.1h1.9l0.9,3.1l3.6,5.3l49.1,29l24.8,14l0.6,2.2l-1,1.8l0.1,2.8l-1.2,1l-0.7,2.3l-0.6,3.2l-1.9,5.5l-4.1,8l-2,6.4
	l-0.9,3.5l-1.5,4.2l-3.8,0.9l-2,1.5l-7.6,0.4l-0.7,6l-1,4.2l-2.3,1.8l-1,3.2l-0.3,3.5l3.3,0.6l0.9-2.8l3.3-1.9l4.8-3.2l5.7-4.8
	l0.7-2.6l-2-3.6l0.1-1.5l0.9-1.2l2.2-3.1l2.3,0.3l-1,2.8l-0.7,3.8l1.3,3.2l1.6,3.4l1.7,1l6.8-0.9l-2,2.6l3.6-0.4l3.8-2.9l3.2-0.9
	l2.3-0.9h3.5h2.2l4.2,0.1l12.9,0l19.5-7l2.8,0.7l1.6,2.1l16-5.2l10.3-3.8l8.5-5.2l9.4-3.8l9.6-4l10.8-4.7l17.9-7.5l12.7-7l13.6-6.6
	l8.9-4.9l8.2-3.5l4.7-2.6l0.7-2.1l-4.5-2.4l-4.2,1.6l-1.4,3.3l-4,2.1l-3.3,0.7l-0.5,2.1l-2.6,0.7l-1.6,1.9l-3.1-3.1l-0.9-3.8
	l-1.9-1.2l-2.6,3.3l-2.1-0.5l-4.5-0.2l-2.1-4.7l-4.2-1.6l-0.2-4l1.4-1.2l0.7,2.8l1.4-0.2l2.8-2.4l1.9-2.6l-3.5-0.2l-3.1,1.4
	l-2.1,1.4h-2.4l-2.8,3.8l-3.3,3.1l-2.6,0.2l-2.1,3.1l-3.5,3.1l-3.3,1.4l-2.8,3.8l-4.5,0.5l-9.9,0.7l-2.3,2.1l-7.3,0.2l-2.8,1.4
	l-13.2-0.2l-1.2,1.2l-2.8-0.9l-2.6-1.4l-1.4,1.2l-2.6-0.2l-0.9,4l-3.1,3.1l-4.5,1.6l-3.8-1.4l-5.9-0.9l-4-0.7l-2.6-3.1l-0.5,2.8
	l-0.5,1.6l-2.6-1.6l-3.3-0.2l-1.4-1.2l-0.9,3.3l-2.3,1.2l-3.8,0.2l-2.6-0.5l-1.2,1.7l-2.3,0.7l-1.7,1l-0.7,2.2l-1.2,2.1l-1.9-0.7
	l-1.5-0.9l-1.5-0.9l-0.7,2.2l-0.2,1.5l-1.4,1.3l-1.2,1.5l-0.4,1.6l-0.1,1.7l-2.4-0.9l-0.9-1.7l-1.5-1.2l0.4-2.4l2-0.3l0.4,1.2
	l1.6-1.5l-0.7-1.4l-1.2-1.1l0.4-1.5l1.7-2.2l1.4-2l7.9-6.9l0.5-1.5l-0.4-4.8l-2.4-2.7l-1.7-3.5l-2.2-2.9l21.3-13.7l0.1-1.6l-1.4-3.2
	l-2-1.7l-2.7-4l-0.3-4.6l0.7-1l0.2-7.6l0.9-36.3l1.5-43.3l-1.3-1.5l0.1-5.6l1.7-1.6l9.7-43.8l8-32.8l-1.7-2.4v-3.3l-0.8-0.3l0.1-1.5
	l1-1l0.5-87.8l-1.1-3.5l-2.2-2.1l-1.3-0.2l-0.5-4.7l-0.7-1.5l-1.7-0.1l-1.7,0.2l-2,0.5l-0.9,2l-0.8,2.5l-0.8,2l-2-0.8l-1.1-2
	l0.1-4.6l0.7-3.7l2-5.6l2.1-4l1.7-2.9l-0.9-2.9l-2.3-2.2l-1.1-2.3l1.9-2.5l0.1-5.6l-2.8-2.5l-0.7-3.4l-0.9-12l-2.1-1.6l1.1-5
	l0.3-6.2l2.2-3.5l-0.1-3.1l5.8-7.1l1.3-2.1l-0.7-1.3l-0.2-2.5h-1l0.1-6.5l-1.2-0.3l0.1-2.5l2.2-2.5l0.8-2.7l0.1-6.1l-1.5-6.1
	l-3.3-4.3l-4.4-6.8l0.9-4.7l1.7-3.6l-0.5-3.5l-0.3-4.6l1.9-2.9l1.6-3.2l-0.5-2.8l-1.6-1l-2.6-2.8l0.8-2l0.5-2.9l0.4-2.5l1.5-1.7
	l0.1-2.7l0.1-3.4l-0.9-0.9l-1-2l1.6-1.3l-0.2-0.9L535,16.1l-59.6,0.3l-2,1.1l-3.1-1.3l-2.7-0.5l-2.5-1.3l-1.2,0.9l-1.7,0.3l-1.7,0.4
	l-1.1,1.1l-1.2,1.3l-0.3,1.2l-3.7-0.2l-2.5-0.4l-1.4,1.5l-0.9,1.9l-2.8,2.4l-2.7,0.8l-4.1,1.1l-2.4,2.2l-3.5,2.2l-3.5,1.5l-2.6,1.7
	l-3.1,2.1l-2.1,2.4l-3.3,2.6l-3.4,2.9l-7.2,6.8l-3.3,3.1l-7.3,8l-8.3,7.9l-4.1,4.4l-6.8,8.3l-0.2,3.5l-1.4,2.3l-3.5,2.5l-7.9,7
	l-2.5-0.9l-1.7,0.8l-3.4,1.7l-2.9,2.1l-2.7,1.6h-2.5l-0.9,1.6l-1,0.9l0.1,4.7l-1.6,1.7l-2.3,1.3l-2.3,1.1l-4.7,0.3h-2.2l-1.6,3.1
	l-1.4,3.7l-1.5,1.9l-0.5,2.7l0.8,5l4.8,1.4l0.4,2.1l0.1,2.5l1.5,1.3l1.3,2.1l-0.2,1.2l6,0.9l2,1.3l3.6,0.4l0.1,2l0.3,2.3l1,0.8
	l-0.5,2.2l-1.5,1.7l-2.5,0.4l-1.4,1.3l-2.4,1.1l-1.3-1.3l-2.4,0.2l-1.9,0.7l-1.1,1.7l1.1,1.7l2.9,2.4l1.4,3.6l1.3,4.1l0.5,3.5
	l0.1,6.1l1.2,0.7l-1,12.6l-2.3,4l-3.8,2.2l-3.6,1.4l-3.2-0.7l-2.2-1.4h-4l-2.5,2l-5.6,4.6l-4.7,2.6l-5.2,3.3l-3.2,3.3l-2,3.7
	l-3.1,2.7l-2.4,0.1l-5.5,3.6l-5.1,0.3l-2.1,2.1l-4,0.3l-2.8,2.2l-5.8-0.2l-4.3-0.1l-2-1.3l-2.4-0.9l-3.2-0.1l-1.3,1.5l-22.7-0.2
	l-1,1.2l-3.2-0.1l-2.2,1.2l-1.7,0.9l-2.2,1.6l-2.3,0.3l-3.7-2.7L206,219l-7.3-0.5l-2.3-0.9l-3.1-1l-3.7-1l-2.6-0.9h-3.2l-4.6-0.8
	l-8.5-0.4l-10,0.5l-4.6-1l-4.6,0.1l-1.2-1.1l-3.4,0.4l-2.7,1.1l-2.6-0.1L140,212l-2.2,0.4l-0.8,1.3l-9.6-0.1c0,0-14.2,3.4-14.8,3.7
	s-7.7,1.7-7.7,1.7l-16.5,5.5L87,224l-0.3,1.7l1.6,0.9V237l1.1,0.8l-0.1,2.2l-2.2,1.5v3.7l-1.3,0.4l0.3,1.3l2.5,1.2l2.6,0.4l0.2,4.4
	l-1.3,1.1l0.2,3.9l5.8,4.8l3.1,0.1l0.9,2.7v5.6l1.6,0.3l0.4,2.2l1.1,1.2l0.8,1l1.1,1.1l-0.8,1.3l-0.7,2l0.3,1.7l1.2,0.1l-0.3,2
	l-1,0.5l-11,7.9l-2.9,0.7l-2.3,0.5l-1.5,1.4l-0.8,2.4l-0.3,2.8l-2.8,1.5l-2.6,3.4l-1.7,2.7v1.6l-3.4,1.7l-5.3,1.6l-5.8,3.2l-3.9,2.5
	l-2.5-0.2l-4.6,4.6l-3.8,4.4l-15.7,9.4L26,340l-3.2,2L19.9,342.5L19.9,342.5z"/>
<polygon class="st1" points="723.9,492.6 723.2,490.4 721.6,489.4 719.9,489.4 719.7,487.5 721.2,485.8 723.7,486.7 725.1,488.6 
	725.1,491 "/>
<polygon class="st1" points="728.4,467.6 729,468.7 732.8,468.3 735.3,467.1 737.9,465.4 737.9,464.3 735.5,463.8 733.8,464.6 
	731.7,465.2 730.6,466.2 729.2,466.4 "/>
<polyline class="st2" points="78.2,309.5 81.9,309.5 82.8,312.3 84.3,312.9 89.5,313.2 93.8,321.4 98.7,325.4 105.7,325.1 
	110.3,323.3 115.5,320.5 117.3,322.6 121.6,319 125.9,318.7 128.3,317.1 132,317.5 138.1,315 138.1,317.5 195,319 195.9,324.8 
	205.3,324.8 205.3,317.8 211.5,317.1 211.5,312.6 227.3,312 227.7,301.6 217.6,301.6 217,290.3 219.4,288.7 219.1,277.4 
	222.5,277.4 221.5,268.2 204.7,267.3 207.2,265.8 207.2,262.1 190.1,260.6 190.4,266.1 188.2,266.4 187.9,271 186.1,271.3 
	184.9,299.7 182.7,304.6 179.1,307.7 177.8,312 176,317.1 164.7,317.8 138.1,317.1 "/>
<polyline class="st2" points="138.2,314.9 139.3,285.5 137.1,285.1 137.5,275.6 138.7,274 174.8,274.9 175.9,276.7 185.4,276.5 "/>
<polyline class="st2" points="140.7,274 141.1,248.3 138,248.3 136.2,246.5 134.4,248.1 132.6,246.3 131.2,247.4 129.6,249.7 
	127,247.2 125.2,245.6 122.5,247.7 118.9,247.6 116.4,248.6 111,249.2 108.7,251.5 106.6,254.6 104.2,254.7 101.5,253.3 
	100.3,250.8 97.6,248.8 91.5,248.6 "/>
<line class="st2" x1="141.8" y1="213.8" x2="140.5" y2="247.2"/>
<polyline class="st2" points="141.2,242.5 191.2,243.4 187.2,254.9 191,255.6 191,260.5 "/>
<line class="st2" x1="184.4" y1="214.9" x2="183.3" y2="243.4"/>
<polyline class="st2" points="221.4,268.2 228.4,267.5 228.9,256.5 259.8,256.4 260.2,260 297.4,258.9 296.8,263.9 295.8,267.1 
	296.5,275.8 297.6,280.1 297.9,283.7 295.2,287.3 295.4,292.3 296.3,297.2 299.2,301.5 301,305.6 301.9,308.3 320.6,307.9 
	321.1,309.2 337.4,308.7 337.4,290.1 330.4,280.6 320.9,280.3 320.7,261.6 318.2,261.8 317.9,249.4 320.2,248.5 318.9,231.2 
	308.3,230.7 307.4,210.7 "/>
<line class="st2" x1="239.2" y1="227.4" x2="238.4" y2="256.5"/>
<polyline class="st2" points="298.3,220.6 299.5,252.9 297.7,253.7 297.4,259.4 "/>
<polyline class="st2" points="275.5,259.8 275.3,277.2 273.7,277.9 273.8,290.1 276.2,290.9 277.3,296.4 280.3,300.7 280.7,307.4 
	280.5,327.3 274,328.4 271.9,327 271.1,324.3 261.4,324.8 261.3,321.2 258.9,323.4 257.7,322 258,313.7 227.1,312.2 "/>
<polyline class="st2" points="273.7,290.1 243.7,290.1 238.3,302.2 238.3,312.6 "/>
<polyline class="st2" points="261.4,324.6 262.7,350.3 274.2,350.3 275.6,348.4 294.9,348 295.2,354.1 299,353.9 299.7,355.6 
	305.1,355.4 305.3,350.2 299.4,350.2 299.2,317.5 308.5,317.1 302.2,308.7 "/>
<line class="st2" x1="280.8" y1="317.1" x2="299.4" y2="317.6"/>
<line class="st2" x1="83.4" y1="313.8" x2="80.8" y2="377.5"/>
<line class="st2" x1="153.2" y1="318.4" x2="150.1" y2="380"/>
<line class="st2" x1="204.6" y1="325.5" x2="202.1" y2="382.1"/>
<line class="st2" x1="273.4" y1="350" x2="273.9" y2="383.6"/>
<polyline class="st2" points="374.7,90.1 445.9,132.9 529.9,120.9 525.9,88.2 564.8,82.4 568.1,83.3 570.9,80.6 575.5,79.4 
	578.8,77.2 582.8,76.3 585.5,70.5 595.9,69.9 "/>
<polyline class="st2" points="474,17.9 474.3,21.9 481.6,22.8 492.6,117.6 491.1,118.5 492.3,125.8 "/>
<polyline class="st3" points="534.8,17 538.8,49.7 540.9,51.3 543.1,66.8 546.1,84.6 "/>
<polyline class="st2" points="463.6,131 471.2,203.2 463.6,220 493.5,233.7 511.9,231.6 512.2,234.6 521.1,234.3 522.3,230.7 
	529.6,230.7 521.7,171.7 594.1,160.7 "/>
<polyline class="st2" points="514.6,124 516.5,142 510,147.5 521.4,160.7 526.2,158.8 529.6,161.6 534.2,161.6 536.3,163.1 
	535.1,168.9 "/>
<polyline class="st2" points="411.6,112.7 403.4,126.7 408,130.7 406.1,138.1 402.5,138.4 402.8,143.6 397,144.2 383.5,154.3 
	376.5,154.3 375.9,164.6 381.7,165.6 384.1,204.1 404.3,211.1 441,187.6 436.1,128.3 "/>
<polyline class="st2" points="589.8,161.6 587.7,164 588,170.4 584.9,179.3 579.7,186 578.5,189.4 575.5,190.6 575.5,194.6 
	573,197.3 578.2,222.4 577.3,225.2 578.2,228.5 577.6,231 579.4,233.4 578.8,236.5 579.1,239.5 579.1,243.5 580,247.2 580,252.7 
	578.2,258.5 576.1,263.1 575.8,266.1 588,267 590.7,266.7 593.5,264.6 595.9,264.6 598.4,265.8 607.2,266.1 "/>
<polyline class="st2" points="441,187.9 445,221.8 441.6,223.6 438.5,224.2 437.9,229.7 443.4,233.4 445.6,233.1 443.7,238.3 
	432.4,255.7 433.3,276.2 433,280.2 439.8,279.3 443.7,273.8 460.5,283.5 463.3,275 476.1,279.3 484.7,283.2 490.2,282.9 
	500.9,289.6 516.2,288.1 535.1,272.8 533.6,262.4 493.2,262.7 474.6,256.3 472.1,250.5 475.5,246.2 478.6,240.7 477.7,226.4 "/>
<line class="st2" x1="475.5" y1="257.2" x2="474.3" y2="277.4"/>
<polyline class="st2" points="529.3,231.6 533,262.4 534.8,267 537.9,266.1 545.5,271.9 547.3,273.1 550.7,271.3 551.3,278.9 
	558.9,287.5 526.9,294.5 525.3,296.7 518.6,296.4 516.5,293.9 516.5,291.2 519.5,290.9 520.4,285.4 "/>
<polyline class="st2" points="527.5,215.1 551.6,211.4 553.8,218.1 557.4,222.7 556.2,228.2 556.8,229.7 560.5,229.7 562.3,231.9 
	564.1,231 564.8,228.2 567.5,225.8 569.6,225.8 571.5,227.3 572.1,223.9 575.1,222.4 577.3,222.4 "/>
<polyline class="st2" points="559.3,287.5 562.3,285.7 565.4,283.8 567.8,282.6 568.7,285.7 571.2,287.5 573,284.8 573,280.5 
	572.4,275.6 571.8,272.8 573.9,268.2 576.1,266.1 "/>
<polyline class="st2" points="345.3,178.4 359.6,180.5 360.6,175.7 382,177.7 "/>
<polyline class="st2" points="319.8,234.5 334.1,234.5 337.5,237.5 338.5,232.8 342.2,236.9 343.9,233.8 342.6,229.4 344.6,229.4 
	348,232.4 352.1,233.8 355.5,237.5 361.6,239.9 366.7,240.9 370.8,243 374.5,244 377.2,242.6 382.3,240.9 385,242.6 389.1,244.3 
	394.2,250.1 394.9,252.1 397.9,253.8 398.6,258.3 402.4,258.6 403.4,270.1 411.9,270.8 412.9,278.6 429.9,278.3 432.6,275.9 "/>
<polyline class="st2" points="384,204.2 379.3,202.9 372.5,222.2 374.8,223.6 372.8,242.3 "/>
<polyline class="st2" points="364.2,240.4 364.4,244.8 366.2,246.3 364.4,248.3 364.2,250.4 365.7,251.4 369.5,251.4 371.3,288.1 
	375.9,352.7 377.2,355 394.5,354 395.8,360.9 415.4,360.9 415.6,346.6 417.4,341.8 416.1,339.5 417.9,334.9 418.4,330.8 
	416.4,325.5 417.6,320.9 419.9,316.8 422.5,316.1 423.2,312.5 421.7,312 421.7,310.2 423.2,308.2 422.5,301.1 425.5,297.7 
	426.6,292.9 429.6,287.3 430.1,278.1 "/>
<polyline class="st2" points="305.6,349.9 317.8,349.9 319.1,352.2 323.9,352.2 324.5,345.9 329.5,345.6 330.8,347.1 335.4,346.9 
	335.9,348.9 339.2,348.7 339,344.1 340.5,342 339.7,340.3 337.2,339 335.4,338.5 335.1,335.2 338.7,334.7 373.1,333.9 374.6,334.2 
	"/>
<line class="st2" x1="371" y1="288.1" x2="338.2" y2="289.6"/>
<polyline class="st2" points="312.5,350.2 313,365.5 310.7,366 310.7,370.6 311.5,373.4 312.7,376.2 312.5,379.2 310.7,381.8 
	310.2,384.6 "/>
<line class="st2" x1="337.7" y1="309.2" x2="339" y2="333.9"/>
<polyline class="st2" points="349.9,335.2 350.7,339.8 351.7,344.8 352.5,348.2 354.5,351.2 353.7,353.5 355.3,357.6 354,362.2 
	351.4,361.9 352,384.1 "/>
<polyline class="st2" points="372.1,296.2 412.8,293.2 413.8,294.4 425.5,293.9 "/>
<polyline class="st2" points="416.1,345.6 425,345.4 429.2,339.5 433.2,339.3 435.4,337.9 435.8,340 438.9,338.1 442.2,336.9 
	443.3,333.6 446.2,332 451.1,332 452,329.6 454.6,329.6 455.8,326.1 459.6,326.1 465.9,321.9 470.1,321.6 470.4,322.8 474.4,322.6 
	476,320.7 478.8,320.7 488,332.5 504.7,340.9 506.8,338.6 510.8,338.8 513.1,340.9 519,339 521.4,334.6 519.7,332 522.1,325.6 
	523,317.4 521.4,316.2 522.1,313 527.5,302.4 527.9,294.2 "/>
<polyline class="st2" points="483.8,282.9 483,286.9 482.6,290.6 482.6,294.2 485.6,304.7 485.9,308 478.8,320.5 "/>
<line class="st2" x1="521.6" y1="334.1" x2="601.7" y2="319.3"/>
<polyline class="st2" points="563.9,325.6 563.4,321.9 565.8,317.6 565.5,308 566.9,302.1 569.8,295.8 572.3,288 "/>
<polyline class="st2" points="504.9,341.1 495.3,359.5 515.5,370.3 538,371.2 540.4,362.8 543,363.5 544.6,361.6 552.6,367 
	553.1,363.7 557.8,359.5 558.5,354.1 563.6,350.3 563.9,340.9 562.5,340.4 562.5,334.8 563.9,326.1 "/>
<polyline class="st4" points="414.6,361.5 414.6,379.5 417,384.3 "/>
<polyline class="st2" points="441.8,402.3 494.4,369.3 495.4,366.3 498.5,367 502.6,363.2 "/>
<polyline class="st2" points="473,382.6 502.9,399.6 493.1,415.2 509.7,428.1 511.4,433.5 514.8,433.2 520.2,428.8 522.3,428.8 
	523.3,432.2 533.2,434.6 533.2,431.5 540.3,432.2 540.6,435.6 543.7,435.6 546.4,434.2 548.8,434.2 551.2,429.5 550.5,422.3 
	550.5,415.9 551.5,413.2 550.8,411.5 551.5,397.9 547.8,395.2 550.8,380.5 550.1,378.2 552.2,373.4 552.5,366.6 "/>
<polyline class="st2" points="552.2,374.8 571.2,382.6 587.2,383.9 588.2,377.2 590.9,376.1 "/>
<polyline class="st2" points="549.8,434.2 547.1,439 545.4,449.9 547.8,452.6 551.5,457.3 548.1,467.2 588.2,460.4 "/>
<polyline class="st2" points="476.4,454.3 475.4,451.6 477.4,449.5 474.7,447.1 501.9,444.8 505.6,437.6 511.8,433.9 "/>
<polyline class="st2" points="547.8,451.6 552.2,446.1 588.9,440 "/>
<polyline class="st2" points="525.7,487.9 547.1,467.2 551.2,470.2 548.8,474.3 556.6,487.2 556.9,506.9 "/>
<polyline class="st2" points="555.7,515.5 558.7,517.7 562,517.5 563.6,519.3 567.6,519.5 "/>
<polyline class="st2" points="553.9,520.5 555.9,521.3 554.1,526.1 554.4,530 556.9,531.7 560.2,531.2 562.3,529.7 566.6,529.5 
	569.9,530.5 576.3,536.1 576,538.1 573,540.4 573.6,545 573.8,547.9 570.2,550.7 570.2,552.1 572.4,553.4 573,555.2 "/>
<polyline class="st2" points="555.9,531.6 551.9,536.5 551.9,539.3 550.8,541.8 548.2,543.8 547.4,545.2 "/>
<polyline class="st3" points="556.9,557.4 560.4,557.4 563.3,554.2 563.9,550.3 561.8,548.9 562,544.6 560.4,542.8 558.8,544.4 
	555.9,541.3 553.7,538.9 552.3,538.1 "/>
<polyline class="st2" points="594.8,514.7 596.7,516.5 596.9,521 599.3,524 602.8,544.6 602.4,550.9 "/>
<polyline class="st4" points="529,569.5 532.5,568.8 536.4,567 541.9,566 546.4,564.6 550.8,564 554.3,562.7 558.4,565.6 "/>
<polyline class="st4" points="545.1,564.8 545.1,560.9 549.2,558.9 "/>
</svg>
