<?xml version="1.0" encoding="utf-8"?>
<!-- Generator: Adobe Illustrator 25.4.1, SVG Export Plug-In . SVG Version: 6.00 Build 0)  -->
<svg version="1.1" id="Layer_1" xmlns="http://www.w3.org/2000/svg" xmlns:xlink="http://www.w3.org/1999/xlink" x="0px" y="0px"
	 width="43.4px" height="50.2px" viewBox="0 0 43.4 50.2" style="enable-background:new 0 0 43.4 50.2;" xml:space="preserve">
<style type="text/css">
	.st0{fill:#09445E;}
</style>
<g>
	<g>
		<g>
			<path class="st0" d="M37.5,50.2H5.9c-1.8,0-3.5-0.8-4.6-2.2c-1.1-1.4-1.5-3.2-1.1-5l1.1-5c0.7-2.9,3-5,5.9-5.3V20.5
				c0-2.9,0.9-5.7,2.5-8.1c0.3-0.4,0.8-0.5,1.1-0.2c0.4,0.3,0.5,0.8,0.2,1.1c-1.4,2.1-2.2,4.6-2.2,7.2v13c0,0.4-0.4,0.8-0.8,0.8
				c-2.5,0-4.6,1.7-5.2,4.1l-1.1,5c-0.3,1.3,0,2.6,0.8,3.6c0.8,1,2,1.6,3.3,1.6h31.7c1.3,0,2.5-0.6,3.3-1.6c0.8-1,1.1-2.3,0.8-3.6
				l-1.1-5c-0.6-2.4-2.7-4.1-5.2-4.1c-0.4,0-0.8-0.4-0.8-0.8v-13c0-2.5-0.7-4.9-2-7c-0.2-0.4-0.1-0.9,0.2-1.1
				c0.4-0.2,0.9-0.1,1.1,0.2c1.5,2.3,2.3,5,2.3,7.8v12.2c2.9,0.3,5.3,2.4,5.9,5.3l1.1,5c0.4,1.7,0,3.6-1.1,5
				C41,49.4,39.3,50.2,37.5,50.2z"/>
		</g>
		<g>
			<path class="st0" d="M32,19.9c0,0-0.1,0-0.1,0c-0.4-0.1-0.8-0.5-0.7-0.9l0,0c-2.5-0.3-4.6-2.1-5.4-4.5c-1.2,1-2.4,1.9-3.7,2.6
				c-0.4,0.2-0.9,0.1-1.1-0.3c-0.2-0.4-0.1-0.9,0.3-1.1c1.6-0.9,3-2,4.3-3.3c0.2-0.2,0.6-0.3,0.9-0.2c0.3,0.1,0.5,0.3,0.6,0.6
				l0.1,0.6c0.4,2.3,2.5,4,4.9,4c0.2,0,0.5,0.1,0.6,0.3c0.2,0.2,0.2,0.4,0.2,0.7l-0.1,0.9C32.7,19.6,32.4,19.9,32,19.9z"/>
		</g>
		<g>
			<path class="st0" d="M21.7,35.6c-6.1,0-11.1-5-11.1-11.1V19c0-0.4,0.4-0.8,0.8-0.8c3.5,0,6.9-0.9,9.9-2.6
				c0.4-0.2,0.9-0.1,1.1,0.3c0.2,0.4,0.1,0.9-0.3,1.1c-3,1.7-6.4,2.6-9.9,2.8v4.6c0,5.2,4.2,9.5,9.5,9.5c5.2,0,9.5-4.2,9.5-9.5V19
				c0-0.4,0.4-0.8,0.8-0.8s0.8,0.4,0.8,0.8v5.4C32.8,30.6,27.8,35.6,21.7,35.6z"/>
		</g>
		<g>
			<path class="st0" d="M21.7,42.5c-8.9,0-11-7.4-11.1-7.5c-0.1-0.4,0.1-0.9,0.6-1c0.4-0.1,0.9,0.1,1,0.6c0.1,0.3,1.9,6.3,9.5,6.3
				c7.7,0,9.5-6.2,9.5-6.3c0.1-0.4,0.6-0.7,1-0.6c0.4,0.1,0.7,0.6,0.6,1C32.7,35,30.6,42.5,21.7,42.5z"/>
		</g>
		<g>
			<path class="st0" d="M10.7,35.3c-0.8,0-1.6-0.2-2.4-0.6l-0.8-0.5c-0.4-0.2-0.5-0.7-0.3-1.1c0.2-0.4,0.7-0.5,1.1-0.3l0.8,0.5
				c1.3,0.8,3.1,0.4,4-0.8l0.7-1c0.3-0.4,0.8-0.4,1.1-0.2c0.4,0.3,0.4,0.8,0.2,1.1l-0.7,1C13.6,34.6,12.2,35.3,10.7,35.3z"/>
		</g>
		<g>
			<path class="st0" d="M32.7,35.3c-1.4,0-2.9-0.7-3.8-1.9l-0.7-1c-0.3-0.4-0.2-0.9,0.2-1.1c0.4-0.3,0.9-0.2,1.1,0.2l0.7,1
				c0.9,1.3,2.6,1.6,4,0.8l0.8-0.5c0.4-0.2,0.9-0.1,1.1,0.3c0.2,0.4,0.1,0.9-0.3,1.1L35,34.6C34.3,35.1,33.5,35.3,32.7,35.3z"/>
		</g>
	</g>
	<g>
		<g>
			<path class="st0" d="M31.2,12.5c-0.1,0-0.2,0-0.3-0.1c0,0-4.5-1.8-8.8-1.9c-4.3,0.1-8.7,1.9-8.7,1.9c-0.4,0.2-0.8,0-1-0.3L9,6.4
				C8.8,6.1,8.8,5.7,9,5.5c0.2-0.2,4.4-5.3,13-5.5c0,0,0,0,0,0c8.6,0.2,12.8,5.2,13,5.5c0.2,0.3,0.2,0.6,0.1,0.9l-3.3,5.7
				C31.7,12.4,31.4,12.5,31.2,12.5z M22.1,8.9c3.7,0.1,7.3,1.3,8.7,1.8l2.7-4.6C32.3,5,28.5,1.8,22.1,1.6
				c-6.5,0.1-10.3,3.3-11.4,4.5l2.7,4.6C14.8,10.2,18.4,9,22.1,8.9z"/>
		</g>
		<g>
			<g>
				<path class="st0" d="M22.1,7.9c-0.4,0-0.8-0.4-0.8-0.8V3.5c0-0.4,0.4-0.8,0.8-0.8s0.8,0.4,0.8,0.8v3.6
					C22.9,7.6,22.5,7.9,22.1,7.9z"/>
			</g>
			<g>
				<path class="st0" d="M23.9,6.1h-3.6c-0.4,0-0.8-0.4-0.8-0.8c0-0.4,0.4-0.8,0.8-0.8h3.6c0.4,0,0.8,0.4,0.8,0.8
					C24.7,5.8,24.3,6.1,23.9,6.1z"/>
			</g>
		</g>
	</g>
</g>
</svg>
