<?xml version="1.0" encoding="utf-8"?>
<!-- Generator: Adobe Illustrator 23.0.5, SVG Export Plug-In . SVG Version: 6.00 Build 0)  -->
<svg version="1.1" id="Layer_1" xmlns="http://www.w3.org/2000/svg" xmlns:xlink="http://www.w3.org/1999/xlink" x="0px" y="0px"
	 width="64.4px" height="54.2px" viewBox="0 0 64.4 54.2" style="enable-background:new 0 0 64.4 54.2;" xml:space="preserve">
<style type="text/css">
	.st0{opacity:0.3;fill:#CE116C;enable-background:new    ;}
	.st1{fill:#2866AB;}
</style>
<circle class="st0" cx="23.2" cy="24.9" r="22.4"/>
<g>
	<path class="st1" d="M23.4,38.9l2.7,1.5c0.1,0.1,0.2,0.1,0.4,0.1c0.3,0,0.5-0.1,0.7-0.4c0.2-0.4,0.1-0.8-0.3-1l-2.7-1.5
		c-0.4-0.2-0.8-0.1-1,0.3C22.9,38.3,23,38.7,23.4,38.9z"/>
	<path class="st1" d="M26.4,41.6h-2.9c-0.4,0-0.8,0.3-0.8,0.8s0.3,0.8,0.8,0.8h2.9c0.4,0,0.8-0.3,0.8-0.8S26.8,41.6,26.4,41.6z"/>
	<path class="st1" d="M26.1,43.6l-2.7,1.5c-0.4,0.2-0.5,0.7-0.3,1c0.1,0.2,0.4,0.4,0.7,0.4c0.1,0,0.3,0,0.4-0.1l2.7-1.5
		c0.4-0.2,0.5-0.7,0.3-1C26.9,43.5,26.4,43.4,26.1,43.6z"/>
	<path class="st1" d="M49.6,7.6c-0.9-2.1-3.1-3.9-5.4-3.3c-0.4,0.1-0.7,0.3-1,0.5c-1,0.7-1.6,1.8-1.7,2.9c-0.1,0.7,0.1,1.4,0.3,2
		c-1.8,0.6-4.9,2-5.8,4.9h0.1c-0.2,0.9-0.3,3.4-0.5,11.2c-0.6,0.1-1.2,0.3-1.8,0.6c-0.2,0.1-0.5,0.2-0.7,0.4
		c-0.3,0.2-0.6,0.3-0.8,0.4h-0.1c-0.3,0-0.5-0.2-0.9-0.4c-0.2-0.1-0.4-0.3-0.7-0.4c-0.4-0.2-1.1-0.4-1.8-0.5
		c-0.2-7.7-0.3-10.3-0.5-11.2h0.1c-0.9-2.9-4.1-4.3-5.8-4.9c0.2-0.6,0.4-1.2,0.3-2c-0.1-1.2-0.7-2.2-1.7-2.9c-0.3-0.2-0.6-0.4-1-0.5
		c-2.3-0.6-4.5,1.2-5.4,3.3c-1,2.2-1.2,4.8-0.7,7.2c0.3,1.2,0.7,2.4,1.4,3.4l0.1,0.2c0.4,0.7,0.9,1.5,1.6,2c0.6,0.4,1.3,0.6,2,0.6
		c0.5,0,0.9-0.1,1.3-0.2c1.5-0.5,2.7-1.6,2.9-3c0.2-1.1-0.3-2-0.7-2.8c-0.1-0.1-0.1-0.3-0.2-0.4c0.8,0.2,1.7,0.7,1.9,1.9l0,0
		c-0.1,0.9-0.1,3.5,0,10.6c-0.9,0.8-1.5,1.8-1.7,3c-0.2,1.4,0.1,2.8,0.9,4s1.9,2.4,3.3,3.2c1.1,0.6,2.1,1,3,1.3v0.7
		c-0.5,0.5-1.4,1.6-1.4,3c0,1,0.5,2,1.4,2.9c0,0.7,0,2.5,0,4.2v0.8h0.6H34h0.6v-0.8c0-1.7-0.1-3.5,0-4.2c0.9-0.9,1.4-1.8,1.4-2.9
		c0-1.4-0.9-2.6-1.4-3v-0.7c1-0.3,2-0.7,3-1.3c1.4-0.8,2.6-1.9,3.3-3.2c0.8-1.2,1.1-2.6,0.9-4c-0.1-1.2-0.8-2.2-1.7-3
		c0-7.1,0-9.6,0-10.6l0,0c0.2-1.2,1.1-1.7,1.9-1.9c-0.1,0.1-0.1,0.3-0.2,0.4c-0.4,0.8-0.9,1.7-0.7,2.8c0.2,1.4,1.4,2.5,2.9,3
		c0.4,0.1,0.8,0.2,1.3,0.2c0.7,0,1.4-0.2,2-0.6c0.7-0.5,1.2-1.3,1.6-2l0.1-0.2c0.6-1,1.1-2.2,1.4-3.4C50.9,12.4,50.6,9.8,49.6,7.6z
		 M21.8,17.5c-0.2,0.9-1,1.6-1.8,1.8c-0.6,0.2-1.4,0.2-1.9-0.2c-0.5-0.3-0.8-1-1.2-1.6l-0.1-0.2c-0.5-0.9-0.9-1.9-1.2-3
		c-0.5-2.1-0.3-4.4,0.6-6.3c0.5-1.1,1.7-2.6,3.2-2.6c0.2,0,0.4,0,0.5,0.1c0.2,0,0.3,0.1,0.5,0.2c0.7,0.5,1.1,1.2,1.1,1.9
		c0,0.8-0.2,1.4-0.5,2c-0.2,0.4-0.4,0.9-0.5,1.4c-0.2,0.8-0.2,1.7-0.1,2.5c0.1,0.5,0.2,0.9,0.4,1.4c0.1,0.3,0.3,0.5,0.4,0.8
		C21.6,16.3,21.9,16.9,21.8,17.5z M25.8,16.2c-0.4-2.3-2.3-3.1-3.9-3.3c-0.1-0.5,0-1.1,0.1-1.6c0-0.1,0.1-0.2,0.1-0.3
		c1.5,0.5,4.2,1.6,5,3.9c0.1,0.7,0.3,6.5,0.4,10.7c-0.5,0.1-1.1,0.2-1.6,0.5c0-3.3,0-7.4,0-9h0.2L25.8,16.2z M33.4,44.1
		c-0.4,0.2-0.4,0.5-0.3,4.4h-1.6c0.1-4,0.1-4.2-0.3-4.4c-0.7-0.6-1-1.2-1-1.9c0-1.2,1.1-2.1,1.1-2.2l0.3-0.2v-1.1
		c0.2,0,0.5,0.1,0.7,0.1c0.1,0,0.1,0,0.2,0c0.3,0,0.5,0,0.8-0.1v1.1l0.3,0.2c0,0,1.1,1,1.1,2.1C34.4,42.9,34.1,43.5,33.4,44.1z
		 M40.3,30.2c0.1,1-0.1,2.1-0.7,3c-0.6,1-1.6,2-2.8,2.6c-1.7,0.9-3.1,1.4-4.6,1.4c-1.4,0-2.8-0.4-4.6-1.4c-1.2-0.7-2.2-1.6-2.8-2.6
		c-0.6-1-0.8-2-0.7-3c0.2-1.8,2.3-3.1,4-3.1h0.1c0.5,0,1.1,0.2,1.9,0.5c0.2,0.1,0.3,0.2,0.5,0.3c0.4,0.2,0.8,0.5,1.4,0.6
		c0.1,0,0.2,0,0.3,0c0.6,0,1.2-0.3,1.6-0.6c0.2-0.1,0.3-0.2,0.5-0.3c0.6-0.3,1.3-0.5,1.9-0.5C38,27.1,40.1,28.4,40.3,30.2z
		 M38.6,16.2l-0.2,0.9h0.2c0,1.6,0,5.7,0,9c-0.5-0.2-1.1-0.4-1.6-0.5c0.1-4.2,0.3-10,0.4-10.7c0.7-2.3,3.5-3.4,5-3.9
		c0,0.1,0.1,0.2,0.1,0.3c0.1,0.5,0.1,1.1,0.1,1.6C40.9,13.1,39,13.9,38.6,16.2z M48.9,14.5c-0.2,1.1-0.6,2.1-1.2,3l-0.1,0.2
		c-0.3,0.6-0.7,1.2-1.2,1.5c-0.5,0.4-1.3,0.4-1.9,0.2c-0.8-0.2-1.7-0.9-1.8-1.8c-0.1-0.6,0.2-1.2,0.5-1.9c0.1-0.3,0.3-0.5,0.4-0.8
		c0.2-0.4,0.3-0.9,0.4-1.4c0.1-0.8,0.1-1.7-0.1-2.5c-0.1-0.5-0.3-0.9-0.5-1.4c-0.3-0.6-0.5-1.2-0.5-1.8C43,7.1,43.4,6.4,44,5.9
		c0.1-0.1,0.3-0.2,0.5-0.2c1.7-0.4,3.2,1.3,3.7,2.5C49.1,10.1,49.3,12.3,48.9,14.5z"/>
	<path class="st1" d="M38,40.5c0.1,0,0.3,0,0.4-0.1l2.7-1.5c0.4-0.2,0.5-0.7,0.3-1c-0.2-0.4-0.7-0.5-1-0.3l-2.7,1.5
		c-0.4,0.2-0.5,0.7-0.3,1C37.5,40.4,37.7,40.5,38,40.5z"/>
	<path class="st1" d="M40.9,41.6H38c-0.4,0-0.8,0.3-0.8,0.8s0.3,0.8,0.8,0.8h2.9c0.4,0,0.8-0.3,0.8-0.8S41.3,41.6,40.9,41.6z"/>
	<path class="st1" d="M41,45.1l-2.7-1.5c-0.4-0.2-0.8-0.1-1,0.3c-0.2,0.4-0.1,0.8,0.3,1l2.7,1.5c0.1,0.1,0.2,0.1,0.4,0.1
		c0.3,0,0.5-0.1,0.7-0.4C41.5,45.8,41.4,45.3,41,45.1z"/>
</g>
</svg>
