<?xml version="1.0" encoding="utf-8"?>
<!-- Generator: Adobe Illustrator 23.0.5, SVG Export Plug-In . SVG Version: 6.00 Build 0)  -->
<svg version="1.1" id="Layer_1" xmlns="http://www.w3.org/2000/svg" xmlns:xlink="http://www.w3.org/1999/xlink" x="0px" y="0px"
	 width="60px" height="52.3px" viewBox="0 0 60 52.3" style="enable-background:new 0 0 60 52.3;" xml:space="preserve">
<style type="text/css">
	.st0{fill:#2866AB;}
	.st1{opacity:0.3;fill:#CE116C;}
</style>
<path class="st0" d="M59.7,37.6l-0.9-4.1c-0.5-2.4-2.5-4.1-4.9-4.4V19c0-2.3-0.7-4.6-1.9-6.5c-0.2-0.3-0.6-0.4-0.9-0.2
	s-0.4,0.6-0.2,0.9c1.1,1.8,1.7,3.7,1.7,5.8v10.5l-0.1,0.1c-1.1,0.6-2.6,0.3-3.3-0.7l-0.3-0.5c1.5-1.6,2.4-3.8,2.3-6.1V18
	c0-0.1,0.1-0.1,0.1-0.2l0.1-0.8c0-0.2-0.1-0.4-0.2-0.5c-0.1-0.1-0.3-0.2-0.5-0.2c-1.9,0.1-3.7-1.4-4-3.3l-0.1-0.5
	c0-0.3-0.3-0.4-0.5-0.5c-0.2-0.1-0.5,0-0.7,0.2c-1.1,1-2.3,2-3.6,2.7c-0.1,0.1-0.2,0.2-0.3,0.2c-2.4,1.3-5.1,2-7.9,2
	c-0.4,0-0.7,0.3-0.7,0.7v4.5c0,2.4,0.9,4.6,2.4,6.2L35,28.9c-0.8,1.1-2.2,1.4-3.3,0.7l-0.3-0.2V19c0-2.2,0.7-4.2,1.9-6
	c0.2-0.3,0.1-0.7-0.2-0.9s-0.8-0.2-1.1,0.2c-1.3,2-2,4.3-2,6.7v10.2c-2.4,0.3-4.3,2-4.9,4.4l-0.9,4.1c-0.4,1.4,0,2.9,0.9,4.1
	c0.9,1.1,2.3,1.8,3.8,1.8h26.3c1.5,0,2.9-0.7,3.6-1.9C59.7,40.5,60,39,59.7,37.6z M34.2,22.3v-3.8c2.9-0.1,5.7-0.9,8.2-2.3
	c0.1-0.1,0.2-0.2,0.3-0.3c1-0.6,1.9-1.3,2.8-2c0.6,2,2.3,3.4,4.3,3.7c0,0.1,0,0.1,0,0.2v4.5c0,4.3-3.5,7.8-7.8,7.8
	C37.7,30.1,34.2,26.6,34.2,22.3z M36.1,29.6l0.1-0.2c1.6,1.3,3.6,2.1,5.9,2.1c2.2,0,4.2-0.8,5.8-2.1l0.2,0.2
	c0.4,0.6,1.1,1.1,1.8,1.3c-0.4,1-2.2,5-7.8,5c-5.6,0-7.4-3.9-7.8-4.9C35,30.7,35.7,30.3,36.1,29.6z M57.8,41
	c-0.6,0.8-1.6,1.3-2.7,1.3H28.9c-1,0-2-0.5-2.7-1.3c-0.7-0.9-0.9-2-0.7-3l0.9-4.1c0.5-2,2.2-3.4,4.3-3.4c0,0,0.1,0,0.1,0l0.3,0.2
	c0.6,0.3,1.2,0.5,1.9,0.5c0.4,1,2.4,6,9.1,6c6.5,0,8.7-5,9.1-6c0.6,0,1.3-0.2,1.9-0.5l0.3-0.2c2,0.1,3.7,1.4,4.2,3.4l0.9,4.1
	C58.7,39.1,58.5,40.2,57.8,41z"/>
<path class="st0" d="M34.3,12c0.1,0.3,0.5,0.4,0.8,0.3c0,0,3.7-1.5,7.2-1.6c3.6,0.1,7.3,1.6,7.3,1.6c0.1,0.1,0.2,0.1,0.3,0.1
	c0.2,0,0.5-0.1,0.6-0.4l2.8-4.7c0.1-0.3,0.1-0.6-0.1-0.8C53,6.3,49.5,2.2,42.4,2c-7.2,0.2-10.7,4.3-10.8,4.5
	c-0.2,0.2-0.2,0.5-0.1,0.8L34.3,12z M42.4,3.3c5.3,0.1,8.4,2.8,9.4,3.7l-2.2,3.9c-1.2-0.4-4.1-1.4-7.2-1.5c-3.1,0.1-6,1-7.3,1.4
	L32.9,7C33.9,6.1,37,3.5,42.4,3.3z"/>
<path class="st0" d="M40.9,7.1h0.8v0.8c0,0.4,0.3,0.7,0.7,0.7c0.4,0,0.7-0.3,0.7-0.7V7.1h0.8c0.4,0,0.7-0.3,0.7-0.7
	c0-0.4-0.3-0.7-0.7-0.7h-0.8V4.9c0-0.4-0.3-0.7-0.7-0.7c-0.4,0-0.7,0.3-0.7,0.7v0.8h-0.8c-0.4,0-0.7,0.3-0.7,0.7
	C40.2,6.8,40.5,7.1,40.9,7.1z"/>
<circle class="st1" cx="24" cy="24.4" r="22.4"/>
</svg>
