<?xml version="1.0" encoding="utf-8"?>
<!-- Generator: Adobe Illustrator 23.0.5, SVG Export Plug-In . SVG Version: 6.00 Build 0)  -->
<svg version="1.1" id="Layer_1" xmlns="http://www.w3.org/2000/svg" xmlns:xlink="http://www.w3.org/1999/xlink" x="0px" y="0px"
	 viewBox="0 0 952.6 648.6" style="enable-background:new 0 0 952.6 648.6;" xml:space="preserve">
<style type="text/css">
	.st0{fill:#2866AB;}
	.st1{fill:none;}
	.st2{fill:#62BAD1;}
	.st3{fill:#DD1F75;}
	.st4{fill:#422963;}
</style>
<path class="st0" d="M392.3,171.9c7.4,35,18.5,79,25.1,103.8c2.4,8.8,14.7,9.6,18.3,1.1c16-37.8,31.5-67,46.2-98.4
	c7.1-15.1,7.4-34.3-3.4-47.1c-13.6-16.2-36.9-36-76.5-49.4c-15.2-5.2-26.7,5.9-24.6,21.6C380.8,127.5,385.5,139.4,392.3,171.9"/>
<path class="st1" d="M187.1,197c-48.5,0-87.8,39.3-87.8,87.8c0,48.5,39.3,87.8,87.8,87.8c48.5,0,87.8-39.3,87.8-87.8
	C275,236.3,235.7,197,187.1,197z"/>
<path class="st0" d="M493.8,570.6c148.9-244.4,302.5-400.9,366.4-465.8c9.9-10.1,7.9-25-1.7-35.4C812.8,19.9,625.8-3.4,583.8,81.7
	c-42.8,86.7-107.3,214.1-172,394.4c-18.7,52.1-36,115.2-51.1,172.5h85.9C462.3,622.5,478.3,596,493.8,570.6z"/>
<path class="st2" d="M777.6,495.8c35.9-7.1,66.1-12.7,78-13.8c14.5-1.4,27.7-8.2,37.2-19c14.5-16.5,20.6-24.5,30.8-44.4
	c5.2-10.2,23.8-48.2,28.2-98.9c5.6-64.1-21.5-119.6-44-147.9c-10.3-12.9-27.4-17.7-39.2-6.1c-53.4,52.6-136,141.6-265.3,333.3
	c38.3-11.3,124.4-33.1,159.6-35.7C780.2,461.8,788.4,483.1,777.6,495.8z"/>
<path class="st3" d="M776.2,497.3c0.5-0.5,1-1,1.4-1.5c-70.5,14-162.7,34.2-179.4,39.7c-8.2,2.7-15.1-6.4-10.4-13.5
	c5.2-7.9,10.4-15.6,15.5-23.1c-5.2,1.5-9.5,2.9-12.7,4c-49.1,13.6-54.5,14.9-94.9,76c-15.2,24.4-29.3,47.7-42.5,69.8h162.8
	L776.2,497.3z"/>
<path class="st3" d="M598.2,535.5c16.7-5.5,108.9-25.7,179.4-39.7c10.8-12.7,2.5-33.9-14.7-32.6c-35.2,2.6-121.3,24.4-159.6,35.7
	c-5.1,7.6-10.3,15.2-15.5,23.1C583.1,529.1,590.1,538.2,598.2,535.5z"/>
<path class="st4" d="M362.8,435.8c16.1-66.3,19.8-67,12.1-127.9c-4.1-32.5-26.5-98.5-32.7-128.2c-10.7-50.6-16.4-91.8-19.3-124.3
	c-0.8-9-7.9-16.1-17-17.2c-10.3-1.3-20.6-2-30.9-2c-66.5,0-124.8,25.8-175.2,77.4c-101,103.2-101,272,0,375.2l129.8,159.8h81.2
	C331.4,569.8,362.8,436.2,362.8,435.8z M187.1,372.7c-48.5,0-87.8-39.3-87.8-87.8c0-48.5,39.3-87.8,87.8-87.8
	c48.5,0,87.8,39.3,87.8,87.8C275,333.3,235.7,372.7,187.1,372.7z"/>
</svg>
