<?xml version="1.0" encoding="utf-8"?>
<!-- Generator: Adobe Illustrator 23.0.5, SVG Export Plug-In . SVG Version: 6.00 Build 0)  -->
<svg version="1.1" id="Layer_1" xmlns="http://www.w3.org/2000/svg" xmlns:xlink="http://www.w3.org/1999/xlink" x="0px" y="0px"
	 viewBox="0 0 320 282.3" style="enable-background:new 0 0 320 282.3;" xml:space="preserve">
<style type="text/css">
	.st0{fill:#2866AB;}
	.st1{fill:#62BAD1;}
	.st2{fill:#DD1F75;}
	.st3{fill:#422963;}
</style>
<g>
	<path class="st0" d="M137.1,153.6c-10,28-18.7,66.5-24.7,86.6c-1.1,3.7,0.2,8.5,2.6,10.4c2.4,1.9,6.1,2.1,9.8-5.1
		c8.7-17.1,23.5-41.7,36.9-63.6c44.6-73.2,90.5-120,109.7-139.4c3-3,2.4-7.5-0.5-10.6C257.1,17,201.2,10,188.6,35.5
		C175.8,61.5,156.5,99.6,137.1,153.6"/>
	<path class="st1" d="M273.9,60.6c-16.6,16.4-42.7,44.5-84.1,106.7c-1.4,2.1,0.7,4.8,3.1,4c7.5-2.5,66.5-15,77.1-16
		c4.3-0.4,8.3-2.5,11.1-5.7c4.3-4.9,6.2-7.3,9.2-13.3c1.6-3.1,7.1-14.4,8.5-29.6c1.7-19.2-6.4-35.8-13.2-44.3
		C282.5,58.6,277.4,57.1,273.9,60.6"/>
	<path class="st2" d="M190.6,188.5c-14.7,4.1-16.3,4.5-28.4,22.7c-8.9,14.3-16.7,27.4-23.4,39c-1.2,2.1-0.9,4.7,0.8,6.5
		c8.1,8.8,22.8,9.4,31.4,1l75.2-71c3.8-3.7,1.4-10.6-4-10.2C230.2,177.5,198.6,185.8,190.6,188.5"/>
	<path class="st0" d="M131.3,62.5c2.2,10.5,5.5,23.6,7.5,31.1c0.7,2.6,4.4,2.9,5.5,0.3c4.8-11.3,9.4-20.1,13.8-29.5
		c2.1-4.5,2.2-10.3-1-14.1c-4.1-4.8-11-10.8-22.9-14.8c-4.6-1.5-8,1.8-7.4,6.5C127.8,49.2,129.2,52.8,131.3,62.5"/>
	<path class="st3" d="M103.1,218.6c-1.1,3.5-5.6,4.5-8.2,1.9l-51.2-63.1c-30.2-30.9-30.2-81.4,0-112.3
		c15.1-15.4,32.5-23.2,52.4-23.2c3.1,0,6.2,0.2,9.3,0.6c2.7,0.3,4.8,2.5,5.1,5.2c0.9,9.7,2.6,22.1,5.8,37.2
		c1.9,8.9,8.6,28.6,9.8,38.4c2.3,18.3,1.2,18.5-3.6,38.3C122.4,141.6,108,203.1,103.1,218.6 M96.1,96.3C96.1,81.8,84.4,70,69.8,70
		c-14.5,0-26.3,11.8-26.3,26.3c0,14.5,11.8,26.3,26.3,26.3C84.4,122.6,96.1,110.8,96.1,96.3"/>
</g>
</svg>
