<?xml version="1.0" encoding="utf-8"?>
<!-- Generator: Adobe Illustrator 23.0.5, SVG Export Plug-In . SVG Version: 6.00 Build 0)  -->
<svg version="1.1" id="Layer_1" xmlns="http://www.w3.org/2000/svg" xmlns:xlink="http://www.w3.org/1999/xlink" x="0px" y="0px"
	 viewBox="0 0 29.1 30.4" style="enable-background:new 0 0 29.1 30.4;" xml:space="preserve">
<style type="text/css">
	.st0{fill:#C3E8F5;}
</style>
<g>
	<path class="st0" d="M14.5,14.1c-2.4,0-6.7,1.2-6.7,3.5v5.7c0,1.4,1.2,2.6,2.5,2.8v3.5h0.7V18.9h-0.7v6.5c-1-0.2-1.8-1.2-1.8-2.1
		v-5.7c0-1.7,3.9-2.8,6-2.8c2.1,0,6,1.1,6,2.8v5.7c0,0.9-0.8,1.9-1.8,2.1v-6.5H18v10.7h0.7v-3.5c1.3-0.2,2.5-1.5,2.5-2.8v-5.7
		C21.2,15.2,16.9,14.1,14.5,14.1"/>
	<path class="st0" d="M22.8,16c-0.2,0-0.4,0-0.7,0l0.1,0.7c0.2,0,0.4,0,0.6,0c1.8,0,5.3,1,5.3,2.8v5.7c0,0.9-0.9,1.4-1.8,1.5v-5.9
		h-0.7v8.8h0.7v-2.2c1.3-0.1,2.5-0.9,2.5-2.2v-5.7C28.8,17.1,24.9,16,22.8,16"/>
	<path class="st0" d="M11.7,10.3c0,1.5,1.2,2.6,2.9,2.6s2.9-1.1,2.9-2.6V9.1c0-1.5-1.2-2.6-2.9-2.6s-2.9,1.1-2.9,2.6V10.3z
		 M12.4,9.1c0-1.1,0.9-1.9,2.2-1.9s2.2,0.8,2.2,1.9v1.1c0,1.1-0.9,1.9-2.2,1.9s-2.2-0.8-2.2-1.9V9.1z"/>
	<path class="st0" d="M26.3,12.2V11c0-1.5-1.2-2.6-2.9-2.6c-1.7,0-2.9,1.1-2.9,2.6v1.1c0,1.5,1.2,2.6,2.9,2.6
		C25.1,14.8,26.3,13.7,26.3,12.2 M21.2,12.2V11c0-1.1,0.9-1.9,2.2-1.9c1.3,0,2.2,0.8,2.2,1.9v1.1c0,1.1-0.9,1.9-2.2,1.9
		C22.1,14.1,21.2,13.3,21.2,12.2"/>
	<path class="st0" d="M0.3,19.5v5.7c0,1.3,1.2,2.1,2.5,2.2v2.2h0.7v-8.8H2.8v5.9C1.9,26.6,1,26.1,1,25.2v-5.7c0-1.8,3.5-2.8,5.3-2.8
		c0.2,0,0.4,0,0.6,0L7,16c-0.2,0-0.5,0-0.7,0C4.2,16,0.3,17.1,0.3,19.5"/>
	<path class="st0" d="M8.6,11c0-1.5-1.2-2.6-2.9-2.6S2.8,9.5,2.8,11v1.1c0,1.5,1.2,2.6,2.9,2.6s2.9-1.1,2.9-2.6V11z M7.9,12.2
		c0,1.1-0.9,1.9-2.2,1.9s-2.2-0.8-2.2-1.9V11c0-1.1,0.9-1.9,2.2-1.9S7.9,9.9,7.9,11V12.2z"/>
	<path class="st0" d="M8.9,7.2c1.7,0,2.9-1.1,2.9-2.6V3.4c0-1.5-1.2-2.6-2.9-2.6S6,1.9,6,3.4v1.1C6,6.1,7.2,7.2,8.9,7.2 M6.7,3.4
		c0-1.1,0.9-1.9,2.2-1.9S11,2.3,11,3.4v1.1c0,1.1-0.9,1.9-2.2,1.9S6.7,5.7,6.7,4.6V3.4z"/>
	<path class="st0" d="M20.2,7.2c1.7,0,2.9-1.1,2.9-2.6V3.4c0-1.5-1.2-2.6-2.9-2.6c-1.7,0-2.9,1.1-2.9,2.6v1.1
		C17.3,6.1,18.6,7.2,20.2,7.2 M18.1,3.4c0-1.1,0.9-1.9,2.2-1.9c1.3,0,2.2,0.8,2.2,1.9v1.1c0,1.1-0.9,1.9-2.2,1.9
		c-1.3,0-2.2-0.8-2.2-1.9V3.4z"/>
</g>
</svg>
