<?xml version="1.0" encoding="utf-8"?>
<!-- Generator: Adobe Illustrator 25.4.1, SVG Export Plug-In . SVG Version: 6.00 Build 0)  -->
<svg version="1.1" id="Layer_1" xmlns="http://www.w3.org/2000/svg" xmlns:xlink="http://www.w3.org/1999/xlink" x="0px" y="0px"
	 width="21.8px" height="21.4px" viewBox="0 0 21.8 21.4" style="enable-background:new 0 0 21.8 21.4;" xml:space="preserve">
<style type="text/css">
	.st0{fill:#C3E8F5;}
	.st1{fill:none;stroke:#049FDA;stroke-width:0.25;stroke-miterlimit:10;}
</style>
<g>
	<path class="st0" d="M19.5,16.1c0.6,0.7,1,4,1,4.7c0,0,0,0.1,0.1,0.1c0,0,0.1,0,0.1-0.1c0-0.7-0.5-4.1-1-4.8L19.5,16.1
		c-0.1-0.4-0.8-0.7-2.1-1.3l0,0c-0.3-0.1-0.5-0.3-0.8-0.4l0,0l0,0c-0.3-0.6-0.8-0.8-1.3-0.9l0,0L13.4,13l0,0
		c-0.1-0.1-0.6-0.5-0.6-0.9v-0.8l0.1-0.1c0.6-0.5,1.1-1.4,1.3-2.4l0-0.1l0.1,0c0.2-0.1,0.8-0.4,0.8-1.5c0-0.4-0.1-0.6-0.2-0.8l0-0.1
		l0-0.1c0.2-0.6,0.2-1.2,0.2-1.8c0-0.6-0.1-1.5-0.5-2.1l-0.1-0.1l0.1-0.1C15,1.6,14.9,1,14.9,1c0,0,0-0.1-0.1-0.1
		c-0.1,0-1,0.1-2.1-0.2l0,0c-0.6-0.3-1.3-0.4-2.1-0.4c-1.5,0-2.4,0.3-3,1.2l0,0l0,0C6.9,1.9,6.2,2.8,6.2,4.1c0,1.4,0,1.6,0.2,2.1
		l0,0.1l0,0.1C6.3,6.5,6.2,6.7,6.2,7.1c0,1.1,0.6,1.4,0.8,1.5l0.1,0l0,0.1c0.2,1.1,0.7,1.9,1.3,2.4l0.1,0.1V12
		c0,0.5-0.4,0.8-0.6,0.9l0,0l-0.1,0c-0.8,0-1.5,0.3-2,0.8l0,0l0,0c-0.7,0.4-1.4,0.7-1.9,1c-1.2,0.6-1.9,1-2.2,1.2
		c-0.6,0.7-1,4.1-1,4.8c0,0,0,0.1,0.1,0.1c0,0,0.1,0,0.1-0.1c0-0.7,0.5-4.1,1-4.7c0.2-0.3,0.9-0.6,2.1-1.2l0,0
		c0.4-0.2,0.8-0.4,1.2-0.6l0.5-0.2l-0.2,0.5c-0.2,0.4-0.2,0.8-0.3,1.3l0,0.2L5,16c-1.1,0.1-1.9,1-1.9,2.1v2.7c0,0,0,0.1,0.1,0.1h0.7
		c0,0,0.1,0,0.1-0.1s0-0.1-0.1-0.1H3.2v-2.7c0-1.1,0.9-2,2-2c1.1,0,2,0.9,2,2v2.7H6.6c0,0-0.1,0-0.1,0.1s0,0.1,0.1,0.1h0.7
		c0,0,0.1,0,0.1-0.1v-2.7c0-1.1-0.8-2-1.9-2.1l-0.2,0l0-0.2c0-0.5,0.2-1.3,0.6-1.9l0,0l0.2-0.1l1.7-0.7l0,0.3c0,1,0.2,3.9,1,7.5
		c0,0,0,0.1,0.1,0c0,0,0,0,0,0c0,0,0,0,0,0c-0.9-4.1-1-7.1-1-7.7l0-0.1L8.1,13c0.2-0.1,0.6-0.5,0.6-1v-0.7L9,11.5
		c0,0,0.1,0.1,0.1,0.1c0.3,0.2,0.6,0.5,1.6,0.5c0.9,0,1.2-0.2,1.6-0.4c0,0,0.1-0.1,0.1-0.1l0.3-0.2V12c0,0.5,0.4,0.9,0.6,1l0.1,0.1
		l0,0.1c0,0.6-0.1,3.6-1,7.7c0,0,0,0,0,0c0,0,0,0,0,0c0,0,0.1,0,0.1,0c0.8-3.7,1-6.5,1-7.5l0-0.2l1.6,0.5l0.6,2.5l-0.9,1.2l-0.7-0.5
		c0,0,0,0,0,0c0,0,0,0,0,0c0,0,0,0,0,0c0,0,0,0,0,0l1.3,1l0,0.1c-0.2,0.5-0.7,2.2-1,2.9c0,0,0,0.1,0,0.1c0,0,0.1,0,0.1,0
		c0.3-0.8,1-3.1,1-3.1c0,0,0-0.1,0-0.1l-0.6-0.4l0.9-1.2c0,0,0,0,0-0.1l-0.6-2.2l0.4,0.2c0.2,0.1,0.5,0.3,0.7,0.4l0.1,0l0,0.1
		c0.6,1.1,0.6,2.8,0.6,4.1v0.2l-0.2,0c-0.5,0.1-0.9,0.6-0.9,1.1c0,0.6,0.5,1.1,1.1,1.1c0.6,0,1.1-0.5,1.1-1.1c0-0.5-0.4-1-0.9-1.1
		l-0.2,0v-0.2c0-1,0-2.5-0.4-3.6l-0.1-0.4l0.7,0.3C18.6,15.5,19.3,15.9,19.5,16.1 M6.3,4.1C6.3,2.9,7,2,7.7,1.7c0,0,0,0,0,0
		c0.4-0.6,1-1.2,2.9-1.2c0.7,0,1.4,0.1,2,0.4c0,0,0,0,0,0l0,0c0.8,0.2,1.5,0.2,1.8,0.2l0.2,0l0,0.2c0,0.2-0.1,0.6-0.3,0.9
		c0,0,0,0.1,0,0.1c0.4,0.5,0.6,1.5,0.6,2.2c0,0.5,0,1-0.1,1.6l0,0.2l-0.2-0.1C14.4,6,14.2,5.7,14,5.3c-0.3-0.6-0.7-1.4-1.8-1.4
		c-0.1,0-0.3,0-0.6,0.1c-0.8,0.1-2.1,0.3-3.1-0.6c0,0,0,0-0.1,0c0,0,0,0,0,0C8,4.8,7.4,5.6,6.7,6L6.5,6.2L6.4,5.9
		C6.3,5.6,6.3,5.2,6.3,4.1 M12.7,11.1C12.7,11.1,12.7,11.2,12.7,11.1L12.7,11.1c-0.1,0.1-0.2,0.1-0.3,0.2c-0.1,0.1-0.2,0.1-0.3,0.2
		c-0.3,0.2-0.6,0.4-1.5,0.4c-0.9,0-1.2-0.2-1.5-0.4c-0.1-0.1-0.2-0.1-0.3-0.2c-0.1,0-0.2-0.1-0.2-0.2l0,0c0,0,0,0,0,0l0,0
		c-0.9-0.7-1.2-1.8-1.4-2.6c0,0,0,0-0.1-0.1c0,0-0.9-0.1-0.9-1.4c0-0.4,0.1-0.7,0.2-0.8l0,0c0,0,0,0,0,0l0,0l0,0
		C7.4,5.9,8,5.1,8.5,3.8l0.1-0.2l0.2,0.1c0.9,0.7,2.1,0.5,2.9,0.4C12,4.1,12.1,4,12.3,4c1,0,1.3,0.7,1.7,1.3
		c0.2,0.4,0.4,0.8,0.8,0.9l0.1,0l0,0.1c0.1,0.1,0.2,0.3,0.2,0.8c0,1.3-0.8,1.4-0.9,1.4c0,0-0.1,0-0.1,0.1
		C14,9.4,13.6,10.4,12.7,11.1L12.7,11.1z M18.1,19.9c0,0.5-0.4,1-1,1c-0.5,0-1-0.4-1-1c0-0.5,0.4-1,1-1
		C17.7,18.9,18.1,19.3,18.1,19.9"/>
	<path class="st1" d="M19.5,16.1c0.6,0.7,1,4,1,4.7c0,0,0,0.1,0.1,0.1c0,0,0.1,0,0.1-0.1c0-0.7-0.5-4.1-1-4.8L19.5,16.1
		c-0.1-0.4-0.8-0.7-2.1-1.3l0,0c-0.3-0.1-0.5-0.3-0.8-0.4l0,0l0,0c-0.3-0.6-0.8-0.8-1.3-0.9l0,0L13.4,13l0,0
		c-0.1-0.1-0.6-0.5-0.6-0.9v-0.8l0.1-0.1c0.6-0.5,1.1-1.4,1.3-2.4l0-0.1l0.1,0c0.2-0.1,0.8-0.4,0.8-1.5c0-0.4-0.1-0.6-0.2-0.8l0-0.1
		l0-0.1c0.2-0.6,0.2-1.2,0.2-1.8c0-0.6-0.1-1.5-0.5-2.1l-0.1-0.1l0.1-0.1C15,1.6,14.9,1,14.9,1c0,0,0-0.1-0.1-0.1
		c-0.1,0-1,0.1-2.1-0.2l0,0c-0.6-0.3-1.3-0.4-2.1-0.4c-1.5,0-2.4,0.3-3,1.2l0,0l0,0C6.9,1.9,6.2,2.8,6.2,4.1c0,1.4,0,1.6,0.2,2.1
		l0,0.1l0,0.1C6.3,6.5,6.2,6.7,6.2,7.1c0,1.1,0.6,1.4,0.8,1.5l0.1,0l0,0.1c0.2,1.1,0.7,1.9,1.3,2.4l0.1,0.1V12
		c0,0.5-0.4,0.8-0.6,0.9l0,0l-0.1,0c-0.8,0-1.5,0.3-2,0.8l0,0l0,0c-0.7,0.4-1.4,0.7-1.9,1c-1.2,0.6-1.9,1-2.2,1.2
		c-0.6,0.7-1,4.1-1,4.8c0,0,0,0.1,0.1,0.1c0,0,0.1,0,0.1-0.1c0-0.7,0.5-4.1,1-4.7c0.2-0.3,0.9-0.6,2.1-1.2l0,0
		c0.4-0.2,0.8-0.4,1.2-0.6l0.5-0.2l-0.2,0.5c-0.2,0.4-0.2,0.8-0.3,1.3l0,0.2L5,16c-1.1,0.1-1.9,1-1.9,2.1v2.7c0,0,0,0.1,0.1,0.1h0.7
		c0,0,0.1,0,0.1-0.1s0-0.1-0.1-0.1H3.2v-2.7c0-1.1,0.9-2,2-2c1.1,0,2,0.9,2,2v2.7H6.6c0,0-0.1,0-0.1,0.1s0,0.1,0.1,0.1h0.7
		c0,0,0.1,0,0.1-0.1v-2.7c0-1.1-0.8-2-1.9-2.1l-0.2,0l0-0.2c0-0.5,0.2-1.3,0.6-1.9l0,0l0.2-0.1l1.7-0.7l0,0.3c0,1,0.2,3.9,1,7.5
		c0,0,0,0.1,0.1,0c0,0,0,0,0,0c0,0,0,0,0,0c-0.9-4.1-1-7.1-1-7.7l0-0.1L8.1,13c0.2-0.1,0.6-0.5,0.6-1v-0.7L9,11.5
		c0,0,0.1,0.1,0.1,0.1c0.3,0.2,0.6,0.5,1.6,0.5c0.9,0,1.2-0.2,1.6-0.4c0,0,0.1-0.1,0.1-0.1l0.3-0.2V12c0,0.5,0.4,0.9,0.6,1l0.1,0.1
		l0,0.1c0,0.6-0.1,3.6-1,7.7c0,0,0,0,0,0c0,0,0,0,0,0c0,0,0.1,0,0.1,0c0.8-3.7,1-6.5,1-7.5l0-0.2l1.6,0.5l0.6,2.5l-0.9,1.2l-0.7-0.5
		c0,0,0,0,0,0c0,0,0,0,0,0c0,0,0,0,0,0c0,0,0,0,0,0l1.3,1l0,0.1c-0.2,0.5-0.7,2.2-1,2.9c0,0,0,0.1,0,0.1c0,0,0.1,0,0.1,0
		c0.3-0.8,1-3.1,1-3.1c0,0,0-0.1,0-0.1l-0.6-0.4l0.9-1.2c0,0,0,0,0-0.1l-0.6-2.2l0.4,0.2c0.2,0.1,0.5,0.3,0.7,0.4l0.1,0l0,0.1
		c0.6,1.1,0.6,2.8,0.6,4.1v0.2l-0.2,0c-0.5,0.1-0.9,0.6-0.9,1.1c0,0.6,0.5,1.1,1.1,1.1c0.6,0,1.1-0.5,1.1-1.1c0-0.5-0.4-1-0.9-1.1
		l-0.2,0v-0.2c0-1,0-2.5-0.4-3.6l-0.1-0.4l0.7,0.3C18.6,15.5,19.3,15.9,19.5,16.1z M6.3,4.1C6.3,2.9,7,2,7.7,1.7c0,0,0,0,0,0
		c0.4-0.6,1-1.2,2.9-1.2c0.7,0,1.4,0.1,2,0.4c0,0,0,0,0,0l0,0c0.8,0.2,1.5,0.2,1.8,0.2l0.2,0l0,0.2c0,0.2-0.1,0.6-0.3,0.9
		c0,0,0,0.1,0,0.1c0.4,0.5,0.6,1.5,0.6,2.2c0,0.5,0,1-0.1,1.6l0,0.2l-0.2-0.1C14.4,6,14.2,5.7,14,5.3c-0.3-0.6-0.7-1.4-1.8-1.4
		c-0.1,0-0.3,0-0.6,0.1c-0.8,0.1-2.1,0.3-3.1-0.6c0,0,0,0-0.1,0c0,0,0,0,0,0C8,4.8,7.4,5.6,6.7,6L6.5,6.2L6.4,5.9
		C6.3,5.6,6.3,5.2,6.3,4.1z M12.7,11.1C12.7,11.1,12.7,11.2,12.7,11.1L12.7,11.1c-0.1,0.1-0.2,0.1-0.3,0.2c-0.1,0.1-0.2,0.1-0.3,0.2
		c-0.3,0.2-0.6,0.4-1.5,0.4c-0.9,0-1.2-0.2-1.5-0.4c-0.1-0.1-0.2-0.1-0.3-0.2c-0.1,0-0.2-0.1-0.2-0.2l0,0c0,0,0,0,0,0l0,0
		c-0.9-0.7-1.2-1.8-1.4-2.6c0,0,0,0-0.1-0.1c0,0-0.9-0.1-0.9-1.4c0-0.4,0.1-0.7,0.2-0.8l0,0c0,0,0,0,0,0l0,0l0,0
		C7.4,5.9,8,5.1,8.5,3.8l0.1-0.2l0.2,0.1c0.9,0.7,2.1,0.5,2.9,0.4C12,4.1,12.1,4,12.3,4c1,0,1.3,0.7,1.7,1.3
		c0.2,0.4,0.4,0.8,0.8,0.9l0.1,0l0,0.1c0.1,0.1,0.2,0.3,0.2,0.8c0,1.3-0.8,1.4-0.9,1.4c0,0-0.1,0-0.1,0.1
		C14,9.4,13.6,10.4,12.7,11.1L12.7,11.1z M18.1,19.9c0,0.5-0.4,1-1,1c-0.5,0-1-0.4-1-1c0-0.5,0.4-1,1-1
		C17.7,18.9,18.1,19.3,18.1,19.9z"/>
</g>
</svg>
