<?xml version="1.0" encoding="utf-8"?>
<!-- Generator: Adobe Illustrator 23.0.5, SVG Export Plug-In . SVG Version: 6.00 Build 0)  -->
<svg version="1.1" id="Layer_1" xmlns="http://www.w3.org/2000/svg" xmlns:xlink="http://www.w3.org/1999/xlink" x="0px" y="0px"
	 width="55.6px" height="48.8px" viewBox="0 0 55.6 48.8" style="enable-background:new 0 0 55.6 48.8;" xml:space="preserve">
<style type="text/css">
	.st0{fill:#422963;}
	.st1{opacity:0.3;fill:#CE116C;}
</style>
<g>
	<path class="st0" d="M42.3,31.8c-2,0-3.6-1.6-3.6-3.6s1.6-3.6,3.6-3.6s3.6,1.6,3.6,3.6S44.3,31.8,42.3,31.8 M42.3,25.9
		c-1.3,0-2.3,1-2.3,2.3s1,2.3,2.3,2.3s2.3-1,2.3-2.3C44.6,27,43.6,25.9,42.3,25.9"/>
	<path class="st0" d="M44.9,41c-0.2,0-0.3-0.1-0.4-0.2l-2.1-2.1l-2.1,2.1c-0.2,0.2-0.5,0.2-0.7,0.1c-0.2-0.1-0.4-0.3-0.4-0.6v-5.9
		c0-0.3,0.3-0.6,0.6-0.6c0.3,0,0.6,0.3,0.6,0.6v4.4l1.4-1.4c0.2-0.2,0.6-0.2,0.9,0l1.4,1.4v-4.4c0-0.3,0.3-0.6,0.6-0.6
		s0.6,0.3,0.6,0.6v5.9c0,0.3-0.2,0.5-0.4,0.6C45,41,44.9,41,44.9,41"/>
	<path class="st0" d="M54.9,37.7h-7.5c-0.3,0-0.6-0.3-0.6-0.6s0.3-0.6,0.6-0.6h6.9V6c0-1.5-1.2-2.7-2.7-2.7C51.3,3.3,51,3,51,2.7
		s0.3-0.6,0.6-0.6c2.2,0,4,1.8,4,4V37C55.6,37.4,55.3,37.7,54.9,37.7"/>
	<path class="st0" d="M37.3,37.7h-7.6c-0.3,0-0.6-0.3-0.6-0.6V10.2c0-0.3,0.3-0.6,0.6-0.6c0.4,0,0.7,0.2,0.7,0.6v26.2h6.9
		c0.3,0,0.6,0.3,0.6,0.6C37.9,37.4,37.6,37.7,37.3,37.7"/>
	<path class="st0" d="M48.2,8.3H23c-0.3,0-0.6-0.3-0.6-0.6V6c0-2.2,1.8-4,4-4h25.3c0.3,0,0.6,0.3,0.6,0.6S52,3.2,51.7,3.2h-0.1
		c-1.5,0-2.7,1.2-2.7,2.7v1.7C48.8,8,48.6,8.3,48.2,8.3 M23.7,7h23.9V6c0-1.1,0.4-2,1.1-2.7H26.4c-1.5,0-2.7,1.2-2.7,2.7V7z"/>
	<path class="st0" d="M39.9,35.6c-0.2,0-0.4,0-0.6-0.1c-0.4-0.2-0.7-0.5-0.8-0.8l-0.7-1.9L35.9,32c-0.4-0.1-0.7-0.4-0.8-0.8
		c-0.2-0.4-0.1-0.8,0-1.1l0.8-1.8l-0.8-1.8c-0.2-0.4-0.2-0.8,0-1.1c0.2-0.4,0.5-0.7,0.8-0.8l1.9-0.7l0.7-1.9
		c0.1-0.4,0.4-0.7,0.8-0.8c0.4-0.2,0.8-0.1,1.1,0l1.8,0.8l1.8-0.8c0.4-0.2,0.8-0.2,1.1,0c0.4,0.2,0.7,0.5,0.8,0.8l0.7,1.9l1.9,0.7
		c0.4,0.1,0.7,0.4,0.8,0.8c0.2,0.4,0.1,0.8,0,1.1l-0.8,1.8l0.8,1.8c0.2,0.4,0.2,0.8,0,1.1c-0.2,0.4-0.5,0.7-0.8,0.8l-1.9,0.7
		l-0.7,1.9c-0.1,0.4-0.4,0.7-0.8,0.8c-0.4,0.2-0.8,0.1-1.1,0l-1.8-0.8l-1.8,0.8C40.3,35.5,40.1,35.6,39.9,35.6 M39.7,22.3l-0.8,2.2
		c-0.1,0.2-0.2,0.3-0.4,0.4l-2.1,0.7l-0.1,0.1v0.1l1,2.1c0.1,0.2,0.1,0.4,0,0.5l-1,2.1v0.1l0.1,0.1l2.2,0.8c0.2,0.1,0.3,0.2,0.4,0.4
		l0.8,2.2l0.1,0.1H40l2.1-1c0.2-0.1,0.4-0.1,0.5,0l2.1,1h0.1l0.1-0.1l0.8-2.2c0.1-0.2,0.2-0.3,0.4-0.4l2.2-0.8l0.1-0.1v-0.1l-1-2.1
		c0-0.1,0-0.3,0-0.4l1-2.1v-0.1l-0.1-0.1l-2.2-0.8c-0.2-0.1-0.3-0.2-0.4-0.4l-0.8-2.2l-0.1-0.1h-0.1l-2.1,1c-0.2,0.1-0.4,0.1-0.5,0
		l-2.1-1h-0.1C39.8,22.2,39.7,22.2,39.7,22.3 M38.3,24.2L38.3,24.2L38.3,24.2z"/>
	<path class="st0" d="M50.7,13.3H33.9c-0.3,0-0.6-0.3-0.6-0.6s0.3-0.6,0.6-0.6h16.8c0.3,0,0.6,0.3,0.6,0.6
		C51.4,13,51.1,13.3,50.7,13.3"/>
	<path class="st0" d="M46.5,16.7h-8.4c-0.3,0-0.6-0.3-0.6-0.6c0-0.3,0.3-0.6,0.6-0.6h8.4c0.3,0,0.6,0.3,0.6,0.6
		C47.2,16.4,46.9,16.7,46.5,16.7"/>
</g>
<circle class="st1" cx="22.4" cy="24.2" r="22.4"/>
</svg>
