<?xml version="1.0" encoding="utf-8"?>
<!-- Generator: Adobe Illustrator 25.4.1, SVG Export Plug-In . SVG Version: 6.00 Build 0)  -->
<svg version="1.1" id="Layer_1" xmlns="http://www.w3.org/2000/svg" xmlns:xlink="http://www.w3.org/1999/xlink" x="0px" y="0px"
	 width="63.9px" height="54.2px" viewBox="0 0 63.9 54.2" style="enable-background:new 0 0 63.9 54.2;" xml:space="preserve">
<style type="text/css">
	.st0{fill:#C3E8F5;}
</style>
<g>
	<path class="st0" d="M50.4,28.1c0-2.9-2.4-5.3-5.3-5.3s-5.3,2.4-5.3,5.3c0,2.7,2,4.9,4.5,5.3v11.1c0,2.1-0.8,4.1-2.3,5.5
		c-1.5,1.5-3.4,2.3-5.5,2.3c-4.3,0-7.8-3.5-7.8-7.8V32.6h2.5c0.3,0,0.6-0.2,0.7-0.5l3.3-7.2c1.2-0.8,7-4.8,7-10.3
		c0-4.8-2.6-8-3.6-9.2c0.2-0.5,0.4-1,0.4-1.5c0-2-1.6-3.6-3.6-3.6c-2,0-3.6,1.6-3.6,3.6c0,2,1.6,3.6,3.6,3.6c0.9,0,1.6-0.3,2.3-0.8
		c1,1.1,3.1,3.9,3.1,7.9c0,4.6-5.2,8.3-6.2,8.9l-13,0l0,0c-1-0.7-6.2-4.3-6.2-8.9c0-4,2.1-6.8,3.1-7.9c0.6,0.5,1.4,0.8,2.3,0.8
		c2,0,3.6-1.6,3.6-3.6c0-2-1.6-3.6-3.6-3.6c-2,0-3.6,1.6-3.6,3.6c0,0.6,0.1,1.1,0.4,1.5c-1.1,1.2-3.7,4.4-3.7,9.2
		c0,5.5,5.8,9.6,7,10.3l3.3,7.2c0.1,0.3,0.4,0.5,0.7,0.5h2.5v11.9c0,5.2,4.2,9.4,9.4,9.4c2.5,0,4.9-1,6.7-2.8
		c1.7-1.7,2.7-4.2,2.7-6.6V33.4C48.4,33,50.4,30.8,50.4,28.1 M45.1,31.8c-2.1,0-3.7-1.7-3.7-3.7c0-2.1,1.7-3.7,3.7-3.7
		s3.7,1.7,3.7,3.7C48.8,30.1,47.1,31.8,45.1,31.8 M25.1,31l-2.7-5.8h10.9L30.6,31H25.1z M37,5C36.9,5,36.9,5,37,5
		C36.9,5,36.9,5,37,5c-0.4,0.5-1,0.9-1.7,0.9c-1.1,0-2-0.9-2-2c0-1.1,0.9-2,2-2c1.1,0,2,0.9,2,2C37.3,4.3,37.2,4.7,37,5 M18.4,3.9
		c0-1.1,0.9-2,2-2c1.1,0,2,0.9,2,2c0,1.1-0.9,2-2,2c-0.7,0-1.3-0.3-1.7-0.9c0,0,0,0,0,0c0,0,0,0,0,0C18.6,4.7,18.4,4.3,18.4,3.9"/>
</g>
</svg>
