<?xml version="1.0" encoding="utf-8"?>
<!-- Generator: Adobe Illustrator 23.0.5, SVG Export Plug-In . SVG Version: 6.00 Build 0)  -->
<svg version="1.1" id="Layer_1" xmlns="http://www.w3.org/2000/svg" xmlns:xlink="http://www.w3.org/1999/xlink" x="0px" y="0px"
	 width="64.4px" height="54.2px" viewBox="0 0 64.4 54.2" style="enable-background:new 0 0 64.4 54.2;" xml:space="preserve">
<style type="text/css">
	.st0{fill:#2866AB;}
	.st1{opacity:0.3;fill:#CE116C;}
</style>
<g>
	<path class="st0" d="M42.1,43.8c-1-0.3-2-0.6-3.1-0.8c-1.8-0.4-3.5-0.9-4.3-1.5c-2.5-1.8-3.5-6.5-2.8-13.6
		c0.9-9.6,1.2-22.5,1.2-22.6c0-0.2-0.1-0.4-0.2-0.5c-0.1-0.1-0.3-0.2-0.5-0.2s-0.4,0-0.5,0.2c-0.1,0.1-0.2,0.3-0.2,0.5
		c0,0.1-0.3,13-1.2,22.5c-0.7,7.6,0.5,12.7,3.4,14.8c1.1,0.8,2.9,1.2,4.8,1.7c1,0.3,2,0.5,2.9,0.8c2,0.7,2.7,1.5,2.7,1.8
		c0,0.2-0.4,0.5-1.2,0.7c-2.7,0.6-12.4,1.2-17-0.1c-1-0.3-1.7-0.7-1.9-1.2c-0.4-0.8,0.3-2.2,1-3.6c1.7-3.3-0.3-9.5-1.5-12
		c-4.1-8.5-4.8-17-1.9-25.2c0.1-0.4-0.1-0.7-0.4-0.9C21,4.5,20.7,4.7,20.5,5c-3,8.6-2.3,17.4,2,26.2c1.2,2.5,2.9,8.2,1.5,10.8
		c-1,2-1.6,3.5-1,4.8c0.4,0.9,1.3,1.5,2.8,1.9c2.4,0.6,5.8,0.8,8.2,0.8c4.1,0,7.9-0.4,9.4-0.7c1.9-0.4,2.2-1.4,2.3-1.9
		C45.8,45.7,44.4,44.6,42.1,43.8"/>
	<path class="st0" d="M21.6,12.2c0,0.3,0,7.5,3.5,12.4c0.4,1.8,1,3.4,1.7,4.6C29,33,29,37.7,28.6,40.9c-0.2,1.9-1.5,3.9-1.6,4.2
		c-0.1,0.2-0.1,0.3-0.1,0.5s0.1,0.3,0.3,0.4c0.3,0.2,0.7,0.1,0.9-0.2c0,0,0.7-1.1,1.2-2.5c0.7,1.2,2.1,2.8,5,3.2h0.1
		c0.3,0,0.6-0.2,0.7-0.6c0.1-0.4-0.2-0.7-0.6-0.8c-4.2-0.6-4.6-3.8-4.6-4.1c0.4-3.4,0.4-8.3-1.9-12.5s-2.7-11.9-2.6-16.9
		c0.7,1.4,1.5,3.3,1.8,5.3c0.2,1.3,0.2,2.6,0.2,3.9c0,2.5,0,4.9,1.5,7.2c0.2,0.3,0.6,0.4,0.9,0.2c0.3-0.2,0.4-0.6,0.2-0.9
		c-1.3-1.9-1.3-4.1-1.3-6.5c0-1.3,0-2.7-0.2-4.1C27.9,13,25.9,9.8,25.3,9c0.1-1.3,0.1-2.2,0.1-2.3c0-0.2,0-0.4-0.2-0.5
		C25.2,6.1,25,6,24.8,6s-0.4,0-0.5,0.2c-0.1,0.1-0.2,0.3-0.2,0.5c0,0.3-0.6,6.9,0.2,13.4c-1.3-3.8-1.4-7.7-1.4-7.8
		c0-0.4-0.3-0.7-0.7-0.7C21.9,11.5,21.6,11.8,21.6,12.2"/>
</g>
<circle class="st1" cx="22.4" cy="25" r="22.4"/>
</svg>
