<?xml version="1.0" encoding="utf-8"?>
<!-- Generator: Adobe Illustrator 25.4.1, SVG Export Plug-In . SVG Version: 6.00 Build 0)  -->
<svg version="1.1" id="Layer_1" xmlns="http://www.w3.org/2000/svg" xmlns:xlink="http://www.w3.org/1999/xlink" x="0px" y="0px"
	 width="63.9px" height="54.2px" viewBox="0 0 63.9 54.2" style="enable-background:new 0 0 63.9 54.2;" xml:space="preserve">
<style type="text/css">
	.st0{fill:#666666;}
</style>
<g>
	<path class="st0" d="M52,1.6H39.8c-0.3,0-0.6,0.3-0.6,0.6s0.3,0.6,0.6,0.6h4.6v12.8h-3.2c-0.3,0-0.6,0.3-0.6,0.6v11.5
		c0,0.3,0.3,0.6,0.6,0.6h3.2v1.3H44c-0.3,0-0.6,0.3-0.6,0.6V34c0,0.3,0.3,0.6,0.6,0.6h0.4v10.6c0,0.9-0.5,1.6-1.3,1.9
		c0-0.2,0-0.5,0-0.7v-4c0-2-1.1-3.9-2.7-4.9v-0.4c0-1.1-0.8-2-1.9-2.6c0,0,0,0,0-0.1V17c0-0.3-0.3-0.6-0.6-0.6h-3.3
		c-0.3,0-0.6,0.3-0.6,0.6v4.7h-3c0.4-1,0.6-2,0.6-3.2v-0.3c0.9-0.2,1.6-0.9,1.8-1.9c0.2-0.9,0-1.7-0.6-2.3v-3.6
		c-0.3-4.4-4.2-7.8-8.7-7.8c-4.1,0-7.7,2.9-8.5,6.8v0.1l0,0c-0.1,0.3-0.1,0.6-0.1,1v3.6c-0.6,0.6-0.8,1.5-0.6,2.3
		c0.2,1,0.9,1.7,1.9,1.9v0.3c0,1.2,0.2,2.2,0.6,3.2h-3.1V17c0-0.3-0.3-0.6-0.6-0.6h-3.3c-0.3,0-0.6,0.3-0.6,0.6v19.6
		c-2.6,0.7-4.5,3-4.5,5.8v4c0,3.3,2.7,6,6,6h25.8c2.6,0,4.8-1.7,5.7-4l0,0c1.6-0.2,2.8-1.5,2.8-3.1V34.5H46c0.3,0,0.6-0.3,0.6-0.6
		v-3.8c0-0.3-0.3-0.6-0.6-0.6h-0.4v-1.3h3.2c0.3,0,0.6-0.3,0.6-0.6V16.2c0-0.3-0.3-0.6-0.6-0.6h-3.2V2.8h5.8v48.9
		c0,0.3,0.3,0.6,0.6,0.6s0.6-0.3,0.6-0.6V2.2C52.6,1.8,52.4,1.6,52,1.6 M39.2,36.8c-0.4-0.2-0.8-0.3-1.3-0.3c-0.3,0-0.5-0.1-0.8-0.1
		h-1.5v-1.8C37,34.8,38.9,35.8,39.2,36.8 M14,36.4v-3.9c0-0.4,0-0.7,0.1-1c0.7-2.3,3.5-3.5,5.2-4c0.7,2,2.6,3.4,4.9,3.4
		s4.2-1.4,4.9-3.4c1.7,0.5,4.5,1.7,5.2,4c0.1,0.3,0.1,0.6,0.1,1v3.9H14z M24.2,3.7c3.9,0,7.2,2.9,7.5,6.7v0.2L17.1,8.9
		C18,5.9,20.9,3.7,24.2,3.7 M16.1,16c-0.1-0.5,0-1.2,0.7-1.5c0.3-0.1,0.4-0.4,0.3-0.7c0-0.2-0.2-0.4-0.4-0.4v-3c0-0.1,0-0.2,0-0.3
		l14.9,1.7v1.6c-0.2,0.1-0.3,0.2-0.4,0.4c-0.1,0.3,0.1,0.6,0.3,0.7c0.6,0.3,0.8,1,0.7,1.5c-0.1,0.2-0.3,1-1.3,1
		c-0.3,0-0.6,0.3-0.6,0.6v0.8c0,1.3-0.3,2.5-0.9,3.5c-1.1,1.7-3,2.7-5.3,2.7l0,0l0,0c-1.7,0-3.4-0.6-4.5-1.8
		c-1.1-1.1-1.7-2.6-1.7-4.4v-0.8c0-0.3-0.3-0.6-0.6-0.6C16.5,17,16.2,16.2,16.1,16 M11.1,17.6h2.1v4.7c0,0.3,0.3,0.6,0.6,0.6h4.4
		c0.2,0.3,0.5,0.6,0.7,0.9c1.4,1.3,3.3,2.1,5.4,2.1l0,0c2.5,0,4.8-1.1,6.1-3c0.1,0,0.1,0,0.2,0h4.1c0.3,0,0.6-0.3,0.6-0.6v-4.7h2.1
		v16.3c-0.6-0.2-1.2-0.4-1.7-0.5v-0.9c0-0.5-0.1-0.9-0.2-1.3c-0.9-3.2-4.9-4.5-6.6-5c-0.2,0-0.3,0-0.5,0.1c-0.1,0.1-0.2,0.2-0.3,0.4
		c-0.3,1.7-2,3-3.9,3s-3.5-1.3-3.9-3c0-0.2-0.1-0.3-0.3-0.4c-0.1-0.1-0.3-0.1-0.5-0.1c-1.7,0.4-5.7,1.8-6.6,5
		c-0.1,0.4-0.2,0.8-0.2,1.3v3.9h-1.5c-0.1,0-0.2,0-0.3,0V17.6H11.1z M41.9,46.3c0,2.6-2.2,4.8-4.8,4.8H11.4c-2.6,0-4.8-2.2-4.8-4.8
		v-4c0-2.6,2.2-4.8,4.8-4.8h25.8c0.2,0,0.4,0,0.6,0c2.4,0.3,4.2,2.4,4.2,4.8L41.9,46.3L41.9,46.3z M45.4,33.3h-0.7v-2.6h0.7V33.3z
		 M41.8,22.2h6.4V27h-6.4V22.2z M48.2,21h-6.4v-4.2h6.4V21z"/>
	<path class="st0" d="M44.1,19.8H46c0.3,0,0.6-0.3,0.6-0.6c0-0.3-0.3-0.6-0.6-0.6h-1.9c-0.3,0-0.6,0.3-0.6,0.6
		C43.5,19.6,43.8,19.8,44.1,19.8"/>
	<path class="st0" d="M21.8,20.5c0,1.3,1.1,2.4,2.5,2.4c1.3,0,2.4-1,2.5-2.4c0-0.3-0.2-0.6-0.6-0.6c-0.3,0-0.6,0.2-0.6,0.6
		c0,0.7-0.6,1.2-1.3,1.2c-0.7,0-1.2-0.5-1.3-1.2c0-0.3-0.3-0.6-0.6-0.6C22,19.8,21.8,20.1,21.8,20.5"/>
	<path class="st0" d="M19.6,16.7c0.1,0,0.2,0,0.2,0c1.2-0.5,1.7-0.2,1.7-0.1c0.2,0.2,0.6,0.2,0.8,0c0.3-0.2,0.3-0.6,0.1-0.9
		c-0.1-0.1-1-1-3.1-0.2C19,15.6,18.8,16,19,16.3C19.2,16.5,19.4,16.7,19.6,16.7"/>
	<path class="st0" d="M26.4,16.7c0.2,0,0.3-0.1,0.4-0.2c0,0,0.5-0.4,1.7,0.1c0.3,0.1,0.7,0,0.8-0.3c0.1-0.3,0-0.7-0.3-0.8
		c-2.1-0.9-3,0.1-3.1,0.2c-0.2,0.3-0.2,0.6,0,0.9C26.2,16.6,26.3,16.7,26.4,16.7"/>
</g>
</svg>
